<?xml version="1.0" encoding="utf-8" standalone="no"?>
<!DOCTYPE svg PUBLIC "-//W3C//DTD SVG 1.1//EN"
  "http://www.w3.org/Graphics/SVG/1.1/DTD/svg11.dtd">
<svg xmlns:xlink="http://www.w3.org/1999/xlink" width="456.359187pt" height="377.39625pt" viewBox="0 0 456.359187 377.39625" xmlns="http://www.w3.org/2000/svg" version="1.1">
 <metadata>
  <rdf:RDF xmlns:dc="http://purl.org/dc/elements/1.1/" xmlns:cc="http://creativecommons.org/ns#" xmlns:rdf="http://www.w3.org/1999/02/22-rdf-syntax-ns#">
   <cc:Work>
    <dc:type rdf:resource="http://purl.org/dc/dcmitype/StillImage"/>
    <dc:date>2023-06-12T21:30:43.406145</dc:date>
    <dc:format>image/svg+xml</dc:format>
    <dc:creator>
     <cc:Agent>
      <dc:title>Matplotlib v3.6.0, https://matplotlib.org/</dc:title>
     </cc:Agent>
    </dc:creator>
   </cc:Work>
  </rdf:RDF>
 </metadata>
 <defs>
  <style type="text/css">*{stroke-linejoin: round; stroke-linecap: butt}</style>
 </defs>
 <g id="figure_1">
  <g id="patch_1">
   <path d="M 0 377.39625 
L 456.359187 377.39625 
L 456.359187 0 
L 0 0 
z
" style="fill: #ffffff"/>
  </g>
  <g id="axes_1">
   <g id="patch_2">
    <path d="M 10.7 339.84 
L 345.5 339.84 
L 345.5 7.2 
L 10.7 7.2 
z
" style="fill: #ffffff"/>
   </g>
   <g id="PolyCollection_1">
    <defs>
     <path id="m68314680f5" d="M 10.7 -37.55625 
L 10.7 -166.15823 
L 14.081818 -166.15823 
L 17.463636 -166.15823 
L 20.845455 -166.15823 
L 24.227273 -166.15823 
L 27.609091 -166.15823 
L 30.990909 -166.15823 
L 34.372727 -166.15823 
L 37.754545 -166.15823 
L 41.136364 -166.15823 
L 44.518182 -166.15823 
L 47.9 -166.15823 
L 51.281818 -166.15823 
L 54.663636 -166.15823 
L 58.045455 -166.15823 
L 61.427273 -166.15823 
L 64.809091 -166.15823 
L 68.190909 -166.15823 
L 71.572727 -166.15823 
L 74.954545 -166.15823 
L 78.336364 -166.15823 
L 81.718182 -166.15823 
L 85.1 -166.15823 
L 88.481818 -166.15823 
L 91.863636 -166.15823 
L 95.245455 -166.15823 
L 98.627273 -166.15823 
L 102.009091 -166.15823 
L 105.390909 -166.15823 
L 108.772727 -166.15823 
L 112.154545 -166.15823 
L 115.536364 -166.15823 
L 118.918182 -166.15823 
L 122.3 -166.15823 
L 125.681818 -166.15823 
L 129.063636 -166.15823 
L 132.445455 -166.15823 
L 135.827273 -166.15823 
L 139.209091 -166.15823 
L 142.590909 -166.15823 
L 145.972727 -166.15823 
L 149.354545 -173.999814 
L 152.736364 -173.999814 
L 156.118182 -181.841399 
L 159.5 -181.841399 
L 162.881818 -173.999814 
L 166.263636 -205.366151 
L 169.645455 -268.098824 
L 173.027273 -252.415656 
L 176.409091 -283.781993 
L 179.790909 -354.35625 
L 183.172727 -315.148329 
L 186.554545 -330.831498 
L 189.936364 -268.098824 
L 193.318182 -268.098824 
L 196.7 -213.207735 
L 200.081818 -228.890903 
L 203.463636 -189.682983 
L 206.845455 -181.841399 
L 210.227273 -189.682983 
L 213.609091 -166.15823 
L 216.990909 -166.15823 
L 220.372727 -173.999814 
L 223.754545 -166.15823 
L 227.136364 -166.15823 
L 230.518182 -166.15823 
L 233.9 -166.15823 
L 237.281818 -166.15823 
L 240.663636 -166.15823 
L 244.045455 -166.15823 
L 247.427273 -166.15823 
L 250.809091 -166.15823 
L 254.190909 -166.15823 
L 257.572727 -166.15823 
L 260.954545 -166.15823 
L 264.336364 -166.15823 
L 267.718182 -166.15823 
L 271.1 -166.15823 
L 274.481818 -166.15823 
L 277.863636 -166.15823 
L 281.245455 -166.15823 
L 284.627273 -166.15823 
L 288.009091 -166.15823 
L 291.390909 -166.15823 
L 294.772727 -166.15823 
L 298.154545 -166.15823 
L 301.536364 -166.15823 
L 304.918182 -166.15823 
L 308.3 -166.15823 
L 311.681818 -166.15823 
L 315.063636 -166.15823 
L 318.445455 -166.15823 
L 321.827273 -166.15823 
L 325.209091 -166.15823 
L 328.590909 -166.15823 
L 331.972727 -166.15823 
L 335.354545 -166.15823 
L 338.736364 -166.15823 
L 342.118182 -166.15823 
L 345.5 -166.15823 
L 345.5 -37.55625 
L 345.5 -37.55625 
L 342.118182 -37.55625 
L 338.736364 -37.55625 
L 335.354545 -37.55625 
L 331.972727 -37.55625 
L 328.590909 -37.55625 
L 325.209091 -37.55625 
L 321.827273 -37.55625 
L 318.445455 -37.55625 
L 315.063636 -37.55625 
L 311.681818 -37.55625 
L 308.3 -37.55625 
L 304.918182 -37.55625 
L 301.536364 -37.55625 
L 298.154545 -37.55625 
L 294.772727 -37.55625 
L 291.390909 -37.55625 
L 288.009091 -37.55625 
L 284.627273 -37.55625 
L 281.245455 -37.55625 
L 277.863636 -37.55625 
L 274.481818 -37.55625 
L 271.1 -37.55625 
L 267.718182 -37.55625 
L 264.336364 -37.55625 
L 260.954545 -37.55625 
L 257.572727 -37.55625 
L 254.190909 -37.55625 
L 250.809091 -37.55625 
L 247.427273 -37.55625 
L 244.045455 -37.55625 
L 240.663636 -37.55625 
L 237.281818 -37.55625 
L 233.9 -37.55625 
L 230.518182 -37.55625 
L 227.136364 -37.55625 
L 223.754545 -37.55625 
L 220.372727 -37.55625 
L 216.990909 -37.55625 
L 213.609091 -37.55625 
L 210.227273 -37.55625 
L 206.845455 -37.55625 
L 203.463636 -37.55625 
L 200.081818 -37.55625 
L 196.7 -37.55625 
L 193.318182 -37.55625 
L 189.936364 -37.55625 
L 186.554545 -37.55625 
L 183.172727 -37.55625 
L 179.790909 -37.55625 
L 176.409091 -37.55625 
L 173.027273 -37.55625 
L 169.645455 -37.55625 
L 166.263636 -37.55625 
L 162.881818 -37.55625 
L 159.5 -37.55625 
L 156.118182 -37.55625 
L 152.736364 -37.55625 
L 149.354545 -37.55625 
L 145.972727 -37.55625 
L 142.590909 -37.55625 
L 139.209091 -37.55625 
L 135.827273 -37.55625 
L 132.445455 -37.55625 
L 129.063636 -37.55625 
L 125.681818 -37.55625 
L 122.3 -37.55625 
L 118.918182 -37.55625 
L 115.536364 -37.55625 
L 112.154545 -37.55625 
L 108.772727 -37.55625 
L 105.390909 -37.55625 
L 102.009091 -37.55625 
L 98.627273 -37.55625 
L 95.245455 -37.55625 
L 91.863636 -37.55625 
L 88.481818 -37.55625 
L 85.1 -37.55625 
L 81.718182 -37.55625 
L 78.336364 -37.55625 
L 74.954545 -37.55625 
L 71.572727 -37.55625 
L 68.190909 -37.55625 
L 64.809091 -37.55625 
L 61.427273 -37.55625 
L 58.045455 -37.55625 
L 54.663636 -37.55625 
L 51.281818 -37.55625 
L 47.9 -37.55625 
L 44.518182 -37.55625 
L 41.136364 -37.55625 
L 37.754545 -37.55625 
L 34.372727 -37.55625 
L 30.990909 -37.55625 
L 27.609091 -37.55625 
L 24.227273 -37.55625 
L 20.845455 -37.55625 
L 17.463636 -37.55625 
L 14.081818 -37.55625 
L 10.7 -37.55625 
z
" style="stroke: #000000; stroke-width: 0.8"/>
    </defs>
    <g clip-path="url(#pf39f4a04e8)">
     <use xlink:href="#m68314680f5" x="0" y="377.39625" style="fill: #1a1a1a; stroke: #000000; stroke-width: 0.8"/>
    </g>
   </g>
   <g id="PolyCollection_2">
    <defs>
     <path id="md91104850c" d="M 10.7 -37.55625 
L 10.7 -217.199637 
L 14.081818 -249.15044 
L 17.463636 -225.187338 
L 20.845455 -233.175039 
L 24.227273 -265.125841 
L 27.609091 -257.13814 
L 30.990909 -241.162739 
L 34.372727 -201.224236 
L 37.754545 -193.236535 
L 41.136364 -169.273433 
L 44.518182 -193.236535 
L 47.9 -169.273433 
L 51.281818 -153.298032 
L 54.663636 -161.285733 
L 58.045455 -185.248835 
L 61.427273 -177.261134 
L 64.809091 -153.298032 
L 68.190909 -153.298032 
L 71.572727 -161.285733 
L 74.954545 -153.298032 
L 78.336364 -153.298032 
L 81.718182 -161.285733 
L 85.1 -153.298032 
L 88.481818 -153.298032 
L 91.863636 -153.298032 
L 95.245455 -153.298032 
L 98.627273 -153.298032 
L 102.009091 -153.298032 
L 105.390909 -153.298032 
L 108.772727 -153.298032 
L 112.154545 -153.298032 
L 115.536364 -153.298032 
L 118.918182 -153.298032 
L 122.3 -153.298032 
L 125.681818 -153.298032 
L 129.063636 -153.298032 
L 132.445455 -153.298032 
L 135.827273 -153.298032 
L 139.209091 -153.298032 
L 142.590909 -153.298032 
L 145.972727 -153.298032 
L 149.354545 -153.298032 
L 152.736364 -153.298032 
L 156.118182 -153.298032 
L 159.5 -153.298032 
L 162.881818 -153.298032 
L 166.263636 -153.298032 
L 169.645455 -153.298032 
L 173.027273 -153.298032 
L 176.409091 -153.298032 
L 179.790909 -153.298032 
L 183.172727 -153.298032 
L 186.554545 -153.298032 
L 189.936364 -153.298032 
L 193.318182 -153.298032 
L 196.7 -153.298032 
L 200.081818 -153.298032 
L 203.463636 -153.298032 
L 206.845455 -153.298032 
L 210.227273 -153.298032 
L 213.609091 -153.298032 
L 216.990909 -153.298032 
L 220.372727 -153.298032 
L 223.754545 -153.298032 
L 227.136364 -153.298032 
L 230.518182 -153.298032 
L 233.9 -153.298032 
L 237.281818 -153.298032 
L 240.663636 -153.298032 
L 244.045455 -153.298032 
L 247.427273 -153.298032 
L 250.809091 -153.298032 
L 254.190909 -153.298032 
L 257.572727 -153.298032 
L 260.954545 -153.298032 
L 264.336364 -153.298032 
L 267.718182 -153.298032 
L 271.1 -153.298032 
L 274.481818 -153.298032 
L 277.863636 -153.298032 
L 281.245455 -161.285733 
L 284.627273 -153.298032 
L 288.009091 -153.298032 
L 291.390909 -153.298032 
L 294.772727 -153.298032 
L 298.154545 -153.298032 
L 301.536364 -153.298032 
L 304.918182 -153.298032 
L 308.3 -153.298032 
L 311.681818 -161.285733 
L 315.063636 -161.285733 
L 318.445455 -153.298032 
L 321.827273 -177.261134 
L 325.209091 -193.236535 
L 328.590909 -177.261134 
L 331.972727 -193.236535 
L 335.354545 -201.224236 
L 338.736364 -225.187338 
L 342.118182 -225.187338 
L 345.5 -241.162739 
L 345.5 -37.55625 
L 345.5 -37.55625 
L 342.118182 -37.55625 
L 338.736364 -37.55625 
L 335.354545 -37.55625 
L 331.972727 -37.55625 
L 328.590909 -37.55625 
L 325.209091 -37.55625 
L 321.827273 -37.55625 
L 318.445455 -37.55625 
L 315.063636 -37.55625 
L 311.681818 -37.55625 
L 308.3 -37.55625 
L 304.918182 -37.55625 
L 301.536364 -37.55625 
L 298.154545 -37.55625 
L 294.772727 -37.55625 
L 291.390909 -37.55625 
L 288.009091 -37.55625 
L 284.627273 -37.55625 
L 281.245455 -37.55625 
L 277.863636 -37.55625 
L 274.481818 -37.55625 
L 271.1 -37.55625 
L 267.718182 -37.55625 
L 264.336364 -37.55625 
L 260.954545 -37.55625 
L 257.572727 -37.55625 
L 254.190909 -37.55625 
L 250.809091 -37.55625 
L 247.427273 -37.55625 
L 244.045455 -37.55625 
L 240.663636 -37.55625 
L 237.281818 -37.55625 
L 233.9 -37.55625 
L 230.518182 -37.55625 
L 227.136364 -37.55625 
L 223.754545 -37.55625 
L 220.372727 -37.55625 
L 216.990909 -37.55625 
L 213.609091 -37.55625 
L 210.227273 -37.55625 
L 206.845455 -37.55625 
L 203.463636 -37.55625 
L 200.081818 -37.55625 
L 196.7 -37.55625 
L 193.318182 -37.55625 
L 189.936364 -37.55625 
L 186.554545 -37.55625 
L 183.172727 -37.55625 
L 179.790909 -37.55625 
L 176.409091 -37.55625 
L 173.027273 -37.55625 
L 169.645455 -37.55625 
L 166.263636 -37.55625 
L 162.881818 -37.55625 
L 159.5 -37.55625 
L 156.118182 -37.55625 
L 152.736364 -37.55625 
L 149.354545 -37.55625 
L 145.972727 -37.55625 
L 142.590909 -37.55625 
L 139.209091 -37.55625 
L 135.827273 -37.55625 
L 132.445455 -37.55625 
L 129.063636 -37.55625 
L 125.681818 -37.55625 
L 122.3 -37.55625 
L 118.918182 -37.55625 
L 115.536364 -37.55625 
L 112.154545 -37.55625 
L 108.772727 -37.55625 
L 105.390909 -37.55625 
L 102.009091 -37.55625 
L 98.627273 -37.55625 
L 95.245455 -37.55625 
L 91.863636 -37.55625 
L 88.481818 -37.55625 
L 85.1 -37.55625 
L 81.718182 -37.55625 
L 78.336364 -37.55625 
L 74.954545 -37.55625 
L 71.572727 -37.55625 
L 68.190909 -37.55625 
L 64.809091 -37.55625 
L 61.427273 -37.55625 
L 58.045455 -37.55625 
L 54.663636 -37.55625 
L 51.281818 -37.55625 
L 47.9 -37.55625 
L 44.518182 -37.55625 
L 41.136364 -37.55625 
L 37.754545 -37.55625 
L 34.372727 -37.55625 
L 30.990909 -37.55625 
L 27.609091 -37.55625 
L 24.227273 -37.55625 
L 20.845455 -37.55625 
L 17.463636 -37.55625 
L 14.081818 -37.55625 
L 10.7 -37.55625 
z
" style="stroke: #000000; stroke-width: 0.8"/>
    </defs>
    <g clip-path="url(#pf39f4a04e8)">
     <use xlink:href="#md91104850c" x="0" y="377.39625" style="fill: #333333; stroke: #000000; stroke-width: 0.8"/>
    </g>
   </g>
   <g id="PolyCollection_3">
    <defs>
     <path id="mc07dd1cd02" d="M 10.7 -37.55625 
L 10.7 -172.995297 
L 14.081818 -156.716566 
L 17.463636 -172.995297 
L 20.845455 -156.716566 
L 24.227273 -164.855932 
L 27.609091 -181.134663 
L 30.990909 -189.274029 
L 34.372727 -164.855932 
L 37.754545 -181.134663 
L 41.136364 -172.995297 
L 44.518182 -164.855932 
L 47.9 -189.274029 
L 51.281818 -197.413395 
L 54.663636 -156.716566 
L 58.045455 -205.552761 
L 61.427273 -172.995297 
L 64.809091 -164.855932 
L 68.190909 -164.855932 
L 71.572727 -172.995297 
L 74.954545 -164.855932 
L 78.336364 -164.855932 
L 81.718182 -164.855932 
L 85.1 -140.437834 
L 88.481818 -156.716566 
L 91.863636 -164.855932 
L 95.245455 -156.716566 
L 98.627273 -140.437834 
L 102.009091 -148.5772 
L 105.390909 -148.5772 
L 108.772727 -156.716566 
L 112.154545 -148.5772 
L 115.536364 -148.5772 
L 118.918182 -148.5772 
L 122.3 -140.437834 
L 125.681818 -140.437834 
L 129.063636 -140.437834 
L 132.445455 -148.5772 
L 135.827273 -140.437834 
L 139.209091 -140.437834 
L 142.590909 -140.437834 
L 145.972727 -140.437834 
L 149.354545 -140.437834 
L 152.736364 -148.5772 
L 156.118182 -148.5772 
L 159.5 -140.437834 
L 162.881818 -140.437834 
L 166.263636 -140.437834 
L 169.645455 -140.437834 
L 173.027273 -140.437834 
L 176.409091 -140.437834 
L 179.790909 -140.437834 
L 183.172727 -140.437834 
L 186.554545 -140.437834 
L 189.936364 -148.5772 
L 193.318182 -140.437834 
L 196.7 -140.437834 
L 200.081818 -140.437834 
L 203.463636 -140.437834 
L 206.845455 -140.437834 
L 210.227273 -140.437834 
L 213.609091 -140.437834 
L 216.990909 -140.437834 
L 220.372727 -140.437834 
L 223.754545 -140.437834 
L 227.136364 -140.437834 
L 230.518182 -140.437834 
L 233.9 -140.437834 
L 237.281818 -140.437834 
L 240.663636 -140.437834 
L 244.045455 -148.5772 
L 247.427273 -140.437834 
L 250.809091 -140.437834 
L 254.190909 -140.437834 
L 257.572727 -140.437834 
L 260.954545 -140.437834 
L 264.336364 -140.437834 
L 267.718182 -148.5772 
L 271.1 -140.437834 
L 274.481818 -140.437834 
L 277.863636 -148.5772 
L 281.245455 -140.437834 
L 284.627273 -148.5772 
L 288.009091 -140.437834 
L 291.390909 -140.437834 
L 294.772727 -172.995297 
L 298.154545 -156.716566 
L 301.536364 -148.5772 
L 304.918182 -181.134663 
L 308.3 -172.995297 
L 311.681818 -189.274029 
L 315.063636 -148.5772 
L 318.445455 -164.855932 
L 321.827273 -156.716566 
L 325.209091 -164.855932 
L 328.590909 -172.995297 
L 331.972727 -156.716566 
L 335.354545 -189.274029 
L 338.736364 -148.5772 
L 342.118182 -156.716566 
L 345.5 -164.855932 
L 345.5 -37.55625 
L 345.5 -37.55625 
L 342.118182 -37.55625 
L 338.736364 -37.55625 
L 335.354545 -37.55625 
L 331.972727 -37.55625 
L 328.590909 -37.55625 
L 325.209091 -37.55625 
L 321.827273 -37.55625 
L 318.445455 -37.55625 
L 315.063636 -37.55625 
L 311.681818 -37.55625 
L 308.3 -37.55625 
L 304.918182 -37.55625 
L 301.536364 -37.55625 
L 298.154545 -37.55625 
L 294.772727 -37.55625 
L 291.390909 -37.55625 
L 288.009091 -37.55625 
L 284.627273 -37.55625 
L 281.245455 -37.55625 
L 277.863636 -37.55625 
L 274.481818 -37.55625 
L 271.1 -37.55625 
L 267.718182 -37.55625 
L 264.336364 -37.55625 
L 260.954545 -37.55625 
L 257.572727 -37.55625 
L 254.190909 -37.55625 
L 250.809091 -37.55625 
L 247.427273 -37.55625 
L 244.045455 -37.55625 
L 240.663636 -37.55625 
L 237.281818 -37.55625 
L 233.9 -37.55625 
L 230.518182 -37.55625 
L 227.136364 -37.55625 
L 223.754545 -37.55625 
L 220.372727 -37.55625 
L 216.990909 -37.55625 
L 213.609091 -37.55625 
L 210.227273 -37.55625 
L 206.845455 -37.55625 
L 203.463636 -37.55625 
L 200.081818 -37.55625 
L 196.7 -37.55625 
L 193.318182 -37.55625 
L 189.936364 -37.55625 
L 186.554545 -37.55625 
L 183.172727 -37.55625 
L 179.790909 -37.55625 
L 176.409091 -37.55625 
L 173.027273 -37.55625 
L 169.645455 -37.55625 
L 166.263636 -37.55625 
L 162.881818 -37.55625 
L 159.5 -37.55625 
L 156.118182 -37.55625 
L 152.736364 -37.55625 
L 149.354545 -37.55625 
L 145.972727 -37.55625 
L 142.590909 -37.55625 
L 139.209091 -37.55625 
L 135.827273 -37.55625 
L 132.445455 -37.55625 
L 129.063636 -37.55625 
L 125.681818 -37.55625 
L 122.3 -37.55625 
L 118.918182 -37.55625 
L 115.536364 -37.55625 
L 112.154545 -37.55625 
L 108.772727 -37.55625 
L 105.390909 -37.55625 
L 102.009091 -37.55625 
L 98.627273 -37.55625 
L 95.245455 -37.55625 
L 91.863636 -37.55625 
L 88.481818 -37.55625 
L 85.1 -37.55625 
L 81.718182 -37.55625 
L 78.336364 -37.55625 
L 74.954545 -37.55625 
L 71.572727 -37.55625 
L 68.190909 -37.55625 
L 64.809091 -37.55625 
L 61.427273 -37.55625 
L 58.045455 -37.55625 
L 54.663636 -37.55625 
L 51.281818 -37.55625 
L 47.9 -37.55625 
L 44.518182 -37.55625 
L 41.136364 -37.55625 
L 37.754545 -37.55625 
L 34.372727 -37.55625 
L 30.990909 -37.55625 
L 27.609091 -37.55625 
L 24.227273 -37.55625 
L 20.845455 -37.55625 
L 17.463636 -37.55625 
L 14.081818 -37.55625 
L 10.7 -37.55625 
z
" style="stroke: #000000; stroke-width: 0.8"/>
    </defs>
    <g clip-path="url(#pf39f4a04e8)">
     <use xlink:href="#mc07dd1cd02" x="0" y="377.39625" style="fill: #4c4c4c; stroke: #000000; stroke-width: 0.8"/>
    </g>
   </g>
   <g id="PolyCollection_4">
    <defs>
     <path id="mf0a4527168" d="M 10.7 -37.55625 
L 10.7 -144.17144 
L 14.081818 -135.874538 
L 17.463636 -127.577636 
L 20.845455 -135.874538 
L 24.227273 -135.874538 
L 27.609091 -135.874538 
L 30.990909 -135.874538 
L 34.372727 -144.17144 
L 37.754545 -152.468342 
L 41.136364 -127.577636 
L 44.518182 -135.874538 
L 47.9 -135.874538 
L 51.281818 -185.65595 
L 54.663636 -152.468342 
L 58.045455 -135.874538 
L 61.427273 -135.874538 
L 64.809091 -152.468342 
L 68.190909 -144.17144 
L 71.572727 -135.874538 
L 74.954545 -169.062146 
L 78.336364 -127.577636 
L 81.718182 -144.17144 
L 85.1 -127.577636 
L 88.481818 -144.17144 
L 91.863636 -144.17144 
L 95.245455 -144.17144 
L 98.627273 -152.468342 
L 102.009091 -135.874538 
L 105.390909 -185.65595 
L 108.772727 -144.17144 
L 112.154545 -144.17144 
L 115.536364 -152.468342 
L 118.918182 -127.577636 
L 122.3 -135.874538 
L 125.681818 -127.577636 
L 129.063636 -152.468342 
L 132.445455 -160.765244 
L 135.827273 -135.874538 
L 139.209091 -127.577636 
L 142.590909 -135.874538 
L 145.972727 -160.765244 
L 149.354545 -127.577636 
L 152.736364 -144.17144 
L 156.118182 -135.874538 
L 159.5 -152.468342 
L 162.881818 -135.874538 
L 166.263636 -135.874538 
L 169.645455 -135.874538 
L 173.027273 -127.577636 
L 176.409091 -135.874538 
L 179.790909 -152.468342 
L 183.172727 -127.577636 
L 186.554545 -135.874538 
L 189.936364 -144.17144 
L 193.318182 -135.874538 
L 196.7 -127.577636 
L 200.081818 -127.577636 
L 203.463636 -127.577636 
L 206.845455 -127.577636 
L 210.227273 -127.577636 
L 213.609091 -144.17144 
L 216.990909 -135.874538 
L 220.372727 -127.577636 
L 223.754545 -152.468342 
L 227.136364 -144.17144 
L 230.518182 -152.468342 
L 233.9 -144.17144 
L 237.281818 -144.17144 
L 240.663636 -144.17144 
L 244.045455 -127.577636 
L 247.427273 -152.468342 
L 250.809091 -144.17144 
L 254.190909 -144.17144 
L 257.572727 -127.577636 
L 260.954545 -144.17144 
L 264.336364 -144.17144 
L 267.718182 -144.17144 
L 271.1 -127.577636 
L 274.481818 -127.577636 
L 277.863636 -135.874538 
L 281.245455 -144.17144 
L 284.627273 -144.17144 
L 288.009091 -152.468342 
L 291.390909 -135.874538 
L 294.772727 -144.17144 
L 298.154545 -127.577636 
L 301.536364 -152.468342 
L 304.918182 -144.17144 
L 308.3 -144.17144 
L 311.681818 -135.874538 
L 315.063636 -144.17144 
L 318.445455 -144.17144 
L 321.827273 -144.17144 
L 325.209091 -135.874538 
L 328.590909 -135.874538 
L 331.972727 -144.17144 
L 335.354545 -127.577636 
L 338.736364 -127.577636 
L 342.118182 -135.874538 
L 345.5 -135.874538 
L 345.5 -37.55625 
L 345.5 -37.55625 
L 342.118182 -37.55625 
L 338.736364 -37.55625 
L 335.354545 -37.55625 
L 331.972727 -37.55625 
L 328.590909 -37.55625 
L 325.209091 -37.55625 
L 321.827273 -37.55625 
L 318.445455 -37.55625 
L 315.063636 -37.55625 
L 311.681818 -37.55625 
L 308.3 -37.55625 
L 304.918182 -37.55625 
L 301.536364 -37.55625 
L 298.154545 -37.55625 
L 294.772727 -37.55625 
L 291.390909 -37.55625 
L 288.009091 -37.55625 
L 284.627273 -37.55625 
L 281.245455 -37.55625 
L 277.863636 -37.55625 
L 274.481818 -37.55625 
L 271.1 -37.55625 
L 267.718182 -37.55625 
L 264.336364 -37.55625 
L 260.954545 -37.55625 
L 257.572727 -37.55625 
L 254.190909 -37.55625 
L 250.809091 -37.55625 
L 247.427273 -37.55625 
L 244.045455 -37.55625 
L 240.663636 -37.55625 
L 237.281818 -37.55625 
L 233.9 -37.55625 
L 230.518182 -37.55625 
L 227.136364 -37.55625 
L 223.754545 -37.55625 
L 220.372727 -37.55625 
L 216.990909 -37.55625 
L 213.609091 -37.55625 
L 210.227273 -37.55625 
L 206.845455 -37.55625 
L 203.463636 -37.55625 
L 200.081818 -37.55625 
L 196.7 -37.55625 
L 193.318182 -37.55625 
L 189.936364 -37.55625 
L 186.554545 -37.55625 
L 183.172727 -37.55625 
L 179.790909 -37.55625 
L 176.409091 -37.55625 
L 173.027273 -37.55625 
L 169.645455 -37.55625 
L 166.263636 -37.55625 
L 162.881818 -37.55625 
L 159.5 -37.55625 
L 156.118182 -37.55625 
L 152.736364 -37.55625 
L 149.354545 -37.55625 
L 145.972727 -37.55625 
L 142.590909 -37.55625 
L 139.209091 -37.55625 
L 135.827273 -37.55625 
L 132.445455 -37.55625 
L 129.063636 -37.55625 
L 125.681818 -37.55625 
L 122.3 -37.55625 
L 118.918182 -37.55625 
L 115.536364 -37.55625 
L 112.154545 -37.55625 
L 108.772727 -37.55625 
L 105.390909 -37.55625 
L 102.009091 -37.55625 
L 98.627273 -37.55625 
L 95.245455 -37.55625 
L 91.863636 -37.55625 
L 88.481818 -37.55625 
L 85.1 -37.55625 
L 81.718182 -37.55625 
L 78.336364 -37.55625 
L 74.954545 -37.55625 
L 71.572727 -37.55625 
L 68.190909 -37.55625 
L 64.809091 -37.55625 
L 61.427273 -37.55625 
L 58.045455 -37.55625 
L 54.663636 -37.55625 
L 51.281818 -37.55625 
L 47.9 -37.55625 
L 44.518182 -37.55625 
L 41.136364 -37.55625 
L 37.754545 -37.55625 
L 34.372727 -37.55625 
L 30.990909 -37.55625 
L 27.609091 -37.55625 
L 24.227273 -37.55625 
L 20.845455 -37.55625 
L 17.463636 -37.55625 
L 14.081818 -37.55625 
L 10.7 -37.55625 
z
" style="stroke: #000000; stroke-width: 0.8"/>
    </defs>
    <g clip-path="url(#pf39f4a04e8)">
     <use xlink:href="#mf0a4527168" x="0" y="377.39625" style="fill: #666666; stroke: #000000; stroke-width: 0.8"/>
    </g>
   </g>
   <g id="PolyCollection_5">
    <defs>
     <path id="mfd486380e8" d="M 10.7 -37.55625 
L 10.7 -131.638751 
L 14.081818 -114.717438 
L 17.463636 -140.099408 
L 20.845455 -123.178095 
L 24.227273 -123.178095 
L 27.609091 -123.178095 
L 30.990909 -123.178095 
L 34.372727 -123.178095 
L 37.754545 -114.717438 
L 41.136364 -114.717438 
L 44.518182 -131.638751 
L 47.9 -123.178095 
L 51.281818 -114.717438 
L 54.663636 -123.178095 
L 58.045455 -114.717438 
L 61.427273 -114.717438 
L 64.809091 -123.178095 
L 68.190909 -123.178095 
L 71.572727 -114.717438 
L 74.954545 -148.560064 
L 78.336364 -114.717438 
L 81.718182 -131.638751 
L 85.1 -131.638751 
L 88.481818 -140.099408 
L 91.863636 -131.638751 
L 95.245455 -140.099408 
L 98.627273 -123.178095 
L 102.009091 -131.638751 
L 105.390909 -123.178095 
L 108.772727 -123.178095 
L 112.154545 -157.020721 
L 115.536364 -123.178095 
L 118.918182 -140.099408 
L 122.3 -123.178095 
L 125.681818 -123.178095 
L 129.063636 -131.638751 
L 132.445455 -114.717438 
L 135.827273 -140.099408 
L 139.209091 -131.638751 
L 142.590909 -131.638751 
L 145.972727 -123.178095 
L 149.354545 -140.099408 
L 152.736364 -123.178095 
L 156.118182 -148.560064 
L 159.5 -114.717438 
L 162.881818 -123.178095 
L 166.263636 -131.638751 
L 169.645455 -131.638751 
L 173.027273 -131.638751 
L 176.409091 -123.178095 
L 179.790909 -123.178095 
L 183.172727 -148.560064 
L 186.554545 -123.178095 
L 189.936364 -123.178095 
L 193.318182 -131.638751 
L 196.7 -131.638751 
L 200.081818 -131.638751 
L 203.463636 -140.099408 
L 206.845455 -131.638751 
L 210.227273 -123.178095 
L 213.609091 -131.638751 
L 216.990909 -131.638751 
L 220.372727 -148.560064 
L 223.754545 -123.178095 
L 227.136364 -123.178095 
L 230.518182 -140.099408 
L 233.9 -131.638751 
L 237.281818 -123.178095 
L 240.663636 -123.178095 
L 244.045455 -131.638751 
L 247.427273 -123.178095 
L 250.809091 -131.638751 
L 254.190909 -148.560064 
L 257.572727 -123.178095 
L 260.954545 -131.638751 
L 264.336364 -131.638751 
L 267.718182 -140.099408 
L 271.1 -123.178095 
L 274.481818 -123.178095 
L 277.863636 -123.178095 
L 281.245455 -123.178095 
L 284.627273 -131.638751 
L 288.009091 -131.638751 
L 291.390909 -123.178095 
L 294.772727 -131.638751 
L 298.154545 -114.717438 
L 301.536364 -123.178095 
L 304.918182 -123.178095 
L 308.3 -114.717438 
L 311.681818 -123.178095 
L 315.063636 -131.638751 
L 318.445455 -140.099408 
L 321.827273 -140.099408 
L 325.209091 -114.717438 
L 328.590909 -114.717438 
L 331.972727 -114.717438 
L 335.354545 -114.717438 
L 338.736364 -140.099408 
L 342.118182 -114.717438 
L 345.5 -114.717438 
L 345.5 -37.55625 
L 345.5 -37.55625 
L 342.118182 -37.55625 
L 338.736364 -37.55625 
L 335.354545 -37.55625 
L 331.972727 -37.55625 
L 328.590909 -37.55625 
L 325.209091 -37.55625 
L 321.827273 -37.55625 
L 318.445455 -37.55625 
L 315.063636 -37.55625 
L 311.681818 -37.55625 
L 308.3 -37.55625 
L 304.918182 -37.55625 
L 301.536364 -37.55625 
L 298.154545 -37.55625 
L 294.772727 -37.55625 
L 291.390909 -37.55625 
L 288.009091 -37.55625 
L 284.627273 -37.55625 
L 281.245455 -37.55625 
L 277.863636 -37.55625 
L 274.481818 -37.55625 
L 271.1 -37.55625 
L 267.718182 -37.55625 
L 264.336364 -37.55625 
L 260.954545 -37.55625 
L 257.572727 -37.55625 
L 254.190909 -37.55625 
L 250.809091 -37.55625 
L 247.427273 -37.55625 
L 244.045455 -37.55625 
L 240.663636 -37.55625 
L 237.281818 -37.55625 
L 233.9 -37.55625 
L 230.518182 -37.55625 
L 227.136364 -37.55625 
L 223.754545 -37.55625 
L 220.372727 -37.55625 
L 216.990909 -37.55625 
L 213.609091 -37.55625 
L 210.227273 -37.55625 
L 206.845455 -37.55625 
L 203.463636 -37.55625 
L 200.081818 -37.55625 
L 196.7 -37.55625 
L 193.318182 -37.55625 
L 189.936364 -37.55625 
L 186.554545 -37.55625 
L 183.172727 -37.55625 
L 179.790909 -37.55625 
L 176.409091 -37.55625 
L 173.027273 -37.55625 
L 169.645455 -37.55625 
L 166.263636 -37.55625 
L 162.881818 -37.55625 
L 159.5 -37.55625 
L 156.118182 -37.55625 
L 152.736364 -37.55625 
L 149.354545 -37.55625 
L 145.972727 -37.55625 
L 142.590909 -37.55625 
L 139.209091 -37.55625 
L 135.827273 -37.55625 
L 132.445455 -37.55625 
L 129.063636 -37.55625 
L 125.681818 -37.55625 
L 122.3 -37.55625 
L 118.918182 -37.55625 
L 115.536364 -37.55625 
L 112.154545 -37.55625 
L 108.772727 -37.55625 
L 105.390909 -37.55625 
L 102.009091 -37.55625 
L 98.627273 -37.55625 
L 95.245455 -37.55625 
L 91.863636 -37.55625 
L 88.481818 -37.55625 
L 85.1 -37.55625 
L 81.718182 -37.55625 
L 78.336364 -37.55625 
L 74.954545 -37.55625 
L 71.572727 -37.55625 
L 68.190909 -37.55625 
L 64.809091 -37.55625 
L 61.427273 -37.55625 
L 58.045455 -37.55625 
L 54.663636 -37.55625 
L 51.281818 -37.55625 
L 47.9 -37.55625 
L 44.518182 -37.55625 
L 41.136364 -37.55625 
L 37.754545 -37.55625 
L 34.372727 -37.55625 
L 30.990909 -37.55625 
L 27.609091 -37.55625 
L 24.227273 -37.55625 
L 20.845455 -37.55625 
L 17.463636 -37.55625 
L 14.081818 -37.55625 
L 10.7 -37.55625 
z
" style="stroke: #000000; stroke-width: 0.8"/>
    </defs>
    <g clip-path="url(#pf39f4a04e8)">
     <use xlink:href="#mfd486380e8" x="0" y="377.39625" style="fill: #808080; stroke: #000000; stroke-width: 0.8"/>
    </g>
   </g>
   <g id="PolyCollection_6">
    <defs>
     <path id="m9639397a78" d="M 10.7 -37.55625 
L 10.7 -110.488245 
L 14.081818 -145.012267 
L 17.463636 -127.750256 
L 20.845455 -110.488245 
L 24.227273 -110.488245 
L 27.609091 -110.488245 
L 30.990909 -110.488245 
L 34.372727 -110.488245 
L 37.754545 -119.119251 
L 41.136364 -101.85724 
L 44.518182 -110.488245 
L 47.9 -110.488245 
L 51.281818 -101.85724 
L 54.663636 -136.381262 
L 58.045455 -119.119251 
L 61.427273 -119.119251 
L 64.809091 -110.488245 
L 68.190909 -110.488245 
L 71.572727 -101.85724 
L 74.954545 -110.488245 
L 78.336364 -119.119251 
L 81.718182 -127.750256 
L 85.1 -119.119251 
L 88.481818 -101.85724 
L 91.863636 -136.381262 
L 95.245455 -101.85724 
L 98.627273 -119.119251 
L 102.009091 -101.85724 
L 105.390909 -110.488245 
L 108.772727 -110.488245 
L 112.154545 -101.85724 
L 115.536364 -110.488245 
L 118.918182 -119.119251 
L 122.3 -127.750256 
L 125.681818 -110.488245 
L 129.063636 -110.488245 
L 132.445455 -110.488245 
L 135.827273 -101.85724 
L 139.209091 -110.488245 
L 142.590909 -101.85724 
L 145.972727 -110.488245 
L 149.354545 -127.750256 
L 152.736364 -127.750256 
L 156.118182 -127.750256 
L 159.5 -119.119251 
L 162.881818 -110.488245 
L 166.263636 -110.488245 
L 169.645455 -101.85724 
L 173.027273 -127.750256 
L 176.409091 -119.119251 
L 179.790909 -127.750256 
L 183.172727 -119.119251 
L 186.554545 -101.85724 
L 189.936364 -136.381262 
L 193.318182 -127.750256 
L 196.7 -110.488245 
L 200.081818 -101.85724 
L 203.463636 -101.85724 
L 206.845455 -119.119251 
L 210.227273 -127.750256 
L 213.609091 -119.119251 
L 216.990909 -101.85724 
L 220.372727 -119.119251 
L 223.754545 -119.119251 
L 227.136364 -110.488245 
L 230.518182 -119.119251 
L 233.9 -110.488245 
L 237.281818 -127.750256 
L 240.663636 -101.85724 
L 244.045455 -119.119251 
L 247.427273 -110.488245 
L 250.809091 -110.488245 
L 254.190909 -110.488245 
L 257.572727 -110.488245 
L 260.954545 -119.119251 
L 264.336364 -119.119251 
L 267.718182 -110.488245 
L 271.1 -127.750256 
L 274.481818 -110.488245 
L 277.863636 -119.119251 
L 281.245455 -119.119251 
L 284.627273 -110.488245 
L 288.009091 -110.488245 
L 291.390909 -119.119251 
L 294.772727 -110.488245 
L 298.154545 -110.488245 
L 301.536364 -136.381262 
L 304.918182 -110.488245 
L 308.3 -119.119251 
L 311.681818 -110.488245 
L 315.063636 -101.85724 
L 318.445455 -101.85724 
L 321.827273 -110.488245 
L 325.209091 -127.750256 
L 328.590909 -119.119251 
L 331.972727 -110.488245 
L 335.354545 -110.488245 
L 338.736364 -119.119251 
L 342.118182 -101.85724 
L 345.5 -119.119251 
L 345.5 -37.55625 
L 345.5 -37.55625 
L 342.118182 -37.55625 
L 338.736364 -37.55625 
L 335.354545 -37.55625 
L 331.972727 -37.55625 
L 328.590909 -37.55625 
L 325.209091 -37.55625 
L 321.827273 -37.55625 
L 318.445455 -37.55625 
L 315.063636 -37.55625 
L 311.681818 -37.55625 
L 308.3 -37.55625 
L 304.918182 -37.55625 
L 301.536364 -37.55625 
L 298.154545 -37.55625 
L 294.772727 -37.55625 
L 291.390909 -37.55625 
L 288.009091 -37.55625 
L 284.627273 -37.55625 
L 281.245455 -37.55625 
L 277.863636 -37.55625 
L 274.481818 -37.55625 
L 271.1 -37.55625 
L 267.718182 -37.55625 
L 264.336364 -37.55625 
L 260.954545 -37.55625 
L 257.572727 -37.55625 
L 254.190909 -37.55625 
L 250.809091 -37.55625 
L 247.427273 -37.55625 
L 244.045455 -37.55625 
L 240.663636 -37.55625 
L 237.281818 -37.55625 
L 233.9 -37.55625 
L 230.518182 -37.55625 
L 227.136364 -37.55625 
L 223.754545 -37.55625 
L 220.372727 -37.55625 
L 216.990909 -37.55625 
L 213.609091 -37.55625 
L 210.227273 -37.55625 
L 206.845455 -37.55625 
L 203.463636 -37.55625 
L 200.081818 -37.55625 
L 196.7 -37.55625 
L 193.318182 -37.55625 
L 189.936364 -37.55625 
L 186.554545 -37.55625 
L 183.172727 -37.55625 
L 179.790909 -37.55625 
L 176.409091 -37.55625 
L 173.027273 -37.55625 
L 169.645455 -37.55625 
L 166.263636 -37.55625 
L 162.881818 -37.55625 
L 159.5 -37.55625 
L 156.118182 -37.55625 
L 152.736364 -37.55625 
L 149.354545 -37.55625 
L 145.972727 -37.55625 
L 142.590909 -37.55625 
L 139.209091 -37.55625 
L 135.827273 -37.55625 
L 132.445455 -37.55625 
L 129.063636 -37.55625 
L 125.681818 -37.55625 
L 122.3 -37.55625 
L 118.918182 -37.55625 
L 115.536364 -37.55625 
L 112.154545 -37.55625 
L 108.772727 -37.55625 
L 105.390909 -37.55625 
L 102.009091 -37.55625 
L 98.627273 -37.55625 
L 95.245455 -37.55625 
L 91.863636 -37.55625 
L 88.481818 -37.55625 
L 85.1 -37.55625 
L 81.718182 -37.55625 
L 78.336364 -37.55625 
L 74.954545 -37.55625 
L 71.572727 -37.55625 
L 68.190909 -37.55625 
L 64.809091 -37.55625 
L 61.427273 -37.55625 
L 58.045455 -37.55625 
L 54.663636 -37.55625 
L 51.281818 -37.55625 
L 47.9 -37.55625 
L 44.518182 -37.55625 
L 41.136364 -37.55625 
L 37.754545 -37.55625 
L 34.372727 -37.55625 
L 30.990909 -37.55625 
L 27.609091 -37.55625 
L 24.227273 -37.55625 
L 20.845455 -37.55625 
L 17.463636 -37.55625 
L 14.081818 -37.55625 
L 10.7 -37.55625 
z
" style="stroke: #000000; stroke-width: 0.8"/>
    </defs>
    <g clip-path="url(#pf39f4a04e8)">
     <use xlink:href="#m9639397a78" x="0" y="377.39625" style="fill: #999999; stroke: #000000; stroke-width: 0.8"/>
    </g>
   </g>
   <g id="PolyCollection_7">
    <defs>
     <path id="ma92a7ce40a" d="M 10.7 -37.55625 
L 10.7 -106.613752 
L 14.081818 -115.422107 
L 17.463636 -97.805397 
L 20.845455 -124.230461 
L 24.227273 -124.230461 
L 27.609091 -106.613752 
L 30.990909 -106.613752 
L 34.372727 -106.613752 
L 37.754545 -97.805397 
L 41.136364 -124.230461 
L 44.518182 -88.997042 
L 47.9 -97.805397 
L 51.281818 -115.422107 
L 54.663636 -106.613752 
L 58.045455 -88.997042 
L 61.427273 -88.997042 
L 64.809091 -106.613752 
L 68.190909 -106.613752 
L 71.572727 -106.613752 
L 74.954545 -97.805397 
L 78.336364 -97.805397 
L 81.718182 -88.997042 
L 85.1 -97.805397 
L 88.481818 -106.613752 
L 91.863636 -97.805397 
L 95.245455 -97.805397 
L 98.627273 -88.997042 
L 102.009091 -88.997042 
L 105.390909 -106.613752 
L 108.772727 -115.422107 
L 112.154545 -141.847171 
L 115.536364 -106.613752 
L 118.918182 -88.997042 
L 122.3 -97.805397 
L 125.681818 -106.613752 
L 129.063636 -88.997042 
L 132.445455 -97.805397 
L 135.827273 -97.805397 
L 139.209091 -97.805397 
L 142.590909 -97.805397 
L 145.972727 -97.805397 
L 149.354545 -106.613752 
L 152.736364 -97.805397 
L 156.118182 -106.613752 
L 159.5 -115.422107 
L 162.881818 -97.805397 
L 166.263636 -88.997042 
L 169.645455 -115.422107 
L 173.027273 -106.613752 
L 176.409091 -106.613752 
L 179.790909 -97.805397 
L 183.172727 -97.805397 
L 186.554545 -106.613752 
L 189.936364 -106.613752 
L 193.318182 -97.805397 
L 196.7 -88.997042 
L 200.081818 -97.805397 
L 203.463636 -88.997042 
L 206.845455 -106.613752 
L 210.227273 -106.613752 
L 213.609091 -106.613752 
L 216.990909 -97.805397 
L 220.372727 -97.805397 
L 223.754545 -88.997042 
L 227.136364 -88.997042 
L 230.518182 -115.422107 
L 233.9 -106.613752 
L 237.281818 -88.997042 
L 240.663636 -97.805397 
L 244.045455 -124.230461 
L 247.427273 -97.805397 
L 250.809091 -115.422107 
L 254.190909 -97.805397 
L 257.572727 -97.805397 
L 260.954545 -97.805397 
L 264.336364 -97.805397 
L 267.718182 -97.805397 
L 271.1 -106.613752 
L 274.481818 -88.997042 
L 277.863636 -88.997042 
L 281.245455 -97.805397 
L 284.627273 -88.997042 
L 288.009091 -97.805397 
L 291.390909 -97.805397 
L 294.772727 -106.613752 
L 298.154545 -106.613752 
L 301.536364 -97.805397 
L 304.918182 -106.613752 
L 308.3 -115.422107 
L 311.681818 -97.805397 
L 315.063636 -106.613752 
L 318.445455 -97.805397 
L 321.827273 -124.230461 
L 325.209091 -97.805397 
L 328.590909 -88.997042 
L 331.972727 -106.613752 
L 335.354545 -106.613752 
L 338.736364 -97.805397 
L 342.118182 -97.805397 
L 345.5 -88.997042 
L 345.5 -37.55625 
L 345.5 -37.55625 
L 342.118182 -37.55625 
L 338.736364 -37.55625 
L 335.354545 -37.55625 
L 331.972727 -37.55625 
L 328.590909 -37.55625 
L 325.209091 -37.55625 
L 321.827273 -37.55625 
L 318.445455 -37.55625 
L 315.063636 -37.55625 
L 311.681818 -37.55625 
L 308.3 -37.55625 
L 304.918182 -37.55625 
L 301.536364 -37.55625 
L 298.154545 -37.55625 
L 294.772727 -37.55625 
L 291.390909 -37.55625 
L 288.009091 -37.55625 
L 284.627273 -37.55625 
L 281.245455 -37.55625 
L 277.863636 -37.55625 
L 274.481818 -37.55625 
L 271.1 -37.55625 
L 267.718182 -37.55625 
L 264.336364 -37.55625 
L 260.954545 -37.55625 
L 257.572727 -37.55625 
L 254.190909 -37.55625 
L 250.809091 -37.55625 
L 247.427273 -37.55625 
L 244.045455 -37.55625 
L 240.663636 -37.55625 
L 237.281818 -37.55625 
L 233.9 -37.55625 
L 230.518182 -37.55625 
L 227.136364 -37.55625 
L 223.754545 -37.55625 
L 220.372727 -37.55625 
L 216.990909 -37.55625 
L 213.609091 -37.55625 
L 210.227273 -37.55625 
L 206.845455 -37.55625 
L 203.463636 -37.55625 
L 200.081818 -37.55625 
L 196.7 -37.55625 
L 193.318182 -37.55625 
L 189.936364 -37.55625 
L 186.554545 -37.55625 
L 183.172727 -37.55625 
L 179.790909 -37.55625 
L 176.409091 -37.55625 
L 173.027273 -37.55625 
L 169.645455 -37.55625 
L 166.263636 -37.55625 
L 162.881818 -37.55625 
L 159.5 -37.55625 
L 156.118182 -37.55625 
L 152.736364 -37.55625 
L 149.354545 -37.55625 
L 145.972727 -37.55625 
L 142.590909 -37.55625 
L 139.209091 -37.55625 
L 135.827273 -37.55625 
L 132.445455 -37.55625 
L 129.063636 -37.55625 
L 125.681818 -37.55625 
L 122.3 -37.55625 
L 118.918182 -37.55625 
L 115.536364 -37.55625 
L 112.154545 -37.55625 
L 108.772727 -37.55625 
L 105.390909 -37.55625 
L 102.009091 -37.55625 
L 98.627273 -37.55625 
L 95.245455 -37.55625 
L 91.863636 -37.55625 
L 88.481818 -37.55625 
L 85.1 -37.55625 
L 81.718182 -37.55625 
L 78.336364 -37.55625 
L 74.954545 -37.55625 
L 71.572727 -37.55625 
L 68.190909 -37.55625 
L 64.809091 -37.55625 
L 61.427273 -37.55625 
L 58.045455 -37.55625 
L 54.663636 -37.55625 
L 51.281818 -37.55625 
L 47.9 -37.55625 
L 44.518182 -37.55625 
L 41.136364 -37.55625 
L 37.754545 -37.55625 
L 34.372727 -37.55625 
L 30.990909 -37.55625 
L 27.609091 -37.55625 
L 24.227273 -37.55625 
L 20.845455 -37.55625 
L 17.463636 -37.55625 
L 14.081818 -37.55625 
L 10.7 -37.55625 
z
" style="stroke: #000000; stroke-width: 0.8"/>
    </defs>
    <g clip-path="url(#pf39f4a04e8)">
     <use xlink:href="#ma92a7ce40a" x="0" y="377.39625" style="fill: #b2b2b2; stroke: #000000; stroke-width: 0.8"/>
    </g>
   </g>
   <g id="PolyCollection_8">
    <defs>
     <path id="ma9b50c4401" d="M 10.7 -37.55625 
L 10.7 -103.11628 
L 14.081818 -85.12999 
L 17.463636 -85.12999 
L 20.845455 -103.11628 
L 24.227273 -85.12999 
L 27.609091 -76.136844 
L 30.990909 -103.11628 
L 34.372727 -85.12999 
L 37.754545 -103.11628 
L 41.136364 -103.11628 
L 44.518182 -76.136844 
L 47.9 -85.12999 
L 51.281818 -103.11628 
L 54.663636 -85.12999 
L 58.045455 -76.136844 
L 61.427273 -85.12999 
L 64.809091 -94.123135 
L 68.190909 -85.12999 
L 71.572727 -103.11628 
L 74.954545 -94.123135 
L 78.336364 -103.11628 
L 81.718182 -85.12999 
L 85.1 -85.12999 
L 88.481818 -85.12999 
L 91.863636 -94.123135 
L 95.245455 -76.136844 
L 98.627273 -76.136844 
L 102.009091 -103.11628 
L 105.390909 -85.12999 
L 108.772727 -94.123135 
L 112.154545 -76.136844 
L 115.536364 -76.136844 
L 118.918182 -94.123135 
L 122.3 -94.123135 
L 125.681818 -94.123135 
L 129.063636 -76.136844 
L 132.445455 -103.11628 
L 135.827273 -94.123135 
L 139.209091 -85.12999 
L 142.590909 -94.123135 
L 145.972727 -112.109426 
L 149.354545 -85.12999 
L 152.736364 -85.12999 
L 156.118182 -85.12999 
L 159.5 -85.12999 
L 162.881818 -85.12999 
L 166.263636 -103.11628 
L 169.645455 -76.136844 
L 173.027273 -76.136844 
L 176.409091 -85.12999 
L 179.790909 -85.12999 
L 183.172727 -94.123135 
L 186.554545 -85.12999 
L 189.936364 -76.136844 
L 193.318182 -76.136844 
L 196.7 -85.12999 
L 200.081818 -85.12999 
L 203.463636 -85.12999 
L 206.845455 -94.123135 
L 210.227273 -76.136844 
L 213.609091 -76.136844 
L 216.990909 -94.123135 
L 220.372727 -94.123135 
L 223.754545 -85.12999 
L 227.136364 -76.136844 
L 230.518182 -103.11628 
L 233.9 -94.123135 
L 237.281818 -94.123135 
L 240.663636 -121.102571 
L 244.045455 -94.123135 
L 247.427273 -85.12999 
L 250.809091 -76.136844 
L 254.190909 -85.12999 
L 257.572727 -76.136844 
L 260.954545 -85.12999 
L 264.336364 -85.12999 
L 267.718182 -94.123135 
L 271.1 -85.12999 
L 274.481818 -103.11628 
L 277.863636 -85.12999 
L 281.245455 -76.136844 
L 284.627273 -94.123135 
L 288.009091 -76.136844 
L 291.390909 -94.123135 
L 294.772727 -94.123135 
L 298.154545 -94.123135 
L 301.536364 -76.136844 
L 304.918182 -94.123135 
L 308.3 -103.11628 
L 311.681818 -94.123135 
L 315.063636 -85.12999 
L 318.445455 -85.12999 
L 321.827273 -85.12999 
L 325.209091 -76.136844 
L 328.590909 -94.123135 
L 331.972727 -103.11628 
L 335.354545 -85.12999 
L 338.736364 -94.123135 
L 342.118182 -85.12999 
L 345.5 -103.11628 
L 345.5 -37.55625 
L 345.5 -37.55625 
L 342.118182 -37.55625 
L 338.736364 -37.55625 
L 335.354545 -37.55625 
L 331.972727 -37.55625 
L 328.590909 -37.55625 
L 325.209091 -37.55625 
L 321.827273 -37.55625 
L 318.445455 -37.55625 
L 315.063636 -37.55625 
L 311.681818 -37.55625 
L 308.3 -37.55625 
L 304.918182 -37.55625 
L 301.536364 -37.55625 
L 298.154545 -37.55625 
L 294.772727 -37.55625 
L 291.390909 -37.55625 
L 288.009091 -37.55625 
L 284.627273 -37.55625 
L 281.245455 -37.55625 
L 277.863636 -37.55625 
L 274.481818 -37.55625 
L 271.1 -37.55625 
L 267.718182 -37.55625 
L 264.336364 -37.55625 
L 260.954545 -37.55625 
L 257.572727 -37.55625 
L 254.190909 -37.55625 
L 250.809091 -37.55625 
L 247.427273 -37.55625 
L 244.045455 -37.55625 
L 240.663636 -37.55625 
L 237.281818 -37.55625 
L 233.9 -37.55625 
L 230.518182 -37.55625 
L 227.136364 -37.55625 
L 223.754545 -37.55625 
L 220.372727 -37.55625 
L 216.990909 -37.55625 
L 213.609091 -37.55625 
L 210.227273 -37.55625 
L 206.845455 -37.55625 
L 203.463636 -37.55625 
L 200.081818 -37.55625 
L 196.7 -37.55625 
L 193.318182 -37.55625 
L 189.936364 -37.55625 
L 186.554545 -37.55625 
L 183.172727 -37.55625 
L 179.790909 -37.55625 
L 176.409091 -37.55625 
L 173.027273 -37.55625 
L 169.645455 -37.55625 
L 166.263636 -37.55625 
L 162.881818 -37.55625 
L 159.5 -37.55625 
L 156.118182 -37.55625 
L 152.736364 -37.55625 
L 149.354545 -37.55625 
L 145.972727 -37.55625 
L 142.590909 -37.55625 
L 139.209091 -37.55625 
L 135.827273 -37.55625 
L 132.445455 -37.55625 
L 129.063636 -37.55625 
L 125.681818 -37.55625 
L 122.3 -37.55625 
L 118.918182 -37.55625 
L 115.536364 -37.55625 
L 112.154545 -37.55625 
L 108.772727 -37.55625 
L 105.390909 -37.55625 
L 102.009091 -37.55625 
L 98.627273 -37.55625 
L 95.245455 -37.55625 
L 91.863636 -37.55625 
L 88.481818 -37.55625 
L 85.1 -37.55625 
L 81.718182 -37.55625 
L 78.336364 -37.55625 
L 74.954545 -37.55625 
L 71.572727 -37.55625 
L 68.190909 -37.55625 
L 64.809091 -37.55625 
L 61.427273 -37.55625 
L 58.045455 -37.55625 
L 54.663636 -37.55625 
L 51.281818 -37.55625 
L 47.9 -37.55625 
L 44.518182 -37.55625 
L 41.136364 -37.55625 
L 37.754545 -37.55625 
L 34.372727 -37.55625 
L 30.990909 -37.55625 
L 27.609091 -37.55625 
L 24.227273 -37.55625 
L 20.845455 -37.55625 
L 17.463636 -37.55625 
L 14.081818 -37.55625 
L 10.7 -37.55625 
z
" style="stroke: #000000; stroke-width: 0.8"/>
    </defs>
    <g clip-path="url(#pf39f4a04e8)">
     <use xlink:href="#ma9b50c4401" x="0" y="377.39625" style="fill: #cccccc; stroke: #000000; stroke-width: 0.8"/>
    </g>
   </g>
   <g id="PolyCollection_9">
    <defs>
     <path id="m3d041fb725" d="M 10.7 -37.55625 
L 10.7 -100.020069 
L 14.081818 -72.462502 
L 17.463636 -63.276646 
L 20.845455 -72.462502 
L 24.227273 -63.276646 
L 27.609091 -72.462502 
L 30.990909 -63.276646 
L 34.372727 -63.276646 
L 37.754545 -72.462502 
L 41.136364 -81.648357 
L 44.518182 -63.276646 
L 47.9 -81.648357 
L 51.281818 -90.834213 
L 54.663636 -81.648357 
L 58.045455 -63.276646 
L 61.427273 -72.462502 
L 64.809091 -63.276646 
L 68.190909 -90.834213 
L 71.572727 -72.462502 
L 74.954545 -81.648357 
L 78.336364 -63.276646 
L 81.718182 -63.276646 
L 85.1 -81.648357 
L 88.481818 -90.834213 
L 91.863636 -90.834213 
L 95.245455 -72.462502 
L 98.627273 -72.462502 
L 102.009091 -72.462502 
L 105.390909 -90.834213 
L 108.772727 -81.648357 
L 112.154545 -72.462502 
L 115.536364 -81.648357 
L 118.918182 -90.834213 
L 122.3 -63.276646 
L 125.681818 -72.462502 
L 129.063636 -90.834213 
L 132.445455 -72.462502 
L 135.827273 -72.462502 
L 139.209091 -72.462502 
L 142.590909 -118.39178 
L 145.972727 -72.462502 
L 149.354545 -63.276646 
L 152.736364 -63.276646 
L 156.118182 -90.834213 
L 159.5 -72.462502 
L 162.881818 -72.462502 
L 166.263636 -81.648357 
L 169.645455 -81.648357 
L 173.027273 -63.276646 
L 176.409091 -81.648357 
L 179.790909 -63.276646 
L 183.172727 -81.648357 
L 186.554545 -90.834213 
L 189.936364 -63.276646 
L 193.318182 -63.276646 
L 196.7 -72.462502 
L 200.081818 -63.276646 
L 203.463636 -72.462502 
L 206.845455 -72.462502 
L 210.227273 -72.462502 
L 213.609091 -81.648357 
L 216.990909 -72.462502 
L 220.372727 -90.834213 
L 223.754545 -72.462502 
L 227.136364 -81.648357 
L 230.518182 -81.648357 
L 233.9 -63.276646 
L 237.281818 -63.276646 
L 240.663636 -81.648357 
L 244.045455 -81.648357 
L 247.427273 -63.276646 
L 250.809091 -100.020069 
L 254.190909 -90.834213 
L 257.572727 -72.462502 
L 260.954545 -81.648357 
L 264.336364 -72.462502 
L 267.718182 -63.276646 
L 271.1 -81.648357 
L 274.481818 -72.462502 
L 277.863636 -72.462502 
L 281.245455 -72.462502 
L 284.627273 -90.834213 
L 288.009091 -90.834213 
L 291.390909 -81.648357 
L 294.772727 -81.648357 
L 298.154545 -63.276646 
L 301.536364 -100.020069 
L 304.918182 -63.276646 
L 308.3 -72.462502 
L 311.681818 -90.834213 
L 315.063636 -72.462502 
L 318.445455 -63.276646 
L 321.827273 -63.276646 
L 325.209091 -63.276646 
L 328.590909 -90.834213 
L 331.972727 -72.462502 
L 335.354545 -72.462502 
L 338.736364 -72.462502 
L 342.118182 -90.834213 
L 345.5 -72.462502 
L 345.5 -37.55625 
L 345.5 -37.55625 
L 342.118182 -37.55625 
L 338.736364 -37.55625 
L 335.354545 -37.55625 
L 331.972727 -37.55625 
L 328.590909 -37.55625 
L 325.209091 -37.55625 
L 321.827273 -37.55625 
L 318.445455 -37.55625 
L 315.063636 -37.55625 
L 311.681818 -37.55625 
L 308.3 -37.55625 
L 304.918182 -37.55625 
L 301.536364 -37.55625 
L 298.154545 -37.55625 
L 294.772727 -37.55625 
L 291.390909 -37.55625 
L 288.009091 -37.55625 
L 284.627273 -37.55625 
L 281.245455 -37.55625 
L 277.863636 -37.55625 
L 274.481818 -37.55625 
L 271.1 -37.55625 
L 267.718182 -37.55625 
L 264.336364 -37.55625 
L 260.954545 -37.55625 
L 257.572727 -37.55625 
L 254.190909 -37.55625 
L 250.809091 -37.55625 
L 247.427273 -37.55625 
L 244.045455 -37.55625 
L 240.663636 -37.55625 
L 237.281818 -37.55625 
L 233.9 -37.55625 
L 230.518182 -37.55625 
L 227.136364 -37.55625 
L 223.754545 -37.55625 
L 220.372727 -37.55625 
L 216.990909 -37.55625 
L 213.609091 -37.55625 
L 210.227273 -37.55625 
L 206.845455 -37.55625 
L 203.463636 -37.55625 
L 200.081818 -37.55625 
L 196.7 -37.55625 
L 193.318182 -37.55625 
L 189.936364 -37.55625 
L 186.554545 -37.55625 
L 183.172727 -37.55625 
L 179.790909 -37.55625 
L 176.409091 -37.55625 
L 173.027273 -37.55625 
L 169.645455 -37.55625 
L 166.263636 -37.55625 
L 162.881818 -37.55625 
L 159.5 -37.55625 
L 156.118182 -37.55625 
L 152.736364 -37.55625 
L 149.354545 -37.55625 
L 145.972727 -37.55625 
L 142.590909 -37.55625 
L 139.209091 -37.55625 
L 135.827273 -37.55625 
L 132.445455 -37.55625 
L 129.063636 -37.55625 
L 125.681818 -37.55625 
L 122.3 -37.55625 
L 118.918182 -37.55625 
L 115.536364 -37.55625 
L 112.154545 -37.55625 
L 108.772727 -37.55625 
L 105.390909 -37.55625 
L 102.009091 -37.55625 
L 98.627273 -37.55625 
L 95.245455 -37.55625 
L 91.863636 -37.55625 
L 88.481818 -37.55625 
L 85.1 -37.55625 
L 81.718182 -37.55625 
L 78.336364 -37.55625 
L 74.954545 -37.55625 
L 71.572727 -37.55625 
L 68.190909 -37.55625 
L 64.809091 -37.55625 
L 61.427273 -37.55625 
L 58.045455 -37.55625 
L 54.663636 -37.55625 
L 51.281818 -37.55625 
L 47.9 -37.55625 
L 44.518182 -37.55625 
L 41.136364 -37.55625 
L 37.754545 -37.55625 
L 34.372727 -37.55625 
L 30.990909 -37.55625 
L 27.609091 -37.55625 
L 24.227273 -37.55625 
L 20.845455 -37.55625 
L 17.463636 -37.55625 
L 14.081818 -37.55625 
L 10.7 -37.55625 
z
" style="stroke: #000000; stroke-width: 0.8"/>
    </defs>
    <g clip-path="url(#pf39f4a04e8)">
     <use xlink:href="#m3d041fb725" x="0" y="377.39625" style="fill: #e6e6e6; stroke: #000000; stroke-width: 0.8"/>
    </g>
   </g>
   <g id="PolyCollection_10">
    <defs>
     <path id="m16b04a25b3" d="M 10.7 -37.55625 
L 10.7 -78.577466 
L 14.081818 -59.803454 
L 17.463636 -69.19046 
L 20.845455 -69.19046 
L 24.227273 -50.416448 
L 27.609091 -50.416448 
L 30.990909 -78.577466 
L 34.372727 -69.19046 
L 37.754545 -50.416448 
L 41.136364 -59.803454 
L 44.518182 -50.416448 
L 47.9 -50.416448 
L 51.281818 -50.416448 
L 54.663636 -59.803454 
L 58.045455 -50.416448 
L 61.427273 -59.803454 
L 64.809091 -69.19046 
L 68.190909 -69.19046 
L 71.572727 -59.803454 
L 74.954545 -69.19046 
L 78.336364 -50.416448 
L 81.718182 -59.803454 
L 85.1 -59.803454 
L 88.481818 -69.19046 
L 91.863636 -59.803454 
L 95.245455 -69.19046 
L 98.627273 -69.19046 
L 102.009091 -59.803454 
L 105.390909 -50.416448 
L 108.772727 -69.19046 
L 112.154545 -69.19046 
L 115.536364 -50.416448 
L 118.918182 -59.803454 
L 122.3 -50.416448 
L 125.681818 -50.416448 
L 129.063636 -78.577466 
L 132.445455 -50.416448 
L 135.827273 -59.803454 
L 139.209091 -69.19046 
L 142.590909 -78.577466 
L 145.972727 -50.416448 
L 149.354545 -50.416448 
L 152.736364 -78.577466 
L 156.118182 -69.19046 
L 159.5 -87.964471 
L 162.881818 -59.803454 
L 166.263636 -50.416448 
L 169.645455 -78.577466 
L 173.027273 -50.416448 
L 176.409091 -69.19046 
L 179.790909 -50.416448 
L 183.172727 -78.577466 
L 186.554545 -78.577466 
L 189.936364 -69.19046 
L 193.318182 -69.19046 
L 196.7 -59.803454 
L 200.081818 -59.803454 
L 203.463636 -59.803454 
L 206.845455 -78.577466 
L 210.227273 -59.803454 
L 213.609091 -50.416448 
L 216.990909 -87.964471 
L 220.372727 -69.19046 
L 223.754545 -50.416448 
L 227.136364 -78.577466 
L 230.518182 -69.19046 
L 233.9 -59.803454 
L 237.281818 -69.19046 
L 240.663636 -59.803454 
L 244.045455 -50.416448 
L 247.427273 -87.964471 
L 250.809091 -78.577466 
L 254.190909 -69.19046 
L 257.572727 -50.416448 
L 260.954545 -50.416448 
L 264.336364 -69.19046 
L 267.718182 -59.803454 
L 271.1 -59.803454 
L 274.481818 -59.803454 
L 277.863636 -59.803454 
L 281.245455 -69.19046 
L 284.627273 -78.577466 
L 288.009091 -59.803454 
L 291.390909 -59.803454 
L 294.772727 -69.19046 
L 298.154545 -59.803454 
L 301.536364 -50.416448 
L 304.918182 -69.19046 
L 308.3 -59.803454 
L 311.681818 -50.416448 
L 315.063636 -50.416448 
L 318.445455 -50.416448 
L 321.827273 -78.577466 
L 325.209091 -87.964471 
L 328.590909 -50.416448 
L 331.972727 -69.19046 
L 335.354545 -59.803454 
L 338.736364 -69.19046 
L 342.118182 -69.19046 
L 345.5 -59.803454 
L 345.5 -37.55625 
L 345.5 -37.55625 
L 342.118182 -37.55625 
L 338.736364 -37.55625 
L 335.354545 -37.55625 
L 331.972727 -37.55625 
L 328.590909 -37.55625 
L 325.209091 -37.55625 
L 321.827273 -37.55625 
L 318.445455 -37.55625 
L 315.063636 -37.55625 
L 311.681818 -37.55625 
L 308.3 -37.55625 
L 304.918182 -37.55625 
L 301.536364 -37.55625 
L 298.154545 -37.55625 
L 294.772727 -37.55625 
L 291.390909 -37.55625 
L 288.009091 -37.55625 
L 284.627273 -37.55625 
L 281.245455 -37.55625 
L 277.863636 -37.55625 
L 274.481818 -37.55625 
L 271.1 -37.55625 
L 267.718182 -37.55625 
L 264.336364 -37.55625 
L 260.954545 -37.55625 
L 257.572727 -37.55625 
L 254.190909 -37.55625 
L 250.809091 -37.55625 
L 247.427273 -37.55625 
L 244.045455 -37.55625 
L 240.663636 -37.55625 
L 237.281818 -37.55625 
L 233.9 -37.55625 
L 230.518182 -37.55625 
L 227.136364 -37.55625 
L 223.754545 -37.55625 
L 220.372727 -37.55625 
L 216.990909 -37.55625 
L 213.609091 -37.55625 
L 210.227273 -37.55625 
L 206.845455 -37.55625 
L 203.463636 -37.55625 
L 200.081818 -37.55625 
L 196.7 -37.55625 
L 193.318182 -37.55625 
L 189.936364 -37.55625 
L 186.554545 -37.55625 
L 183.172727 -37.55625 
L 179.790909 -37.55625 
L 176.409091 -37.55625 
L 173.027273 -37.55625 
L 169.645455 -37.55625 
L 166.263636 -37.55625 
L 162.881818 -37.55625 
L 159.5 -37.55625 
L 156.118182 -37.55625 
L 152.736364 -37.55625 
L 149.354545 -37.55625 
L 145.972727 -37.55625 
L 142.590909 -37.55625 
L 139.209091 -37.55625 
L 135.827273 -37.55625 
L 132.445455 -37.55625 
L 129.063636 -37.55625 
L 125.681818 -37.55625 
L 122.3 -37.55625 
L 118.918182 -37.55625 
L 115.536364 -37.55625 
L 112.154545 -37.55625 
L 108.772727 -37.55625 
L 105.390909 -37.55625 
L 102.009091 -37.55625 
L 98.627273 -37.55625 
L 95.245455 -37.55625 
L 91.863636 -37.55625 
L 88.481818 -37.55625 
L 85.1 -37.55625 
L 81.718182 -37.55625 
L 78.336364 -37.55625 
L 74.954545 -37.55625 
L 71.572727 -37.55625 
L 68.190909 -37.55625 
L 64.809091 -37.55625 
L 61.427273 -37.55625 
L 58.045455 -37.55625 
L 54.663636 -37.55625 
L 51.281818 -37.55625 
L 47.9 -37.55625 
L 44.518182 -37.55625 
L 41.136364 -37.55625 
L 37.754545 -37.55625 
L 34.372727 -37.55625 
L 30.990909 -37.55625 
L 27.609091 -37.55625 
L 24.227273 -37.55625 
L 20.845455 -37.55625 
L 17.463636 -37.55625 
L 14.081818 -37.55625 
L 10.7 -37.55625 
z
" style="stroke: #000000; stroke-width: 0.8"/>
    </defs>
    <g clip-path="url(#pf39f4a04e8)">
     <use xlink:href="#m16b04a25b3" x="0" y="377.39625" style="fill: #ffffff; stroke: #000000; stroke-width: 0.8"/>
    </g>
   </g>
   <g id="matplotlib.axis_1">
    <g id="xtick_1">
     <g id="line2d_1">
      <defs>
       <path id="m402d28e68d" d="M 0 0 
L 0 3.5 
" style="stroke: #000000; stroke-width: 0.8"/>
      </defs>
      <g>
       <use xlink:href="#m402d28e68d" x="74.954545" y="339.84" style="stroke: #000000; stroke-width: 0.8"/>
      </g>
     </g>
     <g id="text_1">
      <!-- 20 -->
      <g transform="translate(68.592045 354.438438) scale(0.1 -0.1)">
       <defs>
        <path id="DejaVuSans-32" d="M 1228 531 
L 3431 531 
L 3431 0 
L 469 0 
L 469 531 
Q 828 903 1448 1529 
Q 2069 2156 2228 2338 
Q 2531 2678 2651 2914 
Q 2772 3150 2772 3378 
Q 2772 3750 2511 3984 
Q 2250 4219 1831 4219 
Q 1534 4219 1204 4116 
Q 875 4013 500 3803 
L 500 4441 
Q 881 4594 1212 4672 
Q 1544 4750 1819 4750 
Q 2544 4750 2975 4387 
Q 3406 4025 3406 3419 
Q 3406 3131 3298 2873 
Q 3191 2616 2906 2266 
Q 2828 2175 2409 1742 
Q 1991 1309 1228 531 
z
" transform="scale(0.015625)"/>
        <path id="DejaVuSans-30" d="M 2034 4250 
Q 1547 4250 1301 3770 
Q 1056 3291 1056 2328 
Q 1056 1369 1301 889 
Q 1547 409 2034 409 
Q 2525 409 2770 889 
Q 3016 1369 3016 2328 
Q 3016 3291 2770 3770 
Q 2525 4250 2034 4250 
z
M 2034 4750 
Q 2819 4750 3233 4129 
Q 3647 3509 3647 2328 
Q 3647 1150 3233 529 
Q 2819 -91 2034 -91 
Q 1250 -91 836 529 
Q 422 1150 422 2328 
Q 422 3509 836 4129 
Q 1250 4750 2034 4750 
z
" transform="scale(0.015625)"/>
       </defs>
       <use xlink:href="#DejaVuSans-32"/>
       <use xlink:href="#DejaVuSans-30" x="63.623047"/>
      </g>
     </g>
    </g>
    <g id="xtick_2">
     <g id="line2d_2">
      <g>
       <use xlink:href="#m402d28e68d" x="142.590909" y="339.84" style="stroke: #000000; stroke-width: 0.8"/>
      </g>
     </g>
     <g id="text_2">
      <!-- 40 -->
      <g transform="translate(136.228409 354.438438) scale(0.1 -0.1)">
       <defs>
        <path id="DejaVuSans-34" d="M 2419 4116 
L 825 1625 
L 2419 1625 
L 2419 4116 
z
M 2253 4666 
L 3047 4666 
L 3047 1625 
L 3713 1625 
L 3713 1100 
L 3047 1100 
L 3047 0 
L 2419 0 
L 2419 1100 
L 313 1100 
L 313 1709 
L 2253 4666 
z
" transform="scale(0.015625)"/>
       </defs>
       <use xlink:href="#DejaVuSans-34"/>
       <use xlink:href="#DejaVuSans-30" x="63.623047"/>
      </g>
     </g>
    </g>
    <g id="xtick_3">
     <g id="line2d_3">
      <g>
       <use xlink:href="#m402d28e68d" x="210.227273" y="339.84" style="stroke: #000000; stroke-width: 0.8"/>
      </g>
     </g>
     <g id="text_3">
      <!-- 60 -->
      <g transform="translate(203.864773 354.438438) scale(0.1 -0.1)">
       <defs>
        <path id="DejaVuSans-36" d="M 2113 2584 
Q 1688 2584 1439 2293 
Q 1191 2003 1191 1497 
Q 1191 994 1439 701 
Q 1688 409 2113 409 
Q 2538 409 2786 701 
Q 3034 994 3034 1497 
Q 3034 2003 2786 2293 
Q 2538 2584 2113 2584 
z
M 3366 4563 
L 3366 3988 
Q 3128 4100 2886 4159 
Q 2644 4219 2406 4219 
Q 1781 4219 1451 3797 
Q 1122 3375 1075 2522 
Q 1259 2794 1537 2939 
Q 1816 3084 2150 3084 
Q 2853 3084 3261 2657 
Q 3669 2231 3669 1497 
Q 3669 778 3244 343 
Q 2819 -91 2113 -91 
Q 1303 -91 875 529 
Q 447 1150 447 2328 
Q 447 3434 972 4092 
Q 1497 4750 2381 4750 
Q 2619 4750 2861 4703 
Q 3103 4656 3366 4563 
z
" transform="scale(0.015625)"/>
       </defs>
       <use xlink:href="#DejaVuSans-36"/>
       <use xlink:href="#DejaVuSans-30" x="63.623047"/>
      </g>
     </g>
    </g>
    <g id="xtick_4">
     <g id="line2d_4">
      <g>
       <use xlink:href="#m402d28e68d" x="277.863636" y="339.84" style="stroke: #000000; stroke-width: 0.8"/>
      </g>
     </g>
     <g id="text_4">
      <!-- 80 -->
      <g transform="translate(271.501136 354.438438) scale(0.1 -0.1)">
       <defs>
        <path id="DejaVuSans-38" d="M 2034 2216 
Q 1584 2216 1326 1975 
Q 1069 1734 1069 1313 
Q 1069 891 1326 650 
Q 1584 409 2034 409 
Q 2484 409 2743 651 
Q 3003 894 3003 1313 
Q 3003 1734 2745 1975 
Q 2488 2216 2034 2216 
z
M 1403 2484 
Q 997 2584 770 2862 
Q 544 3141 544 3541 
Q 544 4100 942 4425 
Q 1341 4750 2034 4750 
Q 2731 4750 3128 4425 
Q 3525 4100 3525 3541 
Q 3525 3141 3298 2862 
Q 3072 2584 2669 2484 
Q 3125 2378 3379 2068 
Q 3634 1759 3634 1313 
Q 3634 634 3220 271 
Q 2806 -91 2034 -91 
Q 1263 -91 848 271 
Q 434 634 434 1313 
Q 434 1759 690 2068 
Q 947 2378 1403 2484 
z
M 1172 3481 
Q 1172 3119 1398 2916 
Q 1625 2713 2034 2713 
Q 2441 2713 2670 2916 
Q 2900 3119 2900 3481 
Q 2900 3844 2670 4047 
Q 2441 4250 2034 4250 
Q 1625 4250 1398 4047 
Q 1172 3844 1172 3481 
z
" transform="scale(0.015625)"/>
       </defs>
       <use xlink:href="#DejaVuSans-38"/>
       <use xlink:href="#DejaVuSans-30" x="63.623047"/>
      </g>
     </g>
    </g>
    <g id="xtick_5">
     <g id="line2d_5">
      <g>
       <use xlink:href="#m402d28e68d" x="345.5" y="339.84" style="stroke: #000000; stroke-width: 0.8"/>
      </g>
     </g>
     <g id="text_5">
      <!-- 100 -->
      <g transform="translate(335.95625 354.438438) scale(0.1 -0.1)">
       <defs>
        <path id="DejaVuSans-31" d="M 794 531 
L 1825 531 
L 1825 4091 
L 703 3866 
L 703 4441 
L 1819 4666 
L 2450 4666 
L 2450 531 
L 3481 531 
L 3481 0 
L 794 0 
L 794 531 
z
" transform="scale(0.015625)"/>
       </defs>
       <use xlink:href="#DejaVuSans-31"/>
       <use xlink:href="#DejaVuSans-30" x="63.623047"/>
       <use xlink:href="#DejaVuSans-30" x="127.246094"/>
      </g>
     </g>
    </g>
    <g id="text_6">
     <!-- Position within deck -->
     <g transform="translate(128.397656 368.116562) scale(0.1 -0.1)">
      <defs>
       <path id="DejaVuSans-50" d="M 1259 4147 
L 1259 2394 
L 2053 2394 
Q 2494 2394 2734 2622 
Q 2975 2850 2975 3272 
Q 2975 3691 2734 3919 
Q 2494 4147 2053 4147 
L 1259 4147 
z
M 628 4666 
L 2053 4666 
Q 2838 4666 3239 4311 
Q 3641 3956 3641 3272 
Q 3641 2581 3239 2228 
Q 2838 1875 2053 1875 
L 1259 1875 
L 1259 0 
L 628 0 
L 628 4666 
z
" transform="scale(0.015625)"/>
       <path id="DejaVuSans-6f" d="M 1959 3097 
Q 1497 3097 1228 2736 
Q 959 2375 959 1747 
Q 959 1119 1226 758 
Q 1494 397 1959 397 
Q 2419 397 2687 759 
Q 2956 1122 2956 1747 
Q 2956 2369 2687 2733 
Q 2419 3097 1959 3097 
z
M 1959 3584 
Q 2709 3584 3137 3096 
Q 3566 2609 3566 1747 
Q 3566 888 3137 398 
Q 2709 -91 1959 -91 
Q 1206 -91 779 398 
Q 353 888 353 1747 
Q 353 2609 779 3096 
Q 1206 3584 1959 3584 
z
" transform="scale(0.015625)"/>
       <path id="DejaVuSans-73" d="M 2834 3397 
L 2834 2853 
Q 2591 2978 2328 3040 
Q 2066 3103 1784 3103 
Q 1356 3103 1142 2972 
Q 928 2841 928 2578 
Q 928 2378 1081 2264 
Q 1234 2150 1697 2047 
L 1894 2003 
Q 2506 1872 2764 1633 
Q 3022 1394 3022 966 
Q 3022 478 2636 193 
Q 2250 -91 1575 -91 
Q 1294 -91 989 -36 
Q 684 19 347 128 
L 347 722 
Q 666 556 975 473 
Q 1284 391 1588 391 
Q 1994 391 2212 530 
Q 2431 669 2431 922 
Q 2431 1156 2273 1281 
Q 2116 1406 1581 1522 
L 1381 1569 
Q 847 1681 609 1914 
Q 372 2147 372 2553 
Q 372 3047 722 3315 
Q 1072 3584 1716 3584 
Q 2034 3584 2315 3537 
Q 2597 3491 2834 3397 
z
" transform="scale(0.015625)"/>
       <path id="DejaVuSans-69" d="M 603 3500 
L 1178 3500 
L 1178 0 
L 603 0 
L 603 3500 
z
M 603 4863 
L 1178 4863 
L 1178 4134 
L 603 4134 
L 603 4863 
z
" transform="scale(0.015625)"/>
       <path id="DejaVuSans-74" d="M 1172 4494 
L 1172 3500 
L 2356 3500 
L 2356 3053 
L 1172 3053 
L 1172 1153 
Q 1172 725 1289 603 
Q 1406 481 1766 481 
L 2356 481 
L 2356 0 
L 1766 0 
Q 1100 0 847 248 
Q 594 497 594 1153 
L 594 3053 
L 172 3053 
L 172 3500 
L 594 3500 
L 594 4494 
L 1172 4494 
z
" transform="scale(0.015625)"/>
       <path id="DejaVuSans-6e" d="M 3513 2113 
L 3513 0 
L 2938 0 
L 2938 2094 
Q 2938 2591 2744 2837 
Q 2550 3084 2163 3084 
Q 1697 3084 1428 2787 
Q 1159 2491 1159 1978 
L 1159 0 
L 581 0 
L 581 3500 
L 1159 3500 
L 1159 2956 
Q 1366 3272 1645 3428 
Q 1925 3584 2291 3584 
Q 2894 3584 3203 3211 
Q 3513 2838 3513 2113 
z
" transform="scale(0.015625)"/>
       <path id="DejaVuSans-20" transform="scale(0.015625)"/>
       <path id="DejaVuSans-77" d="M 269 3500 
L 844 3500 
L 1563 769 
L 2278 3500 
L 2956 3500 
L 3675 769 
L 4391 3500 
L 4966 3500 
L 4050 0 
L 3372 0 
L 2619 2869 
L 1863 0 
L 1184 0 
L 269 3500 
z
" transform="scale(0.015625)"/>
       <path id="DejaVuSans-68" d="M 3513 2113 
L 3513 0 
L 2938 0 
L 2938 2094 
Q 2938 2591 2744 2837 
Q 2550 3084 2163 3084 
Q 1697 3084 1428 2787 
Q 1159 2491 1159 1978 
L 1159 0 
L 581 0 
L 581 4863 
L 1159 4863 
L 1159 2956 
Q 1366 3272 1645 3428 
Q 1925 3584 2291 3584 
Q 2894 3584 3203 3211 
Q 3513 2838 3513 2113 
z
" transform="scale(0.015625)"/>
       <path id="DejaVuSans-64" d="M 2906 2969 
L 2906 4863 
L 3481 4863 
L 3481 0 
L 2906 0 
L 2906 525 
Q 2725 213 2448 61 
Q 2172 -91 1784 -91 
Q 1150 -91 751 415 
Q 353 922 353 1747 
Q 353 2572 751 3078 
Q 1150 3584 1784 3584 
Q 2172 3584 2448 3432 
Q 2725 3281 2906 2969 
z
M 947 1747 
Q 947 1113 1208 752 
Q 1469 391 1925 391 
Q 2381 391 2643 752 
Q 2906 1113 2906 1747 
Q 2906 2381 2643 2742 
Q 2381 3103 1925 3103 
Q 1469 3103 1208 2742 
Q 947 2381 947 1747 
z
" transform="scale(0.015625)"/>
       <path id="DejaVuSans-65" d="M 3597 1894 
L 3597 1613 
L 953 1613 
Q 991 1019 1311 708 
Q 1631 397 2203 397 
Q 2534 397 2845 478 
Q 3156 559 3463 722 
L 3463 178 
Q 3153 47 2828 -22 
Q 2503 -91 2169 -91 
Q 1331 -91 842 396 
Q 353 884 353 1716 
Q 353 2575 817 3079 
Q 1281 3584 2069 3584 
Q 2775 3584 3186 3129 
Q 3597 2675 3597 1894 
z
M 3022 2063 
Q 3016 2534 2758 2815 
Q 2500 3097 2075 3097 
Q 1594 3097 1305 2825 
Q 1016 2553 972 2059 
L 3022 2063 
z
" transform="scale(0.015625)"/>
       <path id="DejaVuSans-63" d="M 3122 3366 
L 3122 2828 
Q 2878 2963 2633 3030 
Q 2388 3097 2138 3097 
Q 1578 3097 1268 2742 
Q 959 2388 959 1747 
Q 959 1106 1268 751 
Q 1578 397 2138 397 
Q 2388 397 2633 464 
Q 2878 531 3122 666 
L 3122 134 
Q 2881 22 2623 -34 
Q 2366 -91 2075 -91 
Q 1284 -91 818 406 
Q 353 903 353 1747 
Q 353 2603 823 3093 
Q 1294 3584 2113 3584 
Q 2378 3584 2631 3529 
Q 2884 3475 3122 3366 
z
" transform="scale(0.015625)"/>
       <path id="DejaVuSans-6b" d="M 581 4863 
L 1159 4863 
L 1159 1991 
L 2875 3500 
L 3609 3500 
L 1753 1863 
L 3688 0 
L 2938 0 
L 1159 1709 
L 1159 0 
L 581 0 
L 581 4863 
z
" transform="scale(0.015625)"/>
      </defs>
      <use xlink:href="#DejaVuSans-50"/>
      <use xlink:href="#DejaVuSans-6f" x="56.677734"/>
      <use xlink:href="#DejaVuSans-73" x="117.859375"/>
      <use xlink:href="#DejaVuSans-69" x="169.958984"/>
      <use xlink:href="#DejaVuSans-74" x="197.742188"/>
      <use xlink:href="#DejaVuSans-69" x="236.951172"/>
      <use xlink:href="#DejaVuSans-6f" x="264.734375"/>
      <use xlink:href="#DejaVuSans-6e" x="325.916016"/>
      <use xlink:href="#DejaVuSans-20" x="389.294922"/>
      <use xlink:href="#DejaVuSans-77" x="421.082031"/>
      <use xlink:href="#DejaVuSans-69" x="502.869141"/>
      <use xlink:href="#DejaVuSans-74" x="530.652344"/>
      <use xlink:href="#DejaVuSans-68" x="569.861328"/>
      <use xlink:href="#DejaVuSans-69" x="633.240234"/>
      <use xlink:href="#DejaVuSans-6e" x="661.023438"/>
      <use xlink:href="#DejaVuSans-20" x="724.402344"/>
      <use xlink:href="#DejaVuSans-64" x="756.189453"/>
      <use xlink:href="#DejaVuSans-65" x="819.666016"/>
      <use xlink:href="#DejaVuSans-63" x="881.189453"/>
      <use xlink:href="#DejaVuSans-6b" x="936.169922"/>
     </g>
    </g>
   </g>
   <g id="matplotlib.axis_2">
    <g id="ytick_1">
     <g id="line2d_6">
      <defs>
       <path id="mdaa20314ef" d="M 0 0 
L -3.5 0 
" style="stroke: #000000; stroke-width: 0.8"/>
      </defs>
      <g>
       <use xlink:href="#mdaa20314ef" x="10.7" y="339.84" style="stroke: #000000; stroke-width: 0.8"/>
      </g>
     </g>
    </g>
    <g id="ytick_2">
     <g id="line2d_7">
      <g>
       <use xlink:href="#mdaa20314ef" x="10.7" y="275.53901" style="stroke: #000000; stroke-width: 0.8"/>
      </g>
     </g>
    </g>
    <g id="ytick_3">
     <g id="line2d_8">
      <g>
       <use xlink:href="#mdaa20314ef" x="10.7" y="211.23802" style="stroke: #000000; stroke-width: 0.8"/>
      </g>
     </g>
    </g>
    <g id="ytick_4">
     <g id="line2d_9">
      <g>
       <use xlink:href="#mdaa20314ef" x="10.7" y="146.93703" style="stroke: #000000; stroke-width: 0.8"/>
      </g>
     </g>
    </g>
    <g id="ytick_5">
     <g id="line2d_10">
      <g>
       <use xlink:href="#mdaa20314ef" x="10.7" y="82.63604" style="stroke: #000000; stroke-width: 0.8"/>
      </g>
     </g>
    </g>
    <g id="ytick_6">
     <g id="line2d_11">
      <g>
       <use xlink:href="#mdaa20314ef" x="10.7" y="18.33505" style="stroke: #000000; stroke-width: 0.8"/>
      </g>
     </g>
    </g>
   </g>
   <g id="patch_3">
    <path d="M 10.7 339.84 
L 10.7 7.2 
" style="fill: none; stroke: #000000; stroke-width: 0.8; stroke-linejoin: miter; stroke-linecap: square"/>
   </g>
   <g id="patch_4">
    <path d="M 345.5 339.84 
L 345.5 7.2 
" style="fill: none; stroke: #000000; stroke-width: 0.8; stroke-linejoin: miter; stroke-linecap: square"/>
   </g>
   <g id="patch_5">
    <path d="M 10.7 339.84 
L 345.5 339.84 
" style="fill: none; stroke: #000000; stroke-width: 0.8; stroke-linejoin: miter; stroke-linecap: square"/>
   </g>
   <g id="patch_6">
    <path d="M 10.7 7.2 
L 345.5 7.2 
" style="fill: none; stroke: #000000; stroke-width: 0.8; stroke-linejoin: miter; stroke-linecap: square"/>
   </g>
   <g id="legend_1">
    <g id="patch_7">
     <path d="M 360.892 256.68 
L 447.159188 256.68 
Q 449.159188 256.68 449.159188 254.68 
L 449.159188 108.89875 
Q 449.159188 106.89875 447.159188 106.89875 
L 360.892 106.89875 
Q 358.892 106.89875 358.892 108.89875 
L 358.892 254.68 
Q 358.892 256.68 360.892 256.68 
z
" style="fill: #ffffff; opacity: 0.8"/>
    </g>
    <g id="patch_8">
     <path d="M 362.892 118.497187 
L 382.892 118.497187 
L 382.892 111.497187 
L 362.892 111.497187 
z
" style="fill: #1a1a1a; stroke: #000000; stroke-width: 0.8; stroke-linejoin: miter"/>
    </g>
    <g id="text_7">
     <!-- Shuffle: 1 -->
     <g transform="translate(390.892 118.497187) scale(0.1 -0.1)">
      <defs>
       <path id="DejaVuSans-53" d="M 3425 4513 
L 3425 3897 
Q 3066 4069 2747 4153 
Q 2428 4238 2131 4238 
Q 1616 4238 1336 4038 
Q 1056 3838 1056 3469 
Q 1056 3159 1242 3001 
Q 1428 2844 1947 2747 
L 2328 2669 
Q 3034 2534 3370 2195 
Q 3706 1856 3706 1288 
Q 3706 609 3251 259 
Q 2797 -91 1919 -91 
Q 1588 -91 1214 -16 
Q 841 59 441 206 
L 441 856 
Q 825 641 1194 531 
Q 1563 422 1919 422 
Q 2459 422 2753 634 
Q 3047 847 3047 1241 
Q 3047 1584 2836 1778 
Q 2625 1972 2144 2069 
L 1759 2144 
Q 1053 2284 737 2584 
Q 422 2884 422 3419 
Q 422 4038 858 4394 
Q 1294 4750 2059 4750 
Q 2388 4750 2728 4690 
Q 3069 4631 3425 4513 
z
" transform="scale(0.015625)"/>
       <path id="DejaVuSans-75" d="M 544 1381 
L 544 3500 
L 1119 3500 
L 1119 1403 
Q 1119 906 1312 657 
Q 1506 409 1894 409 
Q 2359 409 2629 706 
Q 2900 1003 2900 1516 
L 2900 3500 
L 3475 3500 
L 3475 0 
L 2900 0 
L 2900 538 
Q 2691 219 2414 64 
Q 2138 -91 1772 -91 
Q 1169 -91 856 284 
Q 544 659 544 1381 
z
M 1991 3584 
L 1991 3584 
z
" transform="scale(0.015625)"/>
       <path id="DejaVuSans-66" d="M 2375 4863 
L 2375 4384 
L 1825 4384 
Q 1516 4384 1395 4259 
Q 1275 4134 1275 3809 
L 1275 3500 
L 2222 3500 
L 2222 3053 
L 1275 3053 
L 1275 0 
L 697 0 
L 697 3053 
L 147 3053 
L 147 3500 
L 697 3500 
L 697 3744 
Q 697 4328 969 4595 
Q 1241 4863 1831 4863 
L 2375 4863 
z
" transform="scale(0.015625)"/>
       <path id="DejaVuSans-6c" d="M 603 4863 
L 1178 4863 
L 1178 0 
L 603 0 
L 603 4863 
z
" transform="scale(0.015625)"/>
       <path id="DejaVuSans-3a" d="M 750 794 
L 1409 794 
L 1409 0 
L 750 0 
L 750 794 
z
M 750 3309 
L 1409 3309 
L 1409 2516 
L 750 2516 
L 750 3309 
z
" transform="scale(0.015625)"/>
      </defs>
      <use xlink:href="#DejaVuSans-53"/>
      <use xlink:href="#DejaVuSans-68" x="63.476562"/>
      <use xlink:href="#DejaVuSans-75" x="126.855469"/>
      <use xlink:href="#DejaVuSans-66" x="190.234375"/>
      <use xlink:href="#DejaVuSans-66" x="225.439453"/>
      <use xlink:href="#DejaVuSans-6c" x="260.644531"/>
      <use xlink:href="#DejaVuSans-65" x="288.427734"/>
      <use xlink:href="#DejaVuSans-3a" x="349.951172"/>
      <use xlink:href="#DejaVuSans-20" x="383.642578"/>
      <use xlink:href="#DejaVuSans-31" x="415.429688"/>
     </g>
    </g>
    <g id="patch_9">
     <path d="M 362.892 133.175313 
L 382.892 133.175313 
L 382.892 126.175313 
L 362.892 126.175313 
z
" style="fill: #333333; stroke: #000000; stroke-width: 0.8; stroke-linejoin: miter"/>
    </g>
    <g id="text_8">
     <!-- Shuffle: 2 -->
     <g transform="translate(390.892 133.175313) scale(0.1 -0.1)">
      <use xlink:href="#DejaVuSans-53"/>
      <use xlink:href="#DejaVuSans-68" x="63.476562"/>
      <use xlink:href="#DejaVuSans-75" x="126.855469"/>
      <use xlink:href="#DejaVuSans-66" x="190.234375"/>
      <use xlink:href="#DejaVuSans-66" x="225.439453"/>
      <use xlink:href="#DejaVuSans-6c" x="260.644531"/>
      <use xlink:href="#DejaVuSans-65" x="288.427734"/>
      <use xlink:href="#DejaVuSans-3a" x="349.951172"/>
      <use xlink:href="#DejaVuSans-20" x="383.642578"/>
      <use xlink:href="#DejaVuSans-32" x="415.429688"/>
     </g>
    </g>
    <g id="patch_10">
     <path d="M 362.892 147.853438 
L 382.892 147.853438 
L 382.892 140.853438 
L 362.892 140.853438 
z
" style="fill: #4c4c4c; stroke: #000000; stroke-width: 0.8; stroke-linejoin: miter"/>
    </g>
    <g id="text_9">
     <!-- Shuffle: 3 -->
     <g transform="translate(390.892 147.853438) scale(0.1 -0.1)">
      <defs>
       <path id="DejaVuSans-33" d="M 2597 2516 
Q 3050 2419 3304 2112 
Q 3559 1806 3559 1356 
Q 3559 666 3084 287 
Q 2609 -91 1734 -91 
Q 1441 -91 1130 -33 
Q 819 25 488 141 
L 488 750 
Q 750 597 1062 519 
Q 1375 441 1716 441 
Q 2309 441 2620 675 
Q 2931 909 2931 1356 
Q 2931 1769 2642 2001 
Q 2353 2234 1838 2234 
L 1294 2234 
L 1294 2753 
L 1863 2753 
Q 2328 2753 2575 2939 
Q 2822 3125 2822 3475 
Q 2822 3834 2567 4026 
Q 2313 4219 1838 4219 
Q 1578 4219 1281 4162 
Q 984 4106 628 3988 
L 628 4550 
Q 988 4650 1302 4700 
Q 1616 4750 1894 4750 
Q 2613 4750 3031 4423 
Q 3450 4097 3450 3541 
Q 3450 3153 3228 2886 
Q 3006 2619 2597 2516 
z
" transform="scale(0.015625)"/>
      </defs>
      <use xlink:href="#DejaVuSans-53"/>
      <use xlink:href="#DejaVuSans-68" x="63.476562"/>
      <use xlink:href="#DejaVuSans-75" x="126.855469"/>
      <use xlink:href="#DejaVuSans-66" x="190.234375"/>
      <use xlink:href="#DejaVuSans-66" x="225.439453"/>
      <use xlink:href="#DejaVuSans-6c" x="260.644531"/>
      <use xlink:href="#DejaVuSans-65" x="288.427734"/>
      <use xlink:href="#DejaVuSans-3a" x="349.951172"/>
      <use xlink:href="#DejaVuSans-20" x="383.642578"/>
      <use xlink:href="#DejaVuSans-33" x="415.429688"/>
     </g>
    </g>
    <g id="patch_11">
     <path d="M 362.892 162.531563 
L 382.892 162.531563 
L 382.892 155.531563 
L 362.892 155.531563 
z
" style="fill: #666666; stroke: #000000; stroke-width: 0.8; stroke-linejoin: miter"/>
    </g>
    <g id="text_10">
     <!-- Shuffle: 4 -->
     <g transform="translate(390.892 162.531563) scale(0.1 -0.1)">
      <use xlink:href="#DejaVuSans-53"/>
      <use xlink:href="#DejaVuSans-68" x="63.476562"/>
      <use xlink:href="#DejaVuSans-75" x="126.855469"/>
      <use xlink:href="#DejaVuSans-66" x="190.234375"/>
      <use xlink:href="#DejaVuSans-66" x="225.439453"/>
      <use xlink:href="#DejaVuSans-6c" x="260.644531"/>
      <use xlink:href="#DejaVuSans-65" x="288.427734"/>
      <use xlink:href="#DejaVuSans-3a" x="349.951172"/>
      <use xlink:href="#DejaVuSans-20" x="383.642578"/>
      <use xlink:href="#DejaVuSans-34" x="415.429688"/>
     </g>
    </g>
    <g id="patch_12">
     <path d="M 362.892 177.209688 
L 382.892 177.209688 
L 382.892 170.209688 
L 362.892 170.209688 
z
" style="fill: #808080; stroke: #000000; stroke-width: 0.8; stroke-linejoin: miter"/>
    </g>
    <g id="text_11">
     <!-- Shuffle: 5 -->
     <g transform="translate(390.892 177.209688) scale(0.1 -0.1)">
      <defs>
       <path id="DejaVuSans-35" d="M 691 4666 
L 3169 4666 
L 3169 4134 
L 1269 4134 
L 1269 2991 
Q 1406 3038 1543 3061 
Q 1681 3084 1819 3084 
Q 2600 3084 3056 2656 
Q 3513 2228 3513 1497 
Q 3513 744 3044 326 
Q 2575 -91 1722 -91 
Q 1428 -91 1123 -41 
Q 819 9 494 109 
L 494 744 
Q 775 591 1075 516 
Q 1375 441 1709 441 
Q 2250 441 2565 725 
Q 2881 1009 2881 1497 
Q 2881 1984 2565 2268 
Q 2250 2553 1709 2553 
Q 1456 2553 1204 2497 
Q 953 2441 691 2322 
L 691 4666 
z
" transform="scale(0.015625)"/>
      </defs>
      <use xlink:href="#DejaVuSans-53"/>
      <use xlink:href="#DejaVuSans-68" x="63.476562"/>
      <use xlink:href="#DejaVuSans-75" x="126.855469"/>
      <use xlink:href="#DejaVuSans-66" x="190.234375"/>
      <use xlink:href="#DejaVuSans-66" x="225.439453"/>
      <use xlink:href="#DejaVuSans-6c" x="260.644531"/>
      <use xlink:href="#DejaVuSans-65" x="288.427734"/>
      <use xlink:href="#DejaVuSans-3a" x="349.951172"/>
      <use xlink:href="#DejaVuSans-20" x="383.642578"/>
      <use xlink:href="#DejaVuSans-35" x="415.429688"/>
     </g>
    </g>
    <g id="patch_13">
     <path d="M 362.892 191.887812 
L 382.892 191.887812 
L 382.892 184.887812 
L 362.892 184.887812 
z
" style="fill: #999999; stroke: #000000; stroke-width: 0.8; stroke-linejoin: miter"/>
    </g>
    <g id="text_12">
     <!-- Shuffle: 6 -->
     <g transform="translate(390.892 191.887812) scale(0.1 -0.1)">
      <use xlink:href="#DejaVuSans-53"/>
      <use xlink:href="#DejaVuSans-68" x="63.476562"/>
      <use xlink:href="#DejaVuSans-75" x="126.855469"/>
      <use xlink:href="#DejaVuSans-66" x="190.234375"/>
      <use xlink:href="#DejaVuSans-66" x="225.439453"/>
      <use xlink:href="#DejaVuSans-6c" x="260.644531"/>
      <use xlink:href="#DejaVuSans-65" x="288.427734"/>
      <use xlink:href="#DejaVuSans-3a" x="349.951172"/>
      <use xlink:href="#DejaVuSans-20" x="383.642578"/>
      <use xlink:href="#DejaVuSans-36" x="415.429688"/>
     </g>
    </g>
    <g id="patch_14">
     <path d="M 362.892 206.565938 
L 382.892 206.565938 
L 382.892 199.565938 
L 362.892 199.565938 
z
" style="fill: #b2b2b2; stroke: #000000; stroke-width: 0.8; stroke-linejoin: miter"/>
    </g>
    <g id="text_13">
     <!-- Shuffle: 7 -->
     <g transform="translate(390.892 206.565938) scale(0.1 -0.1)">
      <defs>
       <path id="DejaVuSans-37" d="M 525 4666 
L 3525 4666 
L 3525 4397 
L 1831 0 
L 1172 0 
L 2766 4134 
L 525 4134 
L 525 4666 
z
" transform="scale(0.015625)"/>
      </defs>
      <use xlink:href="#DejaVuSans-53"/>
      <use xlink:href="#DejaVuSans-68" x="63.476562"/>
      <use xlink:href="#DejaVuSans-75" x="126.855469"/>
      <use xlink:href="#DejaVuSans-66" x="190.234375"/>
      <use xlink:href="#DejaVuSans-66" x="225.439453"/>
      <use xlink:href="#DejaVuSans-6c" x="260.644531"/>
      <use xlink:href="#DejaVuSans-65" x="288.427734"/>
      <use xlink:href="#DejaVuSans-3a" x="349.951172"/>
      <use xlink:href="#DejaVuSans-20" x="383.642578"/>
      <use xlink:href="#DejaVuSans-37" x="415.429688"/>
     </g>
    </g>
    <g id="patch_15">
     <path d="M 362.892 221.244062 
L 382.892 221.244062 
L 382.892 214.244062 
L 362.892 214.244062 
z
" style="fill: #cccccc; stroke: #000000; stroke-width: 0.8; stroke-linejoin: miter"/>
    </g>
    <g id="text_14">
     <!-- Shuffle: 8 -->
     <g transform="translate(390.892 221.244062) scale(0.1 -0.1)">
      <use xlink:href="#DejaVuSans-53"/>
      <use xlink:href="#DejaVuSans-68" x="63.476562"/>
      <use xlink:href="#DejaVuSans-75" x="126.855469"/>
      <use xlink:href="#DejaVuSans-66" x="190.234375"/>
      <use xlink:href="#DejaVuSans-66" x="225.439453"/>
      <use xlink:href="#DejaVuSans-6c" x="260.644531"/>
      <use xlink:href="#DejaVuSans-65" x="288.427734"/>
      <use xlink:href="#DejaVuSans-3a" x="349.951172"/>
      <use xlink:href="#DejaVuSans-20" x="383.642578"/>
      <use xlink:href="#DejaVuSans-38" x="415.429688"/>
     </g>
    </g>
    <g id="patch_16">
     <path d="M 362.892 235.922188 
L 382.892 235.922188 
L 382.892 228.922188 
L 362.892 228.922188 
z
" style="fill: #e6e6e6; stroke: #000000; stroke-width: 0.8; stroke-linejoin: miter"/>
    </g>
    <g id="text_15">
     <!-- Shuffle: 9 -->
     <g transform="translate(390.892 235.922188) scale(0.1 -0.1)">
      <defs>
       <path id="DejaVuSans-39" d="M 703 97 
L 703 672 
Q 941 559 1184 500 
Q 1428 441 1663 441 
Q 2288 441 2617 861 
Q 2947 1281 2994 2138 
Q 2813 1869 2534 1725 
Q 2256 1581 1919 1581 
Q 1219 1581 811 2004 
Q 403 2428 403 3163 
Q 403 3881 828 4315 
Q 1253 4750 1959 4750 
Q 2769 4750 3195 4129 
Q 3622 3509 3622 2328 
Q 3622 1225 3098 567 
Q 2575 -91 1691 -91 
Q 1453 -91 1209 -44 
Q 966 3 703 97 
z
M 1959 2075 
Q 2384 2075 2632 2365 
Q 2881 2656 2881 3163 
Q 2881 3666 2632 3958 
Q 2384 4250 1959 4250 
Q 1534 4250 1286 3958 
Q 1038 3666 1038 3163 
Q 1038 2656 1286 2365 
Q 1534 2075 1959 2075 
z
" transform="scale(0.015625)"/>
      </defs>
      <use xlink:href="#DejaVuSans-53"/>
      <use xlink:href="#DejaVuSans-68" x="63.476562"/>
      <use xlink:href="#DejaVuSans-75" x="126.855469"/>
      <use xlink:href="#DejaVuSans-66" x="190.234375"/>
      <use xlink:href="#DejaVuSans-66" x="225.439453"/>
      <use xlink:href="#DejaVuSans-6c" x="260.644531"/>
      <use xlink:href="#DejaVuSans-65" x="288.427734"/>
      <use xlink:href="#DejaVuSans-3a" x="349.951172"/>
      <use xlink:href="#DejaVuSans-20" x="383.642578"/>
      <use xlink:href="#DejaVuSans-39" x="415.429688"/>
     </g>
    </g>
    <g id="patch_17">
     <path d="M 362.892 250.600312 
L 382.892 250.600312 
L 382.892 243.600312 
L 362.892 243.600312 
z
" style="fill: #ffffff; stroke: #000000; stroke-width: 0.8; stroke-linejoin: miter"/>
    </g>
    <g id="text_16">
     <!-- Shuffle: 10 -->
     <g transform="translate(390.892 250.600312) scale(0.1 -0.1)">
      <use xlink:href="#DejaVuSans-53"/>
      <use xlink:href="#DejaVuSans-68" x="63.476562"/>
      <use xlink:href="#DejaVuSans-75" x="126.855469"/>
      <use xlink:href="#DejaVuSans-66" x="190.234375"/>
      <use xlink:href="#DejaVuSans-66" x="225.439453"/>
      <use xlink:href="#DejaVuSans-6c" x="260.644531"/>
      <use xlink:href="#DejaVuSans-65" x="288.427734"/>
      <use xlink:href="#DejaVuSans-3a" x="349.951172"/>
      <use xlink:href="#DejaVuSans-20" x="383.642578"/>
      <use xlink:href="#DejaVuSans-31" x="415.429688"/>
      <use xlink:href="#DejaVuSans-30" x="479.052734"/>
     </g>
    </g>
   </g>
  </g>
 </g>
 <defs>
  <clipPath id="pf39f4a04e8">
   <rect x="10.7" y="7.2" width="334.8" height="332.64"/>
  </clipPath>
 </defs>
</svg>
