<?xml version="1.0" encoding="utf-8" standalone="no"?>
<!DOCTYPE svg PUBLIC "-//W3C//DTD SVG 1.1//EN"
  "http://www.w3.org/Graphics/SVG/1.1/DTD/svg11.dtd">
<svg xmlns:xlink="http://www.w3.org/1999/xlink" width="456.359187pt" height="377.39625pt" viewBox="0 0 456.359187 377.39625" xmlns="http://www.w3.org/2000/svg" version="1.1">
 <metadata>
  <rdf:RDF xmlns:dc="http://purl.org/dc/elements/1.1/" xmlns:cc="http://creativecommons.org/ns#" xmlns:rdf="http://www.w3.org/1999/02/22-rdf-syntax-ns#">
   <cc:Work>
    <dc:type rdf:resource="http://purl.org/dc/dcmitype/StillImage"/>
    <dc:date>2023-06-12T21:30:22.107815</dc:date>
    <dc:format>image/svg+xml</dc:format>
    <dc:creator>
     <cc:Agent>
      <dc:title>Matplotlib v3.6.0, https://matplotlib.org/</dc:title>
     </cc:Agent>
    </dc:creator>
   </cc:Work>
  </rdf:RDF>
 </metadata>
 <defs>
  <style type="text/css">*{stroke-linejoin: round; stroke-linecap: butt}</style>
 </defs>
 <g id="figure_1">
  <g id="patch_1">
   <path d="M 0 377.39625 
L 456.359187 377.39625 
L 456.359187 0 
L 0 0 
z
" style="fill: #ffffff"/>
  </g>
  <g id="axes_1">
   <g id="patch_2">
    <path d="M 10.7 339.84 
L 345.5 339.84 
L 345.5 7.2 
L 10.7 7.2 
z
" style="fill: #ffffff"/>
   </g>
   <g id="PolyCollection_1">
    <defs>
     <path id="m535b88dea8" d="M 10.7 -37.55625 
L 10.7 -163.051902 
L 14.081818 -163.051902 
L 17.463636 -163.051902 
L 20.845455 -163.051902 
L 24.227273 -163.051902 
L 27.609091 -163.051902 
L 30.990909 -163.051902 
L 34.372727 -163.051902 
L 37.754545 -163.051902 
L 41.136364 -163.051902 
L 44.518182 -163.051902 
L 47.9 -163.051902 
L 51.281818 -163.051902 
L 54.663636 -163.051902 
L 58.045455 -163.051902 
L 61.427273 -163.051902 
L 64.809091 -163.051902 
L 68.190909 -163.051902 
L 71.572727 -163.051902 
L 74.954545 -163.051902 
L 78.336364 -163.051902 
L 81.718182 -163.051902 
L 85.1 -163.051902 
L 88.481818 -163.051902 
L 91.863636 -163.051902 
L 95.245455 -163.051902 
L 98.627273 -163.051902 
L 102.009091 -163.051902 
L 105.390909 -163.051902 
L 108.772727 -163.051902 
L 112.154545 -163.051902 
L 115.536364 -163.051902 
L 118.918182 -163.051902 
L 122.3 -163.051902 
L 125.681818 -163.051902 
L 129.063636 -163.051902 
L 132.445455 -163.051902 
L 135.827273 -163.051902 
L 139.209091 -163.051902 
L 142.590909 -170.704076 
L 145.972727 -208.964946 
L 149.354545 -178.35625 
L 152.736364 -216.61712 
L 156.118182 -208.964946 
L 159.5 -285.486685 
L 162.881818 -323.747554 
L 166.263636 -331.399728 
L 169.645455 -354.35625 
L 173.027273 -331.399728 
L 176.409091 -316.09538 
L 179.790909 -247.225815 
L 183.172727 -178.35625 
L 186.554545 -178.35625 
L 189.936364 -170.704076 
L 193.318182 -163.051902 
L 196.7 -163.051902 
L 200.081818 -163.051902 
L 203.463636 -163.051902 
L 206.845455 -163.051902 
L 210.227273 -163.051902 
L 213.609091 -163.051902 
L 216.990909 -163.051902 
L 220.372727 -163.051902 
L 223.754545 -163.051902 
L 227.136364 -163.051902 
L 230.518182 -163.051902 
L 233.9 -163.051902 
L 237.281818 -163.051902 
L 240.663636 -163.051902 
L 244.045455 -163.051902 
L 247.427273 -163.051902 
L 250.809091 -163.051902 
L 254.190909 -163.051902 
L 257.572727 -163.051902 
L 260.954545 -163.051902 
L 264.336364 -163.051902 
L 267.718182 -163.051902 
L 271.1 -163.051902 
L 274.481818 -163.051902 
L 277.863636 -163.051902 
L 281.245455 -163.051902 
L 284.627273 -163.051902 
L 288.009091 -163.051902 
L 291.390909 -163.051902 
L 294.772727 -163.051902 
L 298.154545 -163.051902 
L 301.536364 -163.051902 
L 304.918182 -163.051902 
L 308.3 -163.051902 
L 311.681818 -163.051902 
L 315.063636 -163.051902 
L 318.445455 -163.051902 
L 321.827273 -163.051902 
L 325.209091 -163.051902 
L 328.590909 -163.051902 
L 331.972727 -163.051902 
L 335.354545 -163.051902 
L 338.736364 -163.051902 
L 342.118182 -163.051902 
L 345.5 -163.051902 
L 345.5 -37.55625 
L 345.5 -37.55625 
L 342.118182 -37.55625 
L 338.736364 -37.55625 
L 335.354545 -37.55625 
L 331.972727 -37.55625 
L 328.590909 -37.55625 
L 325.209091 -37.55625 
L 321.827273 -37.55625 
L 318.445455 -37.55625 
L 315.063636 -37.55625 
L 311.681818 -37.55625 
L 308.3 -37.55625 
L 304.918182 -37.55625 
L 301.536364 -37.55625 
L 298.154545 -37.55625 
L 294.772727 -37.55625 
L 291.390909 -37.55625 
L 288.009091 -37.55625 
L 284.627273 -37.55625 
L 281.245455 -37.55625 
L 277.863636 -37.55625 
L 274.481818 -37.55625 
L 271.1 -37.55625 
L 267.718182 -37.55625 
L 264.336364 -37.55625 
L 260.954545 -37.55625 
L 257.572727 -37.55625 
L 254.190909 -37.55625 
L 250.809091 -37.55625 
L 247.427273 -37.55625 
L 244.045455 -37.55625 
L 240.663636 -37.55625 
L 237.281818 -37.55625 
L 233.9 -37.55625 
L 230.518182 -37.55625 
L 227.136364 -37.55625 
L 223.754545 -37.55625 
L 220.372727 -37.55625 
L 216.990909 -37.55625 
L 213.609091 -37.55625 
L 210.227273 -37.55625 
L 206.845455 -37.55625 
L 203.463636 -37.55625 
L 200.081818 -37.55625 
L 196.7 -37.55625 
L 193.318182 -37.55625 
L 189.936364 -37.55625 
L 186.554545 -37.55625 
L 183.172727 -37.55625 
L 179.790909 -37.55625 
L 176.409091 -37.55625 
L 173.027273 -37.55625 
L 169.645455 -37.55625 
L 166.263636 -37.55625 
L 162.881818 -37.55625 
L 159.5 -37.55625 
L 156.118182 -37.55625 
L 152.736364 -37.55625 
L 149.354545 -37.55625 
L 145.972727 -37.55625 
L 142.590909 -37.55625 
L 139.209091 -37.55625 
L 135.827273 -37.55625 
L 132.445455 -37.55625 
L 129.063636 -37.55625 
L 125.681818 -37.55625 
L 122.3 -37.55625 
L 118.918182 -37.55625 
L 115.536364 -37.55625 
L 112.154545 -37.55625 
L 108.772727 -37.55625 
L 105.390909 -37.55625 
L 102.009091 -37.55625 
L 98.627273 -37.55625 
L 95.245455 -37.55625 
L 91.863636 -37.55625 
L 88.481818 -37.55625 
L 85.1 -37.55625 
L 81.718182 -37.55625 
L 78.336364 -37.55625 
L 74.954545 -37.55625 
L 71.572727 -37.55625 
L 68.190909 -37.55625 
L 64.809091 -37.55625 
L 61.427273 -37.55625 
L 58.045455 -37.55625 
L 54.663636 -37.55625 
L 51.281818 -37.55625 
L 47.9 -37.55625 
L 44.518182 -37.55625 
L 41.136364 -37.55625 
L 37.754545 -37.55625 
L 34.372727 -37.55625 
L 30.990909 -37.55625 
L 27.609091 -37.55625 
L 24.227273 -37.55625 
L 20.845455 -37.55625 
L 17.463636 -37.55625 
L 14.081818 -37.55625 
L 10.7 -37.55625 
z
" style="stroke: #000000; stroke-width: 0.8"/>
    </defs>
    <g clip-path="url(#p2338714a32)">
     <use xlink:href="#m535b88dea8" x="0" y="377.39625" style="fill: #1a1a1a; stroke: #000000; stroke-width: 0.8"/>
    </g>
   </g>
   <g id="PolyCollection_2">
    <defs>
     <path id="m1c6f815209" d="M 10.7 -37.55625 
L 10.7 -205.065664 
L 14.081818 -189.476142 
L 17.463636 -212.860425 
L 20.845455 -181.681381 
L 24.227273 -173.88662 
L 27.609091 -158.297098 
L 30.990909 -150.502337 
L 34.372727 -158.297098 
L 37.754545 -158.297098 
L 41.136364 -150.502337 
L 44.518182 -150.502337 
L 47.9 -150.502337 
L 51.281818 -150.502337 
L 54.663636 -150.502337 
L 58.045455 -150.502337 
L 61.427273 -150.502337 
L 64.809091 -150.502337 
L 68.190909 -150.502337 
L 71.572727 -150.502337 
L 74.954545 -150.502337 
L 78.336364 -150.502337 
L 81.718182 -150.502337 
L 85.1 -150.502337 
L 88.481818 -150.502337 
L 91.863636 -150.502337 
L 95.245455 -150.502337 
L 98.627273 -150.502337 
L 102.009091 -150.502337 
L 105.390909 -150.502337 
L 108.772727 -150.502337 
L 112.154545 -150.502337 
L 115.536364 -150.502337 
L 118.918182 -150.502337 
L 122.3 -150.502337 
L 125.681818 -150.502337 
L 129.063636 -150.502337 
L 132.445455 -150.502337 
L 135.827273 -150.502337 
L 139.209091 -150.502337 
L 142.590909 -150.502337 
L 145.972727 -150.502337 
L 149.354545 -150.502337 
L 152.736364 -150.502337 
L 156.118182 -150.502337 
L 159.5 -150.502337 
L 162.881818 -150.502337 
L 166.263636 -150.502337 
L 169.645455 -150.502337 
L 173.027273 -150.502337 
L 176.409091 -150.502337 
L 179.790909 -150.502337 
L 183.172727 -150.502337 
L 186.554545 -150.502337 
L 189.936364 -150.502337 
L 193.318182 -150.502337 
L 196.7 -150.502337 
L 200.081818 -150.502337 
L 203.463636 -150.502337 
L 206.845455 -150.502337 
L 210.227273 -150.502337 
L 213.609091 -150.502337 
L 216.990909 -150.502337 
L 220.372727 -150.502337 
L 223.754545 -150.502337 
L 227.136364 -150.502337 
L 230.518182 -150.502337 
L 233.9 -150.502337 
L 237.281818 -150.502337 
L 240.663636 -150.502337 
L 244.045455 -150.502337 
L 247.427273 -150.502337 
L 250.809091 -150.502337 
L 254.190909 -150.502337 
L 257.572727 -150.502337 
L 260.954545 -158.297098 
L 264.336364 -150.502337 
L 267.718182 -150.502337 
L 271.1 -150.502337 
L 274.481818 -150.502337 
L 277.863636 -150.502337 
L 281.245455 -150.502337 
L 284.627273 -158.297098 
L 288.009091 -181.681381 
L 291.390909 -173.88662 
L 294.772727 -173.88662 
L 298.154545 -158.297098 
L 301.536364 -205.065664 
L 304.918182 -197.270903 
L 308.3 -173.88662 
L 311.681818 -166.091859 
L 315.063636 -189.476142 
L 318.445455 -205.065664 
L 321.827273 -236.244708 
L 325.209091 -228.449947 
L 328.590909 -212.860425 
L 331.972727 -197.270903 
L 335.354545 -259.628991 
L 338.736364 -244.039469 
L 342.118182 -244.039469 
L 345.5 -267.423752 
L 345.5 -37.55625 
L 345.5 -37.55625 
L 342.118182 -37.55625 
L 338.736364 -37.55625 
L 335.354545 -37.55625 
L 331.972727 -37.55625 
L 328.590909 -37.55625 
L 325.209091 -37.55625 
L 321.827273 -37.55625 
L 318.445455 -37.55625 
L 315.063636 -37.55625 
L 311.681818 -37.55625 
L 308.3 -37.55625 
L 304.918182 -37.55625 
L 301.536364 -37.55625 
L 298.154545 -37.55625 
L 294.772727 -37.55625 
L 291.390909 -37.55625 
L 288.009091 -37.55625 
L 284.627273 -37.55625 
L 281.245455 -37.55625 
L 277.863636 -37.55625 
L 274.481818 -37.55625 
L 271.1 -37.55625 
L 267.718182 -37.55625 
L 264.336364 -37.55625 
L 260.954545 -37.55625 
L 257.572727 -37.55625 
L 254.190909 -37.55625 
L 250.809091 -37.55625 
L 247.427273 -37.55625 
L 244.045455 -37.55625 
L 240.663636 -37.55625 
L 237.281818 -37.55625 
L 233.9 -37.55625 
L 230.518182 -37.55625 
L 227.136364 -37.55625 
L 223.754545 -37.55625 
L 220.372727 -37.55625 
L 216.990909 -37.55625 
L 213.609091 -37.55625 
L 210.227273 -37.55625 
L 206.845455 -37.55625 
L 203.463636 -37.55625 
L 200.081818 -37.55625 
L 196.7 -37.55625 
L 193.318182 -37.55625 
L 189.936364 -37.55625 
L 186.554545 -37.55625 
L 183.172727 -37.55625 
L 179.790909 -37.55625 
L 176.409091 -37.55625 
L 173.027273 -37.55625 
L 169.645455 -37.55625 
L 166.263636 -37.55625 
L 162.881818 -37.55625 
L 159.5 -37.55625 
L 156.118182 -37.55625 
L 152.736364 -37.55625 
L 149.354545 -37.55625 
L 145.972727 -37.55625 
L 142.590909 -37.55625 
L 139.209091 -37.55625 
L 135.827273 -37.55625 
L 132.445455 -37.55625 
L 129.063636 -37.55625 
L 125.681818 -37.55625 
L 122.3 -37.55625 
L 118.918182 -37.55625 
L 115.536364 -37.55625 
L 112.154545 -37.55625 
L 108.772727 -37.55625 
L 105.390909 -37.55625 
L 102.009091 -37.55625 
L 98.627273 -37.55625 
L 95.245455 -37.55625 
L 91.863636 -37.55625 
L 88.481818 -37.55625 
L 85.1 -37.55625 
L 81.718182 -37.55625 
L 78.336364 -37.55625 
L 74.954545 -37.55625 
L 71.572727 -37.55625 
L 68.190909 -37.55625 
L 64.809091 -37.55625 
L 61.427273 -37.55625 
L 58.045455 -37.55625 
L 54.663636 -37.55625 
L 51.281818 -37.55625 
L 47.9 -37.55625 
L 44.518182 -37.55625 
L 41.136364 -37.55625 
L 37.754545 -37.55625 
L 34.372727 -37.55625 
L 30.990909 -37.55625 
L 27.609091 -37.55625 
L 24.227273 -37.55625 
L 20.845455 -37.55625 
L 17.463636 -37.55625 
L 14.081818 -37.55625 
L 10.7 -37.55625 
z
" style="stroke: #000000; stroke-width: 0.8"/>
    </defs>
    <g clip-path="url(#p2338714a32)">
     <use xlink:href="#m1c6f815209" x="0" y="377.39625" style="fill: #333333; stroke: #000000; stroke-width: 0.8"/>
    </g>
   </g>
   <g id="PolyCollection_3">
    <defs>
     <path id="mdcfdbdc6df" d="M 10.7 -37.55625 
L 10.7 -193.552111 
L 14.081818 -137.952772 
L 17.463636 -137.952772 
L 20.845455 -153.838297 
L 24.227273 -177.666586 
L 27.609091 -153.838297 
L 30.990909 -145.895535 
L 34.372727 -153.838297 
L 37.754545 -161.78106 
L 41.136364 -145.895535 
L 44.518182 -145.895535 
L 47.9 -137.952772 
L 51.281818 -153.838297 
L 54.663636 -137.952772 
L 58.045455 -153.838297 
L 61.427273 -137.952772 
L 64.809091 -137.952772 
L 68.190909 -137.952772 
L 71.572727 -145.895535 
L 74.954545 -145.895535 
L 78.336364 -137.952772 
L 81.718182 -137.952772 
L 85.1 -137.952772 
L 88.481818 -137.952772 
L 91.863636 -137.952772 
L 95.245455 -137.952772 
L 98.627273 -137.952772 
L 102.009091 -137.952772 
L 105.390909 -137.952772 
L 108.772727 -137.952772 
L 112.154545 -137.952772 
L 115.536364 -137.952772 
L 118.918182 -137.952772 
L 122.3 -137.952772 
L 125.681818 -137.952772 
L 129.063636 -137.952772 
L 132.445455 -137.952772 
L 135.827273 -137.952772 
L 139.209091 -137.952772 
L 142.590909 -137.952772 
L 145.972727 -137.952772 
L 149.354545 -137.952772 
L 152.736364 -145.895535 
L 156.118182 -137.952772 
L 159.5 -137.952772 
L 162.881818 -137.952772 
L 166.263636 -137.952772 
L 169.645455 -137.952772 
L 173.027273 -137.952772 
L 176.409091 -137.952772 
L 179.790909 -137.952772 
L 183.172727 -137.952772 
L 186.554545 -137.952772 
L 189.936364 -137.952772 
L 193.318182 -137.952772 
L 196.7 -137.952772 
L 200.081818 -137.952772 
L 203.463636 -137.952772 
L 206.845455 -137.952772 
L 210.227273 -137.952772 
L 213.609091 -145.895535 
L 216.990909 -153.838297 
L 220.372727 -153.838297 
L 223.754545 -145.895535 
L 227.136364 -137.952772 
L 230.518182 -153.838297 
L 233.9 -153.838297 
L 237.281818 -177.666586 
L 240.663636 -137.952772 
L 244.045455 -145.895535 
L 247.427273 -161.78106 
L 250.809091 -145.895535 
L 254.190909 -161.78106 
L 257.572727 -153.838297 
L 260.954545 -153.838297 
L 264.336364 -145.895535 
L 267.718182 -161.78106 
L 271.1 -153.838297 
L 274.481818 -153.838297 
L 277.863636 -145.895535 
L 281.245455 -177.666586 
L 284.627273 -177.666586 
L 288.009091 -177.666586 
L 291.390909 -161.78106 
L 294.772727 -169.723823 
L 298.154545 -185.609349 
L 301.536364 -185.609349 
L 304.918182 -153.838297 
L 308.3 -153.838297 
L 311.681818 -185.609349 
L 315.063636 -201.494874 
L 318.445455 -153.838297 
L 321.827273 -177.666586 
L 325.209091 -177.666586 
L 328.590909 -225.323162 
L 331.972727 -177.666586 
L 335.354545 -169.723823 
L 338.736364 -161.78106 
L 342.118182 -169.723823 
L 345.5 -137.952772 
L 345.5 -37.55625 
L 345.5 -37.55625 
L 342.118182 -37.55625 
L 338.736364 -37.55625 
L 335.354545 -37.55625 
L 331.972727 -37.55625 
L 328.590909 -37.55625 
L 325.209091 -37.55625 
L 321.827273 -37.55625 
L 318.445455 -37.55625 
L 315.063636 -37.55625 
L 311.681818 -37.55625 
L 308.3 -37.55625 
L 304.918182 -37.55625 
L 301.536364 -37.55625 
L 298.154545 -37.55625 
L 294.772727 -37.55625 
L 291.390909 -37.55625 
L 288.009091 -37.55625 
L 284.627273 -37.55625 
L 281.245455 -37.55625 
L 277.863636 -37.55625 
L 274.481818 -37.55625 
L 271.1 -37.55625 
L 267.718182 -37.55625 
L 264.336364 -37.55625 
L 260.954545 -37.55625 
L 257.572727 -37.55625 
L 254.190909 -37.55625 
L 250.809091 -37.55625 
L 247.427273 -37.55625 
L 244.045455 -37.55625 
L 240.663636 -37.55625 
L 237.281818 -37.55625 
L 233.9 -37.55625 
L 230.518182 -37.55625 
L 227.136364 -37.55625 
L 223.754545 -37.55625 
L 220.372727 -37.55625 
L 216.990909 -37.55625 
L 213.609091 -37.55625 
L 210.227273 -37.55625 
L 206.845455 -37.55625 
L 203.463636 -37.55625 
L 200.081818 -37.55625 
L 196.7 -37.55625 
L 193.318182 -37.55625 
L 189.936364 -37.55625 
L 186.554545 -37.55625 
L 183.172727 -37.55625 
L 179.790909 -37.55625 
L 176.409091 -37.55625 
L 173.027273 -37.55625 
L 169.645455 -37.55625 
L 166.263636 -37.55625 
L 162.881818 -37.55625 
L 159.5 -37.55625 
L 156.118182 -37.55625 
L 152.736364 -37.55625 
L 149.354545 -37.55625 
L 145.972727 -37.55625 
L 142.590909 -37.55625 
L 139.209091 -37.55625 
L 135.827273 -37.55625 
L 132.445455 -37.55625 
L 129.063636 -37.55625 
L 125.681818 -37.55625 
L 122.3 -37.55625 
L 118.918182 -37.55625 
L 115.536364 -37.55625 
L 112.154545 -37.55625 
L 108.772727 -37.55625 
L 105.390909 -37.55625 
L 102.009091 -37.55625 
L 98.627273 -37.55625 
L 95.245455 -37.55625 
L 91.863636 -37.55625 
L 88.481818 -37.55625 
L 85.1 -37.55625 
L 81.718182 -37.55625 
L 78.336364 -37.55625 
L 74.954545 -37.55625 
L 71.572727 -37.55625 
L 68.190909 -37.55625 
L 64.809091 -37.55625 
L 61.427273 -37.55625 
L 58.045455 -37.55625 
L 54.663636 -37.55625 
L 51.281818 -37.55625 
L 47.9 -37.55625 
L 44.518182 -37.55625 
L 41.136364 -37.55625 
L 37.754545 -37.55625 
L 34.372727 -37.55625 
L 30.990909 -37.55625 
L 27.609091 -37.55625 
L 24.227273 -37.55625 
L 20.845455 -37.55625 
L 17.463636 -37.55625 
L 14.081818 -37.55625 
L 10.7 -37.55625 
z
" style="stroke: #000000; stroke-width: 0.8"/>
    </defs>
    <g clip-path="url(#p2338714a32)">
     <use xlink:href="#mdcfdbdc6df" x="0" y="377.39625" style="fill: #4c4c4c; stroke: #000000; stroke-width: 0.8"/>
    </g>
   </g>
   <g id="PolyCollection_4">
    <defs>
     <path id="maea3442141" d="M 10.7 -37.55625 
L 10.7 -165.885675 
L 14.081818 -125.403207 
L 17.463636 -125.403207 
L 20.845455 -133.4997 
L 24.227273 -125.403207 
L 27.609091 -125.403207 
L 30.990909 -125.403207 
L 34.372727 -133.4997 
L 37.754545 -133.4997 
L 41.136364 -141.596194 
L 44.518182 -141.596194 
L 47.9 -125.403207 
L 51.281818 -141.596194 
L 54.663636 -133.4997 
L 58.045455 -133.4997 
L 61.427273 -149.692688 
L 64.809091 -141.596194 
L 68.190909 -125.403207 
L 71.572727 -133.4997 
L 74.954545 -133.4997 
L 78.336364 -133.4997 
L 81.718182 -125.403207 
L 85.1 -141.596194 
L 88.481818 -125.403207 
L 91.863636 -149.692688 
L 95.245455 -133.4997 
L 98.627273 -133.4997 
L 102.009091 -133.4997 
L 105.390909 -141.596194 
L 108.772727 -133.4997 
L 112.154545 -133.4997 
L 115.536364 -141.596194 
L 118.918182 -149.692688 
L 122.3 -125.403207 
L 125.681818 -133.4997 
L 129.063636 -149.692688 
L 132.445455 -141.596194 
L 135.827273 -125.403207 
L 139.209091 -125.403207 
L 142.590909 -133.4997 
L 145.972727 -133.4997 
L 149.354545 -141.596194 
L 152.736364 -133.4997 
L 156.118182 -133.4997 
L 159.5 -133.4997 
L 162.881818 -133.4997 
L 166.263636 -133.4997 
L 169.645455 -125.403207 
L 173.027273 -149.692688 
L 176.409091 -133.4997 
L 179.790909 -141.596194 
L 183.172727 -133.4997 
L 186.554545 -141.596194 
L 189.936364 -125.403207 
L 193.318182 -125.403207 
L 196.7 -133.4997 
L 200.081818 -141.596194 
L 203.463636 -133.4997 
L 206.845455 -149.692688 
L 210.227273 -133.4997 
L 213.609091 -141.596194 
L 216.990909 -133.4997 
L 220.372727 -149.692688 
L 223.754545 -133.4997 
L 227.136364 -165.885675 
L 230.518182 -149.692688 
L 233.9 -133.4997 
L 237.281818 -133.4997 
L 240.663636 -149.692688 
L 244.045455 -141.596194 
L 247.427273 -149.692688 
L 250.809091 -133.4997 
L 254.190909 -133.4997 
L 257.572727 -141.596194 
L 260.954545 -141.596194 
L 264.336364 -133.4997 
L 267.718182 -149.692688 
L 271.1 -157.789181 
L 274.481818 -165.885675 
L 277.863636 -125.403207 
L 281.245455 -149.692688 
L 284.627273 -125.403207 
L 288.009091 -133.4997 
L 291.390909 -165.885675 
L 294.772727 -141.596194 
L 298.154545 -157.789181 
L 301.536364 -141.596194 
L 304.918182 -157.789181 
L 308.3 -149.692688 
L 311.681818 -141.596194 
L 315.063636 -133.4997 
L 318.445455 -141.596194 
L 321.827273 -133.4997 
L 325.209091 -141.596194 
L 328.590909 -141.596194 
L 331.972727 -125.403207 
L 335.354545 -141.596194 
L 338.736364 -141.596194 
L 342.118182 -125.403207 
L 345.5 -125.403207 
L 345.5 -37.55625 
L 345.5 -37.55625 
L 342.118182 -37.55625 
L 338.736364 -37.55625 
L 335.354545 -37.55625 
L 331.972727 -37.55625 
L 328.590909 -37.55625 
L 325.209091 -37.55625 
L 321.827273 -37.55625 
L 318.445455 -37.55625 
L 315.063636 -37.55625 
L 311.681818 -37.55625 
L 308.3 -37.55625 
L 304.918182 -37.55625 
L 301.536364 -37.55625 
L 298.154545 -37.55625 
L 294.772727 -37.55625 
L 291.390909 -37.55625 
L 288.009091 -37.55625 
L 284.627273 -37.55625 
L 281.245455 -37.55625 
L 277.863636 -37.55625 
L 274.481818 -37.55625 
L 271.1 -37.55625 
L 267.718182 -37.55625 
L 264.336364 -37.55625 
L 260.954545 -37.55625 
L 257.572727 -37.55625 
L 254.190909 -37.55625 
L 250.809091 -37.55625 
L 247.427273 -37.55625 
L 244.045455 -37.55625 
L 240.663636 -37.55625 
L 237.281818 -37.55625 
L 233.9 -37.55625 
L 230.518182 -37.55625 
L 227.136364 -37.55625 
L 223.754545 -37.55625 
L 220.372727 -37.55625 
L 216.990909 -37.55625 
L 213.609091 -37.55625 
L 210.227273 -37.55625 
L 206.845455 -37.55625 
L 203.463636 -37.55625 
L 200.081818 -37.55625 
L 196.7 -37.55625 
L 193.318182 -37.55625 
L 189.936364 -37.55625 
L 186.554545 -37.55625 
L 183.172727 -37.55625 
L 179.790909 -37.55625 
L 176.409091 -37.55625 
L 173.027273 -37.55625 
L 169.645455 -37.55625 
L 166.263636 -37.55625 
L 162.881818 -37.55625 
L 159.5 -37.55625 
L 156.118182 -37.55625 
L 152.736364 -37.55625 
L 149.354545 -37.55625 
L 145.972727 -37.55625 
L 142.590909 -37.55625 
L 139.209091 -37.55625 
L 135.827273 -37.55625 
L 132.445455 -37.55625 
L 129.063636 -37.55625 
L 125.681818 -37.55625 
L 122.3 -37.55625 
L 118.918182 -37.55625 
L 115.536364 -37.55625 
L 112.154545 -37.55625 
L 108.772727 -37.55625 
L 105.390909 -37.55625 
L 102.009091 -37.55625 
L 98.627273 -37.55625 
L 95.245455 -37.55625 
L 91.863636 -37.55625 
L 88.481818 -37.55625 
L 85.1 -37.55625 
L 81.718182 -37.55625 
L 78.336364 -37.55625 
L 74.954545 -37.55625 
L 71.572727 -37.55625 
L 68.190909 -37.55625 
L 64.809091 -37.55625 
L 61.427273 -37.55625 
L 58.045455 -37.55625 
L 54.663636 -37.55625 
L 51.281818 -37.55625 
L 47.9 -37.55625 
L 44.518182 -37.55625 
L 41.136364 -37.55625 
L 37.754545 -37.55625 
L 34.372727 -37.55625 
L 30.990909 -37.55625 
L 27.609091 -37.55625 
L 24.227273 -37.55625 
L 20.845455 -37.55625 
L 17.463636 -37.55625 
L 14.081818 -37.55625 
L 10.7 -37.55625 
z
" style="stroke: #000000; stroke-width: 0.8"/>
    </defs>
    <g clip-path="url(#p2338714a32)">
     <use xlink:href="#maea3442141" x="0" y="377.39625" style="fill: #666666; stroke: #000000; stroke-width: 0.8"/>
    </g>
   </g>
   <g id="PolyCollection_5">
    <defs>
     <path id="m28d395a72d" d="M 10.7 -37.55625 
L 10.7 -145.878813 
L 14.081818 -121.109934 
L 17.463636 -129.366227 
L 20.845455 -137.62252 
L 24.227273 -121.109934 
L 27.609091 -112.853641 
L 30.990909 -112.853641 
L 34.372727 -112.853641 
L 37.754545 -112.853641 
L 41.136364 -112.853641 
L 44.518182 -129.366227 
L 47.9 -121.109934 
L 51.281818 -121.109934 
L 54.663636 -112.853641 
L 58.045455 -129.366227 
L 61.427273 -112.853641 
L 64.809091 -121.109934 
L 68.190909 -121.109934 
L 71.572727 -121.109934 
L 74.954545 -129.366227 
L 78.336364 -145.878813 
L 81.718182 -112.853641 
L 85.1 -121.109934 
L 88.481818 -129.366227 
L 91.863636 -137.62252 
L 95.245455 -129.366227 
L 98.627273 -129.366227 
L 102.009091 -121.109934 
L 105.390909 -129.366227 
L 108.772727 -154.135106 
L 112.154545 -112.853641 
L 115.536364 -137.62252 
L 118.918182 -121.109934 
L 122.3 -137.62252 
L 125.681818 -121.109934 
L 129.063636 -129.366227 
L 132.445455 -121.109934 
L 135.827273 -121.109934 
L 139.209091 -121.109934 
L 142.590909 -121.109934 
L 145.972727 -121.109934 
L 149.354545 -121.109934 
L 152.736364 -121.109934 
L 156.118182 -129.366227 
L 159.5 -121.109934 
L 162.881818 -121.109934 
L 166.263636 -129.366227 
L 169.645455 -137.62252 
L 173.027273 -112.853641 
L 176.409091 -129.366227 
L 179.790909 -129.366227 
L 183.172727 -145.878813 
L 186.554545 -137.62252 
L 189.936364 -121.109934 
L 193.318182 -112.853641 
L 196.7 -121.109934 
L 200.081818 -129.366227 
L 203.463636 -145.878813 
L 206.845455 -137.62252 
L 210.227273 -112.853641 
L 213.609091 -129.366227 
L 216.990909 -121.109934 
L 220.372727 -129.366227 
L 223.754545 -121.109934 
L 227.136364 -137.62252 
L 230.518182 -129.366227 
L 233.9 -145.878813 
L 237.281818 -137.62252 
L 240.663636 -121.109934 
L 244.045455 -121.109934 
L 247.427273 -137.62252 
L 250.809091 -145.878813 
L 254.190909 -129.366227 
L 257.572727 -129.366227 
L 260.954545 -121.109934 
L 264.336364 -112.853641 
L 267.718182 -121.109934 
L 271.1 -112.853641 
L 274.481818 -121.109934 
L 277.863636 -112.853641 
L 281.245455 -137.62252 
L 284.627273 -129.366227 
L 288.009091 -129.366227 
L 291.390909 -145.878813 
L 294.772727 -129.366227 
L 298.154545 -112.853641 
L 301.536364 -112.853641 
L 304.918182 -121.109934 
L 308.3 -129.366227 
L 311.681818 -112.853641 
L 315.063636 -112.853641 
L 318.445455 -121.109934 
L 321.827273 -129.366227 
L 325.209091 -112.853641 
L 328.590909 -137.62252 
L 331.972727 -112.853641 
L 335.354545 -129.366227 
L 338.736364 -112.853641 
L 342.118182 -121.109934 
L 345.5 -121.109934 
L 345.5 -37.55625 
L 345.5 -37.55625 
L 342.118182 -37.55625 
L 338.736364 -37.55625 
L 335.354545 -37.55625 
L 331.972727 -37.55625 
L 328.590909 -37.55625 
L 325.209091 -37.55625 
L 321.827273 -37.55625 
L 318.445455 -37.55625 
L 315.063636 -37.55625 
L 311.681818 -37.55625 
L 308.3 -37.55625 
L 304.918182 -37.55625 
L 301.536364 -37.55625 
L 298.154545 -37.55625 
L 294.772727 -37.55625 
L 291.390909 -37.55625 
L 288.009091 -37.55625 
L 284.627273 -37.55625 
L 281.245455 -37.55625 
L 277.863636 -37.55625 
L 274.481818 -37.55625 
L 271.1 -37.55625 
L 267.718182 -37.55625 
L 264.336364 -37.55625 
L 260.954545 -37.55625 
L 257.572727 -37.55625 
L 254.190909 -37.55625 
L 250.809091 -37.55625 
L 247.427273 -37.55625 
L 244.045455 -37.55625 
L 240.663636 -37.55625 
L 237.281818 -37.55625 
L 233.9 -37.55625 
L 230.518182 -37.55625 
L 227.136364 -37.55625 
L 223.754545 -37.55625 
L 220.372727 -37.55625 
L 216.990909 -37.55625 
L 213.609091 -37.55625 
L 210.227273 -37.55625 
L 206.845455 -37.55625 
L 203.463636 -37.55625 
L 200.081818 -37.55625 
L 196.7 -37.55625 
L 193.318182 -37.55625 
L 189.936364 -37.55625 
L 186.554545 -37.55625 
L 183.172727 -37.55625 
L 179.790909 -37.55625 
L 176.409091 -37.55625 
L 173.027273 -37.55625 
L 169.645455 -37.55625 
L 166.263636 -37.55625 
L 162.881818 -37.55625 
L 159.5 -37.55625 
L 156.118182 -37.55625 
L 152.736364 -37.55625 
L 149.354545 -37.55625 
L 145.972727 -37.55625 
L 142.590909 -37.55625 
L 139.209091 -37.55625 
L 135.827273 -37.55625 
L 132.445455 -37.55625 
L 129.063636 -37.55625 
L 125.681818 -37.55625 
L 122.3 -37.55625 
L 118.918182 -37.55625 
L 115.536364 -37.55625 
L 112.154545 -37.55625 
L 108.772727 -37.55625 
L 105.390909 -37.55625 
L 102.009091 -37.55625 
L 98.627273 -37.55625 
L 95.245455 -37.55625 
L 91.863636 -37.55625 
L 88.481818 -37.55625 
L 85.1 -37.55625 
L 81.718182 -37.55625 
L 78.336364 -37.55625 
L 74.954545 -37.55625 
L 71.572727 -37.55625 
L 68.190909 -37.55625 
L 64.809091 -37.55625 
L 61.427273 -37.55625 
L 58.045455 -37.55625 
L 54.663636 -37.55625 
L 51.281818 -37.55625 
L 47.9 -37.55625 
L 44.518182 -37.55625 
L 41.136364 -37.55625 
L 37.754545 -37.55625 
L 34.372727 -37.55625 
L 30.990909 -37.55625 
L 27.609091 -37.55625 
L 24.227273 -37.55625 
L 20.845455 -37.55625 
L 17.463636 -37.55625 
L 14.081818 -37.55625 
L 10.7 -37.55625 
z
" style="stroke: #000000; stroke-width: 0.8"/>
    </defs>
    <g clip-path="url(#p2338714a32)">
     <use xlink:href="#m28d395a72d" x="0" y="377.39625" style="fill: #808080; stroke: #000000; stroke-width: 0.8"/>
    </g>
   </g>
   <g id="PolyCollection_6">
    <defs>
     <path id="m2266cf9a54" d="M 10.7 -37.55625 
L 10.7 -117.14913 
L 14.081818 -108.726603 
L 17.463636 -125.571657 
L 20.845455 -108.726603 
L 24.227273 -100.304076 
L 27.609091 -108.726603 
L 30.990909 -108.726603 
L 34.372727 -133.994184 
L 37.754545 -117.14913 
L 41.136364 -108.726603 
L 44.518182 -117.14913 
L 47.9 -117.14913 
L 51.281818 -117.14913 
L 54.663636 -108.726603 
L 58.045455 -100.304076 
L 61.427273 -117.14913 
L 64.809091 -108.726603 
L 68.190909 -108.726603 
L 71.572727 -108.726603 
L 74.954545 -100.304076 
L 78.336364 -117.14913 
L 81.718182 -108.726603 
L 85.1 -108.726603 
L 88.481818 -142.416711 
L 91.863636 -117.14913 
L 95.245455 -100.304076 
L 98.627273 -100.304076 
L 102.009091 -100.304076 
L 105.390909 -117.14913 
L 108.772727 -125.571657 
L 112.154545 -108.726603 
L 115.536364 -133.994184 
L 118.918182 -100.304076 
L 122.3 -117.14913 
L 125.681818 -108.726603 
L 129.063636 -117.14913 
L 132.445455 -117.14913 
L 135.827273 -100.304076 
L 139.209091 -108.726603 
L 142.590909 -108.726603 
L 145.972727 -125.571657 
L 149.354545 -133.994184 
L 152.736364 -108.726603 
L 156.118182 -125.571657 
L 159.5 -125.571657 
L 162.881818 -100.304076 
L 166.263636 -108.726603 
L 169.645455 -117.14913 
L 173.027273 -100.304076 
L 176.409091 -117.14913 
L 179.790909 -100.304076 
L 183.172727 -108.726603 
L 186.554545 -117.14913 
L 189.936364 -100.304076 
L 193.318182 -108.726603 
L 196.7 -133.994184 
L 200.081818 -108.726603 
L 203.463636 -108.726603 
L 206.845455 -117.14913 
L 210.227273 -117.14913 
L 213.609091 -125.571657 
L 216.990909 -133.994184 
L 220.372727 -117.14913 
L 223.754545 -108.726603 
L 227.136364 -108.726603 
L 230.518182 -100.304076 
L 233.9 -108.726603 
L 237.281818 -125.571657 
L 240.663636 -117.14913 
L 244.045455 -125.571657 
L 247.427273 -100.304076 
L 250.809091 -108.726603 
L 254.190909 -117.14913 
L 257.572727 -108.726603 
L 260.954545 -117.14913 
L 264.336364 -117.14913 
L 267.718182 -100.304076 
L 271.1 -100.304076 
L 274.481818 -108.726603 
L 277.863636 -117.14913 
L 281.245455 -100.304076 
L 284.627273 -125.571657 
L 288.009091 -108.726603 
L 291.390909 -108.726603 
L 294.772727 -100.304076 
L 298.154545 -117.14913 
L 301.536364 -117.14913 
L 304.918182 -108.726603 
L 308.3 -108.726603 
L 311.681818 -100.304076 
L 315.063636 -108.726603 
L 318.445455 -108.726603 
L 321.827273 -100.304076 
L 325.209091 -100.304076 
L 328.590909 -133.994184 
L 331.972727 -117.14913 
L 335.354545 -108.726603 
L 338.736364 -117.14913 
L 342.118182 -117.14913 
L 345.5 -125.571657 
L 345.5 -37.55625 
L 345.5 -37.55625 
L 342.118182 -37.55625 
L 338.736364 -37.55625 
L 335.354545 -37.55625 
L 331.972727 -37.55625 
L 328.590909 -37.55625 
L 325.209091 -37.55625 
L 321.827273 -37.55625 
L 318.445455 -37.55625 
L 315.063636 -37.55625 
L 311.681818 -37.55625 
L 308.3 -37.55625 
L 304.918182 -37.55625 
L 301.536364 -37.55625 
L 298.154545 -37.55625 
L 294.772727 -37.55625 
L 291.390909 -37.55625 
L 288.009091 -37.55625 
L 284.627273 -37.55625 
L 281.245455 -37.55625 
L 277.863636 -37.55625 
L 274.481818 -37.55625 
L 271.1 -37.55625 
L 267.718182 -37.55625 
L 264.336364 -37.55625 
L 260.954545 -37.55625 
L 257.572727 -37.55625 
L 254.190909 -37.55625 
L 250.809091 -37.55625 
L 247.427273 -37.55625 
L 244.045455 -37.55625 
L 240.663636 -37.55625 
L 237.281818 -37.55625 
L 233.9 -37.55625 
L 230.518182 -37.55625 
L 227.136364 -37.55625 
L 223.754545 -37.55625 
L 220.372727 -37.55625 
L 216.990909 -37.55625 
L 213.609091 -37.55625 
L 210.227273 -37.55625 
L 206.845455 -37.55625 
L 203.463636 -37.55625 
L 200.081818 -37.55625 
L 196.7 -37.55625 
L 193.318182 -37.55625 
L 189.936364 -37.55625 
L 186.554545 -37.55625 
L 183.172727 -37.55625 
L 179.790909 -37.55625 
L 176.409091 -37.55625 
L 173.027273 -37.55625 
L 169.645455 -37.55625 
L 166.263636 -37.55625 
L 162.881818 -37.55625 
L 159.5 -37.55625 
L 156.118182 -37.55625 
L 152.736364 -37.55625 
L 149.354545 -37.55625 
L 145.972727 -37.55625 
L 142.590909 -37.55625 
L 139.209091 -37.55625 
L 135.827273 -37.55625 
L 132.445455 -37.55625 
L 129.063636 -37.55625 
L 125.681818 -37.55625 
L 122.3 -37.55625 
L 118.918182 -37.55625 
L 115.536364 -37.55625 
L 112.154545 -37.55625 
L 108.772727 -37.55625 
L 105.390909 -37.55625 
L 102.009091 -37.55625 
L 98.627273 -37.55625 
L 95.245455 -37.55625 
L 91.863636 -37.55625 
L 88.481818 -37.55625 
L 85.1 -37.55625 
L 81.718182 -37.55625 
L 78.336364 -37.55625 
L 74.954545 -37.55625 
L 71.572727 -37.55625 
L 68.190909 -37.55625 
L 64.809091 -37.55625 
L 61.427273 -37.55625 
L 58.045455 -37.55625 
L 54.663636 -37.55625 
L 51.281818 -37.55625 
L 47.9 -37.55625 
L 44.518182 -37.55625 
L 41.136364 -37.55625 
L 37.754545 -37.55625 
L 34.372727 -37.55625 
L 30.990909 -37.55625 
L 27.609091 -37.55625 
L 24.227273 -37.55625 
L 20.845455 -37.55625 
L 17.463636 -37.55625 
L 14.081818 -37.55625 
L 10.7 -37.55625 
z
" style="stroke: #000000; stroke-width: 0.8"/>
    </defs>
    <g clip-path="url(#p2338714a32)">
     <use xlink:href="#m2266cf9a54" x="0" y="377.39625" style="fill: #999999; stroke: #000000; stroke-width: 0.8"/>
    </g>
   </g>
   <g id="PolyCollection_7">
    <defs>
     <path id="m09ed8a4560" d="M 10.7 -37.55625 
L 10.7 -87.754511 
L 14.081818 -113.541289 
L 17.463636 -104.945696 
L 20.845455 -104.945696 
L 24.227273 -104.945696 
L 27.609091 -87.754511 
L 30.990909 -113.541289 
L 34.372727 -104.945696 
L 37.754545 -87.754511 
L 41.136364 -104.945696 
L 44.518182 -96.350103 
L 47.9 -104.945696 
L 51.281818 -87.754511 
L 54.663636 -87.754511 
L 58.045455 -96.350103 
L 61.427273 -104.945696 
L 64.809091 -96.350103 
L 68.190909 -96.350103 
L 71.572727 -104.945696 
L 74.954545 -104.945696 
L 78.336364 -122.136881 
L 81.718182 -139.328067 
L 85.1 -96.350103 
L 88.481818 -104.945696 
L 91.863636 -104.945696 
L 95.245455 -87.754511 
L 98.627273 -104.945696 
L 102.009091 -104.945696 
L 105.390909 -87.754511 
L 108.772727 -96.350103 
L 112.154545 -87.754511 
L 115.536364 -104.945696 
L 118.918182 -87.754511 
L 122.3 -87.754511 
L 125.681818 -104.945696 
L 129.063636 -104.945696 
L 132.445455 -104.945696 
L 135.827273 -87.754511 
L 139.209091 -96.350103 
L 142.590909 -113.541289 
L 145.972727 -96.350103 
L 149.354545 -96.350103 
L 152.736364 -87.754511 
L 156.118182 -96.350103 
L 159.5 -96.350103 
L 162.881818 -96.350103 
L 166.263636 -104.945696 
L 169.645455 -122.136881 
L 173.027273 -104.945696 
L 176.409091 -96.350103 
L 179.790909 -87.754511 
L 183.172727 -96.350103 
L 186.554545 -96.350103 
L 189.936364 -87.754511 
L 193.318182 -96.350103 
L 196.7 -113.541289 
L 200.081818 -104.945696 
L 203.463636 -96.350103 
L 206.845455 -87.754511 
L 210.227273 -122.136881 
L 213.609091 -87.754511 
L 216.990909 -113.541289 
L 220.372727 -104.945696 
L 223.754545 -96.350103 
L 227.136364 -104.945696 
L 230.518182 -96.350103 
L 233.9 -96.350103 
L 237.281818 -87.754511 
L 240.663636 -113.541289 
L 244.045455 -87.754511 
L 247.427273 -104.945696 
L 250.809091 -104.945696 
L 254.190909 -104.945696 
L 257.572727 -96.350103 
L 260.954545 -87.754511 
L 264.336364 -96.350103 
L 267.718182 -96.350103 
L 271.1 -96.350103 
L 274.481818 -87.754511 
L 277.863636 -87.754511 
L 281.245455 -104.945696 
L 284.627273 -96.350103 
L 288.009091 -87.754511 
L 291.390909 -104.945696 
L 294.772727 -122.136881 
L 298.154545 -104.945696 
L 301.536364 -104.945696 
L 304.918182 -104.945696 
L 308.3 -113.541289 
L 311.681818 -104.945696 
L 315.063636 -104.945696 
L 318.445455 -96.350103 
L 321.827273 -104.945696 
L 325.209091 -96.350103 
L 328.590909 -104.945696 
L 331.972727 -96.350103 
L 335.354545 -122.136881 
L 338.736364 -96.350103 
L 342.118182 -87.754511 
L 345.5 -104.945696 
L 345.5 -37.55625 
L 345.5 -37.55625 
L 342.118182 -37.55625 
L 338.736364 -37.55625 
L 335.354545 -37.55625 
L 331.972727 -37.55625 
L 328.590909 -37.55625 
L 325.209091 -37.55625 
L 321.827273 -37.55625 
L 318.445455 -37.55625 
L 315.063636 -37.55625 
L 311.681818 -37.55625 
L 308.3 -37.55625 
L 304.918182 -37.55625 
L 301.536364 -37.55625 
L 298.154545 -37.55625 
L 294.772727 -37.55625 
L 291.390909 -37.55625 
L 288.009091 -37.55625 
L 284.627273 -37.55625 
L 281.245455 -37.55625 
L 277.863636 -37.55625 
L 274.481818 -37.55625 
L 271.1 -37.55625 
L 267.718182 -37.55625 
L 264.336364 -37.55625 
L 260.954545 -37.55625 
L 257.572727 -37.55625 
L 254.190909 -37.55625 
L 250.809091 -37.55625 
L 247.427273 -37.55625 
L 244.045455 -37.55625 
L 240.663636 -37.55625 
L 237.281818 -37.55625 
L 233.9 -37.55625 
L 230.518182 -37.55625 
L 227.136364 -37.55625 
L 223.754545 -37.55625 
L 220.372727 -37.55625 
L 216.990909 -37.55625 
L 213.609091 -37.55625 
L 210.227273 -37.55625 
L 206.845455 -37.55625 
L 203.463636 -37.55625 
L 200.081818 -37.55625 
L 196.7 -37.55625 
L 193.318182 -37.55625 
L 189.936364 -37.55625 
L 186.554545 -37.55625 
L 183.172727 -37.55625 
L 179.790909 -37.55625 
L 176.409091 -37.55625 
L 173.027273 -37.55625 
L 169.645455 -37.55625 
L 166.263636 -37.55625 
L 162.881818 -37.55625 
L 159.5 -37.55625 
L 156.118182 -37.55625 
L 152.736364 -37.55625 
L 149.354545 -37.55625 
L 145.972727 -37.55625 
L 142.590909 -37.55625 
L 139.209091 -37.55625 
L 135.827273 -37.55625 
L 132.445455 -37.55625 
L 129.063636 -37.55625 
L 125.681818 -37.55625 
L 122.3 -37.55625 
L 118.918182 -37.55625 
L 115.536364 -37.55625 
L 112.154545 -37.55625 
L 108.772727 -37.55625 
L 105.390909 -37.55625 
L 102.009091 -37.55625 
L 98.627273 -37.55625 
L 95.245455 -37.55625 
L 91.863636 -37.55625 
L 88.481818 -37.55625 
L 85.1 -37.55625 
L 81.718182 -37.55625 
L 78.336364 -37.55625 
L 74.954545 -37.55625 
L 71.572727 -37.55625 
L 68.190909 -37.55625 
L 64.809091 -37.55625 
L 61.427273 -37.55625 
L 58.045455 -37.55625 
L 54.663636 -37.55625 
L 51.281818 -37.55625 
L 47.9 -37.55625 
L 44.518182 -37.55625 
L 41.136364 -37.55625 
L 37.754545 -37.55625 
L 34.372727 -37.55625 
L 30.990909 -37.55625 
L 27.609091 -37.55625 
L 24.227273 -37.55625 
L 20.845455 -37.55625 
L 17.463636 -37.55625 
L 14.081818 -37.55625 
L 10.7 -37.55625 
z
" style="stroke: #000000; stroke-width: 0.8"/>
    </defs>
    <g clip-path="url(#p2338714a32)">
     <use xlink:href="#m09ed8a4560" x="0" y="377.39625" style="fill: #b2b2b2; stroke: #000000; stroke-width: 0.8"/>
    </g>
   </g>
   <g id="PolyCollection_8">
    <defs>
     <path id="m030edb895b" d="M 10.7 -37.55625 
L 10.7 -75.204946 
L 14.081818 -75.204946 
L 17.463636 -75.204946 
L 20.845455 -110.308625 
L 24.227273 -75.204946 
L 27.609091 -101.532705 
L 30.990909 -101.532705 
L 34.372727 -83.980865 
L 37.754545 -92.756785 
L 41.136364 -75.204946 
L 44.518182 -92.756785 
L 47.9 -83.980865 
L 51.281818 -92.756785 
L 54.663636 -101.532705 
L 58.045455 -83.980865 
L 61.427273 -92.756785 
L 64.809091 -92.756785 
L 68.190909 -83.980865 
L 71.572727 -92.756785 
L 74.954545 -83.980865 
L 78.336364 -83.980865 
L 81.718182 -83.980865 
L 85.1 -101.532705 
L 88.481818 -92.756785 
L 91.863636 -83.980865 
L 95.245455 -92.756785 
L 98.627273 -75.204946 
L 102.009091 -75.204946 
L 105.390909 -75.204946 
L 108.772727 -92.756785 
L 112.154545 -83.980865 
L 115.536364 -75.204946 
L 118.918182 -92.756785 
L 122.3 -83.980865 
L 125.681818 -83.980865 
L 129.063636 -101.532705 
L 132.445455 -83.980865 
L 135.827273 -83.980865 
L 139.209091 -92.756785 
L 142.590909 -101.532705 
L 145.972727 -101.532705 
L 149.354545 -92.756785 
L 152.736364 -101.532705 
L 156.118182 -92.756785 
L 159.5 -83.980865 
L 162.881818 -83.980865 
L 166.263636 -92.756785 
L 169.645455 -110.308625 
L 173.027273 -75.204946 
L 176.409091 -83.980865 
L 179.790909 -92.756785 
L 183.172727 -75.204946 
L 186.554545 -83.980865 
L 189.936364 -83.980865 
L 193.318182 -75.204946 
L 196.7 -83.980865 
L 200.081818 -83.980865 
L 203.463636 -75.204946 
L 206.845455 -92.756785 
L 210.227273 -75.204946 
L 213.609091 -92.756785 
L 216.990909 -83.980865 
L 220.372727 -83.980865 
L 223.754545 -83.980865 
L 227.136364 -92.756785 
L 230.518182 -92.756785 
L 233.9 -83.980865 
L 237.281818 -92.756785 
L 240.663636 -92.756785 
L 244.045455 -92.756785 
L 247.427273 -83.980865 
L 250.809091 -92.756785 
L 254.190909 -92.756785 
L 257.572727 -83.980865 
L 260.954545 -75.204946 
L 264.336364 -92.756785 
L 267.718182 -92.756785 
L 271.1 -92.756785 
L 274.481818 -83.980865 
L 277.863636 -101.532705 
L 281.245455 -92.756785 
L 284.627273 -75.204946 
L 288.009091 -83.980865 
L 291.390909 -92.756785 
L 294.772727 -83.980865 
L 298.154545 -75.204946 
L 301.536364 -75.204946 
L 304.918182 -83.980865 
L 308.3 -75.204946 
L 311.681818 -101.532705 
L 315.063636 -83.980865 
L 318.445455 -83.980865 
L 321.827273 -110.308625 
L 325.209091 -75.204946 
L 328.590909 -101.532705 
L 331.972727 -83.980865 
L 335.354545 -83.980865 
L 338.736364 -101.532705 
L 342.118182 -75.204946 
L 345.5 -101.532705 
L 345.5 -37.55625 
L 345.5 -37.55625 
L 342.118182 -37.55625 
L 338.736364 -37.55625 
L 335.354545 -37.55625 
L 331.972727 -37.55625 
L 328.590909 -37.55625 
L 325.209091 -37.55625 
L 321.827273 -37.55625 
L 318.445455 -37.55625 
L 315.063636 -37.55625 
L 311.681818 -37.55625 
L 308.3 -37.55625 
L 304.918182 -37.55625 
L 301.536364 -37.55625 
L 298.154545 -37.55625 
L 294.772727 -37.55625 
L 291.390909 -37.55625 
L 288.009091 -37.55625 
L 284.627273 -37.55625 
L 281.245455 -37.55625 
L 277.863636 -37.55625 
L 274.481818 -37.55625 
L 271.1 -37.55625 
L 267.718182 -37.55625 
L 264.336364 -37.55625 
L 260.954545 -37.55625 
L 257.572727 -37.55625 
L 254.190909 -37.55625 
L 250.809091 -37.55625 
L 247.427273 -37.55625 
L 244.045455 -37.55625 
L 240.663636 -37.55625 
L 237.281818 -37.55625 
L 233.9 -37.55625 
L 230.518182 -37.55625 
L 227.136364 -37.55625 
L 223.754545 -37.55625 
L 220.372727 -37.55625 
L 216.990909 -37.55625 
L 213.609091 -37.55625 
L 210.227273 -37.55625 
L 206.845455 -37.55625 
L 203.463636 -37.55625 
L 200.081818 -37.55625 
L 196.7 -37.55625 
L 193.318182 -37.55625 
L 189.936364 -37.55625 
L 186.554545 -37.55625 
L 183.172727 -37.55625 
L 179.790909 -37.55625 
L 176.409091 -37.55625 
L 173.027273 -37.55625 
L 169.645455 -37.55625 
L 166.263636 -37.55625 
L 162.881818 -37.55625 
L 159.5 -37.55625 
L 156.118182 -37.55625 
L 152.736364 -37.55625 
L 149.354545 -37.55625 
L 145.972727 -37.55625 
L 142.590909 -37.55625 
L 139.209091 -37.55625 
L 135.827273 -37.55625 
L 132.445455 -37.55625 
L 129.063636 -37.55625 
L 125.681818 -37.55625 
L 122.3 -37.55625 
L 118.918182 -37.55625 
L 115.536364 -37.55625 
L 112.154545 -37.55625 
L 108.772727 -37.55625 
L 105.390909 -37.55625 
L 102.009091 -37.55625 
L 98.627273 -37.55625 
L 95.245455 -37.55625 
L 91.863636 -37.55625 
L 88.481818 -37.55625 
L 85.1 -37.55625 
L 81.718182 -37.55625 
L 78.336364 -37.55625 
L 74.954545 -37.55625 
L 71.572727 -37.55625 
L 68.190909 -37.55625 
L 64.809091 -37.55625 
L 61.427273 -37.55625 
L 58.045455 -37.55625 
L 54.663636 -37.55625 
L 51.281818 -37.55625 
L 47.9 -37.55625 
L 44.518182 -37.55625 
L 41.136364 -37.55625 
L 37.754545 -37.55625 
L 34.372727 -37.55625 
L 30.990909 -37.55625 
L 27.609091 -37.55625 
L 24.227273 -37.55625 
L 20.845455 -37.55625 
L 17.463636 -37.55625 
L 14.081818 -37.55625 
L 10.7 -37.55625 
z
" style="stroke: #000000; stroke-width: 0.8"/>
    </defs>
    <g clip-path="url(#p2338714a32)">
     <use xlink:href="#m030edb895b" x="0" y="377.39625" style="fill: #cccccc; stroke: #000000; stroke-width: 0.8"/>
    </g>
   </g>
   <g id="PolyCollection_9">
    <defs>
     <path id="mf2d1b1f59b" d="M 10.7 -37.55625 
L 10.7 -80.583331 
L 14.081818 -62.65538 
L 17.463636 -71.619356 
L 20.845455 -62.65538 
L 24.227273 -71.619356 
L 27.609091 -62.65538 
L 30.990909 -80.583331 
L 34.372727 -71.619356 
L 37.754545 -71.619356 
L 41.136364 -71.619356 
L 44.518182 -71.619356 
L 47.9 -89.547306 
L 51.281818 -62.65538 
L 54.663636 -80.583331 
L 58.045455 -80.583331 
L 61.427273 -80.583331 
L 64.809091 -71.619356 
L 68.190909 -62.65538 
L 71.572727 -89.547306 
L 74.954545 -71.619356 
L 78.336364 -71.619356 
L 81.718182 -62.65538 
L 85.1 -62.65538 
L 88.481818 -71.619356 
L 91.863636 -89.547306 
L 95.245455 -71.619356 
L 98.627273 -71.619356 
L 102.009091 -71.619356 
L 105.390909 -71.619356 
L 108.772727 -71.619356 
L 112.154545 -89.547306 
L 115.536364 -62.65538 
L 118.918182 -89.547306 
L 122.3 -89.547306 
L 125.681818 -62.65538 
L 129.063636 -80.583331 
L 132.445455 -71.619356 
L 135.827273 -80.583331 
L 139.209091 -98.511281 
L 142.590909 -80.583331 
L 145.972727 -89.547306 
L 149.354545 -62.65538 
L 152.736364 -80.583331 
L 156.118182 -62.65538 
L 159.5 -80.583331 
L 162.881818 -71.619356 
L 166.263636 -71.619356 
L 169.645455 -62.65538 
L 173.027273 -62.65538 
L 176.409091 -80.583331 
L 179.790909 -71.619356 
L 183.172727 -62.65538 
L 186.554545 -62.65538 
L 189.936364 -98.511281 
L 193.318182 -80.583331 
L 196.7 -89.547306 
L 200.081818 -71.619356 
L 203.463636 -62.65538 
L 206.845455 -71.619356 
L 210.227273 -80.583331 
L 213.609091 -71.619356 
L 216.990909 -71.619356 
L 220.372727 -80.583331 
L 223.754545 -62.65538 
L 227.136364 -62.65538 
L 230.518182 -89.547306 
L 233.9 -62.65538 
L 237.281818 -62.65538 
L 240.663636 -71.619356 
L 244.045455 -62.65538 
L 247.427273 -71.619356 
L 250.809091 -89.547306 
L 254.190909 -62.65538 
L 257.572727 -80.583331 
L 260.954545 -71.619356 
L 264.336364 -89.547306 
L 267.718182 -62.65538 
L 271.1 -71.619356 
L 274.481818 -62.65538 
L 277.863636 -71.619356 
L 281.245455 -80.583331 
L 284.627273 -116.439231 
L 288.009091 -71.619356 
L 291.390909 -98.511281 
L 294.772727 -116.439231 
L 298.154545 -80.583331 
L 301.536364 -71.619356 
L 304.918182 -89.547306 
L 308.3 -71.619356 
L 311.681818 -71.619356 
L 315.063636 -107.475256 
L 318.445455 -71.619356 
L 321.827273 -71.619356 
L 325.209091 -80.583331 
L 328.590909 -80.583331 
L 331.972727 -62.65538 
L 335.354545 -71.619356 
L 338.736364 -62.65538 
L 342.118182 -71.619356 
L 345.5 -71.619356 
L 345.5 -37.55625 
L 345.5 -37.55625 
L 342.118182 -37.55625 
L 338.736364 -37.55625 
L 335.354545 -37.55625 
L 331.972727 -37.55625 
L 328.590909 -37.55625 
L 325.209091 -37.55625 
L 321.827273 -37.55625 
L 318.445455 -37.55625 
L 315.063636 -37.55625 
L 311.681818 -37.55625 
L 308.3 -37.55625 
L 304.918182 -37.55625 
L 301.536364 -37.55625 
L 298.154545 -37.55625 
L 294.772727 -37.55625 
L 291.390909 -37.55625 
L 288.009091 -37.55625 
L 284.627273 -37.55625 
L 281.245455 -37.55625 
L 277.863636 -37.55625 
L 274.481818 -37.55625 
L 271.1 -37.55625 
L 267.718182 -37.55625 
L 264.336364 -37.55625 
L 260.954545 -37.55625 
L 257.572727 -37.55625 
L 254.190909 -37.55625 
L 250.809091 -37.55625 
L 247.427273 -37.55625 
L 244.045455 -37.55625 
L 240.663636 -37.55625 
L 237.281818 -37.55625 
L 233.9 -37.55625 
L 230.518182 -37.55625 
L 227.136364 -37.55625 
L 223.754545 -37.55625 
L 220.372727 -37.55625 
L 216.990909 -37.55625 
L 213.609091 -37.55625 
L 210.227273 -37.55625 
L 206.845455 -37.55625 
L 203.463636 -37.55625 
L 200.081818 -37.55625 
L 196.7 -37.55625 
L 193.318182 -37.55625 
L 189.936364 -37.55625 
L 186.554545 -37.55625 
L 183.172727 -37.55625 
L 179.790909 -37.55625 
L 176.409091 -37.55625 
L 173.027273 -37.55625 
L 169.645455 -37.55625 
L 166.263636 -37.55625 
L 162.881818 -37.55625 
L 159.5 -37.55625 
L 156.118182 -37.55625 
L 152.736364 -37.55625 
L 149.354545 -37.55625 
L 145.972727 -37.55625 
L 142.590909 -37.55625 
L 139.209091 -37.55625 
L 135.827273 -37.55625 
L 132.445455 -37.55625 
L 129.063636 -37.55625 
L 125.681818 -37.55625 
L 122.3 -37.55625 
L 118.918182 -37.55625 
L 115.536364 -37.55625 
L 112.154545 -37.55625 
L 108.772727 -37.55625 
L 105.390909 -37.55625 
L 102.009091 -37.55625 
L 98.627273 -37.55625 
L 95.245455 -37.55625 
L 91.863636 -37.55625 
L 88.481818 -37.55625 
L 85.1 -37.55625 
L 81.718182 -37.55625 
L 78.336364 -37.55625 
L 74.954545 -37.55625 
L 71.572727 -37.55625 
L 68.190909 -37.55625 
L 64.809091 -37.55625 
L 61.427273 -37.55625 
L 58.045455 -37.55625 
L 54.663636 -37.55625 
L 51.281818 -37.55625 
L 47.9 -37.55625 
L 44.518182 -37.55625 
L 41.136364 -37.55625 
L 37.754545 -37.55625 
L 34.372727 -37.55625 
L 30.990909 -37.55625 
L 27.609091 -37.55625 
L 24.227273 -37.55625 
L 20.845455 -37.55625 
L 17.463636 -37.55625 
L 14.081818 -37.55625 
L 10.7 -37.55625 
z
" style="stroke: #000000; stroke-width: 0.8"/>
    </defs>
    <g clip-path="url(#p2338714a32)">
     <use xlink:href="#mf2d1b1f59b" x="0" y="377.39625" style="fill: #e6e6e6; stroke: #000000; stroke-width: 0.8"/>
    </g>
   </g>
   <g id="PolyCollection_10">
    <defs>
     <path id="m28fbd02879" d="M 10.7 -37.55625 
L 10.7 -68.426348 
L 14.081818 -68.426348 
L 17.463636 -77.586615 
L 20.845455 -50.105815 
L 24.227273 -59.266082 
L 27.609091 -50.105815 
L 30.990909 -50.105815 
L 34.372727 -59.266082 
L 37.754545 -77.586615 
L 41.136364 -59.266082 
L 44.518182 -68.426348 
L 47.9 -59.266082 
L 51.281818 -50.105815 
L 54.663636 -68.426348 
L 58.045455 -59.266082 
L 61.427273 -68.426348 
L 64.809091 -59.266082 
L 68.190909 -59.266082 
L 71.572727 -59.266082 
L 74.954545 -59.266082 
L 78.336364 -50.105815 
L 81.718182 -59.266082 
L 85.1 -50.105815 
L 88.481818 -68.426348 
L 91.863636 -50.105815 
L 95.245455 -77.586615 
L 98.627273 -50.105815 
L 102.009091 -68.426348 
L 105.390909 -59.266082 
L 108.772727 -59.266082 
L 112.154545 -59.266082 
L 115.536364 -59.266082 
L 118.918182 -68.426348 
L 122.3 -59.266082 
L 125.681818 -50.105815 
L 129.063636 -59.266082 
L 132.445455 -59.266082 
L 135.827273 -68.426348 
L 139.209091 -50.105815 
L 142.590909 -68.426348 
L 145.972727 -59.266082 
L 149.354545 -59.266082 
L 152.736364 -59.266082 
L 156.118182 -68.426348 
L 159.5 -59.266082 
L 162.881818 -50.105815 
L 166.263636 -59.266082 
L 169.645455 -59.266082 
L 173.027273 -59.266082 
L 176.409091 -59.266082 
L 179.790909 -59.266082 
L 183.172727 -68.426348 
L 186.554545 -68.426348 
L 189.936364 -59.266082 
L 193.318182 -59.266082 
L 196.7 -77.586615 
L 200.081818 -50.105815 
L 203.463636 -77.586615 
L 206.845455 -77.586615 
L 210.227273 -77.586615 
L 213.609091 -59.266082 
L 216.990909 -50.105815 
L 220.372727 -50.105815 
L 223.754545 -59.266082 
L 227.136364 -77.586615 
L 230.518182 -86.746882 
L 233.9 -77.586615 
L 237.281818 -59.266082 
L 240.663636 -77.586615 
L 244.045455 -77.586615 
L 247.427273 -77.586615 
L 250.809091 -68.426348 
L 254.190909 -59.266082 
L 257.572727 -77.586615 
L 260.954545 -59.266082 
L 264.336364 -59.266082 
L 267.718182 -68.426348 
L 271.1 -59.266082 
L 274.481818 -68.426348 
L 277.863636 -77.586615 
L 281.245455 -77.586615 
L 284.627273 -59.266082 
L 288.009091 -68.426348 
L 291.390909 -59.266082 
L 294.772727 -50.105815 
L 298.154545 -68.426348 
L 301.536364 -59.266082 
L 304.918182 -68.426348 
L 308.3 -68.426348 
L 311.681818 -59.266082 
L 315.063636 -86.746882 
L 318.445455 -68.426348 
L 321.827273 -50.105815 
L 325.209091 -59.266082 
L 328.590909 -50.105815 
L 331.972727 -50.105815 
L 335.354545 -59.266082 
L 338.736364 -50.105815 
L 342.118182 -50.105815 
L 345.5 -59.266082 
L 345.5 -37.55625 
L 345.5 -37.55625 
L 342.118182 -37.55625 
L 338.736364 -37.55625 
L 335.354545 -37.55625 
L 331.972727 -37.55625 
L 328.590909 -37.55625 
L 325.209091 -37.55625 
L 321.827273 -37.55625 
L 318.445455 -37.55625 
L 315.063636 -37.55625 
L 311.681818 -37.55625 
L 308.3 -37.55625 
L 304.918182 -37.55625 
L 301.536364 -37.55625 
L 298.154545 -37.55625 
L 294.772727 -37.55625 
L 291.390909 -37.55625 
L 288.009091 -37.55625 
L 284.627273 -37.55625 
L 281.245455 -37.55625 
L 277.863636 -37.55625 
L 274.481818 -37.55625 
L 271.1 -37.55625 
L 267.718182 -37.55625 
L 264.336364 -37.55625 
L 260.954545 -37.55625 
L 257.572727 -37.55625 
L 254.190909 -37.55625 
L 250.809091 -37.55625 
L 247.427273 -37.55625 
L 244.045455 -37.55625 
L 240.663636 -37.55625 
L 237.281818 -37.55625 
L 233.9 -37.55625 
L 230.518182 -37.55625 
L 227.136364 -37.55625 
L 223.754545 -37.55625 
L 220.372727 -37.55625 
L 216.990909 -37.55625 
L 213.609091 -37.55625 
L 210.227273 -37.55625 
L 206.845455 -37.55625 
L 203.463636 -37.55625 
L 200.081818 -37.55625 
L 196.7 -37.55625 
L 193.318182 -37.55625 
L 189.936364 -37.55625 
L 186.554545 -37.55625 
L 183.172727 -37.55625 
L 179.790909 -37.55625 
L 176.409091 -37.55625 
L 173.027273 -37.55625 
L 169.645455 -37.55625 
L 166.263636 -37.55625 
L 162.881818 -37.55625 
L 159.5 -37.55625 
L 156.118182 -37.55625 
L 152.736364 -37.55625 
L 149.354545 -37.55625 
L 145.972727 -37.55625 
L 142.590909 -37.55625 
L 139.209091 -37.55625 
L 135.827273 -37.55625 
L 132.445455 -37.55625 
L 129.063636 -37.55625 
L 125.681818 -37.55625 
L 122.3 -37.55625 
L 118.918182 -37.55625 
L 115.536364 -37.55625 
L 112.154545 -37.55625 
L 108.772727 -37.55625 
L 105.390909 -37.55625 
L 102.009091 -37.55625 
L 98.627273 -37.55625 
L 95.245455 -37.55625 
L 91.863636 -37.55625 
L 88.481818 -37.55625 
L 85.1 -37.55625 
L 81.718182 -37.55625 
L 78.336364 -37.55625 
L 74.954545 -37.55625 
L 71.572727 -37.55625 
L 68.190909 -37.55625 
L 64.809091 -37.55625 
L 61.427273 -37.55625 
L 58.045455 -37.55625 
L 54.663636 -37.55625 
L 51.281818 -37.55625 
L 47.9 -37.55625 
L 44.518182 -37.55625 
L 41.136364 -37.55625 
L 37.754545 -37.55625 
L 34.372727 -37.55625 
L 30.990909 -37.55625 
L 27.609091 -37.55625 
L 24.227273 -37.55625 
L 20.845455 -37.55625 
L 17.463636 -37.55625 
L 14.081818 -37.55625 
L 10.7 -37.55625 
z
" style="stroke: #000000; stroke-width: 0.8"/>
    </defs>
    <g clip-path="url(#p2338714a32)">
     <use xlink:href="#m28fbd02879" x="0" y="377.39625" style="fill: #ffffff; stroke: #000000; stroke-width: 0.8"/>
    </g>
   </g>
   <g id="matplotlib.axis_1">
    <g id="xtick_1">
     <g id="line2d_1">
      <defs>
       <path id="m1fe9f7da64" d="M 0 0 
L 0 3.5 
" style="stroke: #000000; stroke-width: 0.8"/>
      </defs>
      <g>
       <use xlink:href="#m1fe9f7da64" x="74.954545" y="339.84" style="stroke: #000000; stroke-width: 0.8"/>
      </g>
     </g>
     <g id="text_1">
      <!-- 20 -->
      <g transform="translate(68.592045 354.438437) scale(0.1 -0.1)">
       <defs>
        <path id="DejaVuSans-32" d="M 1228 531 
L 3431 531 
L 3431 0 
L 469 0 
L 469 531 
Q 828 903 1448 1529 
Q 2069 2156 2228 2338 
Q 2531 2678 2651 2914 
Q 2772 3150 2772 3378 
Q 2772 3750 2511 3984 
Q 2250 4219 1831 4219 
Q 1534 4219 1204 4116 
Q 875 4013 500 3803 
L 500 4441 
Q 881 4594 1212 4672 
Q 1544 4750 1819 4750 
Q 2544 4750 2975 4387 
Q 3406 4025 3406 3419 
Q 3406 3131 3298 2873 
Q 3191 2616 2906 2266 
Q 2828 2175 2409 1742 
Q 1991 1309 1228 531 
z
" transform="scale(0.015625)"/>
        <path id="DejaVuSans-30" d="M 2034 4250 
Q 1547 4250 1301 3770 
Q 1056 3291 1056 2328 
Q 1056 1369 1301 889 
Q 1547 409 2034 409 
Q 2525 409 2770 889 
Q 3016 1369 3016 2328 
Q 3016 3291 2770 3770 
Q 2525 4250 2034 4250 
z
M 2034 4750 
Q 2819 4750 3233 4129 
Q 3647 3509 3647 2328 
Q 3647 1150 3233 529 
Q 2819 -91 2034 -91 
Q 1250 -91 836 529 
Q 422 1150 422 2328 
Q 422 3509 836 4129 
Q 1250 4750 2034 4750 
z
" transform="scale(0.015625)"/>
       </defs>
       <use xlink:href="#DejaVuSans-32"/>
       <use xlink:href="#DejaVuSans-30" x="63.623047"/>
      </g>
     </g>
    </g>
    <g id="xtick_2">
     <g id="line2d_2">
      <g>
       <use xlink:href="#m1fe9f7da64" x="142.590909" y="339.84" style="stroke: #000000; stroke-width: 0.8"/>
      </g>
     </g>
     <g id="text_2">
      <!-- 40 -->
      <g transform="translate(136.228409 354.438437) scale(0.1 -0.1)">
       <defs>
        <path id="DejaVuSans-34" d="M 2419 4116 
L 825 1625 
L 2419 1625 
L 2419 4116 
z
M 2253 4666 
L 3047 4666 
L 3047 1625 
L 3713 1625 
L 3713 1100 
L 3047 1100 
L 3047 0 
L 2419 0 
L 2419 1100 
L 313 1100 
L 313 1709 
L 2253 4666 
z
" transform="scale(0.015625)"/>
       </defs>
       <use xlink:href="#DejaVuSans-34"/>
       <use xlink:href="#DejaVuSans-30" x="63.623047"/>
      </g>
     </g>
    </g>
    <g id="xtick_3">
     <g id="line2d_3">
      <g>
       <use xlink:href="#m1fe9f7da64" x="210.227273" y="339.84" style="stroke: #000000; stroke-width: 0.8"/>
      </g>
     </g>
     <g id="text_3">
      <!-- 60 -->
      <g transform="translate(203.864773 354.438437) scale(0.1 -0.1)">
       <defs>
        <path id="DejaVuSans-36" d="M 2113 2584 
Q 1688 2584 1439 2293 
Q 1191 2003 1191 1497 
Q 1191 994 1439 701 
Q 1688 409 2113 409 
Q 2538 409 2786 701 
Q 3034 994 3034 1497 
Q 3034 2003 2786 2293 
Q 2538 2584 2113 2584 
z
M 3366 4563 
L 3366 3988 
Q 3128 4100 2886 4159 
Q 2644 4219 2406 4219 
Q 1781 4219 1451 3797 
Q 1122 3375 1075 2522 
Q 1259 2794 1537 2939 
Q 1816 3084 2150 3084 
Q 2853 3084 3261 2657 
Q 3669 2231 3669 1497 
Q 3669 778 3244 343 
Q 2819 -91 2113 -91 
Q 1303 -91 875 529 
Q 447 1150 447 2328 
Q 447 3434 972 4092 
Q 1497 4750 2381 4750 
Q 2619 4750 2861 4703 
Q 3103 4656 3366 4563 
z
" transform="scale(0.015625)"/>
       </defs>
       <use xlink:href="#DejaVuSans-36"/>
       <use xlink:href="#DejaVuSans-30" x="63.623047"/>
      </g>
     </g>
    </g>
    <g id="xtick_4">
     <g id="line2d_4">
      <g>
       <use xlink:href="#m1fe9f7da64" x="277.863636" y="339.84" style="stroke: #000000; stroke-width: 0.8"/>
      </g>
     </g>
     <g id="text_4">
      <!-- 80 -->
      <g transform="translate(271.501136 354.438437) scale(0.1 -0.1)">
       <defs>
        <path id="DejaVuSans-38" d="M 2034 2216 
Q 1584 2216 1326 1975 
Q 1069 1734 1069 1313 
Q 1069 891 1326 650 
Q 1584 409 2034 409 
Q 2484 409 2743 651 
Q 3003 894 3003 1313 
Q 3003 1734 2745 1975 
Q 2488 2216 2034 2216 
z
M 1403 2484 
Q 997 2584 770 2862 
Q 544 3141 544 3541 
Q 544 4100 942 4425 
Q 1341 4750 2034 4750 
Q 2731 4750 3128 4425 
Q 3525 4100 3525 3541 
Q 3525 3141 3298 2862 
Q 3072 2584 2669 2484 
Q 3125 2378 3379 2068 
Q 3634 1759 3634 1313 
Q 3634 634 3220 271 
Q 2806 -91 2034 -91 
Q 1263 -91 848 271 
Q 434 634 434 1313 
Q 434 1759 690 2068 
Q 947 2378 1403 2484 
z
M 1172 3481 
Q 1172 3119 1398 2916 
Q 1625 2713 2034 2713 
Q 2441 2713 2670 2916 
Q 2900 3119 2900 3481 
Q 2900 3844 2670 4047 
Q 2441 4250 2034 4250 
Q 1625 4250 1398 4047 
Q 1172 3844 1172 3481 
z
" transform="scale(0.015625)"/>
       </defs>
       <use xlink:href="#DejaVuSans-38"/>
       <use xlink:href="#DejaVuSans-30" x="63.623047"/>
      </g>
     </g>
    </g>
    <g id="xtick_5">
     <g id="line2d_5">
      <g>
       <use xlink:href="#m1fe9f7da64" x="345.5" y="339.84" style="stroke: #000000; stroke-width: 0.8"/>
      </g>
     </g>
     <g id="text_5">
      <!-- 100 -->
      <g transform="translate(335.95625 354.438437) scale(0.1 -0.1)">
       <defs>
        <path id="DejaVuSans-31" d="M 794 531 
L 1825 531 
L 1825 4091 
L 703 3866 
L 703 4441 
L 1819 4666 
L 2450 4666 
L 2450 531 
L 3481 531 
L 3481 0 
L 794 0 
L 794 531 
z
" transform="scale(0.015625)"/>
       </defs>
       <use xlink:href="#DejaVuSans-31"/>
       <use xlink:href="#DejaVuSans-30" x="63.623047"/>
       <use xlink:href="#DejaVuSans-30" x="127.246094"/>
      </g>
     </g>
    </g>
    <g id="text_6">
     <!-- Position within deck -->
     <g transform="translate(128.397656 368.116562) scale(0.1 -0.1)">
      <defs>
       <path id="DejaVuSans-50" d="M 1259 4147 
L 1259 2394 
L 2053 2394 
Q 2494 2394 2734 2622 
Q 2975 2850 2975 3272 
Q 2975 3691 2734 3919 
Q 2494 4147 2053 4147 
L 1259 4147 
z
M 628 4666 
L 2053 4666 
Q 2838 4666 3239 4311 
Q 3641 3956 3641 3272 
Q 3641 2581 3239 2228 
Q 2838 1875 2053 1875 
L 1259 1875 
L 1259 0 
L 628 0 
L 628 4666 
z
" transform="scale(0.015625)"/>
       <path id="DejaVuSans-6f" d="M 1959 3097 
Q 1497 3097 1228 2736 
Q 959 2375 959 1747 
Q 959 1119 1226 758 
Q 1494 397 1959 397 
Q 2419 397 2687 759 
Q 2956 1122 2956 1747 
Q 2956 2369 2687 2733 
Q 2419 3097 1959 3097 
z
M 1959 3584 
Q 2709 3584 3137 3096 
Q 3566 2609 3566 1747 
Q 3566 888 3137 398 
Q 2709 -91 1959 -91 
Q 1206 -91 779 398 
Q 353 888 353 1747 
Q 353 2609 779 3096 
Q 1206 3584 1959 3584 
z
" transform="scale(0.015625)"/>
       <path id="DejaVuSans-73" d="M 2834 3397 
L 2834 2853 
Q 2591 2978 2328 3040 
Q 2066 3103 1784 3103 
Q 1356 3103 1142 2972 
Q 928 2841 928 2578 
Q 928 2378 1081 2264 
Q 1234 2150 1697 2047 
L 1894 2003 
Q 2506 1872 2764 1633 
Q 3022 1394 3022 966 
Q 3022 478 2636 193 
Q 2250 -91 1575 -91 
Q 1294 -91 989 -36 
Q 684 19 347 128 
L 347 722 
Q 666 556 975 473 
Q 1284 391 1588 391 
Q 1994 391 2212 530 
Q 2431 669 2431 922 
Q 2431 1156 2273 1281 
Q 2116 1406 1581 1522 
L 1381 1569 
Q 847 1681 609 1914 
Q 372 2147 372 2553 
Q 372 3047 722 3315 
Q 1072 3584 1716 3584 
Q 2034 3584 2315 3537 
Q 2597 3491 2834 3397 
z
" transform="scale(0.015625)"/>
       <path id="DejaVuSans-69" d="M 603 3500 
L 1178 3500 
L 1178 0 
L 603 0 
L 603 3500 
z
M 603 4863 
L 1178 4863 
L 1178 4134 
L 603 4134 
L 603 4863 
z
" transform="scale(0.015625)"/>
       <path id="DejaVuSans-74" d="M 1172 4494 
L 1172 3500 
L 2356 3500 
L 2356 3053 
L 1172 3053 
L 1172 1153 
Q 1172 725 1289 603 
Q 1406 481 1766 481 
L 2356 481 
L 2356 0 
L 1766 0 
Q 1100 0 847 248 
Q 594 497 594 1153 
L 594 3053 
L 172 3053 
L 172 3500 
L 594 3500 
L 594 4494 
L 1172 4494 
z
" transform="scale(0.015625)"/>
       <path id="DejaVuSans-6e" d="M 3513 2113 
L 3513 0 
L 2938 0 
L 2938 2094 
Q 2938 2591 2744 2837 
Q 2550 3084 2163 3084 
Q 1697 3084 1428 2787 
Q 1159 2491 1159 1978 
L 1159 0 
L 581 0 
L 581 3500 
L 1159 3500 
L 1159 2956 
Q 1366 3272 1645 3428 
Q 1925 3584 2291 3584 
Q 2894 3584 3203 3211 
Q 3513 2838 3513 2113 
z
" transform="scale(0.015625)"/>
       <path id="DejaVuSans-20" transform="scale(0.015625)"/>
       <path id="DejaVuSans-77" d="M 269 3500 
L 844 3500 
L 1563 769 
L 2278 3500 
L 2956 3500 
L 3675 769 
L 4391 3500 
L 4966 3500 
L 4050 0 
L 3372 0 
L 2619 2869 
L 1863 0 
L 1184 0 
L 269 3500 
z
" transform="scale(0.015625)"/>
       <path id="DejaVuSans-68" d="M 3513 2113 
L 3513 0 
L 2938 0 
L 2938 2094 
Q 2938 2591 2744 2837 
Q 2550 3084 2163 3084 
Q 1697 3084 1428 2787 
Q 1159 2491 1159 1978 
L 1159 0 
L 581 0 
L 581 4863 
L 1159 4863 
L 1159 2956 
Q 1366 3272 1645 3428 
Q 1925 3584 2291 3584 
Q 2894 3584 3203 3211 
Q 3513 2838 3513 2113 
z
" transform="scale(0.015625)"/>
       <path id="DejaVuSans-64" d="M 2906 2969 
L 2906 4863 
L 3481 4863 
L 3481 0 
L 2906 0 
L 2906 525 
Q 2725 213 2448 61 
Q 2172 -91 1784 -91 
Q 1150 -91 751 415 
Q 353 922 353 1747 
Q 353 2572 751 3078 
Q 1150 3584 1784 3584 
Q 2172 3584 2448 3432 
Q 2725 3281 2906 2969 
z
M 947 1747 
Q 947 1113 1208 752 
Q 1469 391 1925 391 
Q 2381 391 2643 752 
Q 2906 1113 2906 1747 
Q 2906 2381 2643 2742 
Q 2381 3103 1925 3103 
Q 1469 3103 1208 2742 
Q 947 2381 947 1747 
z
" transform="scale(0.015625)"/>
       <path id="DejaVuSans-65" d="M 3597 1894 
L 3597 1613 
L 953 1613 
Q 991 1019 1311 708 
Q 1631 397 2203 397 
Q 2534 397 2845 478 
Q 3156 559 3463 722 
L 3463 178 
Q 3153 47 2828 -22 
Q 2503 -91 2169 -91 
Q 1331 -91 842 396 
Q 353 884 353 1716 
Q 353 2575 817 3079 
Q 1281 3584 2069 3584 
Q 2775 3584 3186 3129 
Q 3597 2675 3597 1894 
z
M 3022 2063 
Q 3016 2534 2758 2815 
Q 2500 3097 2075 3097 
Q 1594 3097 1305 2825 
Q 1016 2553 972 2059 
L 3022 2063 
z
" transform="scale(0.015625)"/>
       <path id="DejaVuSans-63" d="M 3122 3366 
L 3122 2828 
Q 2878 2963 2633 3030 
Q 2388 3097 2138 3097 
Q 1578 3097 1268 2742 
Q 959 2388 959 1747 
Q 959 1106 1268 751 
Q 1578 397 2138 397 
Q 2388 397 2633 464 
Q 2878 531 3122 666 
L 3122 134 
Q 2881 22 2623 -34 
Q 2366 -91 2075 -91 
Q 1284 -91 818 406 
Q 353 903 353 1747 
Q 353 2603 823 3093 
Q 1294 3584 2113 3584 
Q 2378 3584 2631 3529 
Q 2884 3475 3122 3366 
z
" transform="scale(0.015625)"/>
       <path id="DejaVuSans-6b" d="M 581 4863 
L 1159 4863 
L 1159 1991 
L 2875 3500 
L 3609 3500 
L 1753 1863 
L 3688 0 
L 2938 0 
L 1159 1709 
L 1159 0 
L 581 0 
L 581 4863 
z
" transform="scale(0.015625)"/>
      </defs>
      <use xlink:href="#DejaVuSans-50"/>
      <use xlink:href="#DejaVuSans-6f" x="56.677734"/>
      <use xlink:href="#DejaVuSans-73" x="117.859375"/>
      <use xlink:href="#DejaVuSans-69" x="169.958984"/>
      <use xlink:href="#DejaVuSans-74" x="197.742188"/>
      <use xlink:href="#DejaVuSans-69" x="236.951172"/>
      <use xlink:href="#DejaVuSans-6f" x="264.734375"/>
      <use xlink:href="#DejaVuSans-6e" x="325.916016"/>
      <use xlink:href="#DejaVuSans-20" x="389.294922"/>
      <use xlink:href="#DejaVuSans-77" x="421.082031"/>
      <use xlink:href="#DejaVuSans-69" x="502.869141"/>
      <use xlink:href="#DejaVuSans-74" x="530.652344"/>
      <use xlink:href="#DejaVuSans-68" x="569.861328"/>
      <use xlink:href="#DejaVuSans-69" x="633.240234"/>
      <use xlink:href="#DejaVuSans-6e" x="661.023438"/>
      <use xlink:href="#DejaVuSans-20" x="724.402344"/>
      <use xlink:href="#DejaVuSans-64" x="756.189453"/>
      <use xlink:href="#DejaVuSans-65" x="819.666016"/>
      <use xlink:href="#DejaVuSans-63" x="881.189453"/>
      <use xlink:href="#DejaVuSans-6b" x="936.169922"/>
     </g>
    </g>
   </g>
   <g id="matplotlib.axis_2">
    <g id="ytick_1">
     <g id="line2d_6">
      <defs>
       <path id="m454c7b62a8" d="M 0 0 
L -3.5 0 
" style="stroke: #000000; stroke-width: 0.8"/>
      </defs>
      <g>
       <use xlink:href="#m454c7b62a8" x="10.7" y="339.84" style="stroke: #000000; stroke-width: 0.8"/>
      </g>
     </g>
    </g>
    <g id="ytick_2">
     <g id="line2d_7">
      <g>
       <use xlink:href="#m454c7b62a8" x="10.7" y="277.092174" style="stroke: #000000; stroke-width: 0.8"/>
      </g>
     </g>
    </g>
    <g id="ytick_3">
     <g id="line2d_8">
      <g>
       <use xlink:href="#m454c7b62a8" x="10.7" y="214.344348" style="stroke: #000000; stroke-width: 0.8"/>
      </g>
     </g>
    </g>
    <g id="ytick_4">
     <g id="line2d_9">
      <g>
       <use xlink:href="#m454c7b62a8" x="10.7" y="151.596522" style="stroke: #000000; stroke-width: 0.8"/>
      </g>
     </g>
    </g>
    <g id="ytick_5">
     <g id="line2d_10">
      <g>
       <use xlink:href="#m454c7b62a8" x="10.7" y="88.848696" style="stroke: #000000; stroke-width: 0.8"/>
      </g>
     </g>
    </g>
    <g id="ytick_6">
     <g id="line2d_11">
      <g>
       <use xlink:href="#m454c7b62a8" x="10.7" y="26.10087" style="stroke: #000000; stroke-width: 0.8"/>
      </g>
     </g>
    </g>
   </g>
   <g id="patch_3">
    <path d="M 10.7 339.84 
L 10.7 7.2 
" style="fill: none; stroke: #000000; stroke-width: 0.8; stroke-linejoin: miter; stroke-linecap: square"/>
   </g>
   <g id="patch_4">
    <path d="M 345.5 339.84 
L 345.5 7.2 
" style="fill: none; stroke: #000000; stroke-width: 0.8; stroke-linejoin: miter; stroke-linecap: square"/>
   </g>
   <g id="patch_5">
    <path d="M 10.7 339.84 
L 345.5 339.84 
" style="fill: none; stroke: #000000; stroke-width: 0.8; stroke-linejoin: miter; stroke-linecap: square"/>
   </g>
   <g id="patch_6">
    <path d="M 10.7 7.2 
L 345.5 7.2 
" style="fill: none; stroke: #000000; stroke-width: 0.8; stroke-linejoin: miter; stroke-linecap: square"/>
   </g>
   <g id="legend_1">
    <g id="patch_7">
     <path d="M 360.892 256.68 
L 447.159188 256.68 
Q 449.159188 256.68 449.159188 254.68 
L 449.159188 108.89875 
Q 449.159188 106.89875 447.159188 106.89875 
L 360.892 106.89875 
Q 358.892 106.89875 358.892 108.89875 
L 358.892 254.68 
Q 358.892 256.68 360.892 256.68 
z
" style="fill: #ffffff; opacity: 0.8"/>
    </g>
    <g id="patch_8">
     <path d="M 362.892 118.497187 
L 382.892 118.497187 
L 382.892 111.497187 
L 362.892 111.497187 
z
" style="fill: #1a1a1a; stroke: #000000; stroke-width: 0.8; stroke-linejoin: miter"/>
    </g>
    <g id="text_7">
     <!-- Shuffle: 1 -->
     <g transform="translate(390.892 118.497187) scale(0.1 -0.1)">
      <defs>
       <path id="DejaVuSans-53" d="M 3425 4513 
L 3425 3897 
Q 3066 4069 2747 4153 
Q 2428 4238 2131 4238 
Q 1616 4238 1336 4038 
Q 1056 3838 1056 3469 
Q 1056 3159 1242 3001 
Q 1428 2844 1947 2747 
L 2328 2669 
Q 3034 2534 3370 2195 
Q 3706 1856 3706 1288 
Q 3706 609 3251 259 
Q 2797 -91 1919 -91 
Q 1588 -91 1214 -16 
Q 841 59 441 206 
L 441 856 
Q 825 641 1194 531 
Q 1563 422 1919 422 
Q 2459 422 2753 634 
Q 3047 847 3047 1241 
Q 3047 1584 2836 1778 
Q 2625 1972 2144 2069 
L 1759 2144 
Q 1053 2284 737 2584 
Q 422 2884 422 3419 
Q 422 4038 858 4394 
Q 1294 4750 2059 4750 
Q 2388 4750 2728 4690 
Q 3069 4631 3425 4513 
z
" transform="scale(0.015625)"/>
       <path id="DejaVuSans-75" d="M 544 1381 
L 544 3500 
L 1119 3500 
L 1119 1403 
Q 1119 906 1312 657 
Q 1506 409 1894 409 
Q 2359 409 2629 706 
Q 2900 1003 2900 1516 
L 2900 3500 
L 3475 3500 
L 3475 0 
L 2900 0 
L 2900 538 
Q 2691 219 2414 64 
Q 2138 -91 1772 -91 
Q 1169 -91 856 284 
Q 544 659 544 1381 
z
M 1991 3584 
L 1991 3584 
z
" transform="scale(0.015625)"/>
       <path id="DejaVuSans-66" d="M 2375 4863 
L 2375 4384 
L 1825 4384 
Q 1516 4384 1395 4259 
Q 1275 4134 1275 3809 
L 1275 3500 
L 2222 3500 
L 2222 3053 
L 1275 3053 
L 1275 0 
L 697 0 
L 697 3053 
L 147 3053 
L 147 3500 
L 697 3500 
L 697 3744 
Q 697 4328 969 4595 
Q 1241 4863 1831 4863 
L 2375 4863 
z
" transform="scale(0.015625)"/>
       <path id="DejaVuSans-6c" d="M 603 4863 
L 1178 4863 
L 1178 0 
L 603 0 
L 603 4863 
z
" transform="scale(0.015625)"/>
       <path id="DejaVuSans-3a" d="M 750 794 
L 1409 794 
L 1409 0 
L 750 0 
L 750 794 
z
M 750 3309 
L 1409 3309 
L 1409 2516 
L 750 2516 
L 750 3309 
z
" transform="scale(0.015625)"/>
      </defs>
      <use xlink:href="#DejaVuSans-53"/>
      <use xlink:href="#DejaVuSans-68" x="63.476562"/>
      <use xlink:href="#DejaVuSans-75" x="126.855469"/>
      <use xlink:href="#DejaVuSans-66" x="190.234375"/>
      <use xlink:href="#DejaVuSans-66" x="225.439453"/>
      <use xlink:href="#DejaVuSans-6c" x="260.644531"/>
      <use xlink:href="#DejaVuSans-65" x="288.427734"/>
      <use xlink:href="#DejaVuSans-3a" x="349.951172"/>
      <use xlink:href="#DejaVuSans-20" x="383.642578"/>
      <use xlink:href="#DejaVuSans-31" x="415.429688"/>
     </g>
    </g>
    <g id="patch_9">
     <path d="M 362.892 133.175312 
L 382.892 133.175312 
L 382.892 126.175312 
L 362.892 126.175312 
z
" style="fill: #333333; stroke: #000000; stroke-width: 0.8; stroke-linejoin: miter"/>
    </g>
    <g id="text_8">
     <!-- Shuffle: 2 -->
     <g transform="translate(390.892 133.175312) scale(0.1 -0.1)">
      <use xlink:href="#DejaVuSans-53"/>
      <use xlink:href="#DejaVuSans-68" x="63.476562"/>
      <use xlink:href="#DejaVuSans-75" x="126.855469"/>
      <use xlink:href="#DejaVuSans-66" x="190.234375"/>
      <use xlink:href="#DejaVuSans-66" x="225.439453"/>
      <use xlink:href="#DejaVuSans-6c" x="260.644531"/>
      <use xlink:href="#DejaVuSans-65" x="288.427734"/>
      <use xlink:href="#DejaVuSans-3a" x="349.951172"/>
      <use xlink:href="#DejaVuSans-20" x="383.642578"/>
      <use xlink:href="#DejaVuSans-32" x="415.429688"/>
     </g>
    </g>
    <g id="patch_10">
     <path d="M 362.892 147.853437 
L 382.892 147.853437 
L 382.892 140.853437 
L 362.892 140.853437 
z
" style="fill: #4c4c4c; stroke: #000000; stroke-width: 0.8; stroke-linejoin: miter"/>
    </g>
    <g id="text_9">
     <!-- Shuffle: 3 -->
     <g transform="translate(390.892 147.853437) scale(0.1 -0.1)">
      <defs>
       <path id="DejaVuSans-33" d="M 2597 2516 
Q 3050 2419 3304 2112 
Q 3559 1806 3559 1356 
Q 3559 666 3084 287 
Q 2609 -91 1734 -91 
Q 1441 -91 1130 -33 
Q 819 25 488 141 
L 488 750 
Q 750 597 1062 519 
Q 1375 441 1716 441 
Q 2309 441 2620 675 
Q 2931 909 2931 1356 
Q 2931 1769 2642 2001 
Q 2353 2234 1838 2234 
L 1294 2234 
L 1294 2753 
L 1863 2753 
Q 2328 2753 2575 2939 
Q 2822 3125 2822 3475 
Q 2822 3834 2567 4026 
Q 2313 4219 1838 4219 
Q 1578 4219 1281 4162 
Q 984 4106 628 3988 
L 628 4550 
Q 988 4650 1302 4700 
Q 1616 4750 1894 4750 
Q 2613 4750 3031 4423 
Q 3450 4097 3450 3541 
Q 3450 3153 3228 2886 
Q 3006 2619 2597 2516 
z
" transform="scale(0.015625)"/>
      </defs>
      <use xlink:href="#DejaVuSans-53"/>
      <use xlink:href="#DejaVuSans-68" x="63.476562"/>
      <use xlink:href="#DejaVuSans-75" x="126.855469"/>
      <use xlink:href="#DejaVuSans-66" x="190.234375"/>
      <use xlink:href="#DejaVuSans-66" x="225.439453"/>
      <use xlink:href="#DejaVuSans-6c" x="260.644531"/>
      <use xlink:href="#DejaVuSans-65" x="288.427734"/>
      <use xlink:href="#DejaVuSans-3a" x="349.951172"/>
      <use xlink:href="#DejaVuSans-20" x="383.642578"/>
      <use xlink:href="#DejaVuSans-33" x="415.429688"/>
     </g>
    </g>
    <g id="patch_11">
     <path d="M 362.892 162.531562 
L 382.892 162.531562 
L 382.892 155.531562 
L 362.892 155.531562 
z
" style="fill: #666666; stroke: #000000; stroke-width: 0.8; stroke-linejoin: miter"/>
    </g>
    <g id="text_10">
     <!-- Shuffle: 4 -->
     <g transform="translate(390.892 162.531562) scale(0.1 -0.1)">
      <use xlink:href="#DejaVuSans-53"/>
      <use xlink:href="#DejaVuSans-68" x="63.476562"/>
      <use xlink:href="#DejaVuSans-75" x="126.855469"/>
      <use xlink:href="#DejaVuSans-66" x="190.234375"/>
      <use xlink:href="#DejaVuSans-66" x="225.439453"/>
      <use xlink:href="#DejaVuSans-6c" x="260.644531"/>
      <use xlink:href="#DejaVuSans-65" x="288.427734"/>
      <use xlink:href="#DejaVuSans-3a" x="349.951172"/>
      <use xlink:href="#DejaVuSans-20" x="383.642578"/>
      <use xlink:href="#DejaVuSans-34" x="415.429688"/>
     </g>
    </g>
    <g id="patch_12">
     <path d="M 362.892 177.209687 
L 382.892 177.209687 
L 382.892 170.209687 
L 362.892 170.209687 
z
" style="fill: #808080; stroke: #000000; stroke-width: 0.8; stroke-linejoin: miter"/>
    </g>
    <g id="text_11">
     <!-- Shuffle: 5 -->
     <g transform="translate(390.892 177.209687) scale(0.1 -0.1)">
      <defs>
       <path id="DejaVuSans-35" d="M 691 4666 
L 3169 4666 
L 3169 4134 
L 1269 4134 
L 1269 2991 
Q 1406 3038 1543 3061 
Q 1681 3084 1819 3084 
Q 2600 3084 3056 2656 
Q 3513 2228 3513 1497 
Q 3513 744 3044 326 
Q 2575 -91 1722 -91 
Q 1428 -91 1123 -41 
Q 819 9 494 109 
L 494 744 
Q 775 591 1075 516 
Q 1375 441 1709 441 
Q 2250 441 2565 725 
Q 2881 1009 2881 1497 
Q 2881 1984 2565 2268 
Q 2250 2553 1709 2553 
Q 1456 2553 1204 2497 
Q 953 2441 691 2322 
L 691 4666 
z
" transform="scale(0.015625)"/>
      </defs>
      <use xlink:href="#DejaVuSans-53"/>
      <use xlink:href="#DejaVuSans-68" x="63.476562"/>
      <use xlink:href="#DejaVuSans-75" x="126.855469"/>
      <use xlink:href="#DejaVuSans-66" x="190.234375"/>
      <use xlink:href="#DejaVuSans-66" x="225.439453"/>
      <use xlink:href="#DejaVuSans-6c" x="260.644531"/>
      <use xlink:href="#DejaVuSans-65" x="288.427734"/>
      <use xlink:href="#DejaVuSans-3a" x="349.951172"/>
      <use xlink:href="#DejaVuSans-20" x="383.642578"/>
      <use xlink:href="#DejaVuSans-35" x="415.429688"/>
     </g>
    </g>
    <g id="patch_13">
     <path d="M 362.892 191.887812 
L 382.892 191.887812 
L 382.892 184.887812 
L 362.892 184.887812 
z
" style="fill: #999999; stroke: #000000; stroke-width: 0.8; stroke-linejoin: miter"/>
    </g>
    <g id="text_12">
     <!-- Shuffle: 6 -->
     <g transform="translate(390.892 191.887812) scale(0.1 -0.1)">
      <use xlink:href="#DejaVuSans-53"/>
      <use xlink:href="#DejaVuSans-68" x="63.476562"/>
      <use xlink:href="#DejaVuSans-75" x="126.855469"/>
      <use xlink:href="#DejaVuSans-66" x="190.234375"/>
      <use xlink:href="#DejaVuSans-66" x="225.439453"/>
      <use xlink:href="#DejaVuSans-6c" x="260.644531"/>
      <use xlink:href="#DejaVuSans-65" x="288.427734"/>
      <use xlink:href="#DejaVuSans-3a" x="349.951172"/>
      <use xlink:href="#DejaVuSans-20" x="383.642578"/>
      <use xlink:href="#DejaVuSans-36" x="415.429688"/>
     </g>
    </g>
    <g id="patch_14">
     <path d="M 362.892 206.565937 
L 382.892 206.565937 
L 382.892 199.565937 
L 362.892 199.565937 
z
" style="fill: #b2b2b2; stroke: #000000; stroke-width: 0.8; stroke-linejoin: miter"/>
    </g>
    <g id="text_13">
     <!-- Shuffle: 7 -->
     <g transform="translate(390.892 206.565937) scale(0.1 -0.1)">
      <defs>
       <path id="DejaVuSans-37" d="M 525 4666 
L 3525 4666 
L 3525 4397 
L 1831 0 
L 1172 0 
L 2766 4134 
L 525 4134 
L 525 4666 
z
" transform="scale(0.015625)"/>
      </defs>
      <use xlink:href="#DejaVuSans-53"/>
      <use xlink:href="#DejaVuSans-68" x="63.476562"/>
      <use xlink:href="#DejaVuSans-75" x="126.855469"/>
      <use xlink:href="#DejaVuSans-66" x="190.234375"/>
      <use xlink:href="#DejaVuSans-66" x="225.439453"/>
      <use xlink:href="#DejaVuSans-6c" x="260.644531"/>
      <use xlink:href="#DejaVuSans-65" x="288.427734"/>
      <use xlink:href="#DejaVuSans-3a" x="349.951172"/>
      <use xlink:href="#DejaVuSans-20" x="383.642578"/>
      <use xlink:href="#DejaVuSans-37" x="415.429688"/>
     </g>
    </g>
    <g id="patch_15">
     <path d="M 362.892 221.244062 
L 382.892 221.244062 
L 382.892 214.244062 
L 362.892 214.244062 
z
" style="fill: #cccccc; stroke: #000000; stroke-width: 0.8; stroke-linejoin: miter"/>
    </g>
    <g id="text_14">
     <!-- Shuffle: 8 -->
     <g transform="translate(390.892 221.244062) scale(0.1 -0.1)">
      <use xlink:href="#DejaVuSans-53"/>
      <use xlink:href="#DejaVuSans-68" x="63.476562"/>
      <use xlink:href="#DejaVuSans-75" x="126.855469"/>
      <use xlink:href="#DejaVuSans-66" x="190.234375"/>
      <use xlink:href="#DejaVuSans-66" x="225.439453"/>
      <use xlink:href="#DejaVuSans-6c" x="260.644531"/>
      <use xlink:href="#DejaVuSans-65" x="288.427734"/>
      <use xlink:href="#DejaVuSans-3a" x="349.951172"/>
      <use xlink:href="#DejaVuSans-20" x="383.642578"/>
      <use xlink:href="#DejaVuSans-38" x="415.429688"/>
     </g>
    </g>
    <g id="patch_16">
     <path d="M 362.892 235.922187 
L 382.892 235.922187 
L 382.892 228.922187 
L 362.892 228.922187 
z
" style="fill: #e6e6e6; stroke: #000000; stroke-width: 0.8; stroke-linejoin: miter"/>
    </g>
    <g id="text_15">
     <!-- Shuffle: 9 -->
     <g transform="translate(390.892 235.922187) scale(0.1 -0.1)">
      <defs>
       <path id="DejaVuSans-39" d="M 703 97 
L 703 672 
Q 941 559 1184 500 
Q 1428 441 1663 441 
Q 2288 441 2617 861 
Q 2947 1281 2994 2138 
Q 2813 1869 2534 1725 
Q 2256 1581 1919 1581 
Q 1219 1581 811 2004 
Q 403 2428 403 3163 
Q 403 3881 828 4315 
Q 1253 4750 1959 4750 
Q 2769 4750 3195 4129 
Q 3622 3509 3622 2328 
Q 3622 1225 3098 567 
Q 2575 -91 1691 -91 
Q 1453 -91 1209 -44 
Q 966 3 703 97 
z
M 1959 2075 
Q 2384 2075 2632 2365 
Q 2881 2656 2881 3163 
Q 2881 3666 2632 3958 
Q 2384 4250 1959 4250 
Q 1534 4250 1286 3958 
Q 1038 3666 1038 3163 
Q 1038 2656 1286 2365 
Q 1534 2075 1959 2075 
z
" transform="scale(0.015625)"/>
      </defs>
      <use xlink:href="#DejaVuSans-53"/>
      <use xlink:href="#DejaVuSans-68" x="63.476562"/>
      <use xlink:href="#DejaVuSans-75" x="126.855469"/>
      <use xlink:href="#DejaVuSans-66" x="190.234375"/>
      <use xlink:href="#DejaVuSans-66" x="225.439453"/>
      <use xlink:href="#DejaVuSans-6c" x="260.644531"/>
      <use xlink:href="#DejaVuSans-65" x="288.427734"/>
      <use xlink:href="#DejaVuSans-3a" x="349.951172"/>
      <use xlink:href="#DejaVuSans-20" x="383.642578"/>
      <use xlink:href="#DejaVuSans-39" x="415.429688"/>
     </g>
    </g>
    <g id="patch_17">
     <path d="M 362.892 250.600312 
L 382.892 250.600312 
L 382.892 243.600312 
L 362.892 243.600312 
z
" style="fill: #ffffff; stroke: #000000; stroke-width: 0.8; stroke-linejoin: miter"/>
    </g>
    <g id="text_16">
     <!-- Shuffle: 10 -->
     <g transform="translate(390.892 250.600312) scale(0.1 -0.1)">
      <use xlink:href="#DejaVuSans-53"/>
      <use xlink:href="#DejaVuSans-68" x="63.476562"/>
      <use xlink:href="#DejaVuSans-75" x="126.855469"/>
      <use xlink:href="#DejaVuSans-66" x="190.234375"/>
      <use xlink:href="#DejaVuSans-66" x="225.439453"/>
      <use xlink:href="#DejaVuSans-6c" x="260.644531"/>
      <use xlink:href="#DejaVuSans-65" x="288.427734"/>
      <use xlink:href="#DejaVuSans-3a" x="349.951172"/>
      <use xlink:href="#DejaVuSans-20" x="383.642578"/>
      <use xlink:href="#DejaVuSans-31" x="415.429688"/>
      <use xlink:href="#DejaVuSans-30" x="479.052734"/>
     </g>
    </g>
   </g>
  </g>
 </g>
 <defs>
  <clipPath id="p2338714a32">
   <rect x="10.7" y="7.2" width="334.8" height="332.64"/>
  </clipPath>
 </defs>
</svg>
