<?xml version="1.0" encoding="utf-8" standalone="no"?>
<!DOCTYPE svg PUBLIC "-//W3C//DTD SVG 1.1//EN"
  "http://www.w3.org/Graphics/SVG/1.1/DTD/svg11.dtd">
<svg xmlns:xlink="http://www.w3.org/1999/xlink" width="456.359187pt" height="377.39625pt" viewBox="0 0 456.359187 377.39625" xmlns="http://www.w3.org/2000/svg" version="1.1">
 <metadata>
  <rdf:RDF xmlns:dc="http://purl.org/dc/elements/1.1/" xmlns:cc="http://creativecommons.org/ns#" xmlns:rdf="http://www.w3.org/1999/02/22-rdf-syntax-ns#">
   <cc:Work>
    <dc:type rdf:resource="http://purl.org/dc/dcmitype/StillImage"/>
    <dc:date>2023-06-12T21:30:31.757563</dc:date>
    <dc:format>image/svg+xml</dc:format>
    <dc:creator>
     <cc:Agent>
      <dc:title>Matplotlib v3.6.0, https://matplotlib.org/</dc:title>
     </cc:Agent>
    </dc:creator>
   </cc:Work>
  </rdf:RDF>
 </metadata>
 <defs>
  <style type="text/css">*{stroke-linejoin: round; stroke-linecap: butt}</style>
 </defs>
 <g id="figure_1">
  <g id="patch_1">
   <path d="M 0 377.39625 
L 456.359187 377.39625 
L 456.359187 0 
L 0 0 
z
" style="fill: #ffffff"/>
  </g>
  <g id="axes_1">
   <g id="patch_2">
    <path d="M 10.7 339.84 
L 345.5 339.84 
L 345.5 7.2 
L 10.7 7.2 
z
" style="fill: #ffffff"/>
   </g>
   <g id="PolyCollection_1">
    <defs>
     <path id="m9cf1a4266f" d="M 10.7 -37.55625 
L 10.7 -294.582665 
L 14.081818 -316.997759 
L 17.463636 -264.695873 
L 20.845455 -264.695873 
L 24.227273 -182.507193 
L 27.609091 -175.035495 
L 30.990909 -167.563797 
L 34.372727 -160.092099 
L 37.754545 -160.092099 
L 41.136364 -160.092099 
L 44.518182 -160.092099 
L 47.9 -160.092099 
L 51.281818 -160.092099 
L 54.663636 -160.092099 
L 58.045455 -160.092099 
L 61.427273 -160.092099 
L 64.809091 -160.092099 
L 68.190909 -160.092099 
L 71.572727 -160.092099 
L 74.954545 -160.092099 
L 78.336364 -160.092099 
L 81.718182 -160.092099 
L 85.1 -160.092099 
L 88.481818 -160.092099 
L 91.863636 -160.092099 
L 95.245455 -160.092099 
L 98.627273 -160.092099 
L 102.009091 -160.092099 
L 105.390909 -160.092099 
L 108.772727 -160.092099 
L 112.154545 -160.092099 
L 115.536364 -160.092099 
L 118.918182 -160.092099 
L 122.3 -160.092099 
L 125.681818 -160.092099 
L 129.063636 -160.092099 
L 132.445455 -160.092099 
L 135.827273 -160.092099 
L 139.209091 -160.092099 
L 142.590909 -160.092099 
L 145.972727 -160.092099 
L 149.354545 -160.092099 
L 152.736364 -160.092099 
L 156.118182 -160.092099 
L 159.5 -160.092099 
L 162.881818 -160.092099 
L 166.263636 -160.092099 
L 169.645455 -160.092099 
L 173.027273 -160.092099 
L 176.409091 -160.092099 
L 179.790909 -160.092099 
L 183.172727 -160.092099 
L 186.554545 -160.092099 
L 189.936364 -160.092099 
L 193.318182 -160.092099 
L 196.7 -160.092099 
L 200.081818 -160.092099 
L 203.463636 -160.092099 
L 206.845455 -160.092099 
L 210.227273 -160.092099 
L 213.609091 -160.092099 
L 216.990909 -160.092099 
L 220.372727 -160.092099 
L 223.754545 -160.092099 
L 227.136364 -160.092099 
L 230.518182 -160.092099 
L 233.9 -160.092099 
L 237.281818 -160.092099 
L 240.663636 -160.092099 
L 244.045455 -160.092099 
L 247.427273 -160.092099 
L 250.809091 -160.092099 
L 254.190909 -160.092099 
L 257.572727 -160.092099 
L 260.954545 -160.092099 
L 264.336364 -160.092099 
L 267.718182 -160.092099 
L 271.1 -160.092099 
L 274.481818 -160.092099 
L 277.863636 -160.092099 
L 281.245455 -160.092099 
L 284.627273 -160.092099 
L 288.009091 -160.092099 
L 291.390909 -160.092099 
L 294.772727 -160.092099 
L 298.154545 -160.092099 
L 301.536364 -160.092099 
L 304.918182 -160.092099 
L 308.3 -160.092099 
L 311.681818 -160.092099 
L 315.063636 -167.563797 
L 318.445455 -167.563797 
L 321.827273 -160.092099 
L 325.209091 -175.035495 
L 328.590909 -189.978892 
L 331.972727 -212.393986 
L 335.354545 -242.280778 
L 338.736364 -279.639269 
L 342.118182 -354.35625 
L 345.5 -331.941156 
L 345.5 -37.55625 
L 345.5 -37.55625 
L 342.118182 -37.55625 
L 338.736364 -37.55625 
L 335.354545 -37.55625 
L 331.972727 -37.55625 
L 328.590909 -37.55625 
L 325.209091 -37.55625 
L 321.827273 -37.55625 
L 318.445455 -37.55625 
L 315.063636 -37.55625 
L 311.681818 -37.55625 
L 308.3 -37.55625 
L 304.918182 -37.55625 
L 301.536364 -37.55625 
L 298.154545 -37.55625 
L 294.772727 -37.55625 
L 291.390909 -37.55625 
L 288.009091 -37.55625 
L 284.627273 -37.55625 
L 281.245455 -37.55625 
L 277.863636 -37.55625 
L 274.481818 -37.55625 
L 271.1 -37.55625 
L 267.718182 -37.55625 
L 264.336364 -37.55625 
L 260.954545 -37.55625 
L 257.572727 -37.55625 
L 254.190909 -37.55625 
L 250.809091 -37.55625 
L 247.427273 -37.55625 
L 244.045455 -37.55625 
L 240.663636 -37.55625 
L 237.281818 -37.55625 
L 233.9 -37.55625 
L 230.518182 -37.55625 
L 227.136364 -37.55625 
L 223.754545 -37.55625 
L 220.372727 -37.55625 
L 216.990909 -37.55625 
L 213.609091 -37.55625 
L 210.227273 -37.55625 
L 206.845455 -37.55625 
L 203.463636 -37.55625 
L 200.081818 -37.55625 
L 196.7 -37.55625 
L 193.318182 -37.55625 
L 189.936364 -37.55625 
L 186.554545 -37.55625 
L 183.172727 -37.55625 
L 179.790909 -37.55625 
L 176.409091 -37.55625 
L 173.027273 -37.55625 
L 169.645455 -37.55625 
L 166.263636 -37.55625 
L 162.881818 -37.55625 
L 159.5 -37.55625 
L 156.118182 -37.55625 
L 152.736364 -37.55625 
L 149.354545 -37.55625 
L 145.972727 -37.55625 
L 142.590909 -37.55625 
L 139.209091 -37.55625 
L 135.827273 -37.55625 
L 132.445455 -37.55625 
L 129.063636 -37.55625 
L 125.681818 -37.55625 
L 122.3 -37.55625 
L 118.918182 -37.55625 
L 115.536364 -37.55625 
L 112.154545 -37.55625 
L 108.772727 -37.55625 
L 105.390909 -37.55625 
L 102.009091 -37.55625 
L 98.627273 -37.55625 
L 95.245455 -37.55625 
L 91.863636 -37.55625 
L 88.481818 -37.55625 
L 85.1 -37.55625 
L 81.718182 -37.55625 
L 78.336364 -37.55625 
L 74.954545 -37.55625 
L 71.572727 -37.55625 
L 68.190909 -37.55625 
L 64.809091 -37.55625 
L 61.427273 -37.55625 
L 58.045455 -37.55625 
L 54.663636 -37.55625 
L 51.281818 -37.55625 
L 47.9 -37.55625 
L 44.518182 -37.55625 
L 41.136364 -37.55625 
L 37.754545 -37.55625 
L 34.372727 -37.55625 
L 30.990909 -37.55625 
L 27.609091 -37.55625 
L 24.227273 -37.55625 
L 20.845455 -37.55625 
L 17.463636 -37.55625 
L 14.081818 -37.55625 
L 10.7 -37.55625 
z
" style="stroke: #000000; stroke-width: 0.8"/>
    </defs>
    <g clip-path="url(#p633235ef61)">
     <use xlink:href="#m9cf1a4266f" x="0" y="377.39625" style="fill: #1a1a1a; stroke: #000000; stroke-width: 0.8"/>
    </g>
   </g>
   <g id="PolyCollection_2">
    <defs>
     <path id="m4f2c855c38" d="M 10.7 -37.55625 
L 10.7 -216.336815 
L 14.081818 -178.282203 
L 17.463636 -178.282203 
L 20.845455 -208.725893 
L 24.227273 -208.725893 
L 27.609091 -185.893126 
L 30.990909 -193.504048 
L 34.372727 -185.893126 
L 37.754545 -170.671281 
L 41.136364 -170.671281 
L 44.518182 -193.504048 
L 47.9 -163.060359 
L 51.281818 -163.060359 
L 54.663636 -178.282203 
L 58.045455 -147.838514 
L 61.427273 -147.838514 
L 64.809091 -147.838514 
L 68.190909 -147.838514 
L 71.572727 -155.449436 
L 74.954545 -147.838514 
L 78.336364 -147.838514 
L 81.718182 -147.838514 
L 85.1 -147.838514 
L 88.481818 -147.838514 
L 91.863636 -147.838514 
L 95.245455 -147.838514 
L 98.627273 -147.838514 
L 102.009091 -147.838514 
L 105.390909 -147.838514 
L 108.772727 -147.838514 
L 112.154545 -147.838514 
L 115.536364 -147.838514 
L 118.918182 -147.838514 
L 122.3 -147.838514 
L 125.681818 -147.838514 
L 129.063636 -147.838514 
L 132.445455 -147.838514 
L 135.827273 -147.838514 
L 139.209091 -147.838514 
L 142.590909 -147.838514 
L 145.972727 -147.838514 
L 149.354545 -147.838514 
L 152.736364 -147.838514 
L 156.118182 -147.838514 
L 159.5 -147.838514 
L 162.881818 -147.838514 
L 166.263636 -147.838514 
L 169.645455 -147.838514 
L 173.027273 -147.838514 
L 176.409091 -147.838514 
L 179.790909 -147.838514 
L 183.172727 -147.838514 
L 186.554545 -147.838514 
L 189.936364 -147.838514 
L 193.318182 -147.838514 
L 196.7 -147.838514 
L 200.081818 -147.838514 
L 203.463636 -147.838514 
L 206.845455 -147.838514 
L 210.227273 -147.838514 
L 213.609091 -147.838514 
L 216.990909 -147.838514 
L 220.372727 -147.838514 
L 223.754545 -147.838514 
L 227.136364 -147.838514 
L 230.518182 -147.838514 
L 233.9 -147.838514 
L 237.281818 -147.838514 
L 240.663636 -147.838514 
L 244.045455 -147.838514 
L 247.427273 -147.838514 
L 250.809091 -147.838514 
L 254.190909 -147.838514 
L 257.572727 -147.838514 
L 260.954545 -147.838514 
L 264.336364 -147.838514 
L 267.718182 -155.449436 
L 271.1 -155.449436 
L 274.481818 -147.838514 
L 277.863636 -147.838514 
L 281.245455 -147.838514 
L 284.627273 -147.838514 
L 288.009091 -147.838514 
L 291.390909 -155.449436 
L 294.772727 -170.671281 
L 298.154545 -178.282203 
L 301.536364 -147.838514 
L 304.918182 -178.282203 
L 308.3 -193.504048 
L 311.681818 -193.504048 
L 315.063636 -170.671281 
L 318.445455 -201.11497 
L 321.827273 -223.947737 
L 325.209091 -201.11497 
L 328.590909 -193.504048 
L 331.972727 -170.671281 
L 335.354545 -201.11497 
L 338.736364 -239.169582 
L 342.118182 -208.725893 
L 345.5 -163.060359 
L 345.5 -37.55625 
L 345.5 -37.55625 
L 342.118182 -37.55625 
L 338.736364 -37.55625 
L 335.354545 -37.55625 
L 331.972727 -37.55625 
L 328.590909 -37.55625 
L 325.209091 -37.55625 
L 321.827273 -37.55625 
L 318.445455 -37.55625 
L 315.063636 -37.55625 
L 311.681818 -37.55625 
L 308.3 -37.55625 
L 304.918182 -37.55625 
L 301.536364 -37.55625 
L 298.154545 -37.55625 
L 294.772727 -37.55625 
L 291.390909 -37.55625 
L 288.009091 -37.55625 
L 284.627273 -37.55625 
L 281.245455 -37.55625 
L 277.863636 -37.55625 
L 274.481818 -37.55625 
L 271.1 -37.55625 
L 267.718182 -37.55625 
L 264.336364 -37.55625 
L 260.954545 -37.55625 
L 257.572727 -37.55625 
L 254.190909 -37.55625 
L 250.809091 -37.55625 
L 247.427273 -37.55625 
L 244.045455 -37.55625 
L 240.663636 -37.55625 
L 237.281818 -37.55625 
L 233.9 -37.55625 
L 230.518182 -37.55625 
L 227.136364 -37.55625 
L 223.754545 -37.55625 
L 220.372727 -37.55625 
L 216.990909 -37.55625 
L 213.609091 -37.55625 
L 210.227273 -37.55625 
L 206.845455 -37.55625 
L 203.463636 -37.55625 
L 200.081818 -37.55625 
L 196.7 -37.55625 
L 193.318182 -37.55625 
L 189.936364 -37.55625 
L 186.554545 -37.55625 
L 183.172727 -37.55625 
L 179.790909 -37.55625 
L 176.409091 -37.55625 
L 173.027273 -37.55625 
L 169.645455 -37.55625 
L 166.263636 -37.55625 
L 162.881818 -37.55625 
L 159.5 -37.55625 
L 156.118182 -37.55625 
L 152.736364 -37.55625 
L 149.354545 -37.55625 
L 145.972727 -37.55625 
L 142.590909 -37.55625 
L 139.209091 -37.55625 
L 135.827273 -37.55625 
L 132.445455 -37.55625 
L 129.063636 -37.55625 
L 125.681818 -37.55625 
L 122.3 -37.55625 
L 118.918182 -37.55625 
L 115.536364 -37.55625 
L 112.154545 -37.55625 
L 108.772727 -37.55625 
L 105.390909 -37.55625 
L 102.009091 -37.55625 
L 98.627273 -37.55625 
L 95.245455 -37.55625 
L 91.863636 -37.55625 
L 88.481818 -37.55625 
L 85.1 -37.55625 
L 81.718182 -37.55625 
L 78.336364 -37.55625 
L 74.954545 -37.55625 
L 71.572727 -37.55625 
L 68.190909 -37.55625 
L 64.809091 -37.55625 
L 61.427273 -37.55625 
L 58.045455 -37.55625 
L 54.663636 -37.55625 
L 51.281818 -37.55625 
L 47.9 -37.55625 
L 44.518182 -37.55625 
L 41.136364 -37.55625 
L 37.754545 -37.55625 
L 34.372727 -37.55625 
L 30.990909 -37.55625 
L 27.609091 -37.55625 
L 24.227273 -37.55625 
L 20.845455 -37.55625 
L 17.463636 -37.55625 
L 14.081818 -37.55625 
L 10.7 -37.55625 
z
" style="stroke: #000000; stroke-width: 0.8"/>
    </defs>
    <g clip-path="url(#p633235ef61)">
     <use xlink:href="#m4f2c855c38" x="0" y="377.39625" style="fill: #333333; stroke: #000000; stroke-width: 0.8"/>
    </g>
   </g>
   <g id="PolyCollection_3">
    <defs>
     <path id="me0c80eb6d0" d="M 10.7 -37.55625 
L 10.7 -174.362097 
L 14.081818 -135.584929 
L 17.463636 -166.606663 
L 20.845455 -166.606663 
L 24.227273 -135.584929 
L 27.609091 -151.095796 
L 30.990909 -151.095796 
L 34.372727 -151.095796 
L 37.754545 -158.85123 
L 41.136364 -166.606663 
L 44.518182 -158.85123 
L 47.9 -143.340363 
L 51.281818 -174.362097 
L 54.663636 -143.340363 
L 58.045455 -135.584929 
L 61.427273 -151.095796 
L 64.809091 -151.095796 
L 68.190909 -166.606663 
L 71.572727 -151.095796 
L 74.954545 -166.606663 
L 78.336364 -166.606663 
L 81.718182 -151.095796 
L 85.1 -135.584929 
L 88.481818 -151.095796 
L 91.863636 -143.340363 
L 95.245455 -135.584929 
L 98.627273 -151.095796 
L 102.009091 -151.095796 
L 105.390909 -135.584929 
L 108.772727 -143.340363 
L 112.154545 -143.340363 
L 115.536364 -143.340363 
L 118.918182 -135.584929 
L 122.3 -143.340363 
L 125.681818 -135.584929 
L 129.063636 -135.584929 
L 132.445455 -143.340363 
L 135.827273 -135.584929 
L 139.209091 -135.584929 
L 142.590909 -135.584929 
L 145.972727 -135.584929 
L 149.354545 -135.584929 
L 152.736364 -135.584929 
L 156.118182 -135.584929 
L 159.5 -135.584929 
L 162.881818 -135.584929 
L 166.263636 -135.584929 
L 169.645455 -135.584929 
L 173.027273 -135.584929 
L 176.409091 -135.584929 
L 179.790909 -135.584929 
L 183.172727 -135.584929 
L 186.554545 -135.584929 
L 189.936364 -143.340363 
L 193.318182 -135.584929 
L 196.7 -135.584929 
L 200.081818 -143.340363 
L 203.463636 -135.584929 
L 206.845455 -135.584929 
L 210.227273 -135.584929 
L 213.609091 -135.584929 
L 216.990909 -135.584929 
L 220.372727 -143.340363 
L 223.754545 -143.340363 
L 227.136364 -135.584929 
L 230.518182 -143.340363 
L 233.9 -143.340363 
L 237.281818 -158.85123 
L 240.663636 -135.584929 
L 244.045455 -135.584929 
L 247.427273 -151.095796 
L 250.809091 -182.11753 
L 254.190909 -135.584929 
L 257.572727 -151.095796 
L 260.954545 -151.095796 
L 264.336364 -143.340363 
L 267.718182 -151.095796 
L 271.1 -151.095796 
L 274.481818 -143.340363 
L 277.863636 -151.095796 
L 281.245455 -151.095796 
L 284.627273 -151.095796 
L 288.009091 -182.11753 
L 291.390909 -182.11753 
L 294.772727 -158.85123 
L 298.154545 -182.11753 
L 301.536364 -158.85123 
L 304.918182 -143.340363 
L 308.3 -197.628397 
L 311.681818 -143.340363 
L 315.063636 -151.095796 
L 318.445455 -182.11753 
L 321.827273 -166.606663 
L 325.209091 -166.606663 
L 328.590909 -158.85123 
L 331.972727 -151.095796 
L 335.354545 -143.340363 
L 338.736364 -143.340363 
L 342.118182 -135.584929 
L 345.5 -135.584929 
L 345.5 -37.55625 
L 345.5 -37.55625 
L 342.118182 -37.55625 
L 338.736364 -37.55625 
L 335.354545 -37.55625 
L 331.972727 -37.55625 
L 328.590909 -37.55625 
L 325.209091 -37.55625 
L 321.827273 -37.55625 
L 318.445455 -37.55625 
L 315.063636 -37.55625 
L 311.681818 -37.55625 
L 308.3 -37.55625 
L 304.918182 -37.55625 
L 301.536364 -37.55625 
L 298.154545 -37.55625 
L 294.772727 -37.55625 
L 291.390909 -37.55625 
L 288.009091 -37.55625 
L 284.627273 -37.55625 
L 281.245455 -37.55625 
L 277.863636 -37.55625 
L 274.481818 -37.55625 
L 271.1 -37.55625 
L 267.718182 -37.55625 
L 264.336364 -37.55625 
L 260.954545 -37.55625 
L 257.572727 -37.55625 
L 254.190909 -37.55625 
L 250.809091 -37.55625 
L 247.427273 -37.55625 
L 244.045455 -37.55625 
L 240.663636 -37.55625 
L 237.281818 -37.55625 
L 233.9 -37.55625 
L 230.518182 -37.55625 
L 227.136364 -37.55625 
L 223.754545 -37.55625 
L 220.372727 -37.55625 
L 216.990909 -37.55625 
L 213.609091 -37.55625 
L 210.227273 -37.55625 
L 206.845455 -37.55625 
L 203.463636 -37.55625 
L 200.081818 -37.55625 
L 196.7 -37.55625 
L 193.318182 -37.55625 
L 189.936364 -37.55625 
L 186.554545 -37.55625 
L 183.172727 -37.55625 
L 179.790909 -37.55625 
L 176.409091 -37.55625 
L 173.027273 -37.55625 
L 169.645455 -37.55625 
L 166.263636 -37.55625 
L 162.881818 -37.55625 
L 159.5 -37.55625 
L 156.118182 -37.55625 
L 152.736364 -37.55625 
L 149.354545 -37.55625 
L 145.972727 -37.55625 
L 142.590909 -37.55625 
L 139.209091 -37.55625 
L 135.827273 -37.55625 
L 132.445455 -37.55625 
L 129.063636 -37.55625 
L 125.681818 -37.55625 
L 122.3 -37.55625 
L 118.918182 -37.55625 
L 115.536364 -37.55625 
L 112.154545 -37.55625 
L 108.772727 -37.55625 
L 105.390909 -37.55625 
L 102.009091 -37.55625 
L 98.627273 -37.55625 
L 95.245455 -37.55625 
L 91.863636 -37.55625 
L 88.481818 -37.55625 
L 85.1 -37.55625 
L 81.718182 -37.55625 
L 78.336364 -37.55625 
L 74.954545 -37.55625 
L 71.572727 -37.55625 
L 68.190909 -37.55625 
L 64.809091 -37.55625 
L 61.427273 -37.55625 
L 58.045455 -37.55625 
L 54.663636 -37.55625 
L 51.281818 -37.55625 
L 47.9 -37.55625 
L 44.518182 -37.55625 
L 41.136364 -37.55625 
L 37.754545 -37.55625 
L 34.372727 -37.55625 
L 30.990909 -37.55625 
L 27.609091 -37.55625 
L 24.227273 -37.55625 
L 20.845455 -37.55625 
L 17.463636 -37.55625 
L 14.081818 -37.55625 
L 10.7 -37.55625 
z
" style="stroke: #000000; stroke-width: 0.8"/>
    </defs>
    <g clip-path="url(#p633235ef61)">
     <use xlink:href="#me0c80eb6d0" x="0" y="377.39625" style="fill: #4c4c4c; stroke: #000000; stroke-width: 0.8"/>
    </g>
   </g>
   <g id="PolyCollection_4">
    <defs>
     <path id="m9b69a7d76f" d="M 10.7 -37.55625 
L 10.7 -154.953499 
L 14.081818 -131.236883 
L 17.463636 -123.331344 
L 20.845455 -131.236883 
L 24.227273 -131.236883 
L 27.609091 -123.331344 
L 30.990909 -131.236883 
L 34.372727 -123.331344 
L 37.754545 -139.142422 
L 41.136364 -131.236883 
L 44.518182 -131.236883 
L 47.9 -139.142422 
L 51.281818 -131.236883 
L 54.663636 -131.236883 
L 58.045455 -123.331344 
L 61.427273 -131.236883 
L 64.809091 -131.236883 
L 68.190909 -131.236883 
L 71.572727 -131.236883 
L 74.954545 -139.142422 
L 78.336364 -147.04796 
L 81.718182 -131.236883 
L 85.1 -123.331344 
L 88.481818 -139.142422 
L 91.863636 -131.236883 
L 95.245455 -139.142422 
L 98.627273 -162.859038 
L 102.009091 -139.142422 
L 105.390909 -131.236883 
L 108.772727 -154.953499 
L 112.154545 -123.331344 
L 115.536364 -131.236883 
L 118.918182 -123.331344 
L 122.3 -139.142422 
L 125.681818 -147.04796 
L 129.063636 -139.142422 
L 132.445455 -131.236883 
L 135.827273 -139.142422 
L 139.209091 -131.236883 
L 142.590909 -131.236883 
L 145.972727 -139.142422 
L 149.354545 -131.236883 
L 152.736364 -154.953499 
L 156.118182 -139.142422 
L 159.5 -162.859038 
L 162.881818 -123.331344 
L 166.263636 -131.236883 
L 169.645455 -147.04796 
L 173.027273 -123.331344 
L 176.409091 -147.04796 
L 179.790909 -123.331344 
L 183.172727 -139.142422 
L 186.554545 -131.236883 
L 189.936364 -131.236883 
L 193.318182 -139.142422 
L 196.7 -154.953499 
L 200.081818 -131.236883 
L 203.463636 -131.236883 
L 206.845455 -147.04796 
L 210.227273 -139.142422 
L 213.609091 -154.953499 
L 216.990909 -131.236883 
L 220.372727 -131.236883 
L 223.754545 -147.04796 
L 227.136364 -123.331344 
L 230.518182 -147.04796 
L 233.9 -154.953499 
L 237.281818 -147.04796 
L 240.663636 -131.236883 
L 244.045455 -154.953499 
L 247.427273 -131.236883 
L 250.809091 -131.236883 
L 254.190909 -139.142422 
L 257.572727 -154.953499 
L 260.954545 -170.764576 
L 264.336364 -139.142422 
L 267.718182 -131.236883 
L 271.1 -123.331344 
L 274.481818 -131.236883 
L 277.863636 -123.331344 
L 281.245455 -162.859038 
L 284.627273 -147.04796 
L 288.009091 -123.331344 
L 291.390909 -131.236883 
L 294.772727 -123.331344 
L 298.154545 -131.236883 
L 301.536364 -123.331344 
L 304.918182 -147.04796 
L 308.3 -131.236883 
L 311.681818 -139.142422 
L 315.063636 -131.236883 
L 318.445455 -131.236883 
L 321.827273 -123.331344 
L 325.209091 -131.236883 
L 328.590909 -123.331344 
L 331.972727 -123.331344 
L 335.354545 -123.331344 
L 338.736364 -123.331344 
L 342.118182 -123.331344 
L 345.5 -123.331344 
L 345.5 -37.55625 
L 345.5 -37.55625 
L 342.118182 -37.55625 
L 338.736364 -37.55625 
L 335.354545 -37.55625 
L 331.972727 -37.55625 
L 328.590909 -37.55625 
L 325.209091 -37.55625 
L 321.827273 -37.55625 
L 318.445455 -37.55625 
L 315.063636 -37.55625 
L 311.681818 -37.55625 
L 308.3 -37.55625 
L 304.918182 -37.55625 
L 301.536364 -37.55625 
L 298.154545 -37.55625 
L 294.772727 -37.55625 
L 291.390909 -37.55625 
L 288.009091 -37.55625 
L 284.627273 -37.55625 
L 281.245455 -37.55625 
L 277.863636 -37.55625 
L 274.481818 -37.55625 
L 271.1 -37.55625 
L 267.718182 -37.55625 
L 264.336364 -37.55625 
L 260.954545 -37.55625 
L 257.572727 -37.55625 
L 254.190909 -37.55625 
L 250.809091 -37.55625 
L 247.427273 -37.55625 
L 244.045455 -37.55625 
L 240.663636 -37.55625 
L 237.281818 -37.55625 
L 233.9 -37.55625 
L 230.518182 -37.55625 
L 227.136364 -37.55625 
L 223.754545 -37.55625 
L 220.372727 -37.55625 
L 216.990909 -37.55625 
L 213.609091 -37.55625 
L 210.227273 -37.55625 
L 206.845455 -37.55625 
L 203.463636 -37.55625 
L 200.081818 -37.55625 
L 196.7 -37.55625 
L 193.318182 -37.55625 
L 189.936364 -37.55625 
L 186.554545 -37.55625 
L 183.172727 -37.55625 
L 179.790909 -37.55625 
L 176.409091 -37.55625 
L 173.027273 -37.55625 
L 169.645455 -37.55625 
L 166.263636 -37.55625 
L 162.881818 -37.55625 
L 159.5 -37.55625 
L 156.118182 -37.55625 
L 152.736364 -37.55625 
L 149.354545 -37.55625 
L 145.972727 -37.55625 
L 142.590909 -37.55625 
L 139.209091 -37.55625 
L 135.827273 -37.55625 
L 132.445455 -37.55625 
L 129.063636 -37.55625 
L 125.681818 -37.55625 
L 122.3 -37.55625 
L 118.918182 -37.55625 
L 115.536364 -37.55625 
L 112.154545 -37.55625 
L 108.772727 -37.55625 
L 105.390909 -37.55625 
L 102.009091 -37.55625 
L 98.627273 -37.55625 
L 95.245455 -37.55625 
L 91.863636 -37.55625 
L 88.481818 -37.55625 
L 85.1 -37.55625 
L 81.718182 -37.55625 
L 78.336364 -37.55625 
L 74.954545 -37.55625 
L 71.572727 -37.55625 
L 68.190909 -37.55625 
L 64.809091 -37.55625 
L 61.427273 -37.55625 
L 58.045455 -37.55625 
L 54.663636 -37.55625 
L 51.281818 -37.55625 
L 47.9 -37.55625 
L 44.518182 -37.55625 
L 41.136364 -37.55625 
L 37.754545 -37.55625 
L 34.372727 -37.55625 
L 30.990909 -37.55625 
L 27.609091 -37.55625 
L 24.227273 -37.55625 
L 20.845455 -37.55625 
L 17.463636 -37.55625 
L 14.081818 -37.55625 
L 10.7 -37.55625 
z
" style="stroke: #000000; stroke-width: 0.8"/>
    </defs>
    <g clip-path="url(#p633235ef61)">
     <use xlink:href="#m9b69a7d76f" x="0" y="377.39625" style="fill: #666666; stroke: #000000; stroke-width: 0.8"/>
    </g>
   </g>
   <g id="PolyCollection_5">
    <defs>
     <path id="m802a61b783" d="M 10.7 -37.55625 
L 10.7 -127.200897 
L 14.081818 -127.200897 
L 17.463636 -127.200897 
L 20.845455 -127.200897 
L 24.227273 -127.200897 
L 27.609091 -111.077759 
L 30.990909 -119.139328 
L 34.372727 -127.200897 
L 37.754545 -127.200897 
L 41.136364 -111.077759 
L 44.518182 -127.200897 
L 47.9 -127.200897 
L 51.281818 -111.077759 
L 54.663636 -119.139328 
L 58.045455 -135.262466 
L 61.427273 -119.139328 
L 64.809091 -127.200897 
L 68.190909 -143.324036 
L 71.572727 -119.139328 
L 74.954545 -119.139328 
L 78.336364 -119.139328 
L 81.718182 -119.139328 
L 85.1 -119.139328 
L 88.481818 -151.385605 
L 91.863636 -127.200897 
L 95.245455 -127.200897 
L 98.627273 -119.139328 
L 102.009091 -127.200897 
L 105.390909 -111.077759 
L 108.772727 -127.200897 
L 112.154545 -111.077759 
L 115.536364 -119.139328 
L 118.918182 -127.200897 
L 122.3 -111.077759 
L 125.681818 -151.385605 
L 129.063636 -111.077759 
L 132.445455 -119.139328 
L 135.827273 -119.139328 
L 139.209091 -119.139328 
L 142.590909 -111.077759 
L 145.972727 -135.262466 
L 149.354545 -143.324036 
L 152.736364 -119.139328 
L 156.118182 -135.262466 
L 159.5 -127.200897 
L 162.881818 -119.139328 
L 166.263636 -135.262466 
L 169.645455 -127.200897 
L 173.027273 -135.262466 
L 176.409091 -135.262466 
L 179.790909 -119.139328 
L 183.172727 -119.139328 
L 186.554545 -127.200897 
L 189.936364 -135.262466 
L 193.318182 -119.139328 
L 196.7 -127.200897 
L 200.081818 -119.139328 
L 203.463636 -119.139328 
L 206.845455 -151.385605 
L 210.227273 -135.262466 
L 213.609091 -119.139328 
L 216.990909 -127.200897 
L 220.372727 -111.077759 
L 223.754545 -127.200897 
L 227.136364 -111.077759 
L 230.518182 -111.077759 
L 233.9 -111.077759 
L 237.281818 -127.200897 
L 240.663636 -119.139328 
L 244.045455 -111.077759 
L 247.427273 -127.200897 
L 250.809091 -119.139328 
L 254.190909 -127.200897 
L 257.572727 -119.139328 
L 260.954545 -135.262466 
L 264.336364 -127.200897 
L 267.718182 -111.077759 
L 271.1 -135.262466 
L 274.481818 -119.139328 
L 277.863636 -127.200897 
L 281.245455 -127.200897 
L 284.627273 -135.262466 
L 288.009091 -119.139328 
L 291.390909 -111.077759 
L 294.772727 -127.200897 
L 298.154545 -119.139328 
L 301.536364 -127.200897 
L 304.918182 -119.139328 
L 308.3 -111.077759 
L 311.681818 -111.077759 
L 315.063636 -119.139328 
L 318.445455 -127.200897 
L 321.827273 -127.200897 
L 325.209091 -127.200897 
L 328.590909 -119.139328 
L 331.972727 -111.077759 
L 335.354545 -119.139328 
L 338.736364 -111.077759 
L 342.118182 -111.077759 
L 345.5 -119.139328 
L 345.5 -37.55625 
L 345.5 -37.55625 
L 342.118182 -37.55625 
L 338.736364 -37.55625 
L 335.354545 -37.55625 
L 331.972727 -37.55625 
L 328.590909 -37.55625 
L 325.209091 -37.55625 
L 321.827273 -37.55625 
L 318.445455 -37.55625 
L 315.063636 -37.55625 
L 311.681818 -37.55625 
L 308.3 -37.55625 
L 304.918182 -37.55625 
L 301.536364 -37.55625 
L 298.154545 -37.55625 
L 294.772727 -37.55625 
L 291.390909 -37.55625 
L 288.009091 -37.55625 
L 284.627273 -37.55625 
L 281.245455 -37.55625 
L 277.863636 -37.55625 
L 274.481818 -37.55625 
L 271.1 -37.55625 
L 267.718182 -37.55625 
L 264.336364 -37.55625 
L 260.954545 -37.55625 
L 257.572727 -37.55625 
L 254.190909 -37.55625 
L 250.809091 -37.55625 
L 247.427273 -37.55625 
L 244.045455 -37.55625 
L 240.663636 -37.55625 
L 237.281818 -37.55625 
L 233.9 -37.55625 
L 230.518182 -37.55625 
L 227.136364 -37.55625 
L 223.754545 -37.55625 
L 220.372727 -37.55625 
L 216.990909 -37.55625 
L 213.609091 -37.55625 
L 210.227273 -37.55625 
L 206.845455 -37.55625 
L 203.463636 -37.55625 
L 200.081818 -37.55625 
L 196.7 -37.55625 
L 193.318182 -37.55625 
L 189.936364 -37.55625 
L 186.554545 -37.55625 
L 183.172727 -37.55625 
L 179.790909 -37.55625 
L 176.409091 -37.55625 
L 173.027273 -37.55625 
L 169.645455 -37.55625 
L 166.263636 -37.55625 
L 162.881818 -37.55625 
L 159.5 -37.55625 
L 156.118182 -37.55625 
L 152.736364 -37.55625 
L 149.354545 -37.55625 
L 145.972727 -37.55625 
L 142.590909 -37.55625 
L 139.209091 -37.55625 
L 135.827273 -37.55625 
L 132.445455 -37.55625 
L 129.063636 -37.55625 
L 125.681818 -37.55625 
L 122.3 -37.55625 
L 118.918182 -37.55625 
L 115.536364 -37.55625 
L 112.154545 -37.55625 
L 108.772727 -37.55625 
L 105.390909 -37.55625 
L 102.009091 -37.55625 
L 98.627273 -37.55625 
L 95.245455 -37.55625 
L 91.863636 -37.55625 
L 88.481818 -37.55625 
L 85.1 -37.55625 
L 81.718182 -37.55625 
L 78.336364 -37.55625 
L 74.954545 -37.55625 
L 71.572727 -37.55625 
L 68.190909 -37.55625 
L 64.809091 -37.55625 
L 61.427273 -37.55625 
L 58.045455 -37.55625 
L 54.663636 -37.55625 
L 51.281818 -37.55625 
L 47.9 -37.55625 
L 44.518182 -37.55625 
L 41.136364 -37.55625 
L 37.754545 -37.55625 
L 34.372727 -37.55625 
L 30.990909 -37.55625 
L 27.609091 -37.55625 
L 24.227273 -37.55625 
L 20.845455 -37.55625 
L 17.463636 -37.55625 
L 14.081818 -37.55625 
L 10.7 -37.55625 
z
" style="stroke: #000000; stroke-width: 0.8"/>
    </defs>
    <g clip-path="url(#p633235ef61)">
     <use xlink:href="#m802a61b783" x="0" y="377.39625" style="fill: #808080; stroke: #000000; stroke-width: 0.8"/>
    </g>
   </g>
   <g id="PolyCollection_6">
    <defs>
     <path id="m4c861e58ce" d="M 10.7 -37.55625 
L 10.7 -107.048057 
L 14.081818 -115.27194 
L 17.463636 -98.824175 
L 20.845455 -131.719704 
L 24.227273 -139.943587 
L 27.609091 -123.495822 
L 30.990909 -115.27194 
L 34.372727 -107.048057 
L 37.754545 -107.048057 
L 41.136364 -107.048057 
L 44.518182 -148.167469 
L 47.9 -107.048057 
L 51.281818 -98.824175 
L 54.663636 -107.048057 
L 58.045455 -115.27194 
L 61.427273 -115.27194 
L 64.809091 -107.048057 
L 68.190909 -115.27194 
L 71.572727 -115.27194 
L 74.954545 -107.048057 
L 78.336364 -107.048057 
L 81.718182 -115.27194 
L 85.1 -115.27194 
L 88.481818 -115.27194 
L 91.863636 -107.048057 
L 95.245455 -98.824175 
L 98.627273 -98.824175 
L 102.009091 -98.824175 
L 105.390909 -115.27194 
L 108.772727 -98.824175 
L 112.154545 -98.824175 
L 115.536364 -115.27194 
L 118.918182 -107.048057 
L 122.3 -123.495822 
L 125.681818 -107.048057 
L 129.063636 -107.048057 
L 132.445455 -123.495822 
L 135.827273 -98.824175 
L 139.209091 -107.048057 
L 142.590909 -123.495822 
L 145.972727 -107.048057 
L 149.354545 -123.495822 
L 152.736364 -107.048057 
L 156.118182 -98.824175 
L 159.5 -107.048057 
L 162.881818 -107.048057 
L 166.263636 -115.27194 
L 169.645455 -139.943587 
L 173.027273 -98.824175 
L 176.409091 -107.048057 
L 179.790909 -123.495822 
L 183.172727 -123.495822 
L 186.554545 -98.824175 
L 189.936364 -115.27194 
L 193.318182 -107.048057 
L 196.7 -131.719704 
L 200.081818 -115.27194 
L 203.463636 -107.048057 
L 206.845455 -131.719704 
L 210.227273 -107.048057 
L 213.609091 -107.048057 
L 216.990909 -98.824175 
L 220.372727 -115.27194 
L 223.754545 -107.048057 
L 227.136364 -107.048057 
L 230.518182 -107.048057 
L 233.9 -107.048057 
L 237.281818 -107.048057 
L 240.663636 -123.495822 
L 244.045455 -98.824175 
L 247.427273 -107.048057 
L 250.809091 -115.27194 
L 254.190909 -98.824175 
L 257.572727 -115.27194 
L 260.954545 -98.824175 
L 264.336364 -115.27194 
L 267.718182 -98.824175 
L 271.1 -115.27194 
L 274.481818 -98.824175 
L 277.863636 -107.048057 
L 281.245455 -98.824175 
L 284.627273 -98.824175 
L 288.009091 -131.719704 
L 291.390909 -98.824175 
L 294.772727 -115.27194 
L 298.154545 -115.27194 
L 301.536364 -107.048057 
L 304.918182 -123.495822 
L 308.3 -123.495822 
L 311.681818 -123.495822 
L 315.063636 -115.27194 
L 318.445455 -107.048057 
L 321.827273 -107.048057 
L 325.209091 -98.824175 
L 328.590909 -98.824175 
L 331.972727 -107.048057 
L 335.354545 -123.495822 
L 338.736364 -98.824175 
L 342.118182 -115.27194 
L 345.5 -107.048057 
L 345.5 -37.55625 
L 345.5 -37.55625 
L 342.118182 -37.55625 
L 338.736364 -37.55625 
L 335.354545 -37.55625 
L 331.972727 -37.55625 
L 328.590909 -37.55625 
L 325.209091 -37.55625 
L 321.827273 -37.55625 
L 318.445455 -37.55625 
L 315.063636 -37.55625 
L 311.681818 -37.55625 
L 308.3 -37.55625 
L 304.918182 -37.55625 
L 301.536364 -37.55625 
L 298.154545 -37.55625 
L 294.772727 -37.55625 
L 291.390909 -37.55625 
L 288.009091 -37.55625 
L 284.627273 -37.55625 
L 281.245455 -37.55625 
L 277.863636 -37.55625 
L 274.481818 -37.55625 
L 271.1 -37.55625 
L 267.718182 -37.55625 
L 264.336364 -37.55625 
L 260.954545 -37.55625 
L 257.572727 -37.55625 
L 254.190909 -37.55625 
L 250.809091 -37.55625 
L 247.427273 -37.55625 
L 244.045455 -37.55625 
L 240.663636 -37.55625 
L 237.281818 -37.55625 
L 233.9 -37.55625 
L 230.518182 -37.55625 
L 227.136364 -37.55625 
L 223.754545 -37.55625 
L 220.372727 -37.55625 
L 216.990909 -37.55625 
L 213.609091 -37.55625 
L 210.227273 -37.55625 
L 206.845455 -37.55625 
L 203.463636 -37.55625 
L 200.081818 -37.55625 
L 196.7 -37.55625 
L 193.318182 -37.55625 
L 189.936364 -37.55625 
L 186.554545 -37.55625 
L 183.172727 -37.55625 
L 179.790909 -37.55625 
L 176.409091 -37.55625 
L 173.027273 -37.55625 
L 169.645455 -37.55625 
L 166.263636 -37.55625 
L 162.881818 -37.55625 
L 159.5 -37.55625 
L 156.118182 -37.55625 
L 152.736364 -37.55625 
L 149.354545 -37.55625 
L 145.972727 -37.55625 
L 142.590909 -37.55625 
L 139.209091 -37.55625 
L 135.827273 -37.55625 
L 132.445455 -37.55625 
L 129.063636 -37.55625 
L 125.681818 -37.55625 
L 122.3 -37.55625 
L 118.918182 -37.55625 
L 115.536364 -37.55625 
L 112.154545 -37.55625 
L 108.772727 -37.55625 
L 105.390909 -37.55625 
L 102.009091 -37.55625 
L 98.627273 -37.55625 
L 95.245455 -37.55625 
L 91.863636 -37.55625 
L 88.481818 -37.55625 
L 85.1 -37.55625 
L 81.718182 -37.55625 
L 78.336364 -37.55625 
L 74.954545 -37.55625 
L 71.572727 -37.55625 
L 68.190909 -37.55625 
L 64.809091 -37.55625 
L 61.427273 -37.55625 
L 58.045455 -37.55625 
L 54.663636 -37.55625 
L 51.281818 -37.55625 
L 47.9 -37.55625 
L 44.518182 -37.55625 
L 41.136364 -37.55625 
L 37.754545 -37.55625 
L 34.372727 -37.55625 
L 30.990909 -37.55625 
L 27.609091 -37.55625 
L 24.227273 -37.55625 
L 20.845455 -37.55625 
L 17.463636 -37.55625 
L 14.081818 -37.55625 
L 10.7 -37.55625 
z
" style="stroke: #000000; stroke-width: 0.8"/>
    </defs>
    <g clip-path="url(#p633235ef61)">
     <use xlink:href="#m4c861e58ce" x="0" y="377.39625" style="fill: #999999; stroke: #000000; stroke-width: 0.8"/>
    </g>
   </g>
   <g id="PolyCollection_7">
    <defs>
     <path id="m4f74cb7f31" d="M 10.7 -37.55625 
L 10.7 -103.356322 
L 14.081818 -94.963456 
L 17.463636 -94.963456 
L 20.845455 -111.749189 
L 24.227273 -111.749189 
L 27.609091 -94.963456 
L 30.990909 -111.749189 
L 34.372727 -120.142055 
L 37.754545 -120.142055 
L 41.136364 -111.749189 
L 44.518182 -103.356322 
L 47.9 -103.356322 
L 51.281818 -120.142055 
L 54.663636 -103.356322 
L 58.045455 -111.749189 
L 61.427273 -94.963456 
L 64.809091 -94.963456 
L 68.190909 -86.57059 
L 71.572727 -94.963456 
L 74.954545 -103.356322 
L 78.336364 -103.356322 
L 81.718182 -111.749189 
L 85.1 -86.57059 
L 88.481818 -111.749189 
L 91.863636 -103.356322 
L 95.245455 -94.963456 
L 98.627273 -103.356322 
L 102.009091 -94.963456 
L 105.390909 -86.57059 
L 108.772727 -86.57059 
L 112.154545 -94.963456 
L 115.536364 -86.57059 
L 118.918182 -94.963456 
L 122.3 -86.57059 
L 125.681818 -103.356322 
L 129.063636 -111.749189 
L 132.445455 -111.749189 
L 135.827273 -111.749189 
L 139.209091 -111.749189 
L 142.590909 -86.57059 
L 145.972727 -103.356322 
L 149.354545 -86.57059 
L 152.736364 -94.963456 
L 156.118182 -86.57059 
L 159.5 -94.963456 
L 162.881818 -111.749189 
L 166.263636 -111.749189 
L 169.645455 -86.57059 
L 173.027273 -94.963456 
L 176.409091 -94.963456 
L 179.790909 -94.963456 
L 183.172727 -94.963456 
L 186.554545 -103.356322 
L 189.936364 -94.963456 
L 193.318182 -86.57059 
L 196.7 -86.57059 
L 200.081818 -86.57059 
L 203.463636 -94.963456 
L 206.845455 -86.57059 
L 210.227273 -94.963456 
L 213.609091 -103.356322 
L 216.990909 -94.963456 
L 220.372727 -86.57059 
L 223.754545 -94.963456 
L 227.136364 -103.356322 
L 230.518182 -94.963456 
L 233.9 -94.963456 
L 237.281818 -120.142055 
L 240.663636 -94.963456 
L 244.045455 -103.356322 
L 247.427273 -111.749189 
L 250.809091 -94.963456 
L 254.190909 -103.356322 
L 257.572727 -86.57059 
L 260.954545 -94.963456 
L 264.336364 -103.356322 
L 267.718182 -94.963456 
L 271.1 -120.142055 
L 274.481818 -86.57059 
L 277.863636 -94.963456 
L 281.245455 -94.963456 
L 284.627273 -94.963456 
L 288.009091 -94.963456 
L 291.390909 -86.57059 
L 294.772727 -94.963456 
L 298.154545 -94.963456 
L 301.536364 -86.57059 
L 304.918182 -86.57059 
L 308.3 -86.57059 
L 311.681818 -86.57059 
L 315.063636 -103.356322 
L 318.445455 -103.356322 
L 321.827273 -111.749189 
L 325.209091 -86.57059 
L 328.590909 -120.142055 
L 331.972727 -103.356322 
L 335.354545 -86.57059 
L 338.736364 -94.963456 
L 342.118182 -128.534921 
L 345.5 -86.57059 
L 345.5 -37.55625 
L 345.5 -37.55625 
L 342.118182 -37.55625 
L 338.736364 -37.55625 
L 335.354545 -37.55625 
L 331.972727 -37.55625 
L 328.590909 -37.55625 
L 325.209091 -37.55625 
L 321.827273 -37.55625 
L 318.445455 -37.55625 
L 315.063636 -37.55625 
L 311.681818 -37.55625 
L 308.3 -37.55625 
L 304.918182 -37.55625 
L 301.536364 -37.55625 
L 298.154545 -37.55625 
L 294.772727 -37.55625 
L 291.390909 -37.55625 
L 288.009091 -37.55625 
L 284.627273 -37.55625 
L 281.245455 -37.55625 
L 277.863636 -37.55625 
L 274.481818 -37.55625 
L 271.1 -37.55625 
L 267.718182 -37.55625 
L 264.336364 -37.55625 
L 260.954545 -37.55625 
L 257.572727 -37.55625 
L 254.190909 -37.55625 
L 250.809091 -37.55625 
L 247.427273 -37.55625 
L 244.045455 -37.55625 
L 240.663636 -37.55625 
L 237.281818 -37.55625 
L 233.9 -37.55625 
L 230.518182 -37.55625 
L 227.136364 -37.55625 
L 223.754545 -37.55625 
L 220.372727 -37.55625 
L 216.990909 -37.55625 
L 213.609091 -37.55625 
L 210.227273 -37.55625 
L 206.845455 -37.55625 
L 203.463636 -37.55625 
L 200.081818 -37.55625 
L 196.7 -37.55625 
L 193.318182 -37.55625 
L 189.936364 -37.55625 
L 186.554545 -37.55625 
L 183.172727 -37.55625 
L 179.790909 -37.55625 
L 176.409091 -37.55625 
L 173.027273 -37.55625 
L 169.645455 -37.55625 
L 166.263636 -37.55625 
L 162.881818 -37.55625 
L 159.5 -37.55625 
L 156.118182 -37.55625 
L 152.736364 -37.55625 
L 149.354545 -37.55625 
L 145.972727 -37.55625 
L 142.590909 -37.55625 
L 139.209091 -37.55625 
L 135.827273 -37.55625 
L 132.445455 -37.55625 
L 129.063636 -37.55625 
L 125.681818 -37.55625 
L 122.3 -37.55625 
L 118.918182 -37.55625 
L 115.536364 -37.55625 
L 112.154545 -37.55625 
L 108.772727 -37.55625 
L 105.390909 -37.55625 
L 102.009091 -37.55625 
L 98.627273 -37.55625 
L 95.245455 -37.55625 
L 91.863636 -37.55625 
L 88.481818 -37.55625 
L 85.1 -37.55625 
L 81.718182 -37.55625 
L 78.336364 -37.55625 
L 74.954545 -37.55625 
L 71.572727 -37.55625 
L 68.190909 -37.55625 
L 64.809091 -37.55625 
L 61.427273 -37.55625 
L 58.045455 -37.55625 
L 54.663636 -37.55625 
L 51.281818 -37.55625 
L 47.9 -37.55625 
L 44.518182 -37.55625 
L 41.136364 -37.55625 
L 37.754545 -37.55625 
L 34.372727 -37.55625 
L 30.990909 -37.55625 
L 27.609091 -37.55625 
L 24.227273 -37.55625 
L 20.845455 -37.55625 
L 17.463636 -37.55625 
L 14.081818 -37.55625 
L 10.7 -37.55625 
z
" style="stroke: #000000; stroke-width: 0.8"/>
    </defs>
    <g clip-path="url(#p633235ef61)">
     <use xlink:href="#m4f74cb7f31" x="0" y="377.39625" style="fill: #b2b2b2; stroke: #000000; stroke-width: 0.8"/>
    </g>
   </g>
   <g id="PolyCollection_8">
    <defs>
     <path id="m01634865b8" d="M 10.7 -37.55625 
L 10.7 -91.454886 
L 14.081818 -91.454886 
L 17.463636 -82.885945 
L 20.845455 -82.885945 
L 24.227273 -91.454886 
L 27.609091 -74.317005 
L 30.990909 -91.454886 
L 34.372727 -82.885945 
L 37.754545 -74.317005 
L 41.136364 -82.885945 
L 44.518182 -82.885945 
L 47.9 -100.023826 
L 51.281818 -82.885945 
L 54.663636 -91.454886 
L 58.045455 -91.454886 
L 61.427273 -74.317005 
L 64.809091 -91.454886 
L 68.190909 -91.454886 
L 71.572727 -82.885945 
L 74.954545 -91.454886 
L 78.336364 -82.885945 
L 81.718182 -82.885945 
L 85.1 -100.023826 
L 88.481818 -108.592767 
L 91.863636 -91.454886 
L 95.245455 -82.885945 
L 98.627273 -82.885945 
L 102.009091 -82.885945 
L 105.390909 -82.885945 
L 108.772727 -125.730648 
L 112.154545 -82.885945 
L 115.536364 -74.317005 
L 118.918182 -91.454886 
L 122.3 -100.023826 
L 125.681818 -100.023826 
L 129.063636 -91.454886 
L 132.445455 -82.885945 
L 135.827273 -74.317005 
L 139.209091 -100.023826 
L 142.590909 -82.885945 
L 145.972727 -82.885945 
L 149.354545 -91.454886 
L 152.736364 -100.023826 
L 156.118182 -91.454886 
L 159.5 -74.317005 
L 162.881818 -100.023826 
L 166.263636 -74.317005 
L 169.645455 -82.885945 
L 173.027273 -91.454886 
L 176.409091 -82.885945 
L 179.790909 -91.454886 
L 183.172727 -91.454886 
L 186.554545 -91.454886 
L 189.936364 -82.885945 
L 193.318182 -91.454886 
L 196.7 -82.885945 
L 200.081818 -74.317005 
L 203.463636 -74.317005 
L 206.845455 -91.454886 
L 210.227273 -82.885945 
L 213.609091 -82.885945 
L 216.990909 -74.317005 
L 220.372727 -74.317005 
L 223.754545 -82.885945 
L 227.136364 -91.454886 
L 230.518182 -74.317005 
L 233.9 -74.317005 
L 237.281818 -82.885945 
L 240.663636 -74.317005 
L 244.045455 -82.885945 
L 247.427273 -74.317005 
L 250.809091 -82.885945 
L 254.190909 -82.885945 
L 257.572727 -82.885945 
L 260.954545 -91.454886 
L 264.336364 -91.454886 
L 267.718182 -100.023826 
L 271.1 -91.454886 
L 274.481818 -91.454886 
L 277.863636 -91.454886 
L 281.245455 -100.023826 
L 284.627273 -117.161707 
L 288.009091 -82.885945 
L 291.390909 -74.317005 
L 294.772727 -82.885945 
L 298.154545 -91.454886 
L 301.536364 -91.454886 
L 304.918182 -82.885945 
L 308.3 -74.317005 
L 311.681818 -82.885945 
L 315.063636 -100.023826 
L 318.445455 -91.454886 
L 321.827273 -74.317005 
L 325.209091 -82.885945 
L 328.590909 -91.454886 
L 331.972727 -82.885945 
L 335.354545 -82.885945 
L 338.736364 -74.317005 
L 342.118182 -82.885945 
L 345.5 -82.885945 
L 345.5 -37.55625 
L 345.5 -37.55625 
L 342.118182 -37.55625 
L 338.736364 -37.55625 
L 335.354545 -37.55625 
L 331.972727 -37.55625 
L 328.590909 -37.55625 
L 325.209091 -37.55625 
L 321.827273 -37.55625 
L 318.445455 -37.55625 
L 315.063636 -37.55625 
L 311.681818 -37.55625 
L 308.3 -37.55625 
L 304.918182 -37.55625 
L 301.536364 -37.55625 
L 298.154545 -37.55625 
L 294.772727 -37.55625 
L 291.390909 -37.55625 
L 288.009091 -37.55625 
L 284.627273 -37.55625 
L 281.245455 -37.55625 
L 277.863636 -37.55625 
L 274.481818 -37.55625 
L 271.1 -37.55625 
L 267.718182 -37.55625 
L 264.336364 -37.55625 
L 260.954545 -37.55625 
L 257.572727 -37.55625 
L 254.190909 -37.55625 
L 250.809091 -37.55625 
L 247.427273 -37.55625 
L 244.045455 -37.55625 
L 240.663636 -37.55625 
L 237.281818 -37.55625 
L 233.9 -37.55625 
L 230.518182 -37.55625 
L 227.136364 -37.55625 
L 223.754545 -37.55625 
L 220.372727 -37.55625 
L 216.990909 -37.55625 
L 213.609091 -37.55625 
L 210.227273 -37.55625 
L 206.845455 -37.55625 
L 203.463636 -37.55625 
L 200.081818 -37.55625 
L 196.7 -37.55625 
L 193.318182 -37.55625 
L 189.936364 -37.55625 
L 186.554545 -37.55625 
L 183.172727 -37.55625 
L 179.790909 -37.55625 
L 176.409091 -37.55625 
L 173.027273 -37.55625 
L 169.645455 -37.55625 
L 166.263636 -37.55625 
L 162.881818 -37.55625 
L 159.5 -37.55625 
L 156.118182 -37.55625 
L 152.736364 -37.55625 
L 149.354545 -37.55625 
L 145.972727 -37.55625 
L 142.590909 -37.55625 
L 139.209091 -37.55625 
L 135.827273 -37.55625 
L 132.445455 -37.55625 
L 129.063636 -37.55625 
L 125.681818 -37.55625 
L 122.3 -37.55625 
L 118.918182 -37.55625 
L 115.536364 -37.55625 
L 112.154545 -37.55625 
L 108.772727 -37.55625 
L 105.390909 -37.55625 
L 102.009091 -37.55625 
L 98.627273 -37.55625 
L 95.245455 -37.55625 
L 91.863636 -37.55625 
L 88.481818 -37.55625 
L 85.1 -37.55625 
L 81.718182 -37.55625 
L 78.336364 -37.55625 
L 74.954545 -37.55625 
L 71.572727 -37.55625 
L 68.190909 -37.55625 
L 64.809091 -37.55625 
L 61.427273 -37.55625 
L 58.045455 -37.55625 
L 54.663636 -37.55625 
L 51.281818 -37.55625 
L 47.9 -37.55625 
L 44.518182 -37.55625 
L 41.136364 -37.55625 
L 37.754545 -37.55625 
L 34.372727 -37.55625 
L 30.990909 -37.55625 
L 27.609091 -37.55625 
L 24.227273 -37.55625 
L 20.845455 -37.55625 
L 17.463636 -37.55625 
L 14.081818 -37.55625 
L 10.7 -37.55625 
z
" style="stroke: #000000; stroke-width: 0.8"/>
    </defs>
    <g clip-path="url(#p633235ef61)">
     <use xlink:href="#m01634865b8" x="0" y="377.39625" style="fill: #cccccc; stroke: #000000; stroke-width: 0.8"/>
    </g>
   </g>
   <g id="PolyCollection_9">
    <defs>
     <path id="m5d67df9675" d="M 10.7 -37.55625 
L 10.7 -79.568541 
L 14.081818 -79.568541 
L 17.463636 -62.06342 
L 20.845455 -70.81598 
L 24.227273 -88.321102 
L 27.609091 -62.06342 
L 30.990909 -62.06342 
L 34.372727 -62.06342 
L 37.754545 -88.321102 
L 41.136364 -79.568541 
L 44.518182 -62.06342 
L 47.9 -70.81598 
L 51.281818 -79.568541 
L 54.663636 -70.81598 
L 58.045455 -70.81598 
L 61.427273 -70.81598 
L 64.809091 -62.06342 
L 68.190909 -79.568541 
L 71.572727 -88.321102 
L 74.954545 -70.81598 
L 78.336364 -62.06342 
L 81.718182 -62.06342 
L 85.1 -62.06342 
L 88.481818 -62.06342 
L 91.863636 -62.06342 
L 95.245455 -79.568541 
L 98.627273 -70.81598 
L 102.009091 -79.568541 
L 105.390909 -79.568541 
L 108.772727 -62.06342 
L 112.154545 -70.81598 
L 115.536364 -70.81598 
L 118.918182 -88.321102 
L 122.3 -70.81598 
L 125.681818 -70.81598 
L 129.063636 -62.06342 
L 132.445455 -70.81598 
L 135.827273 -62.06342 
L 139.209091 -62.06342 
L 142.590909 -70.81598 
L 145.972727 -79.568541 
L 149.354545 -70.81598 
L 152.736364 -70.81598 
L 156.118182 -79.568541 
L 159.5 -70.81598 
L 162.881818 -62.06342 
L 166.263636 -62.06342 
L 169.645455 -79.568541 
L 173.027273 -88.321102 
L 176.409091 -97.073662 
L 179.790909 -88.321102 
L 183.172727 -79.568541 
L 186.554545 -88.321102 
L 189.936364 -88.321102 
L 193.318182 -79.568541 
L 196.7 -79.568541 
L 200.081818 -97.073662 
L 203.463636 -70.81598 
L 206.845455 -79.568541 
L 210.227273 -70.81598 
L 213.609091 -105.826223 
L 216.990909 -79.568541 
L 220.372727 -62.06342 
L 223.754545 -70.81598 
L 227.136364 -88.321102 
L 230.518182 -88.321102 
L 233.9 -70.81598 
L 237.281818 -79.568541 
L 240.663636 -70.81598 
L 244.045455 -88.321102 
L 247.427273 -79.568541 
L 250.809091 -88.321102 
L 254.190909 -70.81598 
L 257.572727 -79.568541 
L 260.954545 -62.06342 
L 264.336364 -62.06342 
L 267.718182 -79.568541 
L 271.1 -70.81598 
L 274.481818 -79.568541 
L 277.863636 -88.321102 
L 281.245455 -62.06342 
L 284.627273 -70.81598 
L 288.009091 -62.06342 
L 291.390909 -70.81598 
L 294.772727 -70.81598 
L 298.154545 -88.321102 
L 301.536364 -79.568541 
L 304.918182 -79.568541 
L 308.3 -70.81598 
L 311.681818 -62.06342 
L 315.063636 -70.81598 
L 318.445455 -70.81598 
L 321.827273 -79.568541 
L 325.209091 -79.568541 
L 328.590909 -79.568541 
L 331.972727 -62.06342 
L 335.354545 -79.568541 
L 338.736364 -62.06342 
L 342.118182 -70.81598 
L 345.5 -70.81598 
L 345.5 -37.55625 
L 345.5 -37.55625 
L 342.118182 -37.55625 
L 338.736364 -37.55625 
L 335.354545 -37.55625 
L 331.972727 -37.55625 
L 328.590909 -37.55625 
L 325.209091 -37.55625 
L 321.827273 -37.55625 
L 318.445455 -37.55625 
L 315.063636 -37.55625 
L 311.681818 -37.55625 
L 308.3 -37.55625 
L 304.918182 -37.55625 
L 301.536364 -37.55625 
L 298.154545 -37.55625 
L 294.772727 -37.55625 
L 291.390909 -37.55625 
L 288.009091 -37.55625 
L 284.627273 -37.55625 
L 281.245455 -37.55625 
L 277.863636 -37.55625 
L 274.481818 -37.55625 
L 271.1 -37.55625 
L 267.718182 -37.55625 
L 264.336364 -37.55625 
L 260.954545 -37.55625 
L 257.572727 -37.55625 
L 254.190909 -37.55625 
L 250.809091 -37.55625 
L 247.427273 -37.55625 
L 244.045455 -37.55625 
L 240.663636 -37.55625 
L 237.281818 -37.55625 
L 233.9 -37.55625 
L 230.518182 -37.55625 
L 227.136364 -37.55625 
L 223.754545 -37.55625 
L 220.372727 -37.55625 
L 216.990909 -37.55625 
L 213.609091 -37.55625 
L 210.227273 -37.55625 
L 206.845455 -37.55625 
L 203.463636 -37.55625 
L 200.081818 -37.55625 
L 196.7 -37.55625 
L 193.318182 -37.55625 
L 189.936364 -37.55625 
L 186.554545 -37.55625 
L 183.172727 -37.55625 
L 179.790909 -37.55625 
L 176.409091 -37.55625 
L 173.027273 -37.55625 
L 169.645455 -37.55625 
L 166.263636 -37.55625 
L 162.881818 -37.55625 
L 159.5 -37.55625 
L 156.118182 -37.55625 
L 152.736364 -37.55625 
L 149.354545 -37.55625 
L 145.972727 -37.55625 
L 142.590909 -37.55625 
L 139.209091 -37.55625 
L 135.827273 -37.55625 
L 132.445455 -37.55625 
L 129.063636 -37.55625 
L 125.681818 -37.55625 
L 122.3 -37.55625 
L 118.918182 -37.55625 
L 115.536364 -37.55625 
L 112.154545 -37.55625 
L 108.772727 -37.55625 
L 105.390909 -37.55625 
L 102.009091 -37.55625 
L 98.627273 -37.55625 
L 95.245455 -37.55625 
L 91.863636 -37.55625 
L 88.481818 -37.55625 
L 85.1 -37.55625 
L 81.718182 -37.55625 
L 78.336364 -37.55625 
L 74.954545 -37.55625 
L 71.572727 -37.55625 
L 68.190909 -37.55625 
L 64.809091 -37.55625 
L 61.427273 -37.55625 
L 58.045455 -37.55625 
L 54.663636 -37.55625 
L 51.281818 -37.55625 
L 47.9 -37.55625 
L 44.518182 -37.55625 
L 41.136364 -37.55625 
L 37.754545 -37.55625 
L 34.372727 -37.55625 
L 30.990909 -37.55625 
L 27.609091 -37.55625 
L 24.227273 -37.55625 
L 20.845455 -37.55625 
L 17.463636 -37.55625 
L 14.081818 -37.55625 
L 10.7 -37.55625 
z
" style="stroke: #000000; stroke-width: 0.8"/>
    </defs>
    <g clip-path="url(#p633235ef61)">
     <use xlink:href="#m5d67df9675" x="0" y="377.39625" style="fill: #e6e6e6; stroke: #000000; stroke-width: 0.8"/>
    </g>
   </g>
   <g id="PolyCollection_10">
    <defs>
     <path id="mede1600381" d="M 10.7 -37.55625 
L 10.7 -94.530948 
L 14.081818 -67.69828 
L 17.463636 -67.69828 
L 20.845455 -67.69828 
L 24.227273 -76.642503 
L 27.609091 -76.642503 
L 30.990909 -58.754057 
L 34.372727 -76.642503 
L 37.754545 -67.69828 
L 41.136364 -58.754057 
L 44.518182 -58.754057 
L 47.9 -58.754057 
L 51.281818 -67.69828 
L 54.663636 -58.754057 
L 58.045455 -58.754057 
L 61.427273 -76.642503 
L 64.809091 -67.69828 
L 68.190909 -67.69828 
L 71.572727 -58.754057 
L 74.954545 -49.809835 
L 78.336364 -67.69828 
L 81.718182 -49.809835 
L 85.1 -58.754057 
L 88.481818 -67.69828 
L 91.863636 -58.754057 
L 95.245455 -58.754057 
L 98.627273 -76.642503 
L 102.009091 -49.809835 
L 105.390909 -76.642503 
L 108.772727 -85.586725 
L 112.154545 -67.69828 
L 115.536364 -58.754057 
L 118.918182 -58.754057 
L 122.3 -58.754057 
L 125.681818 -49.809835 
L 129.063636 -76.642503 
L 132.445455 -76.642503 
L 135.827273 -58.754057 
L 139.209091 -49.809835 
L 142.590909 -76.642503 
L 145.972727 -58.754057 
L 149.354545 -76.642503 
L 152.736364 -49.809835 
L 156.118182 -58.754057 
L 159.5 -58.754057 
L 162.881818 -49.809835 
L 166.263636 -49.809835 
L 169.645455 -58.754057 
L 173.027273 -67.69828 
L 176.409091 -58.754057 
L 179.790909 -58.754057 
L 183.172727 -49.809835 
L 186.554545 -67.69828 
L 189.936364 -58.754057 
L 193.318182 -49.809835 
L 196.7 -76.642503 
L 200.081818 -67.69828 
L 203.463636 -49.809835 
L 206.845455 -67.69828 
L 210.227273 -67.69828 
L 213.609091 -67.69828 
L 216.990909 -49.809835 
L 220.372727 -67.69828 
L 223.754545 -58.754057 
L 227.136364 -49.809835 
L 230.518182 -49.809835 
L 233.9 -49.809835 
L 237.281818 -76.642503 
L 240.663636 -76.642503 
L 244.045455 -67.69828 
L 247.427273 -67.69828 
L 250.809091 -58.754057 
L 254.190909 -49.809835 
L 257.572727 -67.69828 
L 260.954545 -49.809835 
L 264.336364 -58.754057 
L 267.718182 -49.809835 
L 271.1 -49.809835 
L 274.481818 -67.69828 
L 277.863636 -49.809835 
L 281.245455 -67.69828 
L 284.627273 -58.754057 
L 288.009091 -49.809835 
L 291.390909 -58.754057 
L 294.772727 -49.809835 
L 298.154545 -58.754057 
L 301.536364 -76.642503 
L 304.918182 -58.754057 
L 308.3 -49.809835 
L 311.681818 -58.754057 
L 315.063636 -58.754057 
L 318.445455 -58.754057 
L 321.827273 -67.69828 
L 325.209091 -58.754057 
L 328.590909 -58.754057 
L 331.972727 -67.69828 
L 335.354545 -58.754057 
L 338.736364 -58.754057 
L 342.118182 -49.809835 
L 345.5 -76.642503 
L 345.5 -37.55625 
L 345.5 -37.55625 
L 342.118182 -37.55625 
L 338.736364 -37.55625 
L 335.354545 -37.55625 
L 331.972727 -37.55625 
L 328.590909 -37.55625 
L 325.209091 -37.55625 
L 321.827273 -37.55625 
L 318.445455 -37.55625 
L 315.063636 -37.55625 
L 311.681818 -37.55625 
L 308.3 -37.55625 
L 304.918182 -37.55625 
L 301.536364 -37.55625 
L 298.154545 -37.55625 
L 294.772727 -37.55625 
L 291.390909 -37.55625 
L 288.009091 -37.55625 
L 284.627273 -37.55625 
L 281.245455 -37.55625 
L 277.863636 -37.55625 
L 274.481818 -37.55625 
L 271.1 -37.55625 
L 267.718182 -37.55625 
L 264.336364 -37.55625 
L 260.954545 -37.55625 
L 257.572727 -37.55625 
L 254.190909 -37.55625 
L 250.809091 -37.55625 
L 247.427273 -37.55625 
L 244.045455 -37.55625 
L 240.663636 -37.55625 
L 237.281818 -37.55625 
L 233.9 -37.55625 
L 230.518182 -37.55625 
L 227.136364 -37.55625 
L 223.754545 -37.55625 
L 220.372727 -37.55625 
L 216.990909 -37.55625 
L 213.609091 -37.55625 
L 210.227273 -37.55625 
L 206.845455 -37.55625 
L 203.463636 -37.55625 
L 200.081818 -37.55625 
L 196.7 -37.55625 
L 193.318182 -37.55625 
L 189.936364 -37.55625 
L 186.554545 -37.55625 
L 183.172727 -37.55625 
L 179.790909 -37.55625 
L 176.409091 -37.55625 
L 173.027273 -37.55625 
L 169.645455 -37.55625 
L 166.263636 -37.55625 
L 162.881818 -37.55625 
L 159.5 -37.55625 
L 156.118182 -37.55625 
L 152.736364 -37.55625 
L 149.354545 -37.55625 
L 145.972727 -37.55625 
L 142.590909 -37.55625 
L 139.209091 -37.55625 
L 135.827273 -37.55625 
L 132.445455 -37.55625 
L 129.063636 -37.55625 
L 125.681818 -37.55625 
L 122.3 -37.55625 
L 118.918182 -37.55625 
L 115.536364 -37.55625 
L 112.154545 -37.55625 
L 108.772727 -37.55625 
L 105.390909 -37.55625 
L 102.009091 -37.55625 
L 98.627273 -37.55625 
L 95.245455 -37.55625 
L 91.863636 -37.55625 
L 88.481818 -37.55625 
L 85.1 -37.55625 
L 81.718182 -37.55625 
L 78.336364 -37.55625 
L 74.954545 -37.55625 
L 71.572727 -37.55625 
L 68.190909 -37.55625 
L 64.809091 -37.55625 
L 61.427273 -37.55625 
L 58.045455 -37.55625 
L 54.663636 -37.55625 
L 51.281818 -37.55625 
L 47.9 -37.55625 
L 44.518182 -37.55625 
L 41.136364 -37.55625 
L 37.754545 -37.55625 
L 34.372727 -37.55625 
L 30.990909 -37.55625 
L 27.609091 -37.55625 
L 24.227273 -37.55625 
L 20.845455 -37.55625 
L 17.463636 -37.55625 
L 14.081818 -37.55625 
L 10.7 -37.55625 
z
" style="stroke: #000000; stroke-width: 0.8"/>
    </defs>
    <g clip-path="url(#p633235ef61)">
     <use xlink:href="#mede1600381" x="0" y="377.39625" style="fill: #ffffff; stroke: #000000; stroke-width: 0.8"/>
    </g>
   </g>
   <g id="matplotlib.axis_1">
    <g id="xtick_1">
     <g id="line2d_1">
      <defs>
       <path id="mda02c991cb" d="M 0 0 
L 0 3.5 
" style="stroke: #000000; stroke-width: 0.8"/>
      </defs>
      <g>
       <use xlink:href="#mda02c991cb" x="74.954545" y="339.84" style="stroke: #000000; stroke-width: 0.8"/>
      </g>
     </g>
     <g id="text_1">
      <!-- 20 -->
      <g transform="translate(68.592045 354.438437) scale(0.1 -0.1)">
       <defs>
        <path id="DejaVuSans-32" d="M 1228 531 
L 3431 531 
L 3431 0 
L 469 0 
L 469 531 
Q 828 903 1448 1529 
Q 2069 2156 2228 2338 
Q 2531 2678 2651 2914 
Q 2772 3150 2772 3378 
Q 2772 3750 2511 3984 
Q 2250 4219 1831 4219 
Q 1534 4219 1204 4116 
Q 875 4013 500 3803 
L 500 4441 
Q 881 4594 1212 4672 
Q 1544 4750 1819 4750 
Q 2544 4750 2975 4387 
Q 3406 4025 3406 3419 
Q 3406 3131 3298 2873 
Q 3191 2616 2906 2266 
Q 2828 2175 2409 1742 
Q 1991 1309 1228 531 
z
" transform="scale(0.015625)"/>
        <path id="DejaVuSans-30" d="M 2034 4250 
Q 1547 4250 1301 3770 
Q 1056 3291 1056 2328 
Q 1056 1369 1301 889 
Q 1547 409 2034 409 
Q 2525 409 2770 889 
Q 3016 1369 3016 2328 
Q 3016 3291 2770 3770 
Q 2525 4250 2034 4250 
z
M 2034 4750 
Q 2819 4750 3233 4129 
Q 3647 3509 3647 2328 
Q 3647 1150 3233 529 
Q 2819 -91 2034 -91 
Q 1250 -91 836 529 
Q 422 1150 422 2328 
Q 422 3509 836 4129 
Q 1250 4750 2034 4750 
z
" transform="scale(0.015625)"/>
       </defs>
       <use xlink:href="#DejaVuSans-32"/>
       <use xlink:href="#DejaVuSans-30" x="63.623047"/>
      </g>
     </g>
    </g>
    <g id="xtick_2">
     <g id="line2d_2">
      <g>
       <use xlink:href="#mda02c991cb" x="142.590909" y="339.84" style="stroke: #000000; stroke-width: 0.8"/>
      </g>
     </g>
     <g id="text_2">
      <!-- 40 -->
      <g transform="translate(136.228409 354.438437) scale(0.1 -0.1)">
       <defs>
        <path id="DejaVuSans-34" d="M 2419 4116 
L 825 1625 
L 2419 1625 
L 2419 4116 
z
M 2253 4666 
L 3047 4666 
L 3047 1625 
L 3713 1625 
L 3713 1100 
L 3047 1100 
L 3047 0 
L 2419 0 
L 2419 1100 
L 313 1100 
L 313 1709 
L 2253 4666 
z
" transform="scale(0.015625)"/>
       </defs>
       <use xlink:href="#DejaVuSans-34"/>
       <use xlink:href="#DejaVuSans-30" x="63.623047"/>
      </g>
     </g>
    </g>
    <g id="xtick_3">
     <g id="line2d_3">
      <g>
       <use xlink:href="#mda02c991cb" x="210.227273" y="339.84" style="stroke: #000000; stroke-width: 0.8"/>
      </g>
     </g>
     <g id="text_3">
      <!-- 60 -->
      <g transform="translate(203.864773 354.438437) scale(0.1 -0.1)">
       <defs>
        <path id="DejaVuSans-36" d="M 2113 2584 
Q 1688 2584 1439 2293 
Q 1191 2003 1191 1497 
Q 1191 994 1439 701 
Q 1688 409 2113 409 
Q 2538 409 2786 701 
Q 3034 994 3034 1497 
Q 3034 2003 2786 2293 
Q 2538 2584 2113 2584 
z
M 3366 4563 
L 3366 3988 
Q 3128 4100 2886 4159 
Q 2644 4219 2406 4219 
Q 1781 4219 1451 3797 
Q 1122 3375 1075 2522 
Q 1259 2794 1537 2939 
Q 1816 3084 2150 3084 
Q 2853 3084 3261 2657 
Q 3669 2231 3669 1497 
Q 3669 778 3244 343 
Q 2819 -91 2113 -91 
Q 1303 -91 875 529 
Q 447 1150 447 2328 
Q 447 3434 972 4092 
Q 1497 4750 2381 4750 
Q 2619 4750 2861 4703 
Q 3103 4656 3366 4563 
z
" transform="scale(0.015625)"/>
       </defs>
       <use xlink:href="#DejaVuSans-36"/>
       <use xlink:href="#DejaVuSans-30" x="63.623047"/>
      </g>
     </g>
    </g>
    <g id="xtick_4">
     <g id="line2d_4">
      <g>
       <use xlink:href="#mda02c991cb" x="277.863636" y="339.84" style="stroke: #000000; stroke-width: 0.8"/>
      </g>
     </g>
     <g id="text_4">
      <!-- 80 -->
      <g transform="translate(271.501136 354.438437) scale(0.1 -0.1)">
       <defs>
        <path id="DejaVuSans-38" d="M 2034 2216 
Q 1584 2216 1326 1975 
Q 1069 1734 1069 1313 
Q 1069 891 1326 650 
Q 1584 409 2034 409 
Q 2484 409 2743 651 
Q 3003 894 3003 1313 
Q 3003 1734 2745 1975 
Q 2488 2216 2034 2216 
z
M 1403 2484 
Q 997 2584 770 2862 
Q 544 3141 544 3541 
Q 544 4100 942 4425 
Q 1341 4750 2034 4750 
Q 2731 4750 3128 4425 
Q 3525 4100 3525 3541 
Q 3525 3141 3298 2862 
Q 3072 2584 2669 2484 
Q 3125 2378 3379 2068 
Q 3634 1759 3634 1313 
Q 3634 634 3220 271 
Q 2806 -91 2034 -91 
Q 1263 -91 848 271 
Q 434 634 434 1313 
Q 434 1759 690 2068 
Q 947 2378 1403 2484 
z
M 1172 3481 
Q 1172 3119 1398 2916 
Q 1625 2713 2034 2713 
Q 2441 2713 2670 2916 
Q 2900 3119 2900 3481 
Q 2900 3844 2670 4047 
Q 2441 4250 2034 4250 
Q 1625 4250 1398 4047 
Q 1172 3844 1172 3481 
z
" transform="scale(0.015625)"/>
       </defs>
       <use xlink:href="#DejaVuSans-38"/>
       <use xlink:href="#DejaVuSans-30" x="63.623047"/>
      </g>
     </g>
    </g>
    <g id="xtick_5">
     <g id="line2d_5">
      <g>
       <use xlink:href="#mda02c991cb" x="345.5" y="339.84" style="stroke: #000000; stroke-width: 0.8"/>
      </g>
     </g>
     <g id="text_5">
      <!-- 100 -->
      <g transform="translate(335.95625 354.438437) scale(0.1 -0.1)">
       <defs>
        <path id="DejaVuSans-31" d="M 794 531 
L 1825 531 
L 1825 4091 
L 703 3866 
L 703 4441 
L 1819 4666 
L 2450 4666 
L 2450 531 
L 3481 531 
L 3481 0 
L 794 0 
L 794 531 
z
" transform="scale(0.015625)"/>
       </defs>
       <use xlink:href="#DejaVuSans-31"/>
       <use xlink:href="#DejaVuSans-30" x="63.623047"/>
       <use xlink:href="#DejaVuSans-30" x="127.246094"/>
      </g>
     </g>
    </g>
    <g id="text_6">
     <!-- Position within deck -->
     <g transform="translate(128.397656 368.116562) scale(0.1 -0.1)">
      <defs>
       <path id="DejaVuSans-50" d="M 1259 4147 
L 1259 2394 
L 2053 2394 
Q 2494 2394 2734 2622 
Q 2975 2850 2975 3272 
Q 2975 3691 2734 3919 
Q 2494 4147 2053 4147 
L 1259 4147 
z
M 628 4666 
L 2053 4666 
Q 2838 4666 3239 4311 
Q 3641 3956 3641 3272 
Q 3641 2581 3239 2228 
Q 2838 1875 2053 1875 
L 1259 1875 
L 1259 0 
L 628 0 
L 628 4666 
z
" transform="scale(0.015625)"/>
       <path id="DejaVuSans-6f" d="M 1959 3097 
Q 1497 3097 1228 2736 
Q 959 2375 959 1747 
Q 959 1119 1226 758 
Q 1494 397 1959 397 
Q 2419 397 2687 759 
Q 2956 1122 2956 1747 
Q 2956 2369 2687 2733 
Q 2419 3097 1959 3097 
z
M 1959 3584 
Q 2709 3584 3137 3096 
Q 3566 2609 3566 1747 
Q 3566 888 3137 398 
Q 2709 -91 1959 -91 
Q 1206 -91 779 398 
Q 353 888 353 1747 
Q 353 2609 779 3096 
Q 1206 3584 1959 3584 
z
" transform="scale(0.015625)"/>
       <path id="DejaVuSans-73" d="M 2834 3397 
L 2834 2853 
Q 2591 2978 2328 3040 
Q 2066 3103 1784 3103 
Q 1356 3103 1142 2972 
Q 928 2841 928 2578 
Q 928 2378 1081 2264 
Q 1234 2150 1697 2047 
L 1894 2003 
Q 2506 1872 2764 1633 
Q 3022 1394 3022 966 
Q 3022 478 2636 193 
Q 2250 -91 1575 -91 
Q 1294 -91 989 -36 
Q 684 19 347 128 
L 347 722 
Q 666 556 975 473 
Q 1284 391 1588 391 
Q 1994 391 2212 530 
Q 2431 669 2431 922 
Q 2431 1156 2273 1281 
Q 2116 1406 1581 1522 
L 1381 1569 
Q 847 1681 609 1914 
Q 372 2147 372 2553 
Q 372 3047 722 3315 
Q 1072 3584 1716 3584 
Q 2034 3584 2315 3537 
Q 2597 3491 2834 3397 
z
" transform="scale(0.015625)"/>
       <path id="DejaVuSans-69" d="M 603 3500 
L 1178 3500 
L 1178 0 
L 603 0 
L 603 3500 
z
M 603 4863 
L 1178 4863 
L 1178 4134 
L 603 4134 
L 603 4863 
z
" transform="scale(0.015625)"/>
       <path id="DejaVuSans-74" d="M 1172 4494 
L 1172 3500 
L 2356 3500 
L 2356 3053 
L 1172 3053 
L 1172 1153 
Q 1172 725 1289 603 
Q 1406 481 1766 481 
L 2356 481 
L 2356 0 
L 1766 0 
Q 1100 0 847 248 
Q 594 497 594 1153 
L 594 3053 
L 172 3053 
L 172 3500 
L 594 3500 
L 594 4494 
L 1172 4494 
z
" transform="scale(0.015625)"/>
       <path id="DejaVuSans-6e" d="M 3513 2113 
L 3513 0 
L 2938 0 
L 2938 2094 
Q 2938 2591 2744 2837 
Q 2550 3084 2163 3084 
Q 1697 3084 1428 2787 
Q 1159 2491 1159 1978 
L 1159 0 
L 581 0 
L 581 3500 
L 1159 3500 
L 1159 2956 
Q 1366 3272 1645 3428 
Q 1925 3584 2291 3584 
Q 2894 3584 3203 3211 
Q 3513 2838 3513 2113 
z
" transform="scale(0.015625)"/>
       <path id="DejaVuSans-20" transform="scale(0.015625)"/>
       <path id="DejaVuSans-77" d="M 269 3500 
L 844 3500 
L 1563 769 
L 2278 3500 
L 2956 3500 
L 3675 769 
L 4391 3500 
L 4966 3500 
L 4050 0 
L 3372 0 
L 2619 2869 
L 1863 0 
L 1184 0 
L 269 3500 
z
" transform="scale(0.015625)"/>
       <path id="DejaVuSans-68" d="M 3513 2113 
L 3513 0 
L 2938 0 
L 2938 2094 
Q 2938 2591 2744 2837 
Q 2550 3084 2163 3084 
Q 1697 3084 1428 2787 
Q 1159 2491 1159 1978 
L 1159 0 
L 581 0 
L 581 4863 
L 1159 4863 
L 1159 2956 
Q 1366 3272 1645 3428 
Q 1925 3584 2291 3584 
Q 2894 3584 3203 3211 
Q 3513 2838 3513 2113 
z
" transform="scale(0.015625)"/>
       <path id="DejaVuSans-64" d="M 2906 2969 
L 2906 4863 
L 3481 4863 
L 3481 0 
L 2906 0 
L 2906 525 
Q 2725 213 2448 61 
Q 2172 -91 1784 -91 
Q 1150 -91 751 415 
Q 353 922 353 1747 
Q 353 2572 751 3078 
Q 1150 3584 1784 3584 
Q 2172 3584 2448 3432 
Q 2725 3281 2906 2969 
z
M 947 1747 
Q 947 1113 1208 752 
Q 1469 391 1925 391 
Q 2381 391 2643 752 
Q 2906 1113 2906 1747 
Q 2906 2381 2643 2742 
Q 2381 3103 1925 3103 
Q 1469 3103 1208 2742 
Q 947 2381 947 1747 
z
" transform="scale(0.015625)"/>
       <path id="DejaVuSans-65" d="M 3597 1894 
L 3597 1613 
L 953 1613 
Q 991 1019 1311 708 
Q 1631 397 2203 397 
Q 2534 397 2845 478 
Q 3156 559 3463 722 
L 3463 178 
Q 3153 47 2828 -22 
Q 2503 -91 2169 -91 
Q 1331 -91 842 396 
Q 353 884 353 1716 
Q 353 2575 817 3079 
Q 1281 3584 2069 3584 
Q 2775 3584 3186 3129 
Q 3597 2675 3597 1894 
z
M 3022 2063 
Q 3016 2534 2758 2815 
Q 2500 3097 2075 3097 
Q 1594 3097 1305 2825 
Q 1016 2553 972 2059 
L 3022 2063 
z
" transform="scale(0.015625)"/>
       <path id="DejaVuSans-63" d="M 3122 3366 
L 3122 2828 
Q 2878 2963 2633 3030 
Q 2388 3097 2138 3097 
Q 1578 3097 1268 2742 
Q 959 2388 959 1747 
Q 959 1106 1268 751 
Q 1578 397 2138 397 
Q 2388 397 2633 464 
Q 2878 531 3122 666 
L 3122 134 
Q 2881 22 2623 -34 
Q 2366 -91 2075 -91 
Q 1284 -91 818 406 
Q 353 903 353 1747 
Q 353 2603 823 3093 
Q 1294 3584 2113 3584 
Q 2378 3584 2631 3529 
Q 2884 3475 3122 3366 
z
" transform="scale(0.015625)"/>
       <path id="DejaVuSans-6b" d="M 581 4863 
L 1159 4863 
L 1159 1991 
L 2875 3500 
L 3609 3500 
L 1753 1863 
L 3688 0 
L 2938 0 
L 1159 1709 
L 1159 0 
L 581 0 
L 581 4863 
z
" transform="scale(0.015625)"/>
      </defs>
      <use xlink:href="#DejaVuSans-50"/>
      <use xlink:href="#DejaVuSans-6f" x="56.677734"/>
      <use xlink:href="#DejaVuSans-73" x="117.859375"/>
      <use xlink:href="#DejaVuSans-69" x="169.958984"/>
      <use xlink:href="#DejaVuSans-74" x="197.742188"/>
      <use xlink:href="#DejaVuSans-69" x="236.951172"/>
      <use xlink:href="#DejaVuSans-6f" x="264.734375"/>
      <use xlink:href="#DejaVuSans-6e" x="325.916016"/>
      <use xlink:href="#DejaVuSans-20" x="389.294922"/>
      <use xlink:href="#DejaVuSans-77" x="421.082031"/>
      <use xlink:href="#DejaVuSans-69" x="502.869141"/>
      <use xlink:href="#DejaVuSans-74" x="530.652344"/>
      <use xlink:href="#DejaVuSans-68" x="569.861328"/>
      <use xlink:href="#DejaVuSans-69" x="633.240234"/>
      <use xlink:href="#DejaVuSans-6e" x="661.023438"/>
      <use xlink:href="#DejaVuSans-20" x="724.402344"/>
      <use xlink:href="#DejaVuSans-64" x="756.189453"/>
      <use xlink:href="#DejaVuSans-65" x="819.666016"/>
      <use xlink:href="#DejaVuSans-63" x="881.189453"/>
      <use xlink:href="#DejaVuSans-6b" x="936.169922"/>
     </g>
    </g>
   </g>
   <g id="matplotlib.axis_2">
    <g id="ytick_1">
     <g id="line2d_6">
      <defs>
       <path id="mc59f330915" d="M 0 0 
L -3.5 0 
" style="stroke: #000000; stroke-width: 0.8"/>
      </defs>
      <g>
       <use xlink:href="#mc59f330915" x="10.7" y="339.84" style="stroke: #000000; stroke-width: 0.8"/>
      </g>
     </g>
    </g>
    <g id="ytick_2">
     <g id="line2d_7">
      <g>
       <use xlink:href="#mc59f330915" x="10.7" y="278.572075" style="stroke: #000000; stroke-width: 0.8"/>
      </g>
     </g>
    </g>
    <g id="ytick_3">
     <g id="line2d_8">
      <g>
       <use xlink:href="#mc59f330915" x="10.7" y="217.304151" style="stroke: #000000; stroke-width: 0.8"/>
      </g>
     </g>
    </g>
    <g id="ytick_4">
     <g id="line2d_9">
      <g>
       <use xlink:href="#mc59f330915" x="10.7" y="156.036226" style="stroke: #000000; stroke-width: 0.8"/>
      </g>
     </g>
    </g>
    <g id="ytick_5">
     <g id="line2d_10">
      <g>
       <use xlink:href="#mc59f330915" x="10.7" y="94.768302" style="stroke: #000000; stroke-width: 0.8"/>
      </g>
     </g>
    </g>
    <g id="ytick_6">
     <g id="line2d_11">
      <g>
       <use xlink:href="#mc59f330915" x="10.7" y="33.500377" style="stroke: #000000; stroke-width: 0.8"/>
      </g>
     </g>
    </g>
   </g>
   <g id="patch_3">
    <path d="M 10.7 339.84 
L 10.7 7.2 
" style="fill: none; stroke: #000000; stroke-width: 0.8; stroke-linejoin: miter; stroke-linecap: square"/>
   </g>
   <g id="patch_4">
    <path d="M 345.5 339.84 
L 345.5 7.2 
" style="fill: none; stroke: #000000; stroke-width: 0.8; stroke-linejoin: miter; stroke-linecap: square"/>
   </g>
   <g id="patch_5">
    <path d="M 10.7 339.84 
L 345.5 339.84 
" style="fill: none; stroke: #000000; stroke-width: 0.8; stroke-linejoin: miter; stroke-linecap: square"/>
   </g>
   <g id="patch_6">
    <path d="M 10.7 7.2 
L 345.5 7.2 
" style="fill: none; stroke: #000000; stroke-width: 0.8; stroke-linejoin: miter; stroke-linecap: square"/>
   </g>
   <g id="legend_1">
    <g id="patch_7">
     <path d="M 360.892 256.68 
L 447.159188 256.68 
Q 449.159188 256.68 449.159188 254.68 
L 449.159188 108.89875 
Q 449.159188 106.89875 447.159188 106.89875 
L 360.892 106.89875 
Q 358.892 106.89875 358.892 108.89875 
L 358.892 254.68 
Q 358.892 256.68 360.892 256.68 
z
" style="fill: #ffffff; opacity: 0.8"/>
    </g>
    <g id="patch_8">
     <path d="M 362.892 118.497187 
L 382.892 118.497187 
L 382.892 111.497187 
L 362.892 111.497187 
z
" style="fill: #1a1a1a; stroke: #000000; stroke-width: 0.8; stroke-linejoin: miter"/>
    </g>
    <g id="text_7">
     <!-- Shuffle: 1 -->
     <g transform="translate(390.892 118.497187) scale(0.1 -0.1)">
      <defs>
       <path id="DejaVuSans-53" d="M 3425 4513 
L 3425 3897 
Q 3066 4069 2747 4153 
Q 2428 4238 2131 4238 
Q 1616 4238 1336 4038 
Q 1056 3838 1056 3469 
Q 1056 3159 1242 3001 
Q 1428 2844 1947 2747 
L 2328 2669 
Q 3034 2534 3370 2195 
Q 3706 1856 3706 1288 
Q 3706 609 3251 259 
Q 2797 -91 1919 -91 
Q 1588 -91 1214 -16 
Q 841 59 441 206 
L 441 856 
Q 825 641 1194 531 
Q 1563 422 1919 422 
Q 2459 422 2753 634 
Q 3047 847 3047 1241 
Q 3047 1584 2836 1778 
Q 2625 1972 2144 2069 
L 1759 2144 
Q 1053 2284 737 2584 
Q 422 2884 422 3419 
Q 422 4038 858 4394 
Q 1294 4750 2059 4750 
Q 2388 4750 2728 4690 
Q 3069 4631 3425 4513 
z
" transform="scale(0.015625)"/>
       <path id="DejaVuSans-75" d="M 544 1381 
L 544 3500 
L 1119 3500 
L 1119 1403 
Q 1119 906 1312 657 
Q 1506 409 1894 409 
Q 2359 409 2629 706 
Q 2900 1003 2900 1516 
L 2900 3500 
L 3475 3500 
L 3475 0 
L 2900 0 
L 2900 538 
Q 2691 219 2414 64 
Q 2138 -91 1772 -91 
Q 1169 -91 856 284 
Q 544 659 544 1381 
z
M 1991 3584 
L 1991 3584 
z
" transform="scale(0.015625)"/>
       <path id="DejaVuSans-66" d="M 2375 4863 
L 2375 4384 
L 1825 4384 
Q 1516 4384 1395 4259 
Q 1275 4134 1275 3809 
L 1275 3500 
L 2222 3500 
L 2222 3053 
L 1275 3053 
L 1275 0 
L 697 0 
L 697 3053 
L 147 3053 
L 147 3500 
L 697 3500 
L 697 3744 
Q 697 4328 969 4595 
Q 1241 4863 1831 4863 
L 2375 4863 
z
" transform="scale(0.015625)"/>
       <path id="DejaVuSans-6c" d="M 603 4863 
L 1178 4863 
L 1178 0 
L 603 0 
L 603 4863 
z
" transform="scale(0.015625)"/>
       <path id="DejaVuSans-3a" d="M 750 794 
L 1409 794 
L 1409 0 
L 750 0 
L 750 794 
z
M 750 3309 
L 1409 3309 
L 1409 2516 
L 750 2516 
L 750 3309 
z
" transform="scale(0.015625)"/>
      </defs>
      <use xlink:href="#DejaVuSans-53"/>
      <use xlink:href="#DejaVuSans-68" x="63.476562"/>
      <use xlink:href="#DejaVuSans-75" x="126.855469"/>
      <use xlink:href="#DejaVuSans-66" x="190.234375"/>
      <use xlink:href="#DejaVuSans-66" x="225.439453"/>
      <use xlink:href="#DejaVuSans-6c" x="260.644531"/>
      <use xlink:href="#DejaVuSans-65" x="288.427734"/>
      <use xlink:href="#DejaVuSans-3a" x="349.951172"/>
      <use xlink:href="#DejaVuSans-20" x="383.642578"/>
      <use xlink:href="#DejaVuSans-31" x="415.429688"/>
     </g>
    </g>
    <g id="patch_9">
     <path d="M 362.892 133.175312 
L 382.892 133.175312 
L 382.892 126.175312 
L 362.892 126.175312 
z
" style="fill: #333333; stroke: #000000; stroke-width: 0.8; stroke-linejoin: miter"/>
    </g>
    <g id="text_8">
     <!-- Shuffle: 2 -->
     <g transform="translate(390.892 133.175312) scale(0.1 -0.1)">
      <use xlink:href="#DejaVuSans-53"/>
      <use xlink:href="#DejaVuSans-68" x="63.476562"/>
      <use xlink:href="#DejaVuSans-75" x="126.855469"/>
      <use xlink:href="#DejaVuSans-66" x="190.234375"/>
      <use xlink:href="#DejaVuSans-66" x="225.439453"/>
      <use xlink:href="#DejaVuSans-6c" x="260.644531"/>
      <use xlink:href="#DejaVuSans-65" x="288.427734"/>
      <use xlink:href="#DejaVuSans-3a" x="349.951172"/>
      <use xlink:href="#DejaVuSans-20" x="383.642578"/>
      <use xlink:href="#DejaVuSans-32" x="415.429688"/>
     </g>
    </g>
    <g id="patch_10">
     <path d="M 362.892 147.853437 
L 382.892 147.853437 
L 382.892 140.853437 
L 362.892 140.853437 
z
" style="fill: #4c4c4c; stroke: #000000; stroke-width: 0.8; stroke-linejoin: miter"/>
    </g>
    <g id="text_9">
     <!-- Shuffle: 3 -->
     <g transform="translate(390.892 147.853437) scale(0.1 -0.1)">
      <defs>
       <path id="DejaVuSans-33" d="M 2597 2516 
Q 3050 2419 3304 2112 
Q 3559 1806 3559 1356 
Q 3559 666 3084 287 
Q 2609 -91 1734 -91 
Q 1441 -91 1130 -33 
Q 819 25 488 141 
L 488 750 
Q 750 597 1062 519 
Q 1375 441 1716 441 
Q 2309 441 2620 675 
Q 2931 909 2931 1356 
Q 2931 1769 2642 2001 
Q 2353 2234 1838 2234 
L 1294 2234 
L 1294 2753 
L 1863 2753 
Q 2328 2753 2575 2939 
Q 2822 3125 2822 3475 
Q 2822 3834 2567 4026 
Q 2313 4219 1838 4219 
Q 1578 4219 1281 4162 
Q 984 4106 628 3988 
L 628 4550 
Q 988 4650 1302 4700 
Q 1616 4750 1894 4750 
Q 2613 4750 3031 4423 
Q 3450 4097 3450 3541 
Q 3450 3153 3228 2886 
Q 3006 2619 2597 2516 
z
" transform="scale(0.015625)"/>
      </defs>
      <use xlink:href="#DejaVuSans-53"/>
      <use xlink:href="#DejaVuSans-68" x="63.476562"/>
      <use xlink:href="#DejaVuSans-75" x="126.855469"/>
      <use xlink:href="#DejaVuSans-66" x="190.234375"/>
      <use xlink:href="#DejaVuSans-66" x="225.439453"/>
      <use xlink:href="#DejaVuSans-6c" x="260.644531"/>
      <use xlink:href="#DejaVuSans-65" x="288.427734"/>
      <use xlink:href="#DejaVuSans-3a" x="349.951172"/>
      <use xlink:href="#DejaVuSans-20" x="383.642578"/>
      <use xlink:href="#DejaVuSans-33" x="415.429688"/>
     </g>
    </g>
    <g id="patch_11">
     <path d="M 362.892 162.531562 
L 382.892 162.531562 
L 382.892 155.531562 
L 362.892 155.531562 
z
" style="fill: #666666; stroke: #000000; stroke-width: 0.8; stroke-linejoin: miter"/>
    </g>
    <g id="text_10">
     <!-- Shuffle: 4 -->
     <g transform="translate(390.892 162.531562) scale(0.1 -0.1)">
      <use xlink:href="#DejaVuSans-53"/>
      <use xlink:href="#DejaVuSans-68" x="63.476562"/>
      <use xlink:href="#DejaVuSans-75" x="126.855469"/>
      <use xlink:href="#DejaVuSans-66" x="190.234375"/>
      <use xlink:href="#DejaVuSans-66" x="225.439453"/>
      <use xlink:href="#DejaVuSans-6c" x="260.644531"/>
      <use xlink:href="#DejaVuSans-65" x="288.427734"/>
      <use xlink:href="#DejaVuSans-3a" x="349.951172"/>
      <use xlink:href="#DejaVuSans-20" x="383.642578"/>
      <use xlink:href="#DejaVuSans-34" x="415.429688"/>
     </g>
    </g>
    <g id="patch_12">
     <path d="M 362.892 177.209687 
L 382.892 177.209687 
L 382.892 170.209687 
L 362.892 170.209687 
z
" style="fill: #808080; stroke: #000000; stroke-width: 0.8; stroke-linejoin: miter"/>
    </g>
    <g id="text_11">
     <!-- Shuffle: 5 -->
     <g transform="translate(390.892 177.209687) scale(0.1 -0.1)">
      <defs>
       <path id="DejaVuSans-35" d="M 691 4666 
L 3169 4666 
L 3169 4134 
L 1269 4134 
L 1269 2991 
Q 1406 3038 1543 3061 
Q 1681 3084 1819 3084 
Q 2600 3084 3056 2656 
Q 3513 2228 3513 1497 
Q 3513 744 3044 326 
Q 2575 -91 1722 -91 
Q 1428 -91 1123 -41 
Q 819 9 494 109 
L 494 744 
Q 775 591 1075 516 
Q 1375 441 1709 441 
Q 2250 441 2565 725 
Q 2881 1009 2881 1497 
Q 2881 1984 2565 2268 
Q 2250 2553 1709 2553 
Q 1456 2553 1204 2497 
Q 953 2441 691 2322 
L 691 4666 
z
" transform="scale(0.015625)"/>
      </defs>
      <use xlink:href="#DejaVuSans-53"/>
      <use xlink:href="#DejaVuSans-68" x="63.476562"/>
      <use xlink:href="#DejaVuSans-75" x="126.855469"/>
      <use xlink:href="#DejaVuSans-66" x="190.234375"/>
      <use xlink:href="#DejaVuSans-66" x="225.439453"/>
      <use xlink:href="#DejaVuSans-6c" x="260.644531"/>
      <use xlink:href="#DejaVuSans-65" x="288.427734"/>
      <use xlink:href="#DejaVuSans-3a" x="349.951172"/>
      <use xlink:href="#DejaVuSans-20" x="383.642578"/>
      <use xlink:href="#DejaVuSans-35" x="415.429688"/>
     </g>
    </g>
    <g id="patch_13">
     <path d="M 362.892 191.887812 
L 382.892 191.887812 
L 382.892 184.887812 
L 362.892 184.887812 
z
" style="fill: #999999; stroke: #000000; stroke-width: 0.8; stroke-linejoin: miter"/>
    </g>
    <g id="text_12">
     <!-- Shuffle: 6 -->
     <g transform="translate(390.892 191.887812) scale(0.1 -0.1)">
      <use xlink:href="#DejaVuSans-53"/>
      <use xlink:href="#DejaVuSans-68" x="63.476562"/>
      <use xlink:href="#DejaVuSans-75" x="126.855469"/>
      <use xlink:href="#DejaVuSans-66" x="190.234375"/>
      <use xlink:href="#DejaVuSans-66" x="225.439453"/>
      <use xlink:href="#DejaVuSans-6c" x="260.644531"/>
      <use xlink:href="#DejaVuSans-65" x="288.427734"/>
      <use xlink:href="#DejaVuSans-3a" x="349.951172"/>
      <use xlink:href="#DejaVuSans-20" x="383.642578"/>
      <use xlink:href="#DejaVuSans-36" x="415.429688"/>
     </g>
    </g>
    <g id="patch_14">
     <path d="M 362.892 206.565937 
L 382.892 206.565937 
L 382.892 199.565937 
L 362.892 199.565937 
z
" style="fill: #b2b2b2; stroke: #000000; stroke-width: 0.8; stroke-linejoin: miter"/>
    </g>
    <g id="text_13">
     <!-- Shuffle: 7 -->
     <g transform="translate(390.892 206.565937) scale(0.1 -0.1)">
      <defs>
       <path id="DejaVuSans-37" d="M 525 4666 
L 3525 4666 
L 3525 4397 
L 1831 0 
L 1172 0 
L 2766 4134 
L 525 4134 
L 525 4666 
z
" transform="scale(0.015625)"/>
      </defs>
      <use xlink:href="#DejaVuSans-53"/>
      <use xlink:href="#DejaVuSans-68" x="63.476562"/>
      <use xlink:href="#DejaVuSans-75" x="126.855469"/>
      <use xlink:href="#DejaVuSans-66" x="190.234375"/>
      <use xlink:href="#DejaVuSans-66" x="225.439453"/>
      <use xlink:href="#DejaVuSans-6c" x="260.644531"/>
      <use xlink:href="#DejaVuSans-65" x="288.427734"/>
      <use xlink:href="#DejaVuSans-3a" x="349.951172"/>
      <use xlink:href="#DejaVuSans-20" x="383.642578"/>
      <use xlink:href="#DejaVuSans-37" x="415.429688"/>
     </g>
    </g>
    <g id="patch_15">
     <path d="M 362.892 221.244062 
L 382.892 221.244062 
L 382.892 214.244062 
L 362.892 214.244062 
z
" style="fill: #cccccc; stroke: #000000; stroke-width: 0.8; stroke-linejoin: miter"/>
    </g>
    <g id="text_14">
     <!-- Shuffle: 8 -->
     <g transform="translate(390.892 221.244062) scale(0.1 -0.1)">
      <use xlink:href="#DejaVuSans-53"/>
      <use xlink:href="#DejaVuSans-68" x="63.476562"/>
      <use xlink:href="#DejaVuSans-75" x="126.855469"/>
      <use xlink:href="#DejaVuSans-66" x="190.234375"/>
      <use xlink:href="#DejaVuSans-66" x="225.439453"/>
      <use xlink:href="#DejaVuSans-6c" x="260.644531"/>
      <use xlink:href="#DejaVuSans-65" x="288.427734"/>
      <use xlink:href="#DejaVuSans-3a" x="349.951172"/>
      <use xlink:href="#DejaVuSans-20" x="383.642578"/>
      <use xlink:href="#DejaVuSans-38" x="415.429688"/>
     </g>
    </g>
    <g id="patch_16">
     <path d="M 362.892 235.922187 
L 382.892 235.922187 
L 382.892 228.922187 
L 362.892 228.922187 
z
" style="fill: #e6e6e6; stroke: #000000; stroke-width: 0.8; stroke-linejoin: miter"/>
    </g>
    <g id="text_15">
     <!-- Shuffle: 9 -->
     <g transform="translate(390.892 235.922187) scale(0.1 -0.1)">
      <defs>
       <path id="DejaVuSans-39" d="M 703 97 
L 703 672 
Q 941 559 1184 500 
Q 1428 441 1663 441 
Q 2288 441 2617 861 
Q 2947 1281 2994 2138 
Q 2813 1869 2534 1725 
Q 2256 1581 1919 1581 
Q 1219 1581 811 2004 
Q 403 2428 403 3163 
Q 403 3881 828 4315 
Q 1253 4750 1959 4750 
Q 2769 4750 3195 4129 
Q 3622 3509 3622 2328 
Q 3622 1225 3098 567 
Q 2575 -91 1691 -91 
Q 1453 -91 1209 -44 
Q 966 3 703 97 
z
M 1959 2075 
Q 2384 2075 2632 2365 
Q 2881 2656 2881 3163 
Q 2881 3666 2632 3958 
Q 2384 4250 1959 4250 
Q 1534 4250 1286 3958 
Q 1038 3666 1038 3163 
Q 1038 2656 1286 2365 
Q 1534 2075 1959 2075 
z
" transform="scale(0.015625)"/>
      </defs>
      <use xlink:href="#DejaVuSans-53"/>
      <use xlink:href="#DejaVuSans-68" x="63.476562"/>
      <use xlink:href="#DejaVuSans-75" x="126.855469"/>
      <use xlink:href="#DejaVuSans-66" x="190.234375"/>
      <use xlink:href="#DejaVuSans-66" x="225.439453"/>
      <use xlink:href="#DejaVuSans-6c" x="260.644531"/>
      <use xlink:href="#DejaVuSans-65" x="288.427734"/>
      <use xlink:href="#DejaVuSans-3a" x="349.951172"/>
      <use xlink:href="#DejaVuSans-20" x="383.642578"/>
      <use xlink:href="#DejaVuSans-39" x="415.429688"/>
     </g>
    </g>
    <g id="patch_17">
     <path d="M 362.892 250.600312 
L 382.892 250.600312 
L 382.892 243.600312 
L 362.892 243.600312 
z
" style="fill: #ffffff; stroke: #000000; stroke-width: 0.8; stroke-linejoin: miter"/>
    </g>
    <g id="text_16">
     <!-- Shuffle: 10 -->
     <g transform="translate(390.892 250.600312) scale(0.1 -0.1)">
      <use xlink:href="#DejaVuSans-53"/>
      <use xlink:href="#DejaVuSans-68" x="63.476562"/>
      <use xlink:href="#DejaVuSans-75" x="126.855469"/>
      <use xlink:href="#DejaVuSans-66" x="190.234375"/>
      <use xlink:href="#DejaVuSans-66" x="225.439453"/>
      <use xlink:href="#DejaVuSans-6c" x="260.644531"/>
      <use xlink:href="#DejaVuSans-65" x="288.427734"/>
      <use xlink:href="#DejaVuSans-3a" x="349.951172"/>
      <use xlink:href="#DejaVuSans-20" x="383.642578"/>
      <use xlink:href="#DejaVuSans-31" x="415.429688"/>
      <use xlink:href="#DejaVuSans-30" x="479.052734"/>
     </g>
    </g>
   </g>
  </g>
 </g>
 <defs>
  <clipPath id="p633235ef61">
   <rect x="10.7" y="7.2" width="334.8" height="332.64"/>
  </clipPath>
 </defs>
</svg>
