<?xml version="1.0" encoding="utf-8" standalone="no"?>
<!DOCTYPE svg PUBLIC "-//W3C//DTD SVG 1.1//EN"
  "http://www.w3.org/Graphics/SVG/1.1/DTD/svg11.dtd">
<svg xmlns:xlink="http://www.w3.org/1999/xlink" width="456.359187pt" height="377.39625pt" viewBox="0 0 456.359187 377.39625" xmlns="http://www.w3.org/2000/svg" version="1.1">
 <metadata>
  <rdf:RDF xmlns:dc="http://purl.org/dc/elements/1.1/" xmlns:cc="http://creativecommons.org/ns#" xmlns:rdf="http://www.w3.org/1999/02/22-rdf-syntax-ns#">
   <cc:Work>
    <dc:type rdf:resource="http://purl.org/dc/dcmitype/StillImage"/>
    <dc:date>2023-06-12T21:30:07.362561</dc:date>
    <dc:format>image/svg+xml</dc:format>
    <dc:creator>
     <cc:Agent>
      <dc:title>Matplotlib v3.6.0, https://matplotlib.org/</dc:title>
     </cc:Agent>
    </dc:creator>
   </cc:Work>
  </rdf:RDF>
 </metadata>
 <defs>
  <style type="text/css">*{stroke-linejoin: round; stroke-linecap: butt}</style>
 </defs>
 <g id="figure_1">
  <g id="patch_1">
   <path d="M 0 377.39625 
L 456.359187 377.39625 
L 456.359187 0 
L 0 0 
z
" style="fill: #ffffff"/>
  </g>
  <g id="axes_1">
   <g id="patch_2">
    <path d="M 10.7 339.84 
L 345.5 339.84 
L 345.5 7.2 
L 10.7 7.2 
z
" style="fill: #ffffff"/>
   </g>
   <g id="PolyCollection_1">
    <defs>
     <path id="m1e572c70dc" d="M 10.7 -37.55625 
L 10.7 -136.707395 
L 14.081818 -136.707395 
L 17.463636 -136.707395 
L 20.845455 -136.707395 
L 24.227273 -136.707395 
L 27.609091 -136.707395 
L 30.990909 -136.707395 
L 34.372727 -136.707395 
L 37.754545 -136.707395 
L 41.136364 -136.707395 
L 44.518182 -136.707395 
L 47.9 -136.707395 
L 51.281818 -136.707395 
L 54.663636 -136.707395 
L 58.045455 -136.707395 
L 61.427273 -136.707395 
L 64.809091 -136.707395 
L 68.190909 -136.707395 
L 71.572727 -136.707395 
L 74.954545 -136.707395 
L 78.336364 -136.707395 
L 81.718182 -136.707395 
L 85.1 -136.707395 
L 88.481818 -136.707395 
L 91.863636 -136.707395 
L 95.245455 -136.707395 
L 98.627273 -136.707395 
L 102.009091 -136.707395 
L 105.390909 -136.707395 
L 108.772727 -136.707395 
L 112.154545 -136.707395 
L 115.536364 -136.707395 
L 118.918182 -136.707395 
L 122.3 -136.707395 
L 125.681818 -136.707395 
L 129.063636 -136.707395 
L 132.445455 -136.707395 
L 135.827273 -136.707395 
L 139.209091 -136.707395 
L 142.590909 -136.707395 
L 145.972727 -136.707395 
L 149.354545 -136.707395 
L 152.736364 -136.707395 
L 156.118182 -136.707395 
L 159.5 -136.707395 
L 162.881818 -136.707395 
L 166.263636 -136.707395 
L 169.645455 -136.707395 
L 173.027273 -136.707395 
L 176.409091 -136.707395 
L 179.790909 -136.707395 
L 183.172727 -136.707395 
L 186.554545 -136.707395 
L 189.936364 -136.707395 
L 193.318182 -136.707395 
L 196.7 -136.707395 
L 200.081818 -136.707395 
L 203.463636 -136.707395 
L 206.845455 -136.707395 
L 210.227273 -136.707395 
L 213.609091 -136.707395 
L 216.990909 -136.707395 
L 220.372727 -136.707395 
L 223.754545 -136.707395 
L 227.136364 -136.707395 
L 230.518182 -136.707395 
L 233.9 -136.707395 
L 237.281818 -136.707395 
L 240.663636 -136.707395 
L 244.045455 -136.707395 
L 247.427273 -136.707395 
L 250.809091 -136.707395 
L 254.190909 -136.707395 
L 257.572727 -136.707395 
L 260.954545 -136.707395 
L 264.336364 -136.707395 
L 267.718182 -136.707395 
L 271.1 -136.707395 
L 274.481818 -136.707395 
L 277.863636 -136.707395 
L 281.245455 -136.707395 
L 284.627273 -136.707395 
L 288.009091 -136.707395 
L 291.390909 -142.753197 
L 294.772727 -136.707395 
L 298.154545 -142.753197 
L 301.536364 -142.753197 
L 304.918182 -142.753197 
L 308.3 -160.890601 
L 311.681818 -154.8448 
L 315.063636 -172.982204 
L 318.445455 -172.982204 
L 321.827273 -179.028006 
L 325.209091 -172.982204 
L 328.590909 -239.486021 
L 331.972727 -227.394418 
L 335.354545 -233.440219 
L 338.736364 -293.898235 
L 342.118182 -245.531823 
L 345.5 -354.35625 
L 345.5 -37.55625 
L 345.5 -37.55625 
L 342.118182 -37.55625 
L 338.736364 -37.55625 
L 335.354545 -37.55625 
L 331.972727 -37.55625 
L 328.590909 -37.55625 
L 325.209091 -37.55625 
L 321.827273 -37.55625 
L 318.445455 -37.55625 
L 315.063636 -37.55625 
L 311.681818 -37.55625 
L 308.3 -37.55625 
L 304.918182 -37.55625 
L 301.536364 -37.55625 
L 298.154545 -37.55625 
L 294.772727 -37.55625 
L 291.390909 -37.55625 
L 288.009091 -37.55625 
L 284.627273 -37.55625 
L 281.245455 -37.55625 
L 277.863636 -37.55625 
L 274.481818 -37.55625 
L 271.1 -37.55625 
L 267.718182 -37.55625 
L 264.336364 -37.55625 
L 260.954545 -37.55625 
L 257.572727 -37.55625 
L 254.190909 -37.55625 
L 250.809091 -37.55625 
L 247.427273 -37.55625 
L 244.045455 -37.55625 
L 240.663636 -37.55625 
L 237.281818 -37.55625 
L 233.9 -37.55625 
L 230.518182 -37.55625 
L 227.136364 -37.55625 
L 223.754545 -37.55625 
L 220.372727 -37.55625 
L 216.990909 -37.55625 
L 213.609091 -37.55625 
L 210.227273 -37.55625 
L 206.845455 -37.55625 
L 203.463636 -37.55625 
L 200.081818 -37.55625 
L 196.7 -37.55625 
L 193.318182 -37.55625 
L 189.936364 -37.55625 
L 186.554545 -37.55625 
L 183.172727 -37.55625 
L 179.790909 -37.55625 
L 176.409091 -37.55625 
L 173.027273 -37.55625 
L 169.645455 -37.55625 
L 166.263636 -37.55625 
L 162.881818 -37.55625 
L 159.5 -37.55625 
L 156.118182 -37.55625 
L 152.736364 -37.55625 
L 149.354545 -37.55625 
L 145.972727 -37.55625 
L 142.590909 -37.55625 
L 139.209091 -37.55625 
L 135.827273 -37.55625 
L 132.445455 -37.55625 
L 129.063636 -37.55625 
L 125.681818 -37.55625 
L 122.3 -37.55625 
L 118.918182 -37.55625 
L 115.536364 -37.55625 
L 112.154545 -37.55625 
L 108.772727 -37.55625 
L 105.390909 -37.55625 
L 102.009091 -37.55625 
L 98.627273 -37.55625 
L 95.245455 -37.55625 
L 91.863636 -37.55625 
L 88.481818 -37.55625 
L 85.1 -37.55625 
L 81.718182 -37.55625 
L 78.336364 -37.55625 
L 74.954545 -37.55625 
L 71.572727 -37.55625 
L 68.190909 -37.55625 
L 64.809091 -37.55625 
L 61.427273 -37.55625 
L 58.045455 -37.55625 
L 54.663636 -37.55625 
L 51.281818 -37.55625 
L 47.9 -37.55625 
L 44.518182 -37.55625 
L 41.136364 -37.55625 
L 37.754545 -37.55625 
L 34.372727 -37.55625 
L 30.990909 -37.55625 
L 27.609091 -37.55625 
L 24.227273 -37.55625 
L 20.845455 -37.55625 
L 17.463636 -37.55625 
L 14.081818 -37.55625 
L 10.7 -37.55625 
z
" style="stroke: #000000; stroke-width: 0.8"/>
    </defs>
    <g clip-path="url(#pdb95f2ab37)">
     <use xlink:href="#m1e572c70dc" x="0" y="377.39625" style="fill: #1a1a1a; stroke: #000000; stroke-width: 0.8"/>
    </g>
   </g>
   <g id="PolyCollection_2">
    <defs>
     <path id="m850f082245" d="M 10.7 -37.55625 
L 10.7 -126.792281 
L 14.081818 -126.792281 
L 17.463636 -126.792281 
L 20.845455 -126.792281 
L 24.227273 -126.792281 
L 27.609091 -126.792281 
L 30.990909 -126.792281 
L 34.372727 -126.792281 
L 37.754545 -126.792281 
L 41.136364 -126.792281 
L 44.518182 -126.792281 
L 47.9 -126.792281 
L 51.281818 -126.792281 
L 54.663636 -126.792281 
L 58.045455 -126.792281 
L 61.427273 -126.792281 
L 64.809091 -126.792281 
L 68.190909 -126.792281 
L 71.572727 -126.792281 
L 74.954545 -126.792281 
L 78.336364 -126.792281 
L 81.718182 -126.792281 
L 85.1 -126.792281 
L 88.481818 -126.792281 
L 91.863636 -126.792281 
L 95.245455 -126.792281 
L 98.627273 -126.792281 
L 102.009091 -126.792281 
L 105.390909 -126.792281 
L 108.772727 -126.792281 
L 112.154545 -126.792281 
L 115.536364 -126.792281 
L 118.918182 -126.792281 
L 122.3 -126.792281 
L 125.681818 -126.792281 
L 129.063636 -126.792281 
L 132.445455 -126.792281 
L 135.827273 -126.792281 
L 139.209091 -126.792281 
L 142.590909 -126.792281 
L 145.972727 -126.792281 
L 149.354545 -126.792281 
L 152.736364 -126.792281 
L 156.118182 -126.792281 
L 159.5 -126.792281 
L 162.881818 -126.792281 
L 166.263636 -126.792281 
L 169.645455 -126.792281 
L 173.027273 -126.792281 
L 176.409091 -126.792281 
L 179.790909 -126.792281 
L 183.172727 -126.792281 
L 186.554545 -126.792281 
L 189.936364 -126.792281 
L 193.318182 -126.792281 
L 196.7 -126.792281 
L 200.081818 -126.792281 
L 203.463636 -126.792281 
L 206.845455 -126.792281 
L 210.227273 -126.792281 
L 213.609091 -126.792281 
L 216.990909 -126.792281 
L 220.372727 -126.792281 
L 223.754545 -126.792281 
L 227.136364 -126.792281 
L 230.518182 -126.792281 
L 233.9 -126.792281 
L 237.281818 -132.950737 
L 240.663636 -126.792281 
L 244.045455 -132.950737 
L 247.427273 -126.792281 
L 250.809091 -126.792281 
L 254.190909 -145.267649 
L 257.572727 -139.109193 
L 260.954545 -132.950737 
L 264.336364 -132.950737 
L 267.718182 -139.109193 
L 271.1 -132.950737 
L 274.481818 -139.109193 
L 277.863636 -145.267649 
L 281.245455 -163.743018 
L 284.627273 -151.426105 
L 288.009091 -151.426105 
L 291.390909 -169.901474 
L 294.772727 -126.792281 
L 298.154545 -169.901474 
L 301.536364 -176.05993 
L 304.918182 -176.05993 
L 308.3 -176.05993 
L 311.681818 -200.693755 
L 315.063636 -176.05993 
L 318.445455 -188.376843 
L 321.827273 -169.901474 
L 325.209091 -182.218386 
L 328.590909 -200.693755 
L 331.972727 -176.05993 
L 335.354545 -176.05993 
L 338.736364 -176.05993 
L 342.118182 -151.426105 
L 345.5 -163.743018 
L 345.5 -37.55625 
L 345.5 -37.55625 
L 342.118182 -37.55625 
L 338.736364 -37.55625 
L 335.354545 -37.55625 
L 331.972727 -37.55625 
L 328.590909 -37.55625 
L 325.209091 -37.55625 
L 321.827273 -37.55625 
L 318.445455 -37.55625 
L 315.063636 -37.55625 
L 311.681818 -37.55625 
L 308.3 -37.55625 
L 304.918182 -37.55625 
L 301.536364 -37.55625 
L 298.154545 -37.55625 
L 294.772727 -37.55625 
L 291.390909 -37.55625 
L 288.009091 -37.55625 
L 284.627273 -37.55625 
L 281.245455 -37.55625 
L 277.863636 -37.55625 
L 274.481818 -37.55625 
L 271.1 -37.55625 
L 267.718182 -37.55625 
L 264.336364 -37.55625 
L 260.954545 -37.55625 
L 257.572727 -37.55625 
L 254.190909 -37.55625 
L 250.809091 -37.55625 
L 247.427273 -37.55625 
L 244.045455 -37.55625 
L 240.663636 -37.55625 
L 237.281818 -37.55625 
L 233.9 -37.55625 
L 230.518182 -37.55625 
L 227.136364 -37.55625 
L 223.754545 -37.55625 
L 220.372727 -37.55625 
L 216.990909 -37.55625 
L 213.609091 -37.55625 
L 210.227273 -37.55625 
L 206.845455 -37.55625 
L 203.463636 -37.55625 
L 200.081818 -37.55625 
L 196.7 -37.55625 
L 193.318182 -37.55625 
L 189.936364 -37.55625 
L 186.554545 -37.55625 
L 183.172727 -37.55625 
L 179.790909 -37.55625 
L 176.409091 -37.55625 
L 173.027273 -37.55625 
L 169.645455 -37.55625 
L 166.263636 -37.55625 
L 162.881818 -37.55625 
L 159.5 -37.55625 
L 156.118182 -37.55625 
L 152.736364 -37.55625 
L 149.354545 -37.55625 
L 145.972727 -37.55625 
L 142.590909 -37.55625 
L 139.209091 -37.55625 
L 135.827273 -37.55625 
L 132.445455 -37.55625 
L 129.063636 -37.55625 
L 125.681818 -37.55625 
L 122.3 -37.55625 
L 118.918182 -37.55625 
L 115.536364 -37.55625 
L 112.154545 -37.55625 
L 108.772727 -37.55625 
L 105.390909 -37.55625 
L 102.009091 -37.55625 
L 98.627273 -37.55625 
L 95.245455 -37.55625 
L 91.863636 -37.55625 
L 88.481818 -37.55625 
L 85.1 -37.55625 
L 81.718182 -37.55625 
L 78.336364 -37.55625 
L 74.954545 -37.55625 
L 71.572727 -37.55625 
L 68.190909 -37.55625 
L 64.809091 -37.55625 
L 61.427273 -37.55625 
L 58.045455 -37.55625 
L 54.663636 -37.55625 
L 51.281818 -37.55625 
L 47.9 -37.55625 
L 44.518182 -37.55625 
L 41.136364 -37.55625 
L 37.754545 -37.55625 
L 34.372727 -37.55625 
L 30.990909 -37.55625 
L 27.609091 -37.55625 
L 24.227273 -37.55625 
L 20.845455 -37.55625 
L 17.463636 -37.55625 
L 14.081818 -37.55625 
L 10.7 -37.55625 
z
" style="stroke: #000000; stroke-width: 0.8"/>
    </defs>
    <g clip-path="url(#pdb95f2ab37)">
     <use xlink:href="#m850f082245" x="0" y="377.39625" style="fill: #333333; stroke: #000000; stroke-width: 0.8"/>
    </g>
   </g>
   <g id="PolyCollection_3">
    <defs>
     <path id="mff6de2b160" d="M 10.7 -37.55625 
L 10.7 -116.877166 
L 14.081818 -116.877166 
L 17.463636 -116.877166 
L 20.845455 -116.877166 
L 24.227273 -116.877166 
L 27.609091 -116.877166 
L 30.990909 -116.877166 
L 34.372727 -116.877166 
L 37.754545 -116.877166 
L 41.136364 -116.877166 
L 44.518182 -116.877166 
L 47.9 -116.877166 
L 51.281818 -116.877166 
L 54.663636 -116.877166 
L 58.045455 -116.877166 
L 61.427273 -116.877166 
L 64.809091 -116.877166 
L 68.190909 -116.877166 
L 71.572727 -116.877166 
L 74.954545 -116.877166 
L 78.336364 -116.877166 
L 81.718182 -116.877166 
L 85.1 -116.877166 
L 88.481818 -116.877166 
L 91.863636 -116.877166 
L 95.245455 -116.877166 
L 98.627273 -116.877166 
L 102.009091 -116.877166 
L 105.390909 -116.877166 
L 108.772727 -116.877166 
L 112.154545 -116.877166 
L 115.536364 -116.877166 
L 118.918182 -116.877166 
L 122.3 -123.152555 
L 125.681818 -116.877166 
L 129.063636 -123.152555 
L 132.445455 -116.877166 
L 135.827273 -116.877166 
L 139.209091 -116.877166 
L 142.590909 -116.877166 
L 145.972727 -123.152555 
L 149.354545 -129.427944 
L 152.736364 -123.152555 
L 156.118182 -116.877166 
L 159.5 -116.877166 
L 162.881818 -123.152555 
L 166.263636 -123.152555 
L 169.645455 -116.877166 
L 173.027273 -123.152555 
L 176.409091 -116.877166 
L 179.790909 -116.877166 
L 183.172727 -129.427944 
L 186.554545 -123.152555 
L 189.936364 -123.152555 
L 193.318182 -123.152555 
L 196.7 -123.152555 
L 200.081818 -123.152555 
L 203.463636 -135.703333 
L 206.845455 -135.703333 
L 210.227273 -116.877166 
L 213.609091 -141.978722 
L 216.990909 -129.427944 
L 220.372727 -148.254111 
L 223.754545 -116.877166 
L 227.136364 -129.427944 
L 230.518182 -116.877166 
L 233.9 -129.427944 
L 237.281818 -123.152555 
L 240.663636 -141.978722 
L 244.045455 -135.703333 
L 247.427273 -129.427944 
L 250.809091 -154.5295 
L 254.190909 -129.427944 
L 257.572727 -173.355666 
L 260.954545 -129.427944 
L 264.336364 -135.703333 
L 267.718182 -148.254111 
L 271.1 -141.978722 
L 274.481818 -148.254111 
L 277.863636 -129.427944 
L 281.245455 -148.254111 
L 284.627273 -148.254111 
L 288.009091 -141.978722 
L 291.390909 -173.355666 
L 294.772727 -148.254111 
L 298.154545 -154.5295 
L 301.536364 -141.978722 
L 304.918182 -129.427944 
L 308.3 -148.254111 
L 311.681818 -154.5295 
L 315.063636 -148.254111 
L 318.445455 -129.427944 
L 321.827273 -135.703333 
L 325.209091 -135.703333 
L 328.590909 -135.703333 
L 331.972727 -116.877166 
L 335.354545 -129.427944 
L 338.736364 -129.427944 
L 342.118182 -123.152555 
L 345.5 -123.152555 
L 345.5 -37.55625 
L 345.5 -37.55625 
L 342.118182 -37.55625 
L 338.736364 -37.55625 
L 335.354545 -37.55625 
L 331.972727 -37.55625 
L 328.590909 -37.55625 
L 325.209091 -37.55625 
L 321.827273 -37.55625 
L 318.445455 -37.55625 
L 315.063636 -37.55625 
L 311.681818 -37.55625 
L 308.3 -37.55625 
L 304.918182 -37.55625 
L 301.536364 -37.55625 
L 298.154545 -37.55625 
L 294.772727 -37.55625 
L 291.390909 -37.55625 
L 288.009091 -37.55625 
L 284.627273 -37.55625 
L 281.245455 -37.55625 
L 277.863636 -37.55625 
L 274.481818 -37.55625 
L 271.1 -37.55625 
L 267.718182 -37.55625 
L 264.336364 -37.55625 
L 260.954545 -37.55625 
L 257.572727 -37.55625 
L 254.190909 -37.55625 
L 250.809091 -37.55625 
L 247.427273 -37.55625 
L 244.045455 -37.55625 
L 240.663636 -37.55625 
L 237.281818 -37.55625 
L 233.9 -37.55625 
L 230.518182 -37.55625 
L 227.136364 -37.55625 
L 223.754545 -37.55625 
L 220.372727 -37.55625 
L 216.990909 -37.55625 
L 213.609091 -37.55625 
L 210.227273 -37.55625 
L 206.845455 -37.55625 
L 203.463636 -37.55625 
L 200.081818 -37.55625 
L 196.7 -37.55625 
L 193.318182 -37.55625 
L 189.936364 -37.55625 
L 186.554545 -37.55625 
L 183.172727 -37.55625 
L 179.790909 -37.55625 
L 176.409091 -37.55625 
L 173.027273 -37.55625 
L 169.645455 -37.55625 
L 166.263636 -37.55625 
L 162.881818 -37.55625 
L 159.5 -37.55625 
L 156.118182 -37.55625 
L 152.736364 -37.55625 
L 149.354545 -37.55625 
L 145.972727 -37.55625 
L 142.590909 -37.55625 
L 139.209091 -37.55625 
L 135.827273 -37.55625 
L 132.445455 -37.55625 
L 129.063636 -37.55625 
L 125.681818 -37.55625 
L 122.3 -37.55625 
L 118.918182 -37.55625 
L 115.536364 -37.55625 
L 112.154545 -37.55625 
L 108.772727 -37.55625 
L 105.390909 -37.55625 
L 102.009091 -37.55625 
L 98.627273 -37.55625 
L 95.245455 -37.55625 
L 91.863636 -37.55625 
L 88.481818 -37.55625 
L 85.1 -37.55625 
L 81.718182 -37.55625 
L 78.336364 -37.55625 
L 74.954545 -37.55625 
L 71.572727 -37.55625 
L 68.190909 -37.55625 
L 64.809091 -37.55625 
L 61.427273 -37.55625 
L 58.045455 -37.55625 
L 54.663636 -37.55625 
L 51.281818 -37.55625 
L 47.9 -37.55625 
L 44.518182 -37.55625 
L 41.136364 -37.55625 
L 37.754545 -37.55625 
L 34.372727 -37.55625 
L 30.990909 -37.55625 
L 27.609091 -37.55625 
L 24.227273 -37.55625 
L 20.845455 -37.55625 
L 17.463636 -37.55625 
L 14.081818 -37.55625 
L 10.7 -37.55625 
z
" style="stroke: #000000; stroke-width: 0.8"/>
    </defs>
    <g clip-path="url(#pdb95f2ab37)">
     <use xlink:href="#mff6de2b160" x="0" y="377.39625" style="fill: #4c4c4c; stroke: #000000; stroke-width: 0.8"/>
    </g>
   </g>
   <g id="PolyCollection_4">
    <defs>
     <path id="mf372d83495" d="M 10.7 -37.55625 
L 10.7 -106.962052 
L 14.081818 -113.3589 
L 17.463636 -119.755748 
L 20.845455 -106.962052 
L 24.227273 -106.962052 
L 27.609091 -113.3589 
L 30.990909 -106.962052 
L 34.372727 -106.962052 
L 37.754545 -113.3589 
L 41.136364 -106.962052 
L 44.518182 -113.3589 
L 47.9 -106.962052 
L 51.281818 -119.755748 
L 54.663636 -119.755748 
L 58.045455 -106.962052 
L 61.427273 -119.755748 
L 64.809091 -113.3589 
L 68.190909 -106.962052 
L 71.572727 -113.3589 
L 74.954545 -113.3589 
L 78.336364 -119.755748 
L 81.718182 -119.755748 
L 85.1 -119.755748 
L 88.481818 -119.755748 
L 91.863636 -113.3589 
L 95.245455 -106.962052 
L 98.627273 -113.3589 
L 102.009091 -113.3589 
L 105.390909 -106.962052 
L 108.772727 -106.962052 
L 112.154545 -113.3589 
L 115.536364 -126.152596 
L 118.918182 -106.962052 
L 122.3 -113.3589 
L 125.681818 -106.962052 
L 129.063636 -119.755748 
L 132.445455 -113.3589 
L 135.827273 -126.152596 
L 139.209091 -113.3589 
L 142.590909 -113.3589 
L 145.972727 -113.3589 
L 149.354545 -126.152596 
L 152.736364 -113.3589 
L 156.118182 -113.3589 
L 159.5 -119.755748 
L 162.881818 -119.755748 
L 166.263636 -126.152596 
L 169.645455 -106.962052 
L 173.027273 -132.549444 
L 176.409091 -119.755748 
L 179.790909 -106.962052 
L 183.172727 -126.152596 
L 186.554545 -106.962052 
L 189.936364 -126.152596 
L 193.318182 -132.549444 
L 196.7 -119.755748 
L 200.081818 -119.755748 
L 203.463636 -113.3589 
L 206.845455 -119.755748 
L 210.227273 -119.755748 
L 213.609091 -145.34314 
L 216.990909 -106.962052 
L 220.372727 -126.152596 
L 223.754545 -132.549444 
L 227.136364 -119.755748 
L 230.518182 -132.549444 
L 233.9 -126.152596 
L 237.281818 -113.3589 
L 240.663636 -138.946292 
L 244.045455 -113.3589 
L 247.427273 -119.755748 
L 250.809091 -113.3589 
L 254.190909 -132.549444 
L 257.572727 -119.755748 
L 260.954545 -119.755748 
L 264.336364 -119.755748 
L 267.718182 -119.755748 
L 271.1 -138.946292 
L 274.481818 -132.549444 
L 277.863636 -119.755748 
L 281.245455 -113.3589 
L 284.627273 -113.3589 
L 288.009091 -106.962052 
L 291.390909 -126.152596 
L 294.772727 -126.152596 
L 298.154545 -126.152596 
L 301.536364 -119.755748 
L 304.918182 -106.962052 
L 308.3 -119.755748 
L 311.681818 -113.3589 
L 315.063636 -106.962052 
L 318.445455 -106.962052 
L 321.827273 -113.3589 
L 325.209091 -106.962052 
L 328.590909 -106.962052 
L 331.972727 -113.3589 
L 335.354545 -113.3589 
L 338.736364 -119.755748 
L 342.118182 -113.3589 
L 345.5 -113.3589 
L 345.5 -37.55625 
L 345.5 -37.55625 
L 342.118182 -37.55625 
L 338.736364 -37.55625 
L 335.354545 -37.55625 
L 331.972727 -37.55625 
L 328.590909 -37.55625 
L 325.209091 -37.55625 
L 321.827273 -37.55625 
L 318.445455 -37.55625 
L 315.063636 -37.55625 
L 311.681818 -37.55625 
L 308.3 -37.55625 
L 304.918182 -37.55625 
L 301.536364 -37.55625 
L 298.154545 -37.55625 
L 294.772727 -37.55625 
L 291.390909 -37.55625 
L 288.009091 -37.55625 
L 284.627273 -37.55625 
L 281.245455 -37.55625 
L 277.863636 -37.55625 
L 274.481818 -37.55625 
L 271.1 -37.55625 
L 267.718182 -37.55625 
L 264.336364 -37.55625 
L 260.954545 -37.55625 
L 257.572727 -37.55625 
L 254.190909 -37.55625 
L 250.809091 -37.55625 
L 247.427273 -37.55625 
L 244.045455 -37.55625 
L 240.663636 -37.55625 
L 237.281818 -37.55625 
L 233.9 -37.55625 
L 230.518182 -37.55625 
L 227.136364 -37.55625 
L 223.754545 -37.55625 
L 220.372727 -37.55625 
L 216.990909 -37.55625 
L 213.609091 -37.55625 
L 210.227273 -37.55625 
L 206.845455 -37.55625 
L 203.463636 -37.55625 
L 200.081818 -37.55625 
L 196.7 -37.55625 
L 193.318182 -37.55625 
L 189.936364 -37.55625 
L 186.554545 -37.55625 
L 183.172727 -37.55625 
L 179.790909 -37.55625 
L 176.409091 -37.55625 
L 173.027273 -37.55625 
L 169.645455 -37.55625 
L 166.263636 -37.55625 
L 162.881818 -37.55625 
L 159.5 -37.55625 
L 156.118182 -37.55625 
L 152.736364 -37.55625 
L 149.354545 -37.55625 
L 145.972727 -37.55625 
L 142.590909 -37.55625 
L 139.209091 -37.55625 
L 135.827273 -37.55625 
L 132.445455 -37.55625 
L 129.063636 -37.55625 
L 125.681818 -37.55625 
L 122.3 -37.55625 
L 118.918182 -37.55625 
L 115.536364 -37.55625 
L 112.154545 -37.55625 
L 108.772727 -37.55625 
L 105.390909 -37.55625 
L 102.009091 -37.55625 
L 98.627273 -37.55625 
L 95.245455 -37.55625 
L 91.863636 -37.55625 
L 88.481818 -37.55625 
L 85.1 -37.55625 
L 81.718182 -37.55625 
L 78.336364 -37.55625 
L 74.954545 -37.55625 
L 71.572727 -37.55625 
L 68.190909 -37.55625 
L 64.809091 -37.55625 
L 61.427273 -37.55625 
L 58.045455 -37.55625 
L 54.663636 -37.55625 
L 51.281818 -37.55625 
L 47.9 -37.55625 
L 44.518182 -37.55625 
L 41.136364 -37.55625 
L 37.754545 -37.55625 
L 34.372727 -37.55625 
L 30.990909 -37.55625 
L 27.609091 -37.55625 
L 24.227273 -37.55625 
L 20.845455 -37.55625 
L 17.463636 -37.55625 
L 14.081818 -37.55625 
L 10.7 -37.55625 
z
" style="stroke: #000000; stroke-width: 0.8"/>
    </defs>
    <g clip-path="url(#pdb95f2ab37)">
     <use xlink:href="#mf372d83495" x="0" y="377.39625" style="fill: #666666; stroke: #000000; stroke-width: 0.8"/>
    </g>
   </g>
   <g id="PolyCollection_5">
    <defs>
     <path id="m94aa94e660" d="M 10.7 -37.55625 
L 10.7 -103.570039 
L 14.081818 -97.046937 
L 17.463636 -103.570039 
L 20.845455 -103.570039 
L 24.227273 -110.09314 
L 27.609091 -110.09314 
L 30.990909 -116.616242 
L 34.372727 -123.139344 
L 37.754545 -97.046937 
L 41.136364 -103.570039 
L 44.518182 -116.616242 
L 47.9 -97.046937 
L 51.281818 -110.09314 
L 54.663636 -110.09314 
L 58.045455 -110.09314 
L 61.427273 -103.570039 
L 64.809091 -103.570039 
L 68.190909 -97.046937 
L 71.572727 -97.046937 
L 74.954545 -116.616242 
L 78.336364 -129.662445 
L 81.718182 -103.570039 
L 85.1 -103.570039 
L 88.481818 -110.09314 
L 91.863636 -97.046937 
L 95.245455 -103.570039 
L 98.627273 -103.570039 
L 102.009091 -129.662445 
L 105.390909 -97.046937 
L 108.772727 -110.09314 
L 112.154545 -116.616242 
L 115.536364 -103.570039 
L 118.918182 -103.570039 
L 122.3 -110.09314 
L 125.681818 -110.09314 
L 129.063636 -110.09314 
L 132.445455 -110.09314 
L 135.827273 -97.046937 
L 139.209091 -116.616242 
L 142.590909 -110.09314 
L 145.972727 -110.09314 
L 149.354545 -116.616242 
L 152.736364 -97.046937 
L 156.118182 -103.570039 
L 159.5 -116.616242 
L 162.881818 -103.570039 
L 166.263636 -110.09314 
L 169.645455 -110.09314 
L 173.027273 -110.09314 
L 176.409091 -103.570039 
L 179.790909 -110.09314 
L 183.172727 -103.570039 
L 186.554545 -110.09314 
L 189.936364 -110.09314 
L 193.318182 -116.616242 
L 196.7 -116.616242 
L 200.081818 -110.09314 
L 203.463636 -110.09314 
L 206.845455 -103.570039 
L 210.227273 -97.046937 
L 213.609091 -97.046937 
L 216.990909 -103.570039 
L 220.372727 -97.046937 
L 223.754545 -103.570039 
L 227.136364 -97.046937 
L 230.518182 -116.616242 
L 233.9 -116.616242 
L 237.281818 -110.09314 
L 240.663636 -116.616242 
L 244.045455 -97.046937 
L 247.427273 -110.09314 
L 250.809091 -97.046937 
L 254.190909 -103.570039 
L 257.572727 -123.139344 
L 260.954545 -103.570039 
L 264.336364 -110.09314 
L 267.718182 -97.046937 
L 271.1 -110.09314 
L 274.481818 -103.570039 
L 277.863636 -103.570039 
L 281.245455 -97.046937 
L 284.627273 -97.046937 
L 288.009091 -116.616242 
L 291.390909 -103.570039 
L 294.772727 -110.09314 
L 298.154545 -103.570039 
L 301.536364 -97.046937 
L 304.918182 -103.570039 
L 308.3 -97.046937 
L 311.681818 -110.09314 
L 315.063636 -97.046937 
L 318.445455 -97.046937 
L 321.827273 -129.662445 
L 325.209091 -103.570039 
L 328.590909 -110.09314 
L 331.972727 -103.570039 
L 335.354545 -110.09314 
L 338.736364 -103.570039 
L 342.118182 -103.570039 
L 345.5 -110.09314 
L 345.5 -37.55625 
L 345.5 -37.55625 
L 342.118182 -37.55625 
L 338.736364 -37.55625 
L 335.354545 -37.55625 
L 331.972727 -37.55625 
L 328.590909 -37.55625 
L 325.209091 -37.55625 
L 321.827273 -37.55625 
L 318.445455 -37.55625 
L 315.063636 -37.55625 
L 311.681818 -37.55625 
L 308.3 -37.55625 
L 304.918182 -37.55625 
L 301.536364 -37.55625 
L 298.154545 -37.55625 
L 294.772727 -37.55625 
L 291.390909 -37.55625 
L 288.009091 -37.55625 
L 284.627273 -37.55625 
L 281.245455 -37.55625 
L 277.863636 -37.55625 
L 274.481818 -37.55625 
L 271.1 -37.55625 
L 267.718182 -37.55625 
L 264.336364 -37.55625 
L 260.954545 -37.55625 
L 257.572727 -37.55625 
L 254.190909 -37.55625 
L 250.809091 -37.55625 
L 247.427273 -37.55625 
L 244.045455 -37.55625 
L 240.663636 -37.55625 
L 237.281818 -37.55625 
L 233.9 -37.55625 
L 230.518182 -37.55625 
L 227.136364 -37.55625 
L 223.754545 -37.55625 
L 220.372727 -37.55625 
L 216.990909 -37.55625 
L 213.609091 -37.55625 
L 210.227273 -37.55625 
L 206.845455 -37.55625 
L 203.463636 -37.55625 
L 200.081818 -37.55625 
L 196.7 -37.55625 
L 193.318182 -37.55625 
L 189.936364 -37.55625 
L 186.554545 -37.55625 
L 183.172727 -37.55625 
L 179.790909 -37.55625 
L 176.409091 -37.55625 
L 173.027273 -37.55625 
L 169.645455 -37.55625 
L 166.263636 -37.55625 
L 162.881818 -37.55625 
L 159.5 -37.55625 
L 156.118182 -37.55625 
L 152.736364 -37.55625 
L 149.354545 -37.55625 
L 145.972727 -37.55625 
L 142.590909 -37.55625 
L 139.209091 -37.55625 
L 135.827273 -37.55625 
L 132.445455 -37.55625 
L 129.063636 -37.55625 
L 125.681818 -37.55625 
L 122.3 -37.55625 
L 118.918182 -37.55625 
L 115.536364 -37.55625 
L 112.154545 -37.55625 
L 108.772727 -37.55625 
L 105.390909 -37.55625 
L 102.009091 -37.55625 
L 98.627273 -37.55625 
L 95.245455 -37.55625 
L 91.863636 -37.55625 
L 88.481818 -37.55625 
L 85.1 -37.55625 
L 81.718182 -37.55625 
L 78.336364 -37.55625 
L 74.954545 -37.55625 
L 71.572727 -37.55625 
L 68.190909 -37.55625 
L 64.809091 -37.55625 
L 61.427273 -37.55625 
L 58.045455 -37.55625 
L 54.663636 -37.55625 
L 51.281818 -37.55625 
L 47.9 -37.55625 
L 44.518182 -37.55625 
L 41.136364 -37.55625 
L 37.754545 -37.55625 
L 34.372727 -37.55625 
L 30.990909 -37.55625 
L 27.609091 -37.55625 
L 24.227273 -37.55625 
L 20.845455 -37.55625 
L 17.463636 -37.55625 
L 14.081818 -37.55625 
L 10.7 -37.55625 
z
" style="stroke: #000000; stroke-width: 0.8"/>
    </defs>
    <g clip-path="url(#pdb95f2ab37)">
     <use xlink:href="#m94aa94e660" x="0" y="377.39625" style="fill: #808080; stroke: #000000; stroke-width: 0.8"/>
    </g>
   </g>
   <g id="PolyCollection_6">
    <defs>
     <path id="m5e972696fb" d="M 10.7 -37.55625 
L 10.7 -93.786262 
L 14.081818 -93.786262 
L 17.463636 -93.786262 
L 20.845455 -100.440701 
L 24.227273 -93.786262 
L 27.609091 -107.09514 
L 30.990909 -100.440701 
L 34.372727 -120.404019 
L 37.754545 -93.786262 
L 41.136364 -100.440701 
L 44.518182 -93.786262 
L 47.9 -87.131823 
L 51.281818 -100.440701 
L 54.663636 -107.09514 
L 58.045455 -107.09514 
L 61.427273 -87.131823 
L 64.809091 -93.786262 
L 68.190909 -93.786262 
L 71.572727 -87.131823 
L 74.954545 -87.131823 
L 78.336364 -93.786262 
L 81.718182 -93.786262 
L 85.1 -93.786262 
L 88.481818 -107.09514 
L 91.863636 -100.440701 
L 95.245455 -93.786262 
L 98.627273 -100.440701 
L 102.009091 -107.09514 
L 105.390909 -93.786262 
L 108.772727 -100.440701 
L 112.154545 -87.131823 
L 115.536364 -87.131823 
L 118.918182 -107.09514 
L 122.3 -93.786262 
L 125.681818 -87.131823 
L 129.063636 -107.09514 
L 132.445455 -87.131823 
L 135.827273 -100.440701 
L 139.209091 -107.09514 
L 142.590909 -93.786262 
L 145.972727 -93.786262 
L 149.354545 -107.09514 
L 152.736364 -100.440701 
L 156.118182 -100.440701 
L 159.5 -93.786262 
L 162.881818 -100.440701 
L 166.263636 -113.74958 
L 169.645455 -93.786262 
L 173.027273 -87.131823 
L 176.409091 -93.786262 
L 179.790909 -93.786262 
L 183.172727 -93.786262 
L 186.554545 -93.786262 
L 189.936364 -100.440701 
L 193.318182 -87.131823 
L 196.7 -107.09514 
L 200.081818 -93.786262 
L 203.463636 -87.131823 
L 206.845455 -87.131823 
L 210.227273 -100.440701 
L 213.609091 -93.786262 
L 216.990909 -107.09514 
L 220.372727 -93.786262 
L 223.754545 -107.09514 
L 227.136364 -87.131823 
L 230.518182 -100.440701 
L 233.9 -93.786262 
L 237.281818 -113.74958 
L 240.663636 -93.786262 
L 244.045455 -93.786262 
L 247.427273 -87.131823 
L 250.809091 -107.09514 
L 254.190909 -93.786262 
L 257.572727 -93.786262 
L 260.954545 -93.786262 
L 264.336364 -100.440701 
L 267.718182 -87.131823 
L 271.1 -93.786262 
L 274.481818 -93.786262 
L 277.863636 -107.09514 
L 281.245455 -93.786262 
L 284.627273 -100.440701 
L 288.009091 -107.09514 
L 291.390909 -87.131823 
L 294.772727 -113.74958 
L 298.154545 -93.786262 
L 301.536364 -93.786262 
L 304.918182 -87.131823 
L 308.3 -93.786262 
L 311.681818 -93.786262 
L 315.063636 -100.440701 
L 318.445455 -93.786262 
L 321.827273 -100.440701 
L 325.209091 -93.786262 
L 328.590909 -113.74958 
L 331.972727 -100.440701 
L 335.354545 -93.786262 
L 338.736364 -93.786262 
L 342.118182 -100.440701 
L 345.5 -93.786262 
L 345.5 -37.55625 
L 345.5 -37.55625 
L 342.118182 -37.55625 
L 338.736364 -37.55625 
L 335.354545 -37.55625 
L 331.972727 -37.55625 
L 328.590909 -37.55625 
L 325.209091 -37.55625 
L 321.827273 -37.55625 
L 318.445455 -37.55625 
L 315.063636 -37.55625 
L 311.681818 -37.55625 
L 308.3 -37.55625 
L 304.918182 -37.55625 
L 301.536364 -37.55625 
L 298.154545 -37.55625 
L 294.772727 -37.55625 
L 291.390909 -37.55625 
L 288.009091 -37.55625 
L 284.627273 -37.55625 
L 281.245455 -37.55625 
L 277.863636 -37.55625 
L 274.481818 -37.55625 
L 271.1 -37.55625 
L 267.718182 -37.55625 
L 264.336364 -37.55625 
L 260.954545 -37.55625 
L 257.572727 -37.55625 
L 254.190909 -37.55625 
L 250.809091 -37.55625 
L 247.427273 -37.55625 
L 244.045455 -37.55625 
L 240.663636 -37.55625 
L 237.281818 -37.55625 
L 233.9 -37.55625 
L 230.518182 -37.55625 
L 227.136364 -37.55625 
L 223.754545 -37.55625 
L 220.372727 -37.55625 
L 216.990909 -37.55625 
L 213.609091 -37.55625 
L 210.227273 -37.55625 
L 206.845455 -37.55625 
L 203.463636 -37.55625 
L 200.081818 -37.55625 
L 196.7 -37.55625 
L 193.318182 -37.55625 
L 189.936364 -37.55625 
L 186.554545 -37.55625 
L 183.172727 -37.55625 
L 179.790909 -37.55625 
L 176.409091 -37.55625 
L 173.027273 -37.55625 
L 169.645455 -37.55625 
L 166.263636 -37.55625 
L 162.881818 -37.55625 
L 159.5 -37.55625 
L 156.118182 -37.55625 
L 152.736364 -37.55625 
L 149.354545 -37.55625 
L 145.972727 -37.55625 
L 142.590909 -37.55625 
L 139.209091 -37.55625 
L 135.827273 -37.55625 
L 132.445455 -37.55625 
L 129.063636 -37.55625 
L 125.681818 -37.55625 
L 122.3 -37.55625 
L 118.918182 -37.55625 
L 115.536364 -37.55625 
L 112.154545 -37.55625 
L 108.772727 -37.55625 
L 105.390909 -37.55625 
L 102.009091 -37.55625 
L 98.627273 -37.55625 
L 95.245455 -37.55625 
L 91.863636 -37.55625 
L 88.481818 -37.55625 
L 85.1 -37.55625 
L 81.718182 -37.55625 
L 78.336364 -37.55625 
L 74.954545 -37.55625 
L 71.572727 -37.55625 
L 68.190909 -37.55625 
L 64.809091 -37.55625 
L 61.427273 -37.55625 
L 58.045455 -37.55625 
L 54.663636 -37.55625 
L 51.281818 -37.55625 
L 47.9 -37.55625 
L 44.518182 -37.55625 
L 41.136364 -37.55625 
L 37.754545 -37.55625 
L 34.372727 -37.55625 
L 30.990909 -37.55625 
L 27.609091 -37.55625 
L 24.227273 -37.55625 
L 20.845455 -37.55625 
L 17.463636 -37.55625 
L 14.081818 -37.55625 
L 10.7 -37.55625 
z
" style="stroke: #000000; stroke-width: 0.8"/>
    </defs>
    <g clip-path="url(#pdb95f2ab37)">
     <use xlink:href="#m5e972696fb" x="0" y="377.39625" style="fill: #999999; stroke: #000000; stroke-width: 0.8"/>
    </g>
   </g>
   <g id="PolyCollection_7">
    <defs>
     <path id="mf58423bf40" d="M 10.7 -37.55625 
L 10.7 -84.007882 
L 14.081818 -77.216708 
L 17.463636 -77.216708 
L 20.845455 -90.799057 
L 24.227273 -77.216708 
L 27.609091 -90.799057 
L 30.990909 -84.007882 
L 34.372727 -84.007882 
L 37.754545 -77.216708 
L 41.136364 -90.799057 
L 44.518182 -77.216708 
L 47.9 -97.590231 
L 51.281818 -97.590231 
L 54.663636 -84.007882 
L 58.045455 -84.007882 
L 61.427273 -77.216708 
L 64.809091 -90.799057 
L 68.190909 -97.590231 
L 71.572727 -90.799057 
L 74.954545 -84.007882 
L 78.336364 -90.799057 
L 81.718182 -84.007882 
L 85.1 -90.799057 
L 88.481818 -97.590231 
L 91.863636 -77.216708 
L 95.245455 -84.007882 
L 98.627273 -97.590231 
L 102.009091 -77.216708 
L 105.390909 -97.590231 
L 108.772727 -84.007882 
L 112.154545 -84.007882 
L 115.536364 -90.799057 
L 118.918182 -90.799057 
L 122.3 -90.799057 
L 125.681818 -84.007882 
L 129.063636 -90.799057 
L 132.445455 -90.799057 
L 135.827273 -77.216708 
L 139.209091 -84.007882 
L 142.590909 -90.799057 
L 145.972727 -84.007882 
L 149.354545 -84.007882 
L 152.736364 -90.799057 
L 156.118182 -97.590231 
L 159.5 -77.216708 
L 162.881818 -77.216708 
L 166.263636 -84.007882 
L 169.645455 -84.007882 
L 173.027273 -97.590231 
L 176.409091 -84.007882 
L 179.790909 -84.007882 
L 183.172727 -77.216708 
L 186.554545 -90.799057 
L 189.936364 -84.007882 
L 193.318182 -84.007882 
L 196.7 -97.590231 
L 200.081818 -90.799057 
L 203.463636 -77.216708 
L 206.845455 -84.007882 
L 210.227273 -90.799057 
L 213.609091 -90.799057 
L 216.990909 -90.799057 
L 220.372727 -90.799057 
L 223.754545 -84.007882 
L 227.136364 -77.216708 
L 230.518182 -97.590231 
L 233.9 -84.007882 
L 237.281818 -90.799057 
L 240.663636 -84.007882 
L 244.045455 -77.216708 
L 247.427273 -97.590231 
L 250.809091 -77.216708 
L 254.190909 -77.216708 
L 257.572727 -77.216708 
L 260.954545 -77.216708 
L 264.336364 -111.17258 
L 267.718182 -90.799057 
L 271.1 -84.007882 
L 274.481818 -97.590231 
L 277.863636 -90.799057 
L 281.245455 -90.799057 
L 284.627273 -97.590231 
L 288.009091 -90.799057 
L 291.390909 -97.590231 
L 294.772727 -84.007882 
L 298.154545 -90.799057 
L 301.536364 -97.590231 
L 304.918182 -90.799057 
L 308.3 -90.799057 
L 311.681818 -90.799057 
L 315.063636 -97.590231 
L 318.445455 -90.799057 
L 321.827273 -84.007882 
L 325.209091 -77.216708 
L 328.590909 -90.799057 
L 331.972727 -84.007882 
L 335.354545 -77.216708 
L 338.736364 -84.007882 
L 342.118182 -84.007882 
L 345.5 -84.007882 
L 345.5 -37.55625 
L 345.5 -37.55625 
L 342.118182 -37.55625 
L 338.736364 -37.55625 
L 335.354545 -37.55625 
L 331.972727 -37.55625 
L 328.590909 -37.55625 
L 325.209091 -37.55625 
L 321.827273 -37.55625 
L 318.445455 -37.55625 
L 315.063636 -37.55625 
L 311.681818 -37.55625 
L 308.3 -37.55625 
L 304.918182 -37.55625 
L 301.536364 -37.55625 
L 298.154545 -37.55625 
L 294.772727 -37.55625 
L 291.390909 -37.55625 
L 288.009091 -37.55625 
L 284.627273 -37.55625 
L 281.245455 -37.55625 
L 277.863636 -37.55625 
L 274.481818 -37.55625 
L 271.1 -37.55625 
L 267.718182 -37.55625 
L 264.336364 -37.55625 
L 260.954545 -37.55625 
L 257.572727 -37.55625 
L 254.190909 -37.55625 
L 250.809091 -37.55625 
L 247.427273 -37.55625 
L 244.045455 -37.55625 
L 240.663636 -37.55625 
L 237.281818 -37.55625 
L 233.9 -37.55625 
L 230.518182 -37.55625 
L 227.136364 -37.55625 
L 223.754545 -37.55625 
L 220.372727 -37.55625 
L 216.990909 -37.55625 
L 213.609091 -37.55625 
L 210.227273 -37.55625 
L 206.845455 -37.55625 
L 203.463636 -37.55625 
L 200.081818 -37.55625 
L 196.7 -37.55625 
L 193.318182 -37.55625 
L 189.936364 -37.55625 
L 186.554545 -37.55625 
L 183.172727 -37.55625 
L 179.790909 -37.55625 
L 176.409091 -37.55625 
L 173.027273 -37.55625 
L 169.645455 -37.55625 
L 166.263636 -37.55625 
L 162.881818 -37.55625 
L 159.5 -37.55625 
L 156.118182 -37.55625 
L 152.736364 -37.55625 
L 149.354545 -37.55625 
L 145.972727 -37.55625 
L 142.590909 -37.55625 
L 139.209091 -37.55625 
L 135.827273 -37.55625 
L 132.445455 -37.55625 
L 129.063636 -37.55625 
L 125.681818 -37.55625 
L 122.3 -37.55625 
L 118.918182 -37.55625 
L 115.536364 -37.55625 
L 112.154545 -37.55625 
L 108.772727 -37.55625 
L 105.390909 -37.55625 
L 102.009091 -37.55625 
L 98.627273 -37.55625 
L 95.245455 -37.55625 
L 91.863636 -37.55625 
L 88.481818 -37.55625 
L 85.1 -37.55625 
L 81.718182 -37.55625 
L 78.336364 -37.55625 
L 74.954545 -37.55625 
L 71.572727 -37.55625 
L 68.190909 -37.55625 
L 64.809091 -37.55625 
L 61.427273 -37.55625 
L 58.045455 -37.55625 
L 54.663636 -37.55625 
L 51.281818 -37.55625 
L 47.9 -37.55625 
L 44.518182 -37.55625 
L 41.136364 -37.55625 
L 37.754545 -37.55625 
L 34.372727 -37.55625 
L 30.990909 -37.55625 
L 27.609091 -37.55625 
L 24.227273 -37.55625 
L 20.845455 -37.55625 
L 17.463636 -37.55625 
L 14.081818 -37.55625 
L 10.7 -37.55625 
z
" style="stroke: #000000; stroke-width: 0.8"/>
    </defs>
    <g clip-path="url(#pdb95f2ab37)">
     <use xlink:href="#mf58423bf40" x="0" y="377.39625" style="fill: #b2b2b2; stroke: #000000; stroke-width: 0.8"/>
    </g>
   </g>
   <g id="PolyCollection_8">
    <defs>
     <path id="m12ea86f3d0" d="M 10.7 -37.55625 
L 10.7 -67.301594 
L 14.081818 -67.301594 
L 17.463636 -81.168887 
L 20.845455 -81.168887 
L 24.227273 -74.23524 
L 27.609091 -81.168887 
L 30.990909 -74.23524 
L 34.372727 -74.23524 
L 37.754545 -67.301594 
L 41.136364 -67.301594 
L 44.518182 -67.301594 
L 47.9 -81.168887 
L 51.281818 -81.168887 
L 54.663636 -74.23524 
L 58.045455 -74.23524 
L 61.427273 -67.301594 
L 64.809091 -74.23524 
L 68.190909 -67.301594 
L 71.572727 -88.102533 
L 74.954545 -74.23524 
L 78.336364 -74.23524 
L 81.718182 -81.168887 
L 85.1 -74.23524 
L 88.481818 -74.23524 
L 91.863636 -95.03618 
L 95.245455 -81.168887 
L 98.627273 -74.23524 
L 102.009091 -81.168887 
L 105.390909 -81.168887 
L 108.772727 -74.23524 
L 112.154545 -67.301594 
L 115.536364 -74.23524 
L 118.918182 -81.168887 
L 122.3 -67.301594 
L 125.681818 -74.23524 
L 129.063636 -81.168887 
L 132.445455 -95.03618 
L 135.827273 -67.301594 
L 139.209091 -74.23524 
L 142.590909 -88.102533 
L 145.972727 -67.301594 
L 149.354545 -74.23524 
L 152.736364 -88.102533 
L 156.118182 -74.23524 
L 159.5 -67.301594 
L 162.881818 -67.301594 
L 166.263636 -81.168887 
L 169.645455 -67.301594 
L 173.027273 -101.969826 
L 176.409091 -81.168887 
L 179.790909 -81.168887 
L 183.172727 -81.168887 
L 186.554545 -74.23524 
L 189.936364 -81.168887 
L 193.318182 -88.102533 
L 196.7 -74.23524 
L 200.081818 -81.168887 
L 203.463636 -67.301594 
L 206.845455 -74.23524 
L 210.227273 -88.102533 
L 213.609091 -88.102533 
L 216.990909 -74.23524 
L 220.372727 -81.168887 
L 223.754545 -81.168887 
L 227.136364 -81.168887 
L 230.518182 -81.168887 
L 233.9 -67.301594 
L 237.281818 -101.969826 
L 240.663636 -74.23524 
L 244.045455 -88.102533 
L 247.427273 -88.102533 
L 250.809091 -67.301594 
L 254.190909 -81.168887 
L 257.572727 -81.168887 
L 260.954545 -67.301594 
L 264.336364 -74.23524 
L 267.718182 -74.23524 
L 271.1 -95.03618 
L 274.481818 -88.102533 
L 277.863636 -81.168887 
L 281.245455 -67.301594 
L 284.627273 -74.23524 
L 288.009091 -81.168887 
L 291.390909 -67.301594 
L 294.772727 -74.23524 
L 298.154545 -81.168887 
L 301.536364 -74.23524 
L 304.918182 -81.168887 
L 308.3 -74.23524 
L 311.681818 -74.23524 
L 315.063636 -74.23524 
L 318.445455 -67.301594 
L 321.827273 -74.23524 
L 325.209091 -74.23524 
L 328.590909 -74.23524 
L 331.972727 -67.301594 
L 335.354545 -88.102533 
L 338.736364 -67.301594 
L 342.118182 -88.102533 
L 345.5 -74.23524 
L 345.5 -37.55625 
L 345.5 -37.55625 
L 342.118182 -37.55625 
L 338.736364 -37.55625 
L 335.354545 -37.55625 
L 331.972727 -37.55625 
L 328.590909 -37.55625 
L 325.209091 -37.55625 
L 321.827273 -37.55625 
L 318.445455 -37.55625 
L 315.063636 -37.55625 
L 311.681818 -37.55625 
L 308.3 -37.55625 
L 304.918182 -37.55625 
L 301.536364 -37.55625 
L 298.154545 -37.55625 
L 294.772727 -37.55625 
L 291.390909 -37.55625 
L 288.009091 -37.55625 
L 284.627273 -37.55625 
L 281.245455 -37.55625 
L 277.863636 -37.55625 
L 274.481818 -37.55625 
L 271.1 -37.55625 
L 267.718182 -37.55625 
L 264.336364 -37.55625 
L 260.954545 -37.55625 
L 257.572727 -37.55625 
L 254.190909 -37.55625 
L 250.809091 -37.55625 
L 247.427273 -37.55625 
L 244.045455 -37.55625 
L 240.663636 -37.55625 
L 237.281818 -37.55625 
L 233.9 -37.55625 
L 230.518182 -37.55625 
L 227.136364 -37.55625 
L 223.754545 -37.55625 
L 220.372727 -37.55625 
L 216.990909 -37.55625 
L 213.609091 -37.55625 
L 210.227273 -37.55625 
L 206.845455 -37.55625 
L 203.463636 -37.55625 
L 200.081818 -37.55625 
L 196.7 -37.55625 
L 193.318182 -37.55625 
L 189.936364 -37.55625 
L 186.554545 -37.55625 
L 183.172727 -37.55625 
L 179.790909 -37.55625 
L 176.409091 -37.55625 
L 173.027273 -37.55625 
L 169.645455 -37.55625 
L 166.263636 -37.55625 
L 162.881818 -37.55625 
L 159.5 -37.55625 
L 156.118182 -37.55625 
L 152.736364 -37.55625 
L 149.354545 -37.55625 
L 145.972727 -37.55625 
L 142.590909 -37.55625 
L 139.209091 -37.55625 
L 135.827273 -37.55625 
L 132.445455 -37.55625 
L 129.063636 -37.55625 
L 125.681818 -37.55625 
L 122.3 -37.55625 
L 118.918182 -37.55625 
L 115.536364 -37.55625 
L 112.154545 -37.55625 
L 108.772727 -37.55625 
L 105.390909 -37.55625 
L 102.009091 -37.55625 
L 98.627273 -37.55625 
L 95.245455 -37.55625 
L 91.863636 -37.55625 
L 88.481818 -37.55625 
L 85.1 -37.55625 
L 81.718182 -37.55625 
L 78.336364 -37.55625 
L 74.954545 -37.55625 
L 71.572727 -37.55625 
L 68.190909 -37.55625 
L 64.809091 -37.55625 
L 61.427273 -37.55625 
L 58.045455 -37.55625 
L 54.663636 -37.55625 
L 51.281818 -37.55625 
L 47.9 -37.55625 
L 44.518182 -37.55625 
L 41.136364 -37.55625 
L 37.754545 -37.55625 
L 34.372727 -37.55625 
L 30.990909 -37.55625 
L 27.609091 -37.55625 
L 24.227273 -37.55625 
L 20.845455 -37.55625 
L 17.463636 -37.55625 
L 14.081818 -37.55625 
L 10.7 -37.55625 
z
" style="stroke: #000000; stroke-width: 0.8"/>
    </defs>
    <g clip-path="url(#pdb95f2ab37)">
     <use xlink:href="#m12ea86f3d0" x="0" y="377.39625" style="fill: #cccccc; stroke: #000000; stroke-width: 0.8"/>
    </g>
   </g>
   <g id="PolyCollection_9">
    <defs>
     <path id="mb4f5f1c7e8" d="M 10.7 -37.55625 
L 10.7 -71.550928 
L 14.081818 -71.550928 
L 17.463636 -64.468704 
L 20.845455 -71.550928 
L 24.227273 -64.468704 
L 27.609091 -78.633153 
L 30.990909 -57.386479 
L 34.372727 -85.715378 
L 37.754545 -57.386479 
L 41.136364 -57.386479 
L 44.518182 -71.550928 
L 47.9 -57.386479 
L 51.281818 -71.550928 
L 54.663636 -64.468704 
L 58.045455 -78.633153 
L 61.427273 -71.550928 
L 64.809091 -57.386479 
L 68.190909 -64.468704 
L 71.572727 -78.633153 
L 74.954545 -71.550928 
L 78.336364 -57.386479 
L 81.718182 -64.468704 
L 85.1 -57.386479 
L 88.481818 -64.468704 
L 91.863636 -78.633153 
L 95.245455 -78.633153 
L 98.627273 -64.468704 
L 102.009091 -57.386479 
L 105.390909 -71.550928 
L 108.772727 -78.633153 
L 112.154545 -57.386479 
L 115.536364 -71.550928 
L 118.918182 -78.633153 
L 122.3 -64.468704 
L 125.681818 -64.468704 
L 129.063636 -71.550928 
L 132.445455 -71.550928 
L 135.827273 -64.468704 
L 139.209091 -57.386479 
L 142.590909 -64.468704 
L 145.972727 -64.468704 
L 149.354545 -71.550928 
L 152.736364 -71.550928 
L 156.118182 -64.468704 
L 159.5 -64.468704 
L 162.881818 -64.468704 
L 166.263636 -64.468704 
L 169.645455 -57.386479 
L 173.027273 -85.715378 
L 176.409091 -71.550928 
L 179.790909 -57.386479 
L 183.172727 -85.715378 
L 186.554545 -71.550928 
L 189.936364 -71.550928 
L 193.318182 -64.468704 
L 196.7 -85.715378 
L 200.081818 -78.633153 
L 203.463636 -64.468704 
L 206.845455 -57.386479 
L 210.227273 -71.550928 
L 213.609091 -57.386479 
L 216.990909 -64.468704 
L 220.372727 -57.386479 
L 223.754545 -78.633153 
L 227.136364 -64.468704 
L 230.518182 -64.468704 
L 233.9 -57.386479 
L 237.281818 -71.550928 
L 240.663636 -64.468704 
L 244.045455 -64.468704 
L 247.427273 -57.386479 
L 250.809091 -57.386479 
L 254.190909 -64.468704 
L 257.572727 -85.715378 
L 260.954545 -57.386479 
L 264.336364 -71.550928 
L 267.718182 -64.468704 
L 271.1 -64.468704 
L 274.481818 -85.715378 
L 277.863636 -57.386479 
L 281.245455 -57.386479 
L 284.627273 -64.468704 
L 288.009091 -64.468704 
L 291.390909 -64.468704 
L 294.772727 -71.550928 
L 298.154545 -64.468704 
L 301.536364 -71.550928 
L 304.918182 -71.550928 
L 308.3 -71.550928 
L 311.681818 -57.386479 
L 315.063636 -57.386479 
L 318.445455 -64.468704 
L 321.827273 -64.468704 
L 325.209091 -64.468704 
L 328.590909 -64.468704 
L 331.972727 -71.550928 
L 335.354545 -71.550928 
L 338.736364 -64.468704 
L 342.118182 -64.468704 
L 345.5 -78.633153 
L 345.5 -37.55625 
L 345.5 -37.55625 
L 342.118182 -37.55625 
L 338.736364 -37.55625 
L 335.354545 -37.55625 
L 331.972727 -37.55625 
L 328.590909 -37.55625 
L 325.209091 -37.55625 
L 321.827273 -37.55625 
L 318.445455 -37.55625 
L 315.063636 -37.55625 
L 311.681818 -37.55625 
L 308.3 -37.55625 
L 304.918182 -37.55625 
L 301.536364 -37.55625 
L 298.154545 -37.55625 
L 294.772727 -37.55625 
L 291.390909 -37.55625 
L 288.009091 -37.55625 
L 284.627273 -37.55625 
L 281.245455 -37.55625 
L 277.863636 -37.55625 
L 274.481818 -37.55625 
L 271.1 -37.55625 
L 267.718182 -37.55625 
L 264.336364 -37.55625 
L 260.954545 -37.55625 
L 257.572727 -37.55625 
L 254.190909 -37.55625 
L 250.809091 -37.55625 
L 247.427273 -37.55625 
L 244.045455 -37.55625 
L 240.663636 -37.55625 
L 237.281818 -37.55625 
L 233.9 -37.55625 
L 230.518182 -37.55625 
L 227.136364 -37.55625 
L 223.754545 -37.55625 
L 220.372727 -37.55625 
L 216.990909 -37.55625 
L 213.609091 -37.55625 
L 210.227273 -37.55625 
L 206.845455 -37.55625 
L 203.463636 -37.55625 
L 200.081818 -37.55625 
L 196.7 -37.55625 
L 193.318182 -37.55625 
L 189.936364 -37.55625 
L 186.554545 -37.55625 
L 183.172727 -37.55625 
L 179.790909 -37.55625 
L 176.409091 -37.55625 
L 173.027273 -37.55625 
L 169.645455 -37.55625 
L 166.263636 -37.55625 
L 162.881818 -37.55625 
L 159.5 -37.55625 
L 156.118182 -37.55625 
L 152.736364 -37.55625 
L 149.354545 -37.55625 
L 145.972727 -37.55625 
L 142.590909 -37.55625 
L 139.209091 -37.55625 
L 135.827273 -37.55625 
L 132.445455 -37.55625 
L 129.063636 -37.55625 
L 125.681818 -37.55625 
L 122.3 -37.55625 
L 118.918182 -37.55625 
L 115.536364 -37.55625 
L 112.154545 -37.55625 
L 108.772727 -37.55625 
L 105.390909 -37.55625 
L 102.009091 -37.55625 
L 98.627273 -37.55625 
L 95.245455 -37.55625 
L 91.863636 -37.55625 
L 88.481818 -37.55625 
L 85.1 -37.55625 
L 81.718182 -37.55625 
L 78.336364 -37.55625 
L 74.954545 -37.55625 
L 71.572727 -37.55625 
L 68.190909 -37.55625 
L 64.809091 -37.55625 
L 61.427273 -37.55625 
L 58.045455 -37.55625 
L 54.663636 -37.55625 
L 51.281818 -37.55625 
L 47.9 -37.55625 
L 44.518182 -37.55625 
L 41.136364 -37.55625 
L 37.754545 -37.55625 
L 34.372727 -37.55625 
L 30.990909 -37.55625 
L 27.609091 -37.55625 
L 24.227273 -37.55625 
L 20.845455 -37.55625 
L 17.463636 -37.55625 
L 14.081818 -37.55625 
L 10.7 -37.55625 
z
" style="stroke: #000000; stroke-width: 0.8"/>
    </defs>
    <g clip-path="url(#pdb95f2ab37)">
     <use xlink:href="#mb4f5f1c7e8" x="0" y="377.39625" style="fill: #e6e6e6; stroke: #000000; stroke-width: 0.8"/>
    </g>
   </g>
   <g id="PolyCollection_10">
    <defs>
     <path id="m7e19624852" d="M 10.7 -37.55625 
L 10.7 -76.420604 
L 14.081818 -54.708674 
L 17.463636 -61.945984 
L 20.845455 -76.420604 
L 24.227273 -47.471365 
L 27.609091 -69.183294 
L 30.990909 -47.471365 
L 34.372727 -54.708674 
L 37.754545 -54.708674 
L 41.136364 -69.183294 
L 44.518182 -69.183294 
L 47.9 -69.183294 
L 51.281818 -54.708674 
L 54.663636 -61.945984 
L 58.045455 -54.708674 
L 61.427273 -54.708674 
L 64.809091 -61.945984 
L 68.190909 -61.945984 
L 71.572727 -54.708674 
L 74.954545 -47.471365 
L 78.336364 -47.471365 
L 81.718182 -54.708674 
L 85.1 -54.708674 
L 88.481818 -54.708674 
L 91.863636 -61.945984 
L 95.245455 -54.708674 
L 98.627273 -54.708674 
L 102.009091 -61.945984 
L 105.390909 -54.708674 
L 108.772727 -69.183294 
L 112.154545 -76.420604 
L 115.536364 -47.471365 
L 118.918182 -61.945984 
L 122.3 -47.471365 
L 125.681818 -47.471365 
L 129.063636 -47.471365 
L 132.445455 -47.471365 
L 135.827273 -47.471365 
L 139.209091 -54.708674 
L 142.590909 -61.945984 
L 145.972727 -69.183294 
L 149.354545 -54.708674 
L 152.736364 -61.945984 
L 156.118182 -47.471365 
L 159.5 -61.945984 
L 162.881818 -47.471365 
L 166.263636 -47.471365 
L 169.645455 -61.945984 
L 173.027273 -47.471365 
L 176.409091 -54.708674 
L 179.790909 -61.945984 
L 183.172727 -61.945984 
L 186.554545 -69.183294 
L 189.936364 -47.471365 
L 193.318182 -61.945984 
L 196.7 -54.708674 
L 200.081818 -54.708674 
L 203.463636 -47.471365 
L 206.845455 -61.945984 
L 210.227273 -61.945984 
L 213.609091 -54.708674 
L 216.990909 -47.471365 
L 220.372727 -61.945984 
L 223.754545 -61.945984 
L 227.136364 -69.183294 
L 230.518182 -47.471365 
L 233.9 -69.183294 
L 237.281818 -47.471365 
L 240.663636 -61.945984 
L 244.045455 -54.708674 
L 247.427273 -69.183294 
L 250.809091 -54.708674 
L 254.190909 -69.183294 
L 257.572727 -61.945984 
L 260.954545 -54.708674 
L 264.336364 -54.708674 
L 267.718182 -54.708674 
L 271.1 -54.708674 
L 274.481818 -54.708674 
L 277.863636 -54.708674 
L 281.245455 -54.708674 
L 284.627273 -47.471365 
L 288.009091 -54.708674 
L 291.390909 -54.708674 
L 294.772727 -47.471365 
L 298.154545 -61.945984 
L 301.536364 -54.708674 
L 304.918182 -76.420604 
L 308.3 -47.471365 
L 311.681818 -61.945984 
L 315.063636 -54.708674 
L 318.445455 -54.708674 
L 321.827273 -54.708674 
L 325.209091 -47.471365 
L 328.590909 -47.471365 
L 331.972727 -61.945984 
L 335.354545 -54.708674 
L 338.736364 -61.945984 
L 342.118182 -54.708674 
L 345.5 -76.420604 
L 345.5 -37.55625 
L 345.5 -37.55625 
L 342.118182 -37.55625 
L 338.736364 -37.55625 
L 335.354545 -37.55625 
L 331.972727 -37.55625 
L 328.590909 -37.55625 
L 325.209091 -37.55625 
L 321.827273 -37.55625 
L 318.445455 -37.55625 
L 315.063636 -37.55625 
L 311.681818 -37.55625 
L 308.3 -37.55625 
L 304.918182 -37.55625 
L 301.536364 -37.55625 
L 298.154545 -37.55625 
L 294.772727 -37.55625 
L 291.390909 -37.55625 
L 288.009091 -37.55625 
L 284.627273 -37.55625 
L 281.245455 -37.55625 
L 277.863636 -37.55625 
L 274.481818 -37.55625 
L 271.1 -37.55625 
L 267.718182 -37.55625 
L 264.336364 -37.55625 
L 260.954545 -37.55625 
L 257.572727 -37.55625 
L 254.190909 -37.55625 
L 250.809091 -37.55625 
L 247.427273 -37.55625 
L 244.045455 -37.55625 
L 240.663636 -37.55625 
L 237.281818 -37.55625 
L 233.9 -37.55625 
L 230.518182 -37.55625 
L 227.136364 -37.55625 
L 223.754545 -37.55625 
L 220.372727 -37.55625 
L 216.990909 -37.55625 
L 213.609091 -37.55625 
L 210.227273 -37.55625 
L 206.845455 -37.55625 
L 203.463636 -37.55625 
L 200.081818 -37.55625 
L 196.7 -37.55625 
L 193.318182 -37.55625 
L 189.936364 -37.55625 
L 186.554545 -37.55625 
L 183.172727 -37.55625 
L 179.790909 -37.55625 
L 176.409091 -37.55625 
L 173.027273 -37.55625 
L 169.645455 -37.55625 
L 166.263636 -37.55625 
L 162.881818 -37.55625 
L 159.5 -37.55625 
L 156.118182 -37.55625 
L 152.736364 -37.55625 
L 149.354545 -37.55625 
L 145.972727 -37.55625 
L 142.590909 -37.55625 
L 139.209091 -37.55625 
L 135.827273 -37.55625 
L 132.445455 -37.55625 
L 129.063636 -37.55625 
L 125.681818 -37.55625 
L 122.3 -37.55625 
L 118.918182 -37.55625 
L 115.536364 -37.55625 
L 112.154545 -37.55625 
L 108.772727 -37.55625 
L 105.390909 -37.55625 
L 102.009091 -37.55625 
L 98.627273 -37.55625 
L 95.245455 -37.55625 
L 91.863636 -37.55625 
L 88.481818 -37.55625 
L 85.1 -37.55625 
L 81.718182 -37.55625 
L 78.336364 -37.55625 
L 74.954545 -37.55625 
L 71.572727 -37.55625 
L 68.190909 -37.55625 
L 64.809091 -37.55625 
L 61.427273 -37.55625 
L 58.045455 -37.55625 
L 54.663636 -37.55625 
L 51.281818 -37.55625 
L 47.9 -37.55625 
L 44.518182 -37.55625 
L 41.136364 -37.55625 
L 37.754545 -37.55625 
L 34.372727 -37.55625 
L 30.990909 -37.55625 
L 27.609091 -37.55625 
L 24.227273 -37.55625 
L 20.845455 -37.55625 
L 17.463636 -37.55625 
L 14.081818 -37.55625 
L 10.7 -37.55625 
z
" style="stroke: #000000; stroke-width: 0.8"/>
    </defs>
    <g clip-path="url(#pdb95f2ab37)">
     <use xlink:href="#m7e19624852" x="0" y="377.39625" style="fill: #ffffff; stroke: #000000; stroke-width: 0.8"/>
    </g>
   </g>
   <g id="matplotlib.axis_1">
    <g id="xtick_1">
     <g id="line2d_1">
      <defs>
       <path id="md9c756e125" d="M 0 0 
L 0 3.5 
" style="stroke: #000000; stroke-width: 0.8"/>
      </defs>
      <g>
       <use xlink:href="#md9c756e125" x="74.954545" y="339.84" style="stroke: #000000; stroke-width: 0.8"/>
      </g>
     </g>
     <g id="text_1">
      <!-- 20 -->
      <g transform="translate(68.592045 354.438437) scale(0.1 -0.1)">
       <defs>
        <path id="DejaVuSans-32" d="M 1228 531 
L 3431 531 
L 3431 0 
L 469 0 
L 469 531 
Q 828 903 1448 1529 
Q 2069 2156 2228 2338 
Q 2531 2678 2651 2914 
Q 2772 3150 2772 3378 
Q 2772 3750 2511 3984 
Q 2250 4219 1831 4219 
Q 1534 4219 1204 4116 
Q 875 4013 500 3803 
L 500 4441 
Q 881 4594 1212 4672 
Q 1544 4750 1819 4750 
Q 2544 4750 2975 4387 
Q 3406 4025 3406 3419 
Q 3406 3131 3298 2873 
Q 3191 2616 2906 2266 
Q 2828 2175 2409 1742 
Q 1991 1309 1228 531 
z
" transform="scale(0.015625)"/>
        <path id="DejaVuSans-30" d="M 2034 4250 
Q 1547 4250 1301 3770 
Q 1056 3291 1056 2328 
Q 1056 1369 1301 889 
Q 1547 409 2034 409 
Q 2525 409 2770 889 
Q 3016 1369 3016 2328 
Q 3016 3291 2770 3770 
Q 2525 4250 2034 4250 
z
M 2034 4750 
Q 2819 4750 3233 4129 
Q 3647 3509 3647 2328 
Q 3647 1150 3233 529 
Q 2819 -91 2034 -91 
Q 1250 -91 836 529 
Q 422 1150 422 2328 
Q 422 3509 836 4129 
Q 1250 4750 2034 4750 
z
" transform="scale(0.015625)"/>
       </defs>
       <use xlink:href="#DejaVuSans-32"/>
       <use xlink:href="#DejaVuSans-30" x="63.623047"/>
      </g>
     </g>
    </g>
    <g id="xtick_2">
     <g id="line2d_2">
      <g>
       <use xlink:href="#md9c756e125" x="142.590909" y="339.84" style="stroke: #000000; stroke-width: 0.8"/>
      </g>
     </g>
     <g id="text_2">
      <!-- 40 -->
      <g transform="translate(136.228409 354.438437) scale(0.1 -0.1)">
       <defs>
        <path id="DejaVuSans-34" d="M 2419 4116 
L 825 1625 
L 2419 1625 
L 2419 4116 
z
M 2253 4666 
L 3047 4666 
L 3047 1625 
L 3713 1625 
L 3713 1100 
L 3047 1100 
L 3047 0 
L 2419 0 
L 2419 1100 
L 313 1100 
L 313 1709 
L 2253 4666 
z
" transform="scale(0.015625)"/>
       </defs>
       <use xlink:href="#DejaVuSans-34"/>
       <use xlink:href="#DejaVuSans-30" x="63.623047"/>
      </g>
     </g>
    </g>
    <g id="xtick_3">
     <g id="line2d_3">
      <g>
       <use xlink:href="#md9c756e125" x="210.227273" y="339.84" style="stroke: #000000; stroke-width: 0.8"/>
      </g>
     </g>
     <g id="text_3">
      <!-- 60 -->
      <g transform="translate(203.864773 354.438437) scale(0.1 -0.1)">
       <defs>
        <path id="DejaVuSans-36" d="M 2113 2584 
Q 1688 2584 1439 2293 
Q 1191 2003 1191 1497 
Q 1191 994 1439 701 
Q 1688 409 2113 409 
Q 2538 409 2786 701 
Q 3034 994 3034 1497 
Q 3034 2003 2786 2293 
Q 2538 2584 2113 2584 
z
M 3366 4563 
L 3366 3988 
Q 3128 4100 2886 4159 
Q 2644 4219 2406 4219 
Q 1781 4219 1451 3797 
Q 1122 3375 1075 2522 
Q 1259 2794 1537 2939 
Q 1816 3084 2150 3084 
Q 2853 3084 3261 2657 
Q 3669 2231 3669 1497 
Q 3669 778 3244 343 
Q 2819 -91 2113 -91 
Q 1303 -91 875 529 
Q 447 1150 447 2328 
Q 447 3434 972 4092 
Q 1497 4750 2381 4750 
Q 2619 4750 2861 4703 
Q 3103 4656 3366 4563 
z
" transform="scale(0.015625)"/>
       </defs>
       <use xlink:href="#DejaVuSans-36"/>
       <use xlink:href="#DejaVuSans-30" x="63.623047"/>
      </g>
     </g>
    </g>
    <g id="xtick_4">
     <g id="line2d_4">
      <g>
       <use xlink:href="#md9c756e125" x="277.863636" y="339.84" style="stroke: #000000; stroke-width: 0.8"/>
      </g>
     </g>
     <g id="text_4">
      <!-- 80 -->
      <g transform="translate(271.501136 354.438437) scale(0.1 -0.1)">
       <defs>
        <path id="DejaVuSans-38" d="M 2034 2216 
Q 1584 2216 1326 1975 
Q 1069 1734 1069 1313 
Q 1069 891 1326 650 
Q 1584 409 2034 409 
Q 2484 409 2743 651 
Q 3003 894 3003 1313 
Q 3003 1734 2745 1975 
Q 2488 2216 2034 2216 
z
M 1403 2484 
Q 997 2584 770 2862 
Q 544 3141 544 3541 
Q 544 4100 942 4425 
Q 1341 4750 2034 4750 
Q 2731 4750 3128 4425 
Q 3525 4100 3525 3541 
Q 3525 3141 3298 2862 
Q 3072 2584 2669 2484 
Q 3125 2378 3379 2068 
Q 3634 1759 3634 1313 
Q 3634 634 3220 271 
Q 2806 -91 2034 -91 
Q 1263 -91 848 271 
Q 434 634 434 1313 
Q 434 1759 690 2068 
Q 947 2378 1403 2484 
z
M 1172 3481 
Q 1172 3119 1398 2916 
Q 1625 2713 2034 2713 
Q 2441 2713 2670 2916 
Q 2900 3119 2900 3481 
Q 2900 3844 2670 4047 
Q 2441 4250 2034 4250 
Q 1625 4250 1398 4047 
Q 1172 3844 1172 3481 
z
" transform="scale(0.015625)"/>
       </defs>
       <use xlink:href="#DejaVuSans-38"/>
       <use xlink:href="#DejaVuSans-30" x="63.623047"/>
      </g>
     </g>
    </g>
    <g id="xtick_5">
     <g id="line2d_5">
      <g>
       <use xlink:href="#md9c756e125" x="345.5" y="339.84" style="stroke: #000000; stroke-width: 0.8"/>
      </g>
     </g>
     <g id="text_5">
      <!-- 100 -->
      <g transform="translate(335.95625 354.438437) scale(0.1 -0.1)">
       <defs>
        <path id="DejaVuSans-31" d="M 794 531 
L 1825 531 
L 1825 4091 
L 703 3866 
L 703 4441 
L 1819 4666 
L 2450 4666 
L 2450 531 
L 3481 531 
L 3481 0 
L 794 0 
L 794 531 
z
" transform="scale(0.015625)"/>
       </defs>
       <use xlink:href="#DejaVuSans-31"/>
       <use xlink:href="#DejaVuSans-30" x="63.623047"/>
       <use xlink:href="#DejaVuSans-30" x="127.246094"/>
      </g>
     </g>
    </g>
    <g id="text_6">
     <!-- Position within deck -->
     <g transform="translate(128.397656 368.116562) scale(0.1 -0.1)">
      <defs>
       <path id="DejaVuSans-50" d="M 1259 4147 
L 1259 2394 
L 2053 2394 
Q 2494 2394 2734 2622 
Q 2975 2850 2975 3272 
Q 2975 3691 2734 3919 
Q 2494 4147 2053 4147 
L 1259 4147 
z
M 628 4666 
L 2053 4666 
Q 2838 4666 3239 4311 
Q 3641 3956 3641 3272 
Q 3641 2581 3239 2228 
Q 2838 1875 2053 1875 
L 1259 1875 
L 1259 0 
L 628 0 
L 628 4666 
z
" transform="scale(0.015625)"/>
       <path id="DejaVuSans-6f" d="M 1959 3097 
Q 1497 3097 1228 2736 
Q 959 2375 959 1747 
Q 959 1119 1226 758 
Q 1494 397 1959 397 
Q 2419 397 2687 759 
Q 2956 1122 2956 1747 
Q 2956 2369 2687 2733 
Q 2419 3097 1959 3097 
z
M 1959 3584 
Q 2709 3584 3137 3096 
Q 3566 2609 3566 1747 
Q 3566 888 3137 398 
Q 2709 -91 1959 -91 
Q 1206 -91 779 398 
Q 353 888 353 1747 
Q 353 2609 779 3096 
Q 1206 3584 1959 3584 
z
" transform="scale(0.015625)"/>
       <path id="DejaVuSans-73" d="M 2834 3397 
L 2834 2853 
Q 2591 2978 2328 3040 
Q 2066 3103 1784 3103 
Q 1356 3103 1142 2972 
Q 928 2841 928 2578 
Q 928 2378 1081 2264 
Q 1234 2150 1697 2047 
L 1894 2003 
Q 2506 1872 2764 1633 
Q 3022 1394 3022 966 
Q 3022 478 2636 193 
Q 2250 -91 1575 -91 
Q 1294 -91 989 -36 
Q 684 19 347 128 
L 347 722 
Q 666 556 975 473 
Q 1284 391 1588 391 
Q 1994 391 2212 530 
Q 2431 669 2431 922 
Q 2431 1156 2273 1281 
Q 2116 1406 1581 1522 
L 1381 1569 
Q 847 1681 609 1914 
Q 372 2147 372 2553 
Q 372 3047 722 3315 
Q 1072 3584 1716 3584 
Q 2034 3584 2315 3537 
Q 2597 3491 2834 3397 
z
" transform="scale(0.015625)"/>
       <path id="DejaVuSans-69" d="M 603 3500 
L 1178 3500 
L 1178 0 
L 603 0 
L 603 3500 
z
M 603 4863 
L 1178 4863 
L 1178 4134 
L 603 4134 
L 603 4863 
z
" transform="scale(0.015625)"/>
       <path id="DejaVuSans-74" d="M 1172 4494 
L 1172 3500 
L 2356 3500 
L 2356 3053 
L 1172 3053 
L 1172 1153 
Q 1172 725 1289 603 
Q 1406 481 1766 481 
L 2356 481 
L 2356 0 
L 1766 0 
Q 1100 0 847 248 
Q 594 497 594 1153 
L 594 3053 
L 172 3053 
L 172 3500 
L 594 3500 
L 594 4494 
L 1172 4494 
z
" transform="scale(0.015625)"/>
       <path id="DejaVuSans-6e" d="M 3513 2113 
L 3513 0 
L 2938 0 
L 2938 2094 
Q 2938 2591 2744 2837 
Q 2550 3084 2163 3084 
Q 1697 3084 1428 2787 
Q 1159 2491 1159 1978 
L 1159 0 
L 581 0 
L 581 3500 
L 1159 3500 
L 1159 2956 
Q 1366 3272 1645 3428 
Q 1925 3584 2291 3584 
Q 2894 3584 3203 3211 
Q 3513 2838 3513 2113 
z
" transform="scale(0.015625)"/>
       <path id="DejaVuSans-20" transform="scale(0.015625)"/>
       <path id="DejaVuSans-77" d="M 269 3500 
L 844 3500 
L 1563 769 
L 2278 3500 
L 2956 3500 
L 3675 769 
L 4391 3500 
L 4966 3500 
L 4050 0 
L 3372 0 
L 2619 2869 
L 1863 0 
L 1184 0 
L 269 3500 
z
" transform="scale(0.015625)"/>
       <path id="DejaVuSans-68" d="M 3513 2113 
L 3513 0 
L 2938 0 
L 2938 2094 
Q 2938 2591 2744 2837 
Q 2550 3084 2163 3084 
Q 1697 3084 1428 2787 
Q 1159 2491 1159 1978 
L 1159 0 
L 581 0 
L 581 4863 
L 1159 4863 
L 1159 2956 
Q 1366 3272 1645 3428 
Q 1925 3584 2291 3584 
Q 2894 3584 3203 3211 
Q 3513 2838 3513 2113 
z
" transform="scale(0.015625)"/>
       <path id="DejaVuSans-64" d="M 2906 2969 
L 2906 4863 
L 3481 4863 
L 3481 0 
L 2906 0 
L 2906 525 
Q 2725 213 2448 61 
Q 2172 -91 1784 -91 
Q 1150 -91 751 415 
Q 353 922 353 1747 
Q 353 2572 751 3078 
Q 1150 3584 1784 3584 
Q 2172 3584 2448 3432 
Q 2725 3281 2906 2969 
z
M 947 1747 
Q 947 1113 1208 752 
Q 1469 391 1925 391 
Q 2381 391 2643 752 
Q 2906 1113 2906 1747 
Q 2906 2381 2643 2742 
Q 2381 3103 1925 3103 
Q 1469 3103 1208 2742 
Q 947 2381 947 1747 
z
" transform="scale(0.015625)"/>
       <path id="DejaVuSans-65" d="M 3597 1894 
L 3597 1613 
L 953 1613 
Q 991 1019 1311 708 
Q 1631 397 2203 397 
Q 2534 397 2845 478 
Q 3156 559 3463 722 
L 3463 178 
Q 3153 47 2828 -22 
Q 2503 -91 2169 -91 
Q 1331 -91 842 396 
Q 353 884 353 1716 
Q 353 2575 817 3079 
Q 1281 3584 2069 3584 
Q 2775 3584 3186 3129 
Q 3597 2675 3597 1894 
z
M 3022 2063 
Q 3016 2534 2758 2815 
Q 2500 3097 2075 3097 
Q 1594 3097 1305 2825 
Q 1016 2553 972 2059 
L 3022 2063 
z
" transform="scale(0.015625)"/>
       <path id="DejaVuSans-63" d="M 3122 3366 
L 3122 2828 
Q 2878 2963 2633 3030 
Q 2388 3097 2138 3097 
Q 1578 3097 1268 2742 
Q 959 2388 959 1747 
Q 959 1106 1268 751 
Q 1578 397 2138 397 
Q 2388 397 2633 464 
Q 2878 531 3122 666 
L 3122 134 
Q 2881 22 2623 -34 
Q 2366 -91 2075 -91 
Q 1284 -91 818 406 
Q 353 903 353 1747 
Q 353 2603 823 3093 
Q 1294 3584 2113 3584 
Q 2378 3584 2631 3529 
Q 2884 3475 3122 3366 
z
" transform="scale(0.015625)"/>
       <path id="DejaVuSans-6b" d="M 581 4863 
L 1159 4863 
L 1159 1991 
L 2875 3500 
L 3609 3500 
L 1753 1863 
L 3688 0 
L 2938 0 
L 1159 1709 
L 1159 0 
L 581 0 
L 581 4863 
z
" transform="scale(0.015625)"/>
      </defs>
      <use xlink:href="#DejaVuSans-50"/>
      <use xlink:href="#DejaVuSans-6f" x="56.677734"/>
      <use xlink:href="#DejaVuSans-73" x="117.859375"/>
      <use xlink:href="#DejaVuSans-69" x="169.958984"/>
      <use xlink:href="#DejaVuSans-74" x="197.742188"/>
      <use xlink:href="#DejaVuSans-69" x="236.951172"/>
      <use xlink:href="#DejaVuSans-6f" x="264.734375"/>
      <use xlink:href="#DejaVuSans-6e" x="325.916016"/>
      <use xlink:href="#DejaVuSans-20" x="389.294922"/>
      <use xlink:href="#DejaVuSans-77" x="421.082031"/>
      <use xlink:href="#DejaVuSans-69" x="502.869141"/>
      <use xlink:href="#DejaVuSans-74" x="530.652344"/>
      <use xlink:href="#DejaVuSans-68" x="569.861328"/>
      <use xlink:href="#DejaVuSans-69" x="633.240234"/>
      <use xlink:href="#DejaVuSans-6e" x="661.023438"/>
      <use xlink:href="#DejaVuSans-20" x="724.402344"/>
      <use xlink:href="#DejaVuSans-64" x="756.189453"/>
      <use xlink:href="#DejaVuSans-65" x="819.666016"/>
      <use xlink:href="#DejaVuSans-63" x="881.189453"/>
      <use xlink:href="#DejaVuSans-6b" x="936.169922"/>
     </g>
    </g>
   </g>
   <g id="matplotlib.axis_2">
    <g id="ytick_1">
     <g id="line2d_6">
      <defs>
       <path id="m5d28c4d323" d="M 0 0 
L -3.5 0 
" style="stroke: #000000; stroke-width: 0.8"/>
      </defs>
      <g>
       <use xlink:href="#m5d28c4d323" x="10.7" y="339.84" style="stroke: #000000; stroke-width: 0.8"/>
      </g>
     </g>
    </g>
    <g id="ytick_2">
     <g id="line2d_7">
      <g>
       <use xlink:href="#m5d28c4d323" x="10.7" y="290.264427" style="stroke: #000000; stroke-width: 0.8"/>
      </g>
     </g>
    </g>
    <g id="ytick_3">
     <g id="line2d_8">
      <g>
       <use xlink:href="#m5d28c4d323" x="10.7" y="240.688855" style="stroke: #000000; stroke-width: 0.8"/>
      </g>
     </g>
    </g>
    <g id="ytick_4">
     <g id="line2d_9">
      <g>
       <use xlink:href="#m5d28c4d323" x="10.7" y="191.113282" style="stroke: #000000; stroke-width: 0.8"/>
      </g>
     </g>
    </g>
    <g id="ytick_5">
     <g id="line2d_10">
      <g>
       <use xlink:href="#m5d28c4d323" x="10.7" y="141.53771" style="stroke: #000000; stroke-width: 0.8"/>
      </g>
     </g>
    </g>
    <g id="ytick_6">
     <g id="line2d_11">
      <g>
       <use xlink:href="#m5d28c4d323" x="10.7" y="91.962137" style="stroke: #000000; stroke-width: 0.8"/>
      </g>
     </g>
    </g>
    <g id="ytick_7">
     <g id="line2d_12">
      <g>
       <use xlink:href="#m5d28c4d323" x="10.7" y="42.386565" style="stroke: #000000; stroke-width: 0.8"/>
      </g>
     </g>
    </g>
   </g>
   <g id="patch_3">
    <path d="M 10.7 339.84 
L 10.7 7.2 
" style="fill: none; stroke: #000000; stroke-width: 0.8; stroke-linejoin: miter; stroke-linecap: square"/>
   </g>
   <g id="patch_4">
    <path d="M 345.5 339.84 
L 345.5 7.2 
" style="fill: none; stroke: #000000; stroke-width: 0.8; stroke-linejoin: miter; stroke-linecap: square"/>
   </g>
   <g id="patch_5">
    <path d="M 10.7 339.84 
L 345.5 339.84 
" style="fill: none; stroke: #000000; stroke-width: 0.8; stroke-linejoin: miter; stroke-linecap: square"/>
   </g>
   <g id="patch_6">
    <path d="M 10.7 7.2 
L 345.5 7.2 
" style="fill: none; stroke: #000000; stroke-width: 0.8; stroke-linejoin: miter; stroke-linecap: square"/>
   </g>
   <g id="legend_1">
    <g id="patch_7">
     <path d="M 360.892 256.68 
L 447.159188 256.68 
Q 449.159188 256.68 449.159188 254.68 
L 449.159188 108.89875 
Q 449.159188 106.89875 447.159188 106.89875 
L 360.892 106.89875 
Q 358.892 106.89875 358.892 108.89875 
L 358.892 254.68 
Q 358.892 256.68 360.892 256.68 
z
" style="fill: #ffffff; opacity: 0.8"/>
    </g>
    <g id="patch_8">
     <path d="M 362.892 118.497187 
L 382.892 118.497187 
L 382.892 111.497187 
L 362.892 111.497187 
z
" style="fill: #1a1a1a; stroke: #000000; stroke-width: 0.8; stroke-linejoin: miter"/>
    </g>
    <g id="text_7">
     <!-- Shuffle: 1 -->
     <g transform="translate(390.892 118.497187) scale(0.1 -0.1)">
      <defs>
       <path id="DejaVuSans-53" d="M 3425 4513 
L 3425 3897 
Q 3066 4069 2747 4153 
Q 2428 4238 2131 4238 
Q 1616 4238 1336 4038 
Q 1056 3838 1056 3469 
Q 1056 3159 1242 3001 
Q 1428 2844 1947 2747 
L 2328 2669 
Q 3034 2534 3370 2195 
Q 3706 1856 3706 1288 
Q 3706 609 3251 259 
Q 2797 -91 1919 -91 
Q 1588 -91 1214 -16 
Q 841 59 441 206 
L 441 856 
Q 825 641 1194 531 
Q 1563 422 1919 422 
Q 2459 422 2753 634 
Q 3047 847 3047 1241 
Q 3047 1584 2836 1778 
Q 2625 1972 2144 2069 
L 1759 2144 
Q 1053 2284 737 2584 
Q 422 2884 422 3419 
Q 422 4038 858 4394 
Q 1294 4750 2059 4750 
Q 2388 4750 2728 4690 
Q 3069 4631 3425 4513 
z
" transform="scale(0.015625)"/>
       <path id="DejaVuSans-75" d="M 544 1381 
L 544 3500 
L 1119 3500 
L 1119 1403 
Q 1119 906 1312 657 
Q 1506 409 1894 409 
Q 2359 409 2629 706 
Q 2900 1003 2900 1516 
L 2900 3500 
L 3475 3500 
L 3475 0 
L 2900 0 
L 2900 538 
Q 2691 219 2414 64 
Q 2138 -91 1772 -91 
Q 1169 -91 856 284 
Q 544 659 544 1381 
z
M 1991 3584 
L 1991 3584 
z
" transform="scale(0.015625)"/>
       <path id="DejaVuSans-66" d="M 2375 4863 
L 2375 4384 
L 1825 4384 
Q 1516 4384 1395 4259 
Q 1275 4134 1275 3809 
L 1275 3500 
L 2222 3500 
L 2222 3053 
L 1275 3053 
L 1275 0 
L 697 0 
L 697 3053 
L 147 3053 
L 147 3500 
L 697 3500 
L 697 3744 
Q 697 4328 969 4595 
Q 1241 4863 1831 4863 
L 2375 4863 
z
" transform="scale(0.015625)"/>
       <path id="DejaVuSans-6c" d="M 603 4863 
L 1178 4863 
L 1178 0 
L 603 0 
L 603 4863 
z
" transform="scale(0.015625)"/>
       <path id="DejaVuSans-3a" d="M 750 794 
L 1409 794 
L 1409 0 
L 750 0 
L 750 794 
z
M 750 3309 
L 1409 3309 
L 1409 2516 
L 750 2516 
L 750 3309 
z
" transform="scale(0.015625)"/>
      </defs>
      <use xlink:href="#DejaVuSans-53"/>
      <use xlink:href="#DejaVuSans-68" x="63.476562"/>
      <use xlink:href="#DejaVuSans-75" x="126.855469"/>
      <use xlink:href="#DejaVuSans-66" x="190.234375"/>
      <use xlink:href="#DejaVuSans-66" x="225.439453"/>
      <use xlink:href="#DejaVuSans-6c" x="260.644531"/>
      <use xlink:href="#DejaVuSans-65" x="288.427734"/>
      <use xlink:href="#DejaVuSans-3a" x="349.951172"/>
      <use xlink:href="#DejaVuSans-20" x="383.642578"/>
      <use xlink:href="#DejaVuSans-31" x="415.429688"/>
     </g>
    </g>
    <g id="patch_9">
     <path d="M 362.892 133.175312 
L 382.892 133.175312 
L 382.892 126.175312 
L 362.892 126.175312 
z
" style="fill: #333333; stroke: #000000; stroke-width: 0.8; stroke-linejoin: miter"/>
    </g>
    <g id="text_8">
     <!-- Shuffle: 2 -->
     <g transform="translate(390.892 133.175312) scale(0.1 -0.1)">
      <use xlink:href="#DejaVuSans-53"/>
      <use xlink:href="#DejaVuSans-68" x="63.476562"/>
      <use xlink:href="#DejaVuSans-75" x="126.855469"/>
      <use xlink:href="#DejaVuSans-66" x="190.234375"/>
      <use xlink:href="#DejaVuSans-66" x="225.439453"/>
      <use xlink:href="#DejaVuSans-6c" x="260.644531"/>
      <use xlink:href="#DejaVuSans-65" x="288.427734"/>
      <use xlink:href="#DejaVuSans-3a" x="349.951172"/>
      <use xlink:href="#DejaVuSans-20" x="383.642578"/>
      <use xlink:href="#DejaVuSans-32" x="415.429688"/>
     </g>
    </g>
    <g id="patch_10">
     <path d="M 362.892 147.853437 
L 382.892 147.853437 
L 382.892 140.853437 
L 362.892 140.853437 
z
" style="fill: #4c4c4c; stroke: #000000; stroke-width: 0.8; stroke-linejoin: miter"/>
    </g>
    <g id="text_9">
     <!-- Shuffle: 3 -->
     <g transform="translate(390.892 147.853437) scale(0.1 -0.1)">
      <defs>
       <path id="DejaVuSans-33" d="M 2597 2516 
Q 3050 2419 3304 2112 
Q 3559 1806 3559 1356 
Q 3559 666 3084 287 
Q 2609 -91 1734 -91 
Q 1441 -91 1130 -33 
Q 819 25 488 141 
L 488 750 
Q 750 597 1062 519 
Q 1375 441 1716 441 
Q 2309 441 2620 675 
Q 2931 909 2931 1356 
Q 2931 1769 2642 2001 
Q 2353 2234 1838 2234 
L 1294 2234 
L 1294 2753 
L 1863 2753 
Q 2328 2753 2575 2939 
Q 2822 3125 2822 3475 
Q 2822 3834 2567 4026 
Q 2313 4219 1838 4219 
Q 1578 4219 1281 4162 
Q 984 4106 628 3988 
L 628 4550 
Q 988 4650 1302 4700 
Q 1616 4750 1894 4750 
Q 2613 4750 3031 4423 
Q 3450 4097 3450 3541 
Q 3450 3153 3228 2886 
Q 3006 2619 2597 2516 
z
" transform="scale(0.015625)"/>
      </defs>
      <use xlink:href="#DejaVuSans-53"/>
      <use xlink:href="#DejaVuSans-68" x="63.476562"/>
      <use xlink:href="#DejaVuSans-75" x="126.855469"/>
      <use xlink:href="#DejaVuSans-66" x="190.234375"/>
      <use xlink:href="#DejaVuSans-66" x="225.439453"/>
      <use xlink:href="#DejaVuSans-6c" x="260.644531"/>
      <use xlink:href="#DejaVuSans-65" x="288.427734"/>
      <use xlink:href="#DejaVuSans-3a" x="349.951172"/>
      <use xlink:href="#DejaVuSans-20" x="383.642578"/>
      <use xlink:href="#DejaVuSans-33" x="415.429688"/>
     </g>
    </g>
    <g id="patch_11">
     <path d="M 362.892 162.531562 
L 382.892 162.531562 
L 382.892 155.531562 
L 362.892 155.531562 
z
" style="fill: #666666; stroke: #000000; stroke-width: 0.8; stroke-linejoin: miter"/>
    </g>
    <g id="text_10">
     <!-- Shuffle: 4 -->
     <g transform="translate(390.892 162.531562) scale(0.1 -0.1)">
      <use xlink:href="#DejaVuSans-53"/>
      <use xlink:href="#DejaVuSans-68" x="63.476562"/>
      <use xlink:href="#DejaVuSans-75" x="126.855469"/>
      <use xlink:href="#DejaVuSans-66" x="190.234375"/>
      <use xlink:href="#DejaVuSans-66" x="225.439453"/>
      <use xlink:href="#DejaVuSans-6c" x="260.644531"/>
      <use xlink:href="#DejaVuSans-65" x="288.427734"/>
      <use xlink:href="#DejaVuSans-3a" x="349.951172"/>
      <use xlink:href="#DejaVuSans-20" x="383.642578"/>
      <use xlink:href="#DejaVuSans-34" x="415.429688"/>
     </g>
    </g>
    <g id="patch_12">
     <path d="M 362.892 177.209687 
L 382.892 177.209687 
L 382.892 170.209687 
L 362.892 170.209687 
z
" style="fill: #808080; stroke: #000000; stroke-width: 0.8; stroke-linejoin: miter"/>
    </g>
    <g id="text_11">
     <!-- Shuffle: 5 -->
     <g transform="translate(390.892 177.209687) scale(0.1 -0.1)">
      <defs>
       <path id="DejaVuSans-35" d="M 691 4666 
L 3169 4666 
L 3169 4134 
L 1269 4134 
L 1269 2991 
Q 1406 3038 1543 3061 
Q 1681 3084 1819 3084 
Q 2600 3084 3056 2656 
Q 3513 2228 3513 1497 
Q 3513 744 3044 326 
Q 2575 -91 1722 -91 
Q 1428 -91 1123 -41 
Q 819 9 494 109 
L 494 744 
Q 775 591 1075 516 
Q 1375 441 1709 441 
Q 2250 441 2565 725 
Q 2881 1009 2881 1497 
Q 2881 1984 2565 2268 
Q 2250 2553 1709 2553 
Q 1456 2553 1204 2497 
Q 953 2441 691 2322 
L 691 4666 
z
" transform="scale(0.015625)"/>
      </defs>
      <use xlink:href="#DejaVuSans-53"/>
      <use xlink:href="#DejaVuSans-68" x="63.476562"/>
      <use xlink:href="#DejaVuSans-75" x="126.855469"/>
      <use xlink:href="#DejaVuSans-66" x="190.234375"/>
      <use xlink:href="#DejaVuSans-66" x="225.439453"/>
      <use xlink:href="#DejaVuSans-6c" x="260.644531"/>
      <use xlink:href="#DejaVuSans-65" x="288.427734"/>
      <use xlink:href="#DejaVuSans-3a" x="349.951172"/>
      <use xlink:href="#DejaVuSans-20" x="383.642578"/>
      <use xlink:href="#DejaVuSans-35" x="415.429688"/>
     </g>
    </g>
    <g id="patch_13">
     <path d="M 362.892 191.887812 
L 382.892 191.887812 
L 382.892 184.887812 
L 362.892 184.887812 
z
" style="fill: #999999; stroke: #000000; stroke-width: 0.8; stroke-linejoin: miter"/>
    </g>
    <g id="text_12">
     <!-- Shuffle: 6 -->
     <g transform="translate(390.892 191.887812) scale(0.1 -0.1)">
      <use xlink:href="#DejaVuSans-53"/>
      <use xlink:href="#DejaVuSans-68" x="63.476562"/>
      <use xlink:href="#DejaVuSans-75" x="126.855469"/>
      <use xlink:href="#DejaVuSans-66" x="190.234375"/>
      <use xlink:href="#DejaVuSans-66" x="225.439453"/>
      <use xlink:href="#DejaVuSans-6c" x="260.644531"/>
      <use xlink:href="#DejaVuSans-65" x="288.427734"/>
      <use xlink:href="#DejaVuSans-3a" x="349.951172"/>
      <use xlink:href="#DejaVuSans-20" x="383.642578"/>
      <use xlink:href="#DejaVuSans-36" x="415.429688"/>
     </g>
    </g>
    <g id="patch_14">
     <path d="M 362.892 206.565937 
L 382.892 206.565937 
L 382.892 199.565937 
L 362.892 199.565937 
z
" style="fill: #b2b2b2; stroke: #000000; stroke-width: 0.8; stroke-linejoin: miter"/>
    </g>
    <g id="text_13">
     <!-- Shuffle: 7 -->
     <g transform="translate(390.892 206.565937) scale(0.1 -0.1)">
      <defs>
       <path id="DejaVuSans-37" d="M 525 4666 
L 3525 4666 
L 3525 4397 
L 1831 0 
L 1172 0 
L 2766 4134 
L 525 4134 
L 525 4666 
z
" transform="scale(0.015625)"/>
      </defs>
      <use xlink:href="#DejaVuSans-53"/>
      <use xlink:href="#DejaVuSans-68" x="63.476562"/>
      <use xlink:href="#DejaVuSans-75" x="126.855469"/>
      <use xlink:href="#DejaVuSans-66" x="190.234375"/>
      <use xlink:href="#DejaVuSans-66" x="225.439453"/>
      <use xlink:href="#DejaVuSans-6c" x="260.644531"/>
      <use xlink:href="#DejaVuSans-65" x="288.427734"/>
      <use xlink:href="#DejaVuSans-3a" x="349.951172"/>
      <use xlink:href="#DejaVuSans-20" x="383.642578"/>
      <use xlink:href="#DejaVuSans-37" x="415.429688"/>
     </g>
    </g>
    <g id="patch_15">
     <path d="M 362.892 221.244062 
L 382.892 221.244062 
L 382.892 214.244062 
L 362.892 214.244062 
z
" style="fill: #cccccc; stroke: #000000; stroke-width: 0.8; stroke-linejoin: miter"/>
    </g>
    <g id="text_14">
     <!-- Shuffle: 8 -->
     <g transform="translate(390.892 221.244062) scale(0.1 -0.1)">
      <use xlink:href="#DejaVuSans-53"/>
      <use xlink:href="#DejaVuSans-68" x="63.476562"/>
      <use xlink:href="#DejaVuSans-75" x="126.855469"/>
      <use xlink:href="#DejaVuSans-66" x="190.234375"/>
      <use xlink:href="#DejaVuSans-66" x="225.439453"/>
      <use xlink:href="#DejaVuSans-6c" x="260.644531"/>
      <use xlink:href="#DejaVuSans-65" x="288.427734"/>
      <use xlink:href="#DejaVuSans-3a" x="349.951172"/>
      <use xlink:href="#DejaVuSans-20" x="383.642578"/>
      <use xlink:href="#DejaVuSans-38" x="415.429688"/>
     </g>
    </g>
    <g id="patch_16">
     <path d="M 362.892 235.922187 
L 382.892 235.922187 
L 382.892 228.922187 
L 362.892 228.922187 
z
" style="fill: #e6e6e6; stroke: #000000; stroke-width: 0.8; stroke-linejoin: miter"/>
    </g>
    <g id="text_15">
     <!-- Shuffle: 9 -->
     <g transform="translate(390.892 235.922187) scale(0.1 -0.1)">
      <defs>
       <path id="DejaVuSans-39" d="M 703 97 
L 703 672 
Q 941 559 1184 500 
Q 1428 441 1663 441 
Q 2288 441 2617 861 
Q 2947 1281 2994 2138 
Q 2813 1869 2534 1725 
Q 2256 1581 1919 1581 
Q 1219 1581 811 2004 
Q 403 2428 403 3163 
Q 403 3881 828 4315 
Q 1253 4750 1959 4750 
Q 2769 4750 3195 4129 
Q 3622 3509 3622 2328 
Q 3622 1225 3098 567 
Q 2575 -91 1691 -91 
Q 1453 -91 1209 -44 
Q 966 3 703 97 
z
M 1959 2075 
Q 2384 2075 2632 2365 
Q 2881 2656 2881 3163 
Q 2881 3666 2632 3958 
Q 2384 4250 1959 4250 
Q 1534 4250 1286 3958 
Q 1038 3666 1038 3163 
Q 1038 2656 1286 2365 
Q 1534 2075 1959 2075 
z
" transform="scale(0.015625)"/>
      </defs>
      <use xlink:href="#DejaVuSans-53"/>
      <use xlink:href="#DejaVuSans-68" x="63.476562"/>
      <use xlink:href="#DejaVuSans-75" x="126.855469"/>
      <use xlink:href="#DejaVuSans-66" x="190.234375"/>
      <use xlink:href="#DejaVuSans-66" x="225.439453"/>
      <use xlink:href="#DejaVuSans-6c" x="260.644531"/>
      <use xlink:href="#DejaVuSans-65" x="288.427734"/>
      <use xlink:href="#DejaVuSans-3a" x="349.951172"/>
      <use xlink:href="#DejaVuSans-20" x="383.642578"/>
      <use xlink:href="#DejaVuSans-39" x="415.429688"/>
     </g>
    </g>
    <g id="patch_17">
     <path d="M 362.892 250.600312 
L 382.892 250.600312 
L 382.892 243.600312 
L 362.892 243.600312 
z
" style="fill: #ffffff; stroke: #000000; stroke-width: 0.8; stroke-linejoin: miter"/>
    </g>
    <g id="text_16">
     <!-- Shuffle: 10 -->
     <g transform="translate(390.892 250.600312) scale(0.1 -0.1)">
      <use xlink:href="#DejaVuSans-53"/>
      <use xlink:href="#DejaVuSans-68" x="63.476562"/>
      <use xlink:href="#DejaVuSans-75" x="126.855469"/>
      <use xlink:href="#DejaVuSans-66" x="190.234375"/>
      <use xlink:href="#DejaVuSans-66" x="225.439453"/>
      <use xlink:href="#DejaVuSans-6c" x="260.644531"/>
      <use xlink:href="#DejaVuSans-65" x="288.427734"/>
      <use xlink:href="#DejaVuSans-3a" x="349.951172"/>
      <use xlink:href="#DejaVuSans-20" x="383.642578"/>
      <use xlink:href="#DejaVuSans-31" x="415.429688"/>
      <use xlink:href="#DejaVuSans-30" x="479.052734"/>
     </g>
    </g>
   </g>
  </g>
 </g>
 <defs>
  <clipPath id="pdb95f2ab37">
   <rect x="10.7" y="7.2" width="334.8" height="332.64"/>
  </clipPath>
 </defs>
</svg>
